%TF.GenerationSoftware,KiCad,Pcbnew,7.0.11*%
%TF.CreationDate,2025-03-27T12:24:41+02:00*%
%TF.ProjectId,Project,50726f6a-6563-4742-9e6b-696361645f70,rev?*%
%TF.SameCoordinates,Original*%
%TF.FileFunction,Copper,L1,Top*%
%TF.FilePolarity,Positive*%
%FSLAX46Y46*%
G04 Gerber Fmt 4.6, Leading zero omitted, Abs format (unit mm)*
G04 Created by KiCad (PCBNEW 7.0.11) date 2025-03-27 12:24:41*
%MOMM*%
%LPD*%
G01*
G04 APERTURE LIST*
G04 Aperture macros list*
%AMRoundRect*
0 Rectangle with rounded corners*
0 $1 Rounding radius*
0 $2 $3 $4 $5 $6 $7 $8 $9 X,Y pos of 4 corners*
0 Add a 4 corners polygon primitive as box body*
4,1,4,$2,$3,$4,$5,$6,$7,$8,$9,$2,$3,0*
0 Add four circle primitives for the rounded corners*
1,1,$1+$1,$2,$3*
1,1,$1+$1,$4,$5*
1,1,$1+$1,$6,$7*
1,1,$1+$1,$8,$9*
0 Add four rect primitives between the rounded corners*
20,1,$1+$1,$2,$3,$4,$5,0*
20,1,$1+$1,$4,$5,$6,$7,0*
20,1,$1+$1,$6,$7,$8,$9,0*
20,1,$1+$1,$8,$9,$2,$3,0*%
G04 Aperture macros list end*
%TA.AperFunction,SMDPad,CuDef*%
%ADD10RoundRect,0.100000X-0.687500X-0.100000X0.687500X-0.100000X0.687500X0.100000X-0.687500X0.100000X0*%
%TD*%
%TA.AperFunction,HeatsinkPad*%
%ADD11R,3.400000X5.000000*%
%TD*%
%TA.AperFunction,HeatsinkPad*%
%ADD12C,0.500000*%
%TD*%
%TA.AperFunction,SMDPad,CuDef*%
%ADD13RoundRect,0.150000X-0.512500X-0.150000X0.512500X-0.150000X0.512500X0.150000X-0.512500X0.150000X0*%
%TD*%
%TA.AperFunction,SMDPad,CuDef*%
%ADD14RoundRect,0.125000X-0.537500X-0.125000X0.537500X-0.125000X0.537500X0.125000X-0.537500X0.125000X0*%
%TD*%
%TA.AperFunction,SMDPad,CuDef*%
%ADD15C,1.500000*%
%TD*%
%TA.AperFunction,ComponentPad*%
%ADD16R,2.400000X2.400000*%
%TD*%
%TA.AperFunction,ComponentPad*%
%ADD17C,2.400000*%
%TD*%
%TA.AperFunction,ComponentPad*%
%ADD18C,2.250000*%
%TD*%
%TA.AperFunction,SMDPad,CuDef*%
%ADD19RoundRect,0.250000X-0.312500X-0.625000X0.312500X-0.625000X0.312500X0.625000X-0.312500X0.625000X0*%
%TD*%
%TA.AperFunction,SMDPad,CuDef*%
%ADD20RoundRect,0.200000X-0.200000X-0.275000X0.200000X-0.275000X0.200000X0.275000X-0.200000X0.275000X0*%
%TD*%
%TA.AperFunction,SMDPad,CuDef*%
%ADD21RoundRect,0.250000X-0.262500X-0.450000X0.262500X-0.450000X0.262500X0.450000X-0.262500X0.450000X0*%
%TD*%
%TA.AperFunction,SMDPad,CuDef*%
%ADD22RoundRect,0.150000X-0.587500X-0.150000X0.587500X-0.150000X0.587500X0.150000X-0.587500X0.150000X0*%
%TD*%
%TA.AperFunction,SMDPad,CuDef*%
%ADD23RoundRect,0.218750X-0.218750X-0.381250X0.218750X-0.381250X0.218750X0.381250X-0.218750X0.381250X0*%
%TD*%
%TA.AperFunction,SMDPad,CuDef*%
%ADD24R,2.350000X3.500000*%
%TD*%
%TA.AperFunction,ComponentPad*%
%ADD25RoundRect,0.250000X-0.350000X-0.625000X0.350000X-0.625000X0.350000X0.625000X-0.350000X0.625000X0*%
%TD*%
%TA.AperFunction,ComponentPad*%
%ADD26O,1.200000X1.750000*%
%TD*%
%TA.AperFunction,SMDPad,CuDef*%
%ADD27R,0.600000X1.140000*%
%TD*%
%TA.AperFunction,SMDPad,CuDef*%
%ADD28R,0.300000X1.140000*%
%TD*%
%TA.AperFunction,ComponentPad*%
%ADD29O,0.900000X2.000000*%
%TD*%
%TA.AperFunction,ComponentPad*%
%ADD30O,0.900000X1.700000*%
%TD*%
%TA.AperFunction,SMDPad,CuDef*%
%ADD31R,3.150000X1.000000*%
%TD*%
%TA.AperFunction,SMDPad,CuDef*%
%ADD32R,1.250000X0.600000*%
%TD*%
%TA.AperFunction,SMDPad,CuDef*%
%ADD33R,1.525000X0.700000*%
%TD*%
%TA.AperFunction,SMDPad,CuDef*%
%ADD34R,2.513000X3.402000*%
%TD*%
%TA.AperFunction,SMDPad,CuDef*%
%ADD35R,1.525000X0.650000*%
%TD*%
%TA.AperFunction,SMDPad,CuDef*%
%ADD36R,2.600000X3.100000*%
%TD*%
%TA.AperFunction,SMDPad,CuDef*%
%ADD37R,1.400000X0.700000*%
%TD*%
%TA.AperFunction,SMDPad,CuDef*%
%ADD38R,2.300000X3.200000*%
%TD*%
%TA.AperFunction,SMDPad,CuDef*%
%ADD39RoundRect,0.250000X-1.000000X-0.650000X1.000000X-0.650000X1.000000X0.650000X-1.000000X0.650000X0*%
%TD*%
%TA.AperFunction,SMDPad,CuDef*%
%ADD40RoundRect,0.250000X-0.325000X-0.650000X0.325000X-0.650000X0.325000X0.650000X-0.325000X0.650000X0*%
%TD*%
%TA.AperFunction,SMDPad,CuDef*%
%ADD41RoundRect,0.225000X-0.225000X-0.250000X0.225000X-0.250000X0.225000X0.250000X-0.225000X0.250000X0*%
%TD*%
%TA.AperFunction,SMDPad,CuDef*%
%ADD42RoundRect,0.140000X-0.140000X-0.170000X0.140000X-0.170000X0.140000X0.170000X-0.140000X0.170000X0*%
%TD*%
G04 APERTURE END LIST*
D10*
%TO.P,U5,1,nSLEEP*%
%TO.N,/Switch Out*%
X120087500Y-89315000D03*
%TO.P,U5,2,AOUT1*%
%TO.N,MOTOR3_A_OUT*%
X120087500Y-89965000D03*
%TO.P,U5,3,AISEN*%
%TO.N,Net-(U5B-AISEN)*%
X120087500Y-90615000D03*
%TO.P,U5,4,AOUT2*%
%TO.N,MOTOR3_B_OUT*%
X120087500Y-91265000D03*
%TO.P,U5,5,BOUT2*%
%TO.N,Motor4_B_OUT*%
X120087500Y-91915000D03*
%TO.P,U5,6,BISEN*%
%TO.N,Net-(U5B-BISEN)*%
X120087500Y-92565000D03*
%TO.P,U5,7,BOUT1*%
%TO.N,Motor4_A_OUT*%
X120087500Y-93215000D03*
%TO.P,U5,8,nFAULT*%
%TO.N,unconnected-(U5B-nFAULT-Pad8)*%
X120087500Y-93865000D03*
%TO.P,U5,9,BIN1*%
%TO.N,MOTOR4_CTRL1*%
X125812500Y-93865000D03*
%TO.P,U5,10,BIN2*%
%TO.N,MOTOR4_CTRL2*%
X125812500Y-93215000D03*
%TO.P,U5,11,VCP*%
%TO.N,Net-(U5B-VCP)*%
X125812500Y-92565000D03*
%TO.P,U5,12,VM*%
%TO.N,Monitor_out*%
X125812500Y-91915000D03*
%TO.P,U5,13,GND*%
%TO.N,GND*%
X125812500Y-91265000D03*
%TO.P,U5,14,VINT*%
%TO.N,Net-(U5B-VINT)*%
X125812500Y-90615000D03*
%TO.P,U5,15,AIN2*%
%TO.N,MOTOR3_CTRL2*%
X125812500Y-89965000D03*
%TO.P,U5,16,AIN1*%
%TO.N,MOTOR3_CTRL1*%
X125812500Y-89315000D03*
D11*
%TO.P,U5,17,GND(PPAD)*%
%TO.N,GND*%
X122950000Y-91590000D03*
D12*
X122200000Y-90090000D03*
X123700000Y-90090000D03*
X122200000Y-91590000D03*
X123700000Y-91590000D03*
X122200000Y-93090000D03*
X123700000Y-93090000D03*
%TD*%
D10*
%TO.P,U4,1,nSLEEP*%
%TO.N,/Switch Out*%
X120087500Y-82675000D03*
%TO.P,U4,2,AOUT1*%
%TO.N,MOTOR1_A_OUT*%
X120087500Y-83325000D03*
%TO.P,U4,3,AISEN*%
%TO.N,Net-(U4-AISEN)*%
X120087500Y-83975000D03*
%TO.P,U4,4,AOUT2*%
%TO.N,MOTOR1_B_OUT*%
X120087500Y-84625000D03*
%TO.P,U4,5,BOUT2*%
%TO.N,Motor2_B_OUT*%
X120087500Y-85275000D03*
%TO.P,U4,6,BISEN*%
%TO.N,Net-(U4-BISEN)*%
X120087500Y-85925000D03*
%TO.P,U4,7,BOUT1*%
%TO.N,Motor2_A_OUT*%
X120087500Y-86575000D03*
%TO.P,U4,8,nFAULT*%
%TO.N,unconnected-(U4-nFAULT-Pad8)*%
X120087500Y-87225000D03*
%TO.P,U4,9,BIN1*%
%TO.N,MOTOR2_CTRL1*%
X125812500Y-87225000D03*
%TO.P,U4,10,BIN2*%
%TO.N,MOTOR2_CTRL2*%
X125812500Y-86575000D03*
%TO.P,U4,11,VCP*%
%TO.N,Net-(U4-VCP)*%
X125812500Y-85925000D03*
%TO.P,U4,12,VM*%
%TO.N,Monitor_out*%
X125812500Y-85275000D03*
%TO.P,U4,13,GND*%
%TO.N,GND*%
X125812500Y-84625000D03*
%TO.P,U4,14,VINT*%
%TO.N,Net-(U4-VINT)*%
X125812500Y-83975000D03*
%TO.P,U4,15,AIN2*%
%TO.N,MOTOR1_CTRL2*%
X125812500Y-83325000D03*
%TO.P,U4,16,AIN1*%
%TO.N,MOTOR1_CTRL1*%
X125812500Y-82675000D03*
D11*
%TO.P,U4,17,GND(PPAD)*%
%TO.N,GND*%
X122950000Y-84950000D03*
D12*
X122200000Y-83450000D03*
X123700000Y-83450000D03*
X122200000Y-84950000D03*
X123700000Y-84950000D03*
X122200000Y-86450000D03*
X123700000Y-86450000D03*
%TD*%
D13*
%TO.P,U3,1,SW*%
%TO.N,Net-(U3-SW)*%
X114307500Y-112525000D03*
%TO.P,U3,2,GND*%
%TO.N,GND*%
X114307500Y-113475000D03*
%TO.P,U3,3,FB*%
%TO.N,Net-(U3-FB)*%
X114307500Y-114425000D03*
%TO.P,U3,4,EN*%
%TO.N,/Switch Out*%
X116582500Y-114425000D03*
%TO.P,U3,5,IN*%
%TO.N,Monitor_out*%
X116582500Y-113475000D03*
%TO.P,U3,6,NC*%
%TO.N,unconnected-(U3-NC-Pad6)*%
X116582500Y-112525000D03*
%TD*%
%TO.P,U2,1,IN*%
%TO.N,Monitor_out*%
X114307500Y-107900000D03*
%TO.P,U2,2,GND*%
%TO.N,GND*%
X114307500Y-108850000D03*
%TO.P,U2,3,EN*%
%TO.N,/Switch Out*%
X114307500Y-109800000D03*
%TO.P,U2,4,NC*%
%TO.N,unconnected-(U2-NC-Pad4)*%
X116582500Y-109800000D03*
%TO.P,U2,5,OUT*%
%TO.N,3V3 Out*%
X116582500Y-107900000D03*
%TD*%
D14*
%TO.P,U1,1,IN+*%
%TO.N,Bat_out*%
X122377500Y-76670000D03*
%TO.P,U1,2,IN-*%
%TO.N,Monitor_out*%
X122377500Y-77320000D03*
%TO.P,U1,3,GND*%
%TO.N,GND*%
X122377500Y-77970000D03*
%TO.P,U1,4,VS*%
%TO.N,3V3 Out*%
X122377500Y-78620000D03*
%TO.P,U1,5,SCL*%
%TO.N,I2C1_SCL*%
X124652500Y-78620000D03*
%TO.P,U1,6,SDA*%
%TO.N,I2C1_SDA*%
X124652500Y-77970000D03*
%TO.P,U1,7,A0*%
%TO.N,3V3 Out*%
X124652500Y-77320000D03*
%TO.P,U1,8,A1*%
%TO.N,GND*%
X124652500Y-76670000D03*
%TD*%
D15*
%TO.P,TP29,1,1*%
%TO.N,GND*%
X102245000Y-76305000D03*
%TD*%
%TO.P,TP28,1,1*%
%TO.N,+5V*%
X102245000Y-72755000D03*
%TD*%
%TO.P,TP27,1,1*%
%TO.N,+5V*%
X102245000Y-69205000D03*
%TD*%
%TO.P,TP26,1,1*%
%TO.N,Net-(IC3-VSENSE)*%
X102245000Y-65655000D03*
%TD*%
%TO.P,TP25,1,1*%
%TO.N,GND*%
X102245000Y-62105000D03*
%TD*%
%TO.P,TP24,1,1*%
%TO.N,5V Out*%
X98695000Y-79855000D03*
%TD*%
%TO.P,TP23,1,1*%
%TO.N,Net-(U3-SW)*%
X98695000Y-76305000D03*
%TD*%
%TO.P,TP22,1,1*%
%TO.N,GND*%
X98695000Y-72755000D03*
%TD*%
%TO.P,TP21,1,1*%
%TO.N,GND*%
X98695000Y-69205000D03*
%TD*%
%TO.P,TP20,1,1*%
%TO.N,Net-(U4-BISEN)*%
X98695000Y-65655000D03*
%TD*%
%TO.P,TP19,1,1*%
%TO.N,Net-(U4-AISEN)*%
X98695000Y-62105000D03*
%TD*%
%TO.P,TP18,1,1*%
%TO.N,GND*%
X95145000Y-79855000D03*
%TD*%
%TO.P,TP17,1,1*%
%TO.N,GND*%
X95145000Y-76305000D03*
%TD*%
%TO.P,TP16,1,1*%
%TO.N,Net-(U5B-BISEN)*%
X95145000Y-72755000D03*
%TD*%
%TO.P,TP15,1,1*%
%TO.N,Net-(U5B-AISEN)*%
X95145000Y-69205000D03*
%TD*%
%TO.P,TP14,1,1*%
%TO.N,Net-(IC2-R1{slash}C1)*%
X95145000Y-65655000D03*
%TD*%
%TO.P,TP13,1,1*%
%TO.N,CTRL_EXT_LOAD1*%
X95145000Y-62105000D03*
%TD*%
%TO.P,TP12,1,1*%
%TO.N,CTRL_EXT_LOAD2*%
X91595000Y-79855000D03*
%TD*%
%TO.P,TP11,1,1*%
%TO.N,Net-(IC6-R1{slash}C1)*%
X91595000Y-76305000D03*
%TD*%
%TO.P,TP10,1,1*%
%TO.N,Net-(IC2-R2)*%
X91595000Y-72755000D03*
%TD*%
%TO.P,TP9,1,1*%
%TO.N,GND*%
X91595000Y-69205000D03*
%TD*%
%TO.P,TP8,1,1*%
%TO.N,Net-(IC6-R2)*%
X91595000Y-65655000D03*
%TD*%
%TO.P,TP7,1,1*%
%TO.N,GND*%
X91595000Y-62105000D03*
%TD*%
%TO.P,TP6,1,1*%
%TO.N,Monitor_out*%
X88045000Y-79855000D03*
%TD*%
%TO.P,TP5,1,1*%
%TO.N,Bat_out*%
X88045000Y-76305000D03*
%TD*%
%TO.P,TP4,1,1*%
%TO.N,Net-(Q1-D)*%
X88045000Y-72755000D03*
%TD*%
%TO.P,TP3,1,1*%
%TO.N,Net-(IC4-PROG)*%
X88045000Y-69205000D03*
%TD*%
%TO.P,TP2,1,1*%
%TO.N,GND*%
X88045000Y-65655000D03*
%TD*%
%TO.P,TP1,1,1*%
%TO.N,Net-(IC4-PROG)*%
X88045000Y-62105000D03*
%TD*%
D16*
%TO.P,S1,1,1*%
%TO.N,Bat_out*%
X90795000Y-96330000D03*
D17*
%TO.P,S1,2,2*%
%TO.N,Battery*%
X95595000Y-96330000D03*
%TO.P,S1,3,3*%
%TO.N,Charging*%
X100395000Y-96330000D03*
D18*
%TO.P,S1,4,MH1*%
%TO.N,GND*%
X88945000Y-87130000D03*
%TO.P,S1,5,MH2*%
X102245000Y-87130000D03*
%TD*%
D19*
%TO.P,R28,1*%
%TO.N,Monitor_out*%
X87612500Y-113885000D03*
%TO.P,R28,2*%
%TO.N,Bat_out*%
X90537500Y-113885000D03*
%TD*%
%TO.P,R27,1*%
%TO.N,Monitor_out*%
X87612500Y-110595000D03*
%TO.P,R27,2*%
%TO.N,Bat_out*%
X90537500Y-110595000D03*
%TD*%
%TO.P,R26,1*%
%TO.N,Monitor_out*%
X87612500Y-107305000D03*
%TO.P,R26,2*%
%TO.N,Bat_out*%
X90537500Y-107305000D03*
%TD*%
D20*
%TO.P,R25,1*%
%TO.N,GND*%
X113220000Y-71625000D03*
%TO.P,R25,2*%
%TO.N,Net-(U5B-BISEN)*%
X114870000Y-71625000D03*
%TD*%
%TO.P,R24,1*%
%TO.N,GND*%
X113220000Y-69115000D03*
%TO.P,R24,2*%
%TO.N,Net-(U5B-BISEN)*%
X114870000Y-69115000D03*
%TD*%
%TO.P,R23,1*%
%TO.N,GND*%
X113220000Y-66605000D03*
%TO.P,R23,2*%
%TO.N,Net-(U5B-BISEN)*%
X114870000Y-66605000D03*
%TD*%
%TO.P,R22,1*%
%TO.N,GND*%
X113220000Y-64095000D03*
%TO.P,R22,2*%
%TO.N,Net-(U5B-AISEN)*%
X114870000Y-64095000D03*
%TD*%
%TO.P,R21,1*%
%TO.N,GND*%
X113220000Y-61585000D03*
%TO.P,R21,2*%
%TO.N,Net-(U5B-AISEN)*%
X114870000Y-61585000D03*
%TD*%
%TO.P,R20,1*%
%TO.N,GND*%
X109210000Y-76645000D03*
%TO.P,R20,2*%
%TO.N,Net-(U5B-AISEN)*%
X110860000Y-76645000D03*
%TD*%
%TO.P,R19,1*%
%TO.N,GND*%
X109210000Y-74135000D03*
%TO.P,R19,2*%
%TO.N,Net-(U4-BISEN)*%
X110860000Y-74135000D03*
%TD*%
%TO.P,R18,1*%
%TO.N,GND*%
X109210000Y-71625000D03*
%TO.P,R18,2*%
%TO.N,Net-(U4-AISEN)*%
X110860000Y-71625000D03*
%TD*%
D21*
%TO.P,R17,1*%
%TO.N,CTRL_EXT_LOAD2*%
X115032500Y-89005000D03*
%TO.P,R17,2*%
%TO.N,GND*%
X116857500Y-89005000D03*
%TD*%
%TO.P,R16,1*%
%TO.N,5V Out*%
X115032500Y-86055000D03*
%TO.P,R16,2*%
%TO.N,Net-(IC6-R1{slash}C1)*%
X116857500Y-86055000D03*
%TD*%
%TO.P,R15,1*%
%TO.N,GND*%
X115032500Y-83105000D03*
%TO.P,R15,2*%
%TO.N,Net-(IC6-R2)*%
X116857500Y-83105000D03*
%TD*%
%TO.P,R14,1*%
%TO.N,CTRL_EXT_LOAD1*%
X110622500Y-94905000D03*
%TO.P,R14,2*%
%TO.N,GND*%
X112447500Y-94905000D03*
%TD*%
%TO.P,R13,1*%
%TO.N,5V Out*%
X110622500Y-91955000D03*
%TO.P,R13,2*%
%TO.N,Net-(IC2-R1{slash}C1)*%
X112447500Y-91955000D03*
%TD*%
%TO.P,R12,1*%
%TO.N,GND*%
X110622500Y-89005000D03*
%TO.P,R12,2*%
%TO.N,Net-(IC2-R2)*%
X112447500Y-89005000D03*
%TD*%
%TO.P,R11,1*%
%TO.N,Net-(U3-FB)*%
X110622500Y-86055000D03*
%TO.P,R11,2*%
%TO.N,GND*%
X112447500Y-86055000D03*
%TD*%
%TO.P,R10,1*%
%TO.N,Net-(R10-Pad1)*%
X110622500Y-83105000D03*
%TO.P,R10,2*%
%TO.N,Net-(U3-FB)*%
X112447500Y-83105000D03*
%TD*%
D19*
%TO.P,R9,1*%
%TO.N,Monitor_out*%
X87612500Y-104015000D03*
%TO.P,R9,2*%
%TO.N,Bat_out*%
X90537500Y-104015000D03*
%TD*%
D21*
%TO.P,R8,1*%
%TO.N,HV*%
X106212500Y-94905000D03*
%TO.P,R8,2*%
%TO.N,Net-(IC1-VBUS)*%
X108037500Y-94905000D03*
%TD*%
D19*
%TO.P,R7,1*%
%TO.N,HV*%
X87612500Y-100725000D03*
%TO.P,R7,2*%
%TO.N,Net-(IC1-VDD)*%
X90537500Y-100725000D03*
%TD*%
D20*
%TO.P,R6,1*%
%TO.N,Net-(IC3-VSENSE)*%
X109210000Y-69115000D03*
%TO.P,R6,2*%
%TO.N,Net-(R1-Pad1)*%
X110860000Y-69115000D03*
%TD*%
D21*
%TO.P,R5,1*%
%TO.N,+5V*%
X106212500Y-91955000D03*
%TO.P,R5,2*%
%TO.N,Net-(IC3-VSENSE)*%
X108037500Y-91955000D03*
%TD*%
D20*
%TO.P,R4,1*%
%TO.N,Net-(IC4-PROG)*%
X109210000Y-66605000D03*
%TO.P,R4,2*%
%TO.N,Net-(Q1-D)*%
X110860000Y-66605000D03*
%TD*%
D21*
%TO.P,R3,1*%
%TO.N,Net-(IC4-PROG)*%
X106212500Y-89005000D03*
%TO.P,R3,2*%
%TO.N,GND*%
X108037500Y-89005000D03*
%TD*%
%TO.P,R2,1*%
%TO.N,5V Out*%
X106212500Y-86055000D03*
%TO.P,R2,2*%
%TO.N,Net-(R10-Pad1)*%
X108037500Y-86055000D03*
%TD*%
D20*
%TO.P,R1,1*%
%TO.N,Net-(R1-Pad1)*%
X109210000Y-64095000D03*
%TO.P,R1,2*%
%TO.N,GND*%
X110860000Y-64095000D03*
%TD*%
D22*
%TO.P,Q1,1,G*%
%TO.N,FAST_CHARGE_CTRL*%
X117557500Y-76720000D03*
%TO.P,Q1,2,S*%
%TO.N,GND*%
X117557500Y-78620000D03*
%TO.P,Q1,3,D*%
%TO.N,Net-(Q1-D)*%
X119432500Y-77670000D03*
%TD*%
D23*
%TO.P,L2,1,1*%
%TO.N,Net-(U3-SW)*%
X122912500Y-69945000D03*
%TO.P,L2,2,2*%
%TO.N,5V Out*%
X125037500Y-69945000D03*
%TD*%
D24*
%TO.P,L1,1,1*%
%TO.N,+5V*%
X118000000Y-64450000D03*
%TO.P,L1,2,2*%
%TO.N,Net-(D3-K)*%
X124050000Y-64450000D03*
%TD*%
D25*
%TO.P,J3,1,Pin_1*%
%TO.N,Battery*%
X107895000Y-108825000D03*
D26*
%TO.P,J3,2,Pin_2*%
%TO.N,GND*%
X109895000Y-108825000D03*
%TD*%
D27*
%TO.P,J2,A1_B12,GND*%
%TO.N,GND*%
X107783500Y-98330000D03*
%TO.P,J2,A4_B9,VBUS*%
%TO.N,HV*%
X108583500Y-98330000D03*
D28*
%TO.P,J2,A6,DP1*%
%TO.N,unconnected-(J2-DP1-PadA6)*%
X110733500Y-98330000D03*
%TO.P,J2,B7,DN2*%
%TO.N,unconnected-(J2-DN2-PadB7)*%
X110233500Y-98330000D03*
%TO.P,J2,A5,CC1*%
%TO.N,Net-(IC1-CC1)*%
X109733500Y-98330000D03*
%TO.P,J2,B8,SBU2*%
%TO.N,unconnected-(J2-SBU2-PadB8)*%
X109233500Y-98330000D03*
%TO.P,J2,A7,DN1*%
%TO.N,unconnected-(J2-DN1-PadA7)*%
X111233500Y-98330000D03*
%TO.P,J2,B6,DP2*%
%TO.N,unconnected-(J2-DP2-PadB6)*%
X111733500Y-98330000D03*
%TO.P,J2,A8,SBU1*%
%TO.N,unconnected-(J2-SBU1-PadA8)*%
X112233500Y-98330000D03*
%TO.P,J2,B5,CC2*%
%TO.N,Net-(IC1-CC2)*%
X112733500Y-98330000D03*
D27*
%TO.P,J2,B4_A9,VBUS*%
%TO.N,HV*%
X113383500Y-98330000D03*
%TO.P,J2,B1_A12,GND*%
%TO.N,GND*%
X114183500Y-98330000D03*
D29*
%TO.P,J2,S1,SHIELD*%
X106658500Y-98910000D03*
%TO.P,J2,S2,SHIELD*%
X115308500Y-98910000D03*
D30*
%TO.P,J2,S3,SHIELD*%
X106658500Y-103080000D03*
%TO.P,J2,S4,SHIELD*%
X115308500Y-103080000D03*
%TD*%
D31*
%TO.P,J1,1,Pin_1*%
%TO.N,Motor2_B_OUT*%
X77320000Y-62655000D03*
%TO.P,J1,2,Pin_2*%
%TO.N,Motor2_A_OUT*%
X82370000Y-62655000D03*
%TO.P,J1,3,Pin_3*%
%TO.N,Motor4_A_OUT*%
X77320000Y-65195000D03*
%TO.P,J1,4,Pin_4*%
%TO.N,MOTOR2_CTRL1*%
X82370000Y-65195000D03*
%TO.P,J1,5,Pin_5*%
%TO.N,Motor4_B_OUT*%
X77320000Y-67735000D03*
%TO.P,J1,6,Pin_6*%
%TO.N,MOTOR2_CTRL2*%
X82370000Y-67735000D03*
%TO.P,J1,7,Pin_7*%
%TO.N,CTRL_EXT_LOAD2*%
X77320000Y-70275000D03*
%TO.P,J1,8,Pin_8*%
%TO.N,MOTOR4_CTRL1*%
X82370000Y-70275000D03*
%TO.P,J1,9,Pin_9*%
%TO.N,USART2_RX*%
X77320000Y-72815000D03*
%TO.P,J1,10,Pin_10*%
%TO.N,MOTOR4_CTRL2*%
X82370000Y-72815000D03*
%TO.P,J1,11,Pin_11*%
%TO.N,EXT_LOAD2_OUT*%
X77320000Y-75355000D03*
%TO.P,J1,12,Pin_12*%
%TO.N,USART2_TX*%
X82370000Y-75355000D03*
%TO.P,J1,13,Pin_13*%
%TO.N,FAST_CHARGE_CTRL*%
X77320000Y-77895000D03*
%TO.P,J1,14,Pin_14*%
%TO.N,Battery*%
X82370000Y-77895000D03*
%TO.P,J1,15,Pin_15*%
%TO.N,GND*%
X77320000Y-80435000D03*
%TO.P,J1,16,Pin_16*%
%TO.N,I2C1_SCL*%
X82370000Y-80435000D03*
%TO.P,J1,17,Pin_17*%
%TO.N,I2C1_SDA*%
X77320000Y-82975000D03*
%TO.P,J1,18,Pin_18*%
%TO.N,3V3 Out*%
X82370000Y-82975000D03*
%TO.P,J1,19,Pin_19*%
%TO.N,GND*%
X77320000Y-85515000D03*
%TO.P,J1,20,Pin_20*%
%TO.N,5V Out*%
X82370000Y-85515000D03*
%TO.P,J1,21,Pin_21*%
%TO.N,EXT_LOAD1_OUT*%
X77320000Y-88055000D03*
%TO.P,J1,22,Pin_22*%
%TO.N,HV*%
X82370000Y-88055000D03*
%TO.P,J1,23,Pin_23*%
%TO.N,unconnected-(J1-Pin_23-Pad23)*%
X77320000Y-90595000D03*
%TO.P,J1,24,Pin_24*%
%TO.N,MOTOR3_CTRL1*%
X82370000Y-90595000D03*
%TO.P,J1,25,Pin_25*%
%TO.N,CTRL_EXT_LOAD1*%
X77320000Y-93135000D03*
%TO.P,J1,26,Pin_26*%
%TO.N,MOTOR3_CTRL2*%
X82370000Y-93135000D03*
%TO.P,J1,27,Pin_27*%
%TO.N,MOTOR3_A_OUT*%
X77320000Y-95675000D03*
%TO.P,J1,28,Pin_28*%
%TO.N,MOTOR1_CTRL1*%
X82370000Y-95675000D03*
%TO.P,J1,29,Pin_29*%
%TO.N,MOTOR3_B_OUT*%
X77320000Y-98215000D03*
%TO.P,J1,30,Pin_30*%
%TO.N,MOTOR1_CTRL2*%
X82370000Y-98215000D03*
%TO.P,J1,31,Pin_31*%
%TO.N,MOTOR1_B_OUT*%
X77320000Y-100755000D03*
%TO.P,J1,32,Pin_32*%
%TO.N,MOTOR1_A_OUT*%
X82370000Y-100755000D03*
%TD*%
D32*
%TO.P,IC6,1,R2*%
%TO.N,Net-(IC6-R2)*%
X119420000Y-112400000D03*
%TO.P,IC6,2,VOUT_1*%
%TO.N,EXT_LOAD1_OUT*%
X119420000Y-113350000D03*
%TO.P,IC6,3,VOUT_2*%
X119420000Y-114300000D03*
%TO.P,IC6,4,VIN*%
%TO.N,5V Out*%
X121920000Y-114300000D03*
%TO.P,IC6,5,ON/OFF*%
%TO.N,CTRL_EXT_LOAD2*%
X121920000Y-113350000D03*
%TO.P,IC6,6,R1/C1*%
%TO.N,Net-(IC6-R1{slash}C1)*%
X121920000Y-112400000D03*
%TD*%
D33*
%TO.P,IC4,1,TEMP*%
%TO.N,GND*%
X93418000Y-109600000D03*
%TO.P,IC4,2,PROG*%
%TO.N,Net-(IC4-PROG)*%
X93418000Y-110870000D03*
%TO.P,IC4,3,GND*%
%TO.N,GND*%
X93418000Y-112140000D03*
%TO.P,IC4,4,VCC*%
%TO.N,Net-(IC4-CE)*%
X93418000Y-113410000D03*
%TO.P,IC4,5,BAT*%
%TO.N,Net-(IC4-BAT)*%
X98842000Y-113410000D03*
%TO.P,IC4,6,~{STDBY}*%
%TO.N,GND*%
X98842000Y-112140000D03*
%TO.P,IC4,7,~{CHRG}*%
X98842000Y-110870000D03*
%TO.P,IC4,8,CE*%
%TO.N,Net-(IC4-CE)*%
X98842000Y-109600000D03*
D34*
%TO.P,IC4,9,EP*%
%TO.N,GND*%
X96130000Y-111505000D03*
%TD*%
D35*
%TO.P,IC3,1,BOOT*%
%TO.N,Net-(IC3-BOOT)*%
X74958000Y-111020000D03*
%TO.P,IC3,2,NC_1*%
%TO.N,unconnected-(IC3-NC_1-Pad2)*%
X74958000Y-112290000D03*
%TO.P,IC3,3,NC_2*%
%TO.N,unconnected-(IC3-NC_2-Pad3)*%
X74958000Y-113560000D03*
%TO.P,IC3,4,VSENSE*%
%TO.N,Net-(IC3-VSENSE)*%
X74958000Y-114830000D03*
%TO.P,IC3,5,ENA*%
%TO.N,unconnected-(IC3-ENA-Pad5)*%
X80382000Y-114830000D03*
%TO.P,IC3,6,GND*%
%TO.N,GND*%
X80382000Y-113560000D03*
%TO.P,IC3,7,VIN*%
%TO.N,Net-(IC3-VIN)*%
X80382000Y-112290000D03*
%TO.P,IC3,8,PH*%
%TO.N,Net-(D3-K)*%
X80382000Y-111020000D03*
D36*
%TO.P,IC3,9,EP*%
%TO.N,GND*%
X77670000Y-112925000D03*
%TD*%
D32*
%TO.P,IC2,1,R2*%
%TO.N,Net-(IC2-R2)*%
X119420000Y-107800000D03*
%TO.P,IC2,2,VOUT_1*%
%TO.N,EXT_LOAD2_OUT*%
X119420000Y-108750000D03*
%TO.P,IC2,3,VOUT_2*%
X119420000Y-109700000D03*
%TO.P,IC2,4,VIN*%
%TO.N,5V Out*%
X121920000Y-109700000D03*
%TO.P,IC2,5,ON/OFF*%
%TO.N,CTRL_EXT_LOAD1*%
X121920000Y-108750000D03*
%TO.P,IC2,6,R1/C1*%
%TO.N,Net-(IC2-R1{slash}C1)*%
X121920000Y-107800000D03*
%TD*%
D37*
%TO.P,IC1,1,VDD*%
%TO.N,Net-(IC1-VDD)*%
X74895000Y-104380000D03*
%TO.P,IC1,2,CFG2*%
%TO.N,GND*%
X74895000Y-105380000D03*
%TO.P,IC1,3,CFG3*%
X74895000Y-106380000D03*
%TO.P,IC1,4,DP*%
%TO.N,Net-(IC1-DM)*%
X74895000Y-107380000D03*
%TO.P,IC1,5,DM*%
X74895000Y-108380000D03*
%TO.P,IC1,6,CC2*%
%TO.N,Net-(IC1-CC2)*%
X80395000Y-108380000D03*
%TO.P,IC1,7,CC1*%
%TO.N,Net-(IC1-CC1)*%
X80395000Y-107380000D03*
%TO.P,IC1,8,VBUS*%
%TO.N,Net-(IC1-VBUS)*%
X80395000Y-106380000D03*
%TO.P,IC1,9,CFG1*%
%TO.N,GND*%
X80395000Y-105380000D03*
%TO.P,IC1,10,PG*%
%TO.N,unconnected-(IC1-PG-Pad10)*%
X80395000Y-104380000D03*
D38*
%TO.P,IC1,11,GND*%
%TO.N,GND*%
X77645000Y-106380000D03*
%TD*%
D39*
%TO.P,D3,1,K*%
%TO.N,Net-(D3-K)*%
X93950000Y-105905000D03*
%TO.P,D3,2,A*%
%TO.N,GND*%
X97950000Y-105905000D03*
%TD*%
%TO.P,D1,1,K*%
%TO.N,GND*%
X93950000Y-101355000D03*
%TO.P,D1,2,A*%
%TO.N,5V Out*%
X97950000Y-101355000D03*
%TD*%
D40*
%TO.P,C21,1*%
%TO.N,+5V*%
X117400000Y-73595000D03*
%TO.P,C21,2*%
%TO.N,GND*%
X120350000Y-73595000D03*
%TD*%
D41*
%TO.P,C20,1*%
%TO.N,+5V*%
X109260000Y-61585000D03*
%TO.P,C20,2*%
%TO.N,GND*%
X110810000Y-61585000D03*
%TD*%
%TO.P,C19,1*%
%TO.N,+5V*%
X105250000Y-76645000D03*
%TO.P,C19,2*%
%TO.N,GND*%
X106800000Y-76645000D03*
%TD*%
%TO.P,C18,1*%
%TO.N,Monitor_out*%
X105250000Y-74135000D03*
%TO.P,C18,2*%
%TO.N,GND*%
X106800000Y-74135000D03*
%TD*%
D42*
%TO.P,C17,1*%
%TO.N,Net-(U5B-VINT)*%
X124365000Y-105245000D03*
%TO.P,C17,2*%
%TO.N,GND*%
X125325000Y-105245000D03*
%TD*%
%TO.P,C16,1*%
%TO.N,Net-(U5B-VCP)*%
X124365000Y-103275000D03*
%TO.P,C16,2*%
%TO.N,Monitor_out*%
X125325000Y-103275000D03*
%TD*%
D41*
%TO.P,C15,1*%
%TO.N,Monitor_out*%
X105250000Y-71625000D03*
%TO.P,C15,2*%
%TO.N,GND*%
X106800000Y-71625000D03*
%TD*%
D42*
%TO.P,C14,1*%
%TO.N,Net-(U4-VINT)*%
X124365000Y-101305000D03*
%TO.P,C14,2*%
%TO.N,GND*%
X125325000Y-101305000D03*
%TD*%
%TO.P,C13,1*%
%TO.N,Net-(U4-VCP)*%
X124365000Y-99335000D03*
%TO.P,C13,2*%
%TO.N,Monitor_out*%
X125325000Y-99335000D03*
%TD*%
%TO.P,C12,1*%
%TO.N,GND*%
X124365000Y-97365000D03*
%TO.P,C12,2*%
%TO.N,Net-(IC6-R1{slash}C1)*%
X125325000Y-97365000D03*
%TD*%
%TO.P,C11,1*%
%TO.N,GND*%
X121495000Y-105245000D03*
%TO.P,C11,2*%
%TO.N,Net-(IC2-R1{slash}C1)*%
X122455000Y-105245000D03*
%TD*%
D41*
%TO.P,C10,1*%
%TO.N,GND*%
X105250000Y-69115000D03*
%TO.P,C10,2*%
%TO.N,5V Out*%
X106800000Y-69115000D03*
%TD*%
%TO.P,C9,1*%
%TO.N,GND*%
X105250000Y-66605000D03*
%TO.P,C9,2*%
%TO.N,Monitor_out*%
X106800000Y-66605000D03*
%TD*%
D42*
%TO.P,C8,1*%
%TO.N,GND*%
X121495000Y-103275000D03*
%TO.P,C8,2*%
%TO.N,3V3 Out*%
X122455000Y-103275000D03*
%TD*%
%TO.P,C7,1*%
%TO.N,GND*%
X121495000Y-101305000D03*
%TO.P,C7,2*%
%TO.N,Monitor_out*%
X122455000Y-101305000D03*
%TD*%
%TO.P,C6,1*%
%TO.N,GND*%
X121495000Y-99335000D03*
%TO.P,C6,2*%
%TO.N,Net-(IC1-VDD)*%
X122455000Y-99335000D03*
%TD*%
D40*
%TO.P,C5,1*%
%TO.N,+5V*%
X117400000Y-70245000D03*
%TO.P,C5,2*%
%TO.N,GND*%
X120350000Y-70245000D03*
%TD*%
D41*
%TO.P,C4,1*%
%TO.N,Net-(IC3-VIN)*%
X105250000Y-64095000D03*
%TO.P,C4,2*%
%TO.N,GND*%
X106800000Y-64095000D03*
%TD*%
D42*
%TO.P,C3,1*%
%TO.N,Net-(D3-K)*%
X121495000Y-97365000D03*
%TO.P,C3,2*%
%TO.N,Net-(IC3-BOOT)*%
X122455000Y-97365000D03*
%TD*%
D41*
%TO.P,C2,1*%
%TO.N,GND*%
X105250000Y-61585000D03*
%TO.P,C2,2*%
%TO.N,Net-(IC4-CE)*%
X106800000Y-61585000D03*
%TD*%
D21*
%TO.P,C1,1*%
%TO.N,Net-(IC4-BAT)*%
X106212500Y-83105000D03*
%TO.P,C1,2*%
%TO.N,GND*%
X108037500Y-83105000D03*
%TD*%
M02*
