%TF.GenerationSoftware,KiCad,Pcbnew,7.0.11*%
%TF.CreationDate,2025-03-27T12:24:41+02:00*%
%TF.ProjectId,Project,50726f6a-6563-4742-9e6b-696361645f70,rev?*%
%TF.SameCoordinates,Original*%
%TF.FileFunction,Legend,Top*%
%TF.FilePolarity,Positive*%
%FSLAX46Y46*%
G04 Gerber Fmt 4.6, Leading zero omitted, Abs format (unit mm)*
G04 Created by KiCad (PCBNEW 7.0.11) date 2025-03-27 12:24:41*
%MOMM*%
%LPD*%
G01*
G04 APERTURE LIST*
G04 Aperture macros list*
%AMRoundRect*
0 Rectangle with rounded corners*
0 $1 Rounding radius*
0 $2 $3 $4 $5 $6 $7 $8 $9 X,Y pos of 4 corners*
0 Add a 4 corners polygon primitive as box body*
4,1,4,$2,$3,$4,$5,$6,$7,$8,$9,$2,$3,0*
0 Add four circle primitives for the rounded corners*
1,1,$1+$1,$2,$3*
1,1,$1+$1,$4,$5*
1,1,$1+$1,$6,$7*
1,1,$1+$1,$8,$9*
0 Add four rect primitives between the rounded corners*
20,1,$1+$1,$2,$3,$4,$5,0*
20,1,$1+$1,$4,$5,$6,$7,0*
20,1,$1+$1,$6,$7,$8,$9,0*
20,1,$1+$1,$8,$9,$2,$3,0*%
G04 Aperture macros list end*
%ADD10C,0.150000*%
%ADD11C,0.254000*%
%ADD12C,0.120000*%
%ADD13C,0.200000*%
%ADD14C,0.100000*%
%ADD15C,0.127000*%
%ADD16C,0.010000*%
%ADD17RoundRect,0.100000X-0.687500X-0.100000X0.687500X-0.100000X0.687500X0.100000X-0.687500X0.100000X0*%
%ADD18R,2.460000X2.310000*%
%ADD19RoundRect,0.150000X-0.512500X-0.150000X0.512500X-0.150000X0.512500X0.150000X-0.512500X0.150000X0*%
%ADD20RoundRect,0.125000X-0.537500X-0.125000X0.537500X-0.125000X0.537500X0.125000X-0.537500X0.125000X0*%
%ADD21C,1.500000*%
%ADD22R,2.400000X2.400000*%
%ADD23C,2.400000*%
%ADD24C,2.250000*%
%ADD25RoundRect,0.250000X-0.312500X-0.625000X0.312500X-0.625000X0.312500X0.625000X-0.312500X0.625000X0*%
%ADD26RoundRect,0.200000X-0.200000X-0.275000X0.200000X-0.275000X0.200000X0.275000X-0.200000X0.275000X0*%
%ADD27RoundRect,0.250000X-0.262500X-0.450000X0.262500X-0.450000X0.262500X0.450000X-0.262500X0.450000X0*%
%ADD28RoundRect,0.150000X-0.587500X-0.150000X0.587500X-0.150000X0.587500X0.150000X-0.587500X0.150000X0*%
%ADD29RoundRect,0.218750X-0.218750X-0.381250X0.218750X-0.381250X0.218750X0.381250X-0.218750X0.381250X0*%
%ADD30R,2.350000X3.500000*%
%ADD31RoundRect,0.250000X-0.350000X-0.625000X0.350000X-0.625000X0.350000X0.625000X-0.350000X0.625000X0*%
%ADD32O,1.200000X1.750000*%
%ADD33C,0.600000*%
%ADD34O,1.104000X2.204000*%
%ADD35O,1.104000X1.904000*%
%ADD36R,3.150000X1.000000*%
%ADD37R,1.250000X0.600000*%
%ADD38R,1.525000X0.700000*%
%ADD39R,2.513000X3.402000*%
%ADD40R,1.525000X0.650000*%
%ADD41R,2.600000X3.100000*%
%ADD42R,1.400000X0.700000*%
%ADD43R,2.300000X3.200000*%
%ADD44RoundRect,0.250000X-1.000000X-0.650000X1.000000X-0.650000X1.000000X0.650000X-1.000000X0.650000X0*%
%ADD45RoundRect,0.250000X-0.325000X-0.650000X0.325000X-0.650000X0.325000X0.650000X-0.325000X0.650000X0*%
%ADD46RoundRect,0.225000X-0.225000X-0.250000X0.225000X-0.250000X0.225000X0.250000X-0.225000X0.250000X0*%
%ADD47RoundRect,0.140000X-0.140000X-0.170000X0.140000X-0.170000X0.140000X0.170000X-0.140000X0.170000X0*%
G04 APERTURE END LIST*
D10*
X122188095Y-87594819D02*
X122188095Y-88404342D01*
X122188095Y-88404342D02*
X122235714Y-88499580D01*
X122235714Y-88499580D02*
X122283333Y-88547200D01*
X122283333Y-88547200D02*
X122378571Y-88594819D01*
X122378571Y-88594819D02*
X122569047Y-88594819D01*
X122569047Y-88594819D02*
X122664285Y-88547200D01*
X122664285Y-88547200D02*
X122711904Y-88499580D01*
X122711904Y-88499580D02*
X122759523Y-88404342D01*
X122759523Y-88404342D02*
X122759523Y-87594819D01*
X123711904Y-87594819D02*
X123235714Y-87594819D01*
X123235714Y-87594819D02*
X123188095Y-88071009D01*
X123188095Y-88071009D02*
X123235714Y-88023390D01*
X123235714Y-88023390D02*
X123330952Y-87975771D01*
X123330952Y-87975771D02*
X123569047Y-87975771D01*
X123569047Y-87975771D02*
X123664285Y-88023390D01*
X123664285Y-88023390D02*
X123711904Y-88071009D01*
X123711904Y-88071009D02*
X123759523Y-88166247D01*
X123759523Y-88166247D02*
X123759523Y-88404342D01*
X123759523Y-88404342D02*
X123711904Y-88499580D01*
X123711904Y-88499580D02*
X123664285Y-88547200D01*
X123664285Y-88547200D02*
X123569047Y-88594819D01*
X123569047Y-88594819D02*
X123330952Y-88594819D01*
X123330952Y-88594819D02*
X123235714Y-88547200D01*
X123235714Y-88547200D02*
X123188095Y-88499580D01*
X122188095Y-80954819D02*
X122188095Y-81764342D01*
X122188095Y-81764342D02*
X122235714Y-81859580D01*
X122235714Y-81859580D02*
X122283333Y-81907200D01*
X122283333Y-81907200D02*
X122378571Y-81954819D01*
X122378571Y-81954819D02*
X122569047Y-81954819D01*
X122569047Y-81954819D02*
X122664285Y-81907200D01*
X122664285Y-81907200D02*
X122711904Y-81859580D01*
X122711904Y-81859580D02*
X122759523Y-81764342D01*
X122759523Y-81764342D02*
X122759523Y-80954819D01*
X123664285Y-81288152D02*
X123664285Y-81954819D01*
X123426190Y-80907200D02*
X123188095Y-81621485D01*
X123188095Y-81621485D02*
X123807142Y-81621485D01*
X114683095Y-110529819D02*
X114683095Y-111339342D01*
X114683095Y-111339342D02*
X114730714Y-111434580D01*
X114730714Y-111434580D02*
X114778333Y-111482200D01*
X114778333Y-111482200D02*
X114873571Y-111529819D01*
X114873571Y-111529819D02*
X115064047Y-111529819D01*
X115064047Y-111529819D02*
X115159285Y-111482200D01*
X115159285Y-111482200D02*
X115206904Y-111434580D01*
X115206904Y-111434580D02*
X115254523Y-111339342D01*
X115254523Y-111339342D02*
X115254523Y-110529819D01*
X115635476Y-110529819D02*
X116254523Y-110529819D01*
X116254523Y-110529819D02*
X115921190Y-110910771D01*
X115921190Y-110910771D02*
X116064047Y-110910771D01*
X116064047Y-110910771D02*
X116159285Y-110958390D01*
X116159285Y-110958390D02*
X116206904Y-111006009D01*
X116206904Y-111006009D02*
X116254523Y-111101247D01*
X116254523Y-111101247D02*
X116254523Y-111339342D01*
X116254523Y-111339342D02*
X116206904Y-111434580D01*
X116206904Y-111434580D02*
X116159285Y-111482200D01*
X116159285Y-111482200D02*
X116064047Y-111529819D01*
X116064047Y-111529819D02*
X115778333Y-111529819D01*
X115778333Y-111529819D02*
X115683095Y-111482200D01*
X115683095Y-111482200D02*
X115635476Y-111434580D01*
X114683095Y-105904819D02*
X114683095Y-106714342D01*
X114683095Y-106714342D02*
X114730714Y-106809580D01*
X114730714Y-106809580D02*
X114778333Y-106857200D01*
X114778333Y-106857200D02*
X114873571Y-106904819D01*
X114873571Y-106904819D02*
X115064047Y-106904819D01*
X115064047Y-106904819D02*
X115159285Y-106857200D01*
X115159285Y-106857200D02*
X115206904Y-106809580D01*
X115206904Y-106809580D02*
X115254523Y-106714342D01*
X115254523Y-106714342D02*
X115254523Y-105904819D01*
X115683095Y-106000057D02*
X115730714Y-105952438D01*
X115730714Y-105952438D02*
X115825952Y-105904819D01*
X115825952Y-105904819D02*
X116064047Y-105904819D01*
X116064047Y-105904819D02*
X116159285Y-105952438D01*
X116159285Y-105952438D02*
X116206904Y-106000057D01*
X116206904Y-106000057D02*
X116254523Y-106095295D01*
X116254523Y-106095295D02*
X116254523Y-106190533D01*
X116254523Y-106190533D02*
X116206904Y-106333390D01*
X116206904Y-106333390D02*
X115635476Y-106904819D01*
X115635476Y-106904819D02*
X116254523Y-106904819D01*
X122753095Y-74699819D02*
X122753095Y-75509342D01*
X122753095Y-75509342D02*
X122800714Y-75604580D01*
X122800714Y-75604580D02*
X122848333Y-75652200D01*
X122848333Y-75652200D02*
X122943571Y-75699819D01*
X122943571Y-75699819D02*
X123134047Y-75699819D01*
X123134047Y-75699819D02*
X123229285Y-75652200D01*
X123229285Y-75652200D02*
X123276904Y-75604580D01*
X123276904Y-75604580D02*
X123324523Y-75509342D01*
X123324523Y-75509342D02*
X123324523Y-74699819D01*
X124324523Y-75699819D02*
X123753095Y-75699819D01*
X124038809Y-75699819D02*
X124038809Y-74699819D01*
X124038809Y-74699819D02*
X123943571Y-74842676D01*
X123943571Y-74842676D02*
X123848333Y-74937914D01*
X123848333Y-74937914D02*
X123753095Y-74985533D01*
X100506905Y-74111819D02*
X101078333Y-74111819D01*
X100792619Y-75111819D02*
X100792619Y-74111819D01*
X101411667Y-75111819D02*
X101411667Y-74111819D01*
X101411667Y-74111819D02*
X101792619Y-74111819D01*
X101792619Y-74111819D02*
X101887857Y-74159438D01*
X101887857Y-74159438D02*
X101935476Y-74207057D01*
X101935476Y-74207057D02*
X101983095Y-74302295D01*
X101983095Y-74302295D02*
X101983095Y-74445152D01*
X101983095Y-74445152D02*
X101935476Y-74540390D01*
X101935476Y-74540390D02*
X101887857Y-74588009D01*
X101887857Y-74588009D02*
X101792619Y-74635628D01*
X101792619Y-74635628D02*
X101411667Y-74635628D01*
X102364048Y-74207057D02*
X102411667Y-74159438D01*
X102411667Y-74159438D02*
X102506905Y-74111819D01*
X102506905Y-74111819D02*
X102745000Y-74111819D01*
X102745000Y-74111819D02*
X102840238Y-74159438D01*
X102840238Y-74159438D02*
X102887857Y-74207057D01*
X102887857Y-74207057D02*
X102935476Y-74302295D01*
X102935476Y-74302295D02*
X102935476Y-74397533D01*
X102935476Y-74397533D02*
X102887857Y-74540390D01*
X102887857Y-74540390D02*
X102316429Y-75111819D01*
X102316429Y-75111819D02*
X102935476Y-75111819D01*
X103411667Y-75111819D02*
X103602143Y-75111819D01*
X103602143Y-75111819D02*
X103697381Y-75064200D01*
X103697381Y-75064200D02*
X103745000Y-75016580D01*
X103745000Y-75016580D02*
X103840238Y-74873723D01*
X103840238Y-74873723D02*
X103887857Y-74683247D01*
X103887857Y-74683247D02*
X103887857Y-74302295D01*
X103887857Y-74302295D02*
X103840238Y-74207057D01*
X103840238Y-74207057D02*
X103792619Y-74159438D01*
X103792619Y-74159438D02*
X103697381Y-74111819D01*
X103697381Y-74111819D02*
X103506905Y-74111819D01*
X103506905Y-74111819D02*
X103411667Y-74159438D01*
X103411667Y-74159438D02*
X103364048Y-74207057D01*
X103364048Y-74207057D02*
X103316429Y-74302295D01*
X103316429Y-74302295D02*
X103316429Y-74540390D01*
X103316429Y-74540390D02*
X103364048Y-74635628D01*
X103364048Y-74635628D02*
X103411667Y-74683247D01*
X103411667Y-74683247D02*
X103506905Y-74730866D01*
X103506905Y-74730866D02*
X103697381Y-74730866D01*
X103697381Y-74730866D02*
X103792619Y-74683247D01*
X103792619Y-74683247D02*
X103840238Y-74635628D01*
X103840238Y-74635628D02*
X103887857Y-74540390D01*
X100506905Y-70561819D02*
X101078333Y-70561819D01*
X100792619Y-71561819D02*
X100792619Y-70561819D01*
X101411667Y-71561819D02*
X101411667Y-70561819D01*
X101411667Y-70561819D02*
X101792619Y-70561819D01*
X101792619Y-70561819D02*
X101887857Y-70609438D01*
X101887857Y-70609438D02*
X101935476Y-70657057D01*
X101935476Y-70657057D02*
X101983095Y-70752295D01*
X101983095Y-70752295D02*
X101983095Y-70895152D01*
X101983095Y-70895152D02*
X101935476Y-70990390D01*
X101935476Y-70990390D02*
X101887857Y-71038009D01*
X101887857Y-71038009D02*
X101792619Y-71085628D01*
X101792619Y-71085628D02*
X101411667Y-71085628D01*
X102364048Y-70657057D02*
X102411667Y-70609438D01*
X102411667Y-70609438D02*
X102506905Y-70561819D01*
X102506905Y-70561819D02*
X102745000Y-70561819D01*
X102745000Y-70561819D02*
X102840238Y-70609438D01*
X102840238Y-70609438D02*
X102887857Y-70657057D01*
X102887857Y-70657057D02*
X102935476Y-70752295D01*
X102935476Y-70752295D02*
X102935476Y-70847533D01*
X102935476Y-70847533D02*
X102887857Y-70990390D01*
X102887857Y-70990390D02*
X102316429Y-71561819D01*
X102316429Y-71561819D02*
X102935476Y-71561819D01*
X103506905Y-70990390D02*
X103411667Y-70942771D01*
X103411667Y-70942771D02*
X103364048Y-70895152D01*
X103364048Y-70895152D02*
X103316429Y-70799914D01*
X103316429Y-70799914D02*
X103316429Y-70752295D01*
X103316429Y-70752295D02*
X103364048Y-70657057D01*
X103364048Y-70657057D02*
X103411667Y-70609438D01*
X103411667Y-70609438D02*
X103506905Y-70561819D01*
X103506905Y-70561819D02*
X103697381Y-70561819D01*
X103697381Y-70561819D02*
X103792619Y-70609438D01*
X103792619Y-70609438D02*
X103840238Y-70657057D01*
X103840238Y-70657057D02*
X103887857Y-70752295D01*
X103887857Y-70752295D02*
X103887857Y-70799914D01*
X103887857Y-70799914D02*
X103840238Y-70895152D01*
X103840238Y-70895152D02*
X103792619Y-70942771D01*
X103792619Y-70942771D02*
X103697381Y-70990390D01*
X103697381Y-70990390D02*
X103506905Y-70990390D01*
X103506905Y-70990390D02*
X103411667Y-71038009D01*
X103411667Y-71038009D02*
X103364048Y-71085628D01*
X103364048Y-71085628D02*
X103316429Y-71180866D01*
X103316429Y-71180866D02*
X103316429Y-71371342D01*
X103316429Y-71371342D02*
X103364048Y-71466580D01*
X103364048Y-71466580D02*
X103411667Y-71514200D01*
X103411667Y-71514200D02*
X103506905Y-71561819D01*
X103506905Y-71561819D02*
X103697381Y-71561819D01*
X103697381Y-71561819D02*
X103792619Y-71514200D01*
X103792619Y-71514200D02*
X103840238Y-71466580D01*
X103840238Y-71466580D02*
X103887857Y-71371342D01*
X103887857Y-71371342D02*
X103887857Y-71180866D01*
X103887857Y-71180866D02*
X103840238Y-71085628D01*
X103840238Y-71085628D02*
X103792619Y-71038009D01*
X103792619Y-71038009D02*
X103697381Y-70990390D01*
X100506905Y-67011819D02*
X101078333Y-67011819D01*
X100792619Y-68011819D02*
X100792619Y-67011819D01*
X101411667Y-68011819D02*
X101411667Y-67011819D01*
X101411667Y-67011819D02*
X101792619Y-67011819D01*
X101792619Y-67011819D02*
X101887857Y-67059438D01*
X101887857Y-67059438D02*
X101935476Y-67107057D01*
X101935476Y-67107057D02*
X101983095Y-67202295D01*
X101983095Y-67202295D02*
X101983095Y-67345152D01*
X101983095Y-67345152D02*
X101935476Y-67440390D01*
X101935476Y-67440390D02*
X101887857Y-67488009D01*
X101887857Y-67488009D02*
X101792619Y-67535628D01*
X101792619Y-67535628D02*
X101411667Y-67535628D01*
X102364048Y-67107057D02*
X102411667Y-67059438D01*
X102411667Y-67059438D02*
X102506905Y-67011819D01*
X102506905Y-67011819D02*
X102745000Y-67011819D01*
X102745000Y-67011819D02*
X102840238Y-67059438D01*
X102840238Y-67059438D02*
X102887857Y-67107057D01*
X102887857Y-67107057D02*
X102935476Y-67202295D01*
X102935476Y-67202295D02*
X102935476Y-67297533D01*
X102935476Y-67297533D02*
X102887857Y-67440390D01*
X102887857Y-67440390D02*
X102316429Y-68011819D01*
X102316429Y-68011819D02*
X102935476Y-68011819D01*
X103268810Y-67011819D02*
X103935476Y-67011819D01*
X103935476Y-67011819D02*
X103506905Y-68011819D01*
X100506905Y-63461819D02*
X101078333Y-63461819D01*
X100792619Y-64461819D02*
X100792619Y-63461819D01*
X101411667Y-64461819D02*
X101411667Y-63461819D01*
X101411667Y-63461819D02*
X101792619Y-63461819D01*
X101792619Y-63461819D02*
X101887857Y-63509438D01*
X101887857Y-63509438D02*
X101935476Y-63557057D01*
X101935476Y-63557057D02*
X101983095Y-63652295D01*
X101983095Y-63652295D02*
X101983095Y-63795152D01*
X101983095Y-63795152D02*
X101935476Y-63890390D01*
X101935476Y-63890390D02*
X101887857Y-63938009D01*
X101887857Y-63938009D02*
X101792619Y-63985628D01*
X101792619Y-63985628D02*
X101411667Y-63985628D01*
X102364048Y-63557057D02*
X102411667Y-63509438D01*
X102411667Y-63509438D02*
X102506905Y-63461819D01*
X102506905Y-63461819D02*
X102745000Y-63461819D01*
X102745000Y-63461819D02*
X102840238Y-63509438D01*
X102840238Y-63509438D02*
X102887857Y-63557057D01*
X102887857Y-63557057D02*
X102935476Y-63652295D01*
X102935476Y-63652295D02*
X102935476Y-63747533D01*
X102935476Y-63747533D02*
X102887857Y-63890390D01*
X102887857Y-63890390D02*
X102316429Y-64461819D01*
X102316429Y-64461819D02*
X102935476Y-64461819D01*
X103792619Y-63461819D02*
X103602143Y-63461819D01*
X103602143Y-63461819D02*
X103506905Y-63509438D01*
X103506905Y-63509438D02*
X103459286Y-63557057D01*
X103459286Y-63557057D02*
X103364048Y-63699914D01*
X103364048Y-63699914D02*
X103316429Y-63890390D01*
X103316429Y-63890390D02*
X103316429Y-64271342D01*
X103316429Y-64271342D02*
X103364048Y-64366580D01*
X103364048Y-64366580D02*
X103411667Y-64414200D01*
X103411667Y-64414200D02*
X103506905Y-64461819D01*
X103506905Y-64461819D02*
X103697381Y-64461819D01*
X103697381Y-64461819D02*
X103792619Y-64414200D01*
X103792619Y-64414200D02*
X103840238Y-64366580D01*
X103840238Y-64366580D02*
X103887857Y-64271342D01*
X103887857Y-64271342D02*
X103887857Y-64033247D01*
X103887857Y-64033247D02*
X103840238Y-63938009D01*
X103840238Y-63938009D02*
X103792619Y-63890390D01*
X103792619Y-63890390D02*
X103697381Y-63842771D01*
X103697381Y-63842771D02*
X103506905Y-63842771D01*
X103506905Y-63842771D02*
X103411667Y-63890390D01*
X103411667Y-63890390D02*
X103364048Y-63938009D01*
X103364048Y-63938009D02*
X103316429Y-64033247D01*
X100506905Y-59911819D02*
X101078333Y-59911819D01*
X100792619Y-60911819D02*
X100792619Y-59911819D01*
X101411667Y-60911819D02*
X101411667Y-59911819D01*
X101411667Y-59911819D02*
X101792619Y-59911819D01*
X101792619Y-59911819D02*
X101887857Y-59959438D01*
X101887857Y-59959438D02*
X101935476Y-60007057D01*
X101935476Y-60007057D02*
X101983095Y-60102295D01*
X101983095Y-60102295D02*
X101983095Y-60245152D01*
X101983095Y-60245152D02*
X101935476Y-60340390D01*
X101935476Y-60340390D02*
X101887857Y-60388009D01*
X101887857Y-60388009D02*
X101792619Y-60435628D01*
X101792619Y-60435628D02*
X101411667Y-60435628D01*
X102364048Y-60007057D02*
X102411667Y-59959438D01*
X102411667Y-59959438D02*
X102506905Y-59911819D01*
X102506905Y-59911819D02*
X102745000Y-59911819D01*
X102745000Y-59911819D02*
X102840238Y-59959438D01*
X102840238Y-59959438D02*
X102887857Y-60007057D01*
X102887857Y-60007057D02*
X102935476Y-60102295D01*
X102935476Y-60102295D02*
X102935476Y-60197533D01*
X102935476Y-60197533D02*
X102887857Y-60340390D01*
X102887857Y-60340390D02*
X102316429Y-60911819D01*
X102316429Y-60911819D02*
X102935476Y-60911819D01*
X103840238Y-59911819D02*
X103364048Y-59911819D01*
X103364048Y-59911819D02*
X103316429Y-60388009D01*
X103316429Y-60388009D02*
X103364048Y-60340390D01*
X103364048Y-60340390D02*
X103459286Y-60292771D01*
X103459286Y-60292771D02*
X103697381Y-60292771D01*
X103697381Y-60292771D02*
X103792619Y-60340390D01*
X103792619Y-60340390D02*
X103840238Y-60388009D01*
X103840238Y-60388009D02*
X103887857Y-60483247D01*
X103887857Y-60483247D02*
X103887857Y-60721342D01*
X103887857Y-60721342D02*
X103840238Y-60816580D01*
X103840238Y-60816580D02*
X103792619Y-60864200D01*
X103792619Y-60864200D02*
X103697381Y-60911819D01*
X103697381Y-60911819D02*
X103459286Y-60911819D01*
X103459286Y-60911819D02*
X103364048Y-60864200D01*
X103364048Y-60864200D02*
X103316429Y-60816580D01*
X96956905Y-77661819D02*
X97528333Y-77661819D01*
X97242619Y-78661819D02*
X97242619Y-77661819D01*
X97861667Y-78661819D02*
X97861667Y-77661819D01*
X97861667Y-77661819D02*
X98242619Y-77661819D01*
X98242619Y-77661819D02*
X98337857Y-77709438D01*
X98337857Y-77709438D02*
X98385476Y-77757057D01*
X98385476Y-77757057D02*
X98433095Y-77852295D01*
X98433095Y-77852295D02*
X98433095Y-77995152D01*
X98433095Y-77995152D02*
X98385476Y-78090390D01*
X98385476Y-78090390D02*
X98337857Y-78138009D01*
X98337857Y-78138009D02*
X98242619Y-78185628D01*
X98242619Y-78185628D02*
X97861667Y-78185628D01*
X98814048Y-77757057D02*
X98861667Y-77709438D01*
X98861667Y-77709438D02*
X98956905Y-77661819D01*
X98956905Y-77661819D02*
X99195000Y-77661819D01*
X99195000Y-77661819D02*
X99290238Y-77709438D01*
X99290238Y-77709438D02*
X99337857Y-77757057D01*
X99337857Y-77757057D02*
X99385476Y-77852295D01*
X99385476Y-77852295D02*
X99385476Y-77947533D01*
X99385476Y-77947533D02*
X99337857Y-78090390D01*
X99337857Y-78090390D02*
X98766429Y-78661819D01*
X98766429Y-78661819D02*
X99385476Y-78661819D01*
X100242619Y-77995152D02*
X100242619Y-78661819D01*
X100004524Y-77614200D02*
X99766429Y-78328485D01*
X99766429Y-78328485D02*
X100385476Y-78328485D01*
X96956905Y-74111819D02*
X97528333Y-74111819D01*
X97242619Y-75111819D02*
X97242619Y-74111819D01*
X97861667Y-75111819D02*
X97861667Y-74111819D01*
X97861667Y-74111819D02*
X98242619Y-74111819D01*
X98242619Y-74111819D02*
X98337857Y-74159438D01*
X98337857Y-74159438D02*
X98385476Y-74207057D01*
X98385476Y-74207057D02*
X98433095Y-74302295D01*
X98433095Y-74302295D02*
X98433095Y-74445152D01*
X98433095Y-74445152D02*
X98385476Y-74540390D01*
X98385476Y-74540390D02*
X98337857Y-74588009D01*
X98337857Y-74588009D02*
X98242619Y-74635628D01*
X98242619Y-74635628D02*
X97861667Y-74635628D01*
X98814048Y-74207057D02*
X98861667Y-74159438D01*
X98861667Y-74159438D02*
X98956905Y-74111819D01*
X98956905Y-74111819D02*
X99195000Y-74111819D01*
X99195000Y-74111819D02*
X99290238Y-74159438D01*
X99290238Y-74159438D02*
X99337857Y-74207057D01*
X99337857Y-74207057D02*
X99385476Y-74302295D01*
X99385476Y-74302295D02*
X99385476Y-74397533D01*
X99385476Y-74397533D02*
X99337857Y-74540390D01*
X99337857Y-74540390D02*
X98766429Y-75111819D01*
X98766429Y-75111819D02*
X99385476Y-75111819D01*
X99718810Y-74111819D02*
X100337857Y-74111819D01*
X100337857Y-74111819D02*
X100004524Y-74492771D01*
X100004524Y-74492771D02*
X100147381Y-74492771D01*
X100147381Y-74492771D02*
X100242619Y-74540390D01*
X100242619Y-74540390D02*
X100290238Y-74588009D01*
X100290238Y-74588009D02*
X100337857Y-74683247D01*
X100337857Y-74683247D02*
X100337857Y-74921342D01*
X100337857Y-74921342D02*
X100290238Y-75016580D01*
X100290238Y-75016580D02*
X100242619Y-75064200D01*
X100242619Y-75064200D02*
X100147381Y-75111819D01*
X100147381Y-75111819D02*
X99861667Y-75111819D01*
X99861667Y-75111819D02*
X99766429Y-75064200D01*
X99766429Y-75064200D02*
X99718810Y-75016580D01*
X96956905Y-70561819D02*
X97528333Y-70561819D01*
X97242619Y-71561819D02*
X97242619Y-70561819D01*
X97861667Y-71561819D02*
X97861667Y-70561819D01*
X97861667Y-70561819D02*
X98242619Y-70561819D01*
X98242619Y-70561819D02*
X98337857Y-70609438D01*
X98337857Y-70609438D02*
X98385476Y-70657057D01*
X98385476Y-70657057D02*
X98433095Y-70752295D01*
X98433095Y-70752295D02*
X98433095Y-70895152D01*
X98433095Y-70895152D02*
X98385476Y-70990390D01*
X98385476Y-70990390D02*
X98337857Y-71038009D01*
X98337857Y-71038009D02*
X98242619Y-71085628D01*
X98242619Y-71085628D02*
X97861667Y-71085628D01*
X98814048Y-70657057D02*
X98861667Y-70609438D01*
X98861667Y-70609438D02*
X98956905Y-70561819D01*
X98956905Y-70561819D02*
X99195000Y-70561819D01*
X99195000Y-70561819D02*
X99290238Y-70609438D01*
X99290238Y-70609438D02*
X99337857Y-70657057D01*
X99337857Y-70657057D02*
X99385476Y-70752295D01*
X99385476Y-70752295D02*
X99385476Y-70847533D01*
X99385476Y-70847533D02*
X99337857Y-70990390D01*
X99337857Y-70990390D02*
X98766429Y-71561819D01*
X98766429Y-71561819D02*
X99385476Y-71561819D01*
X99766429Y-70657057D02*
X99814048Y-70609438D01*
X99814048Y-70609438D02*
X99909286Y-70561819D01*
X99909286Y-70561819D02*
X100147381Y-70561819D01*
X100147381Y-70561819D02*
X100242619Y-70609438D01*
X100242619Y-70609438D02*
X100290238Y-70657057D01*
X100290238Y-70657057D02*
X100337857Y-70752295D01*
X100337857Y-70752295D02*
X100337857Y-70847533D01*
X100337857Y-70847533D02*
X100290238Y-70990390D01*
X100290238Y-70990390D02*
X99718810Y-71561819D01*
X99718810Y-71561819D02*
X100337857Y-71561819D01*
X96956905Y-67011819D02*
X97528333Y-67011819D01*
X97242619Y-68011819D02*
X97242619Y-67011819D01*
X97861667Y-68011819D02*
X97861667Y-67011819D01*
X97861667Y-67011819D02*
X98242619Y-67011819D01*
X98242619Y-67011819D02*
X98337857Y-67059438D01*
X98337857Y-67059438D02*
X98385476Y-67107057D01*
X98385476Y-67107057D02*
X98433095Y-67202295D01*
X98433095Y-67202295D02*
X98433095Y-67345152D01*
X98433095Y-67345152D02*
X98385476Y-67440390D01*
X98385476Y-67440390D02*
X98337857Y-67488009D01*
X98337857Y-67488009D02*
X98242619Y-67535628D01*
X98242619Y-67535628D02*
X97861667Y-67535628D01*
X98814048Y-67107057D02*
X98861667Y-67059438D01*
X98861667Y-67059438D02*
X98956905Y-67011819D01*
X98956905Y-67011819D02*
X99195000Y-67011819D01*
X99195000Y-67011819D02*
X99290238Y-67059438D01*
X99290238Y-67059438D02*
X99337857Y-67107057D01*
X99337857Y-67107057D02*
X99385476Y-67202295D01*
X99385476Y-67202295D02*
X99385476Y-67297533D01*
X99385476Y-67297533D02*
X99337857Y-67440390D01*
X99337857Y-67440390D02*
X98766429Y-68011819D01*
X98766429Y-68011819D02*
X99385476Y-68011819D01*
X100337857Y-68011819D02*
X99766429Y-68011819D01*
X100052143Y-68011819D02*
X100052143Y-67011819D01*
X100052143Y-67011819D02*
X99956905Y-67154676D01*
X99956905Y-67154676D02*
X99861667Y-67249914D01*
X99861667Y-67249914D02*
X99766429Y-67297533D01*
X96956905Y-63461819D02*
X97528333Y-63461819D01*
X97242619Y-64461819D02*
X97242619Y-63461819D01*
X97861667Y-64461819D02*
X97861667Y-63461819D01*
X97861667Y-63461819D02*
X98242619Y-63461819D01*
X98242619Y-63461819D02*
X98337857Y-63509438D01*
X98337857Y-63509438D02*
X98385476Y-63557057D01*
X98385476Y-63557057D02*
X98433095Y-63652295D01*
X98433095Y-63652295D02*
X98433095Y-63795152D01*
X98433095Y-63795152D02*
X98385476Y-63890390D01*
X98385476Y-63890390D02*
X98337857Y-63938009D01*
X98337857Y-63938009D02*
X98242619Y-63985628D01*
X98242619Y-63985628D02*
X97861667Y-63985628D01*
X98814048Y-63557057D02*
X98861667Y-63509438D01*
X98861667Y-63509438D02*
X98956905Y-63461819D01*
X98956905Y-63461819D02*
X99195000Y-63461819D01*
X99195000Y-63461819D02*
X99290238Y-63509438D01*
X99290238Y-63509438D02*
X99337857Y-63557057D01*
X99337857Y-63557057D02*
X99385476Y-63652295D01*
X99385476Y-63652295D02*
X99385476Y-63747533D01*
X99385476Y-63747533D02*
X99337857Y-63890390D01*
X99337857Y-63890390D02*
X98766429Y-64461819D01*
X98766429Y-64461819D02*
X99385476Y-64461819D01*
X100004524Y-63461819D02*
X100099762Y-63461819D01*
X100099762Y-63461819D02*
X100195000Y-63509438D01*
X100195000Y-63509438D02*
X100242619Y-63557057D01*
X100242619Y-63557057D02*
X100290238Y-63652295D01*
X100290238Y-63652295D02*
X100337857Y-63842771D01*
X100337857Y-63842771D02*
X100337857Y-64080866D01*
X100337857Y-64080866D02*
X100290238Y-64271342D01*
X100290238Y-64271342D02*
X100242619Y-64366580D01*
X100242619Y-64366580D02*
X100195000Y-64414200D01*
X100195000Y-64414200D02*
X100099762Y-64461819D01*
X100099762Y-64461819D02*
X100004524Y-64461819D01*
X100004524Y-64461819D02*
X99909286Y-64414200D01*
X99909286Y-64414200D02*
X99861667Y-64366580D01*
X99861667Y-64366580D02*
X99814048Y-64271342D01*
X99814048Y-64271342D02*
X99766429Y-64080866D01*
X99766429Y-64080866D02*
X99766429Y-63842771D01*
X99766429Y-63842771D02*
X99814048Y-63652295D01*
X99814048Y-63652295D02*
X99861667Y-63557057D01*
X99861667Y-63557057D02*
X99909286Y-63509438D01*
X99909286Y-63509438D02*
X100004524Y-63461819D01*
X96956905Y-59911819D02*
X97528333Y-59911819D01*
X97242619Y-60911819D02*
X97242619Y-59911819D01*
X97861667Y-60911819D02*
X97861667Y-59911819D01*
X97861667Y-59911819D02*
X98242619Y-59911819D01*
X98242619Y-59911819D02*
X98337857Y-59959438D01*
X98337857Y-59959438D02*
X98385476Y-60007057D01*
X98385476Y-60007057D02*
X98433095Y-60102295D01*
X98433095Y-60102295D02*
X98433095Y-60245152D01*
X98433095Y-60245152D02*
X98385476Y-60340390D01*
X98385476Y-60340390D02*
X98337857Y-60388009D01*
X98337857Y-60388009D02*
X98242619Y-60435628D01*
X98242619Y-60435628D02*
X97861667Y-60435628D01*
X99385476Y-60911819D02*
X98814048Y-60911819D01*
X99099762Y-60911819D02*
X99099762Y-59911819D01*
X99099762Y-59911819D02*
X99004524Y-60054676D01*
X99004524Y-60054676D02*
X98909286Y-60149914D01*
X98909286Y-60149914D02*
X98814048Y-60197533D01*
X99861667Y-60911819D02*
X100052143Y-60911819D01*
X100052143Y-60911819D02*
X100147381Y-60864200D01*
X100147381Y-60864200D02*
X100195000Y-60816580D01*
X100195000Y-60816580D02*
X100290238Y-60673723D01*
X100290238Y-60673723D02*
X100337857Y-60483247D01*
X100337857Y-60483247D02*
X100337857Y-60102295D01*
X100337857Y-60102295D02*
X100290238Y-60007057D01*
X100290238Y-60007057D02*
X100242619Y-59959438D01*
X100242619Y-59959438D02*
X100147381Y-59911819D01*
X100147381Y-59911819D02*
X99956905Y-59911819D01*
X99956905Y-59911819D02*
X99861667Y-59959438D01*
X99861667Y-59959438D02*
X99814048Y-60007057D01*
X99814048Y-60007057D02*
X99766429Y-60102295D01*
X99766429Y-60102295D02*
X99766429Y-60340390D01*
X99766429Y-60340390D02*
X99814048Y-60435628D01*
X99814048Y-60435628D02*
X99861667Y-60483247D01*
X99861667Y-60483247D02*
X99956905Y-60530866D01*
X99956905Y-60530866D02*
X100147381Y-60530866D01*
X100147381Y-60530866D02*
X100242619Y-60483247D01*
X100242619Y-60483247D02*
X100290238Y-60435628D01*
X100290238Y-60435628D02*
X100337857Y-60340390D01*
X93406905Y-77661819D02*
X93978333Y-77661819D01*
X93692619Y-78661819D02*
X93692619Y-77661819D01*
X94311667Y-78661819D02*
X94311667Y-77661819D01*
X94311667Y-77661819D02*
X94692619Y-77661819D01*
X94692619Y-77661819D02*
X94787857Y-77709438D01*
X94787857Y-77709438D02*
X94835476Y-77757057D01*
X94835476Y-77757057D02*
X94883095Y-77852295D01*
X94883095Y-77852295D02*
X94883095Y-77995152D01*
X94883095Y-77995152D02*
X94835476Y-78090390D01*
X94835476Y-78090390D02*
X94787857Y-78138009D01*
X94787857Y-78138009D02*
X94692619Y-78185628D01*
X94692619Y-78185628D02*
X94311667Y-78185628D01*
X95835476Y-78661819D02*
X95264048Y-78661819D01*
X95549762Y-78661819D02*
X95549762Y-77661819D01*
X95549762Y-77661819D02*
X95454524Y-77804676D01*
X95454524Y-77804676D02*
X95359286Y-77899914D01*
X95359286Y-77899914D02*
X95264048Y-77947533D01*
X96406905Y-78090390D02*
X96311667Y-78042771D01*
X96311667Y-78042771D02*
X96264048Y-77995152D01*
X96264048Y-77995152D02*
X96216429Y-77899914D01*
X96216429Y-77899914D02*
X96216429Y-77852295D01*
X96216429Y-77852295D02*
X96264048Y-77757057D01*
X96264048Y-77757057D02*
X96311667Y-77709438D01*
X96311667Y-77709438D02*
X96406905Y-77661819D01*
X96406905Y-77661819D02*
X96597381Y-77661819D01*
X96597381Y-77661819D02*
X96692619Y-77709438D01*
X96692619Y-77709438D02*
X96740238Y-77757057D01*
X96740238Y-77757057D02*
X96787857Y-77852295D01*
X96787857Y-77852295D02*
X96787857Y-77899914D01*
X96787857Y-77899914D02*
X96740238Y-77995152D01*
X96740238Y-77995152D02*
X96692619Y-78042771D01*
X96692619Y-78042771D02*
X96597381Y-78090390D01*
X96597381Y-78090390D02*
X96406905Y-78090390D01*
X96406905Y-78090390D02*
X96311667Y-78138009D01*
X96311667Y-78138009D02*
X96264048Y-78185628D01*
X96264048Y-78185628D02*
X96216429Y-78280866D01*
X96216429Y-78280866D02*
X96216429Y-78471342D01*
X96216429Y-78471342D02*
X96264048Y-78566580D01*
X96264048Y-78566580D02*
X96311667Y-78614200D01*
X96311667Y-78614200D02*
X96406905Y-78661819D01*
X96406905Y-78661819D02*
X96597381Y-78661819D01*
X96597381Y-78661819D02*
X96692619Y-78614200D01*
X96692619Y-78614200D02*
X96740238Y-78566580D01*
X96740238Y-78566580D02*
X96787857Y-78471342D01*
X96787857Y-78471342D02*
X96787857Y-78280866D01*
X96787857Y-78280866D02*
X96740238Y-78185628D01*
X96740238Y-78185628D02*
X96692619Y-78138009D01*
X96692619Y-78138009D02*
X96597381Y-78090390D01*
X93406905Y-74111819D02*
X93978333Y-74111819D01*
X93692619Y-75111819D02*
X93692619Y-74111819D01*
X94311667Y-75111819D02*
X94311667Y-74111819D01*
X94311667Y-74111819D02*
X94692619Y-74111819D01*
X94692619Y-74111819D02*
X94787857Y-74159438D01*
X94787857Y-74159438D02*
X94835476Y-74207057D01*
X94835476Y-74207057D02*
X94883095Y-74302295D01*
X94883095Y-74302295D02*
X94883095Y-74445152D01*
X94883095Y-74445152D02*
X94835476Y-74540390D01*
X94835476Y-74540390D02*
X94787857Y-74588009D01*
X94787857Y-74588009D02*
X94692619Y-74635628D01*
X94692619Y-74635628D02*
X94311667Y-74635628D01*
X95835476Y-75111819D02*
X95264048Y-75111819D01*
X95549762Y-75111819D02*
X95549762Y-74111819D01*
X95549762Y-74111819D02*
X95454524Y-74254676D01*
X95454524Y-74254676D02*
X95359286Y-74349914D01*
X95359286Y-74349914D02*
X95264048Y-74397533D01*
X96168810Y-74111819D02*
X96835476Y-74111819D01*
X96835476Y-74111819D02*
X96406905Y-75111819D01*
X93406905Y-70561819D02*
X93978333Y-70561819D01*
X93692619Y-71561819D02*
X93692619Y-70561819D01*
X94311667Y-71561819D02*
X94311667Y-70561819D01*
X94311667Y-70561819D02*
X94692619Y-70561819D01*
X94692619Y-70561819D02*
X94787857Y-70609438D01*
X94787857Y-70609438D02*
X94835476Y-70657057D01*
X94835476Y-70657057D02*
X94883095Y-70752295D01*
X94883095Y-70752295D02*
X94883095Y-70895152D01*
X94883095Y-70895152D02*
X94835476Y-70990390D01*
X94835476Y-70990390D02*
X94787857Y-71038009D01*
X94787857Y-71038009D02*
X94692619Y-71085628D01*
X94692619Y-71085628D02*
X94311667Y-71085628D01*
X95835476Y-71561819D02*
X95264048Y-71561819D01*
X95549762Y-71561819D02*
X95549762Y-70561819D01*
X95549762Y-70561819D02*
X95454524Y-70704676D01*
X95454524Y-70704676D02*
X95359286Y-70799914D01*
X95359286Y-70799914D02*
X95264048Y-70847533D01*
X96692619Y-70561819D02*
X96502143Y-70561819D01*
X96502143Y-70561819D02*
X96406905Y-70609438D01*
X96406905Y-70609438D02*
X96359286Y-70657057D01*
X96359286Y-70657057D02*
X96264048Y-70799914D01*
X96264048Y-70799914D02*
X96216429Y-70990390D01*
X96216429Y-70990390D02*
X96216429Y-71371342D01*
X96216429Y-71371342D02*
X96264048Y-71466580D01*
X96264048Y-71466580D02*
X96311667Y-71514200D01*
X96311667Y-71514200D02*
X96406905Y-71561819D01*
X96406905Y-71561819D02*
X96597381Y-71561819D01*
X96597381Y-71561819D02*
X96692619Y-71514200D01*
X96692619Y-71514200D02*
X96740238Y-71466580D01*
X96740238Y-71466580D02*
X96787857Y-71371342D01*
X96787857Y-71371342D02*
X96787857Y-71133247D01*
X96787857Y-71133247D02*
X96740238Y-71038009D01*
X96740238Y-71038009D02*
X96692619Y-70990390D01*
X96692619Y-70990390D02*
X96597381Y-70942771D01*
X96597381Y-70942771D02*
X96406905Y-70942771D01*
X96406905Y-70942771D02*
X96311667Y-70990390D01*
X96311667Y-70990390D02*
X96264048Y-71038009D01*
X96264048Y-71038009D02*
X96216429Y-71133247D01*
X93406905Y-67011819D02*
X93978333Y-67011819D01*
X93692619Y-68011819D02*
X93692619Y-67011819D01*
X94311667Y-68011819D02*
X94311667Y-67011819D01*
X94311667Y-67011819D02*
X94692619Y-67011819D01*
X94692619Y-67011819D02*
X94787857Y-67059438D01*
X94787857Y-67059438D02*
X94835476Y-67107057D01*
X94835476Y-67107057D02*
X94883095Y-67202295D01*
X94883095Y-67202295D02*
X94883095Y-67345152D01*
X94883095Y-67345152D02*
X94835476Y-67440390D01*
X94835476Y-67440390D02*
X94787857Y-67488009D01*
X94787857Y-67488009D02*
X94692619Y-67535628D01*
X94692619Y-67535628D02*
X94311667Y-67535628D01*
X95835476Y-68011819D02*
X95264048Y-68011819D01*
X95549762Y-68011819D02*
X95549762Y-67011819D01*
X95549762Y-67011819D02*
X95454524Y-67154676D01*
X95454524Y-67154676D02*
X95359286Y-67249914D01*
X95359286Y-67249914D02*
X95264048Y-67297533D01*
X96740238Y-67011819D02*
X96264048Y-67011819D01*
X96264048Y-67011819D02*
X96216429Y-67488009D01*
X96216429Y-67488009D02*
X96264048Y-67440390D01*
X96264048Y-67440390D02*
X96359286Y-67392771D01*
X96359286Y-67392771D02*
X96597381Y-67392771D01*
X96597381Y-67392771D02*
X96692619Y-67440390D01*
X96692619Y-67440390D02*
X96740238Y-67488009D01*
X96740238Y-67488009D02*
X96787857Y-67583247D01*
X96787857Y-67583247D02*
X96787857Y-67821342D01*
X96787857Y-67821342D02*
X96740238Y-67916580D01*
X96740238Y-67916580D02*
X96692619Y-67964200D01*
X96692619Y-67964200D02*
X96597381Y-68011819D01*
X96597381Y-68011819D02*
X96359286Y-68011819D01*
X96359286Y-68011819D02*
X96264048Y-67964200D01*
X96264048Y-67964200D02*
X96216429Y-67916580D01*
X93406905Y-63461819D02*
X93978333Y-63461819D01*
X93692619Y-64461819D02*
X93692619Y-63461819D01*
X94311667Y-64461819D02*
X94311667Y-63461819D01*
X94311667Y-63461819D02*
X94692619Y-63461819D01*
X94692619Y-63461819D02*
X94787857Y-63509438D01*
X94787857Y-63509438D02*
X94835476Y-63557057D01*
X94835476Y-63557057D02*
X94883095Y-63652295D01*
X94883095Y-63652295D02*
X94883095Y-63795152D01*
X94883095Y-63795152D02*
X94835476Y-63890390D01*
X94835476Y-63890390D02*
X94787857Y-63938009D01*
X94787857Y-63938009D02*
X94692619Y-63985628D01*
X94692619Y-63985628D02*
X94311667Y-63985628D01*
X95835476Y-64461819D02*
X95264048Y-64461819D01*
X95549762Y-64461819D02*
X95549762Y-63461819D01*
X95549762Y-63461819D02*
X95454524Y-63604676D01*
X95454524Y-63604676D02*
X95359286Y-63699914D01*
X95359286Y-63699914D02*
X95264048Y-63747533D01*
X96692619Y-63795152D02*
X96692619Y-64461819D01*
X96454524Y-63414200D02*
X96216429Y-64128485D01*
X96216429Y-64128485D02*
X96835476Y-64128485D01*
X93406905Y-59911819D02*
X93978333Y-59911819D01*
X93692619Y-60911819D02*
X93692619Y-59911819D01*
X94311667Y-60911819D02*
X94311667Y-59911819D01*
X94311667Y-59911819D02*
X94692619Y-59911819D01*
X94692619Y-59911819D02*
X94787857Y-59959438D01*
X94787857Y-59959438D02*
X94835476Y-60007057D01*
X94835476Y-60007057D02*
X94883095Y-60102295D01*
X94883095Y-60102295D02*
X94883095Y-60245152D01*
X94883095Y-60245152D02*
X94835476Y-60340390D01*
X94835476Y-60340390D02*
X94787857Y-60388009D01*
X94787857Y-60388009D02*
X94692619Y-60435628D01*
X94692619Y-60435628D02*
X94311667Y-60435628D01*
X95835476Y-60911819D02*
X95264048Y-60911819D01*
X95549762Y-60911819D02*
X95549762Y-59911819D01*
X95549762Y-59911819D02*
X95454524Y-60054676D01*
X95454524Y-60054676D02*
X95359286Y-60149914D01*
X95359286Y-60149914D02*
X95264048Y-60197533D01*
X96168810Y-59911819D02*
X96787857Y-59911819D01*
X96787857Y-59911819D02*
X96454524Y-60292771D01*
X96454524Y-60292771D02*
X96597381Y-60292771D01*
X96597381Y-60292771D02*
X96692619Y-60340390D01*
X96692619Y-60340390D02*
X96740238Y-60388009D01*
X96740238Y-60388009D02*
X96787857Y-60483247D01*
X96787857Y-60483247D02*
X96787857Y-60721342D01*
X96787857Y-60721342D02*
X96740238Y-60816580D01*
X96740238Y-60816580D02*
X96692619Y-60864200D01*
X96692619Y-60864200D02*
X96597381Y-60911819D01*
X96597381Y-60911819D02*
X96311667Y-60911819D01*
X96311667Y-60911819D02*
X96216429Y-60864200D01*
X96216429Y-60864200D02*
X96168810Y-60816580D01*
X89856905Y-77661819D02*
X90428333Y-77661819D01*
X90142619Y-78661819D02*
X90142619Y-77661819D01*
X90761667Y-78661819D02*
X90761667Y-77661819D01*
X90761667Y-77661819D02*
X91142619Y-77661819D01*
X91142619Y-77661819D02*
X91237857Y-77709438D01*
X91237857Y-77709438D02*
X91285476Y-77757057D01*
X91285476Y-77757057D02*
X91333095Y-77852295D01*
X91333095Y-77852295D02*
X91333095Y-77995152D01*
X91333095Y-77995152D02*
X91285476Y-78090390D01*
X91285476Y-78090390D02*
X91237857Y-78138009D01*
X91237857Y-78138009D02*
X91142619Y-78185628D01*
X91142619Y-78185628D02*
X90761667Y-78185628D01*
X92285476Y-78661819D02*
X91714048Y-78661819D01*
X91999762Y-78661819D02*
X91999762Y-77661819D01*
X91999762Y-77661819D02*
X91904524Y-77804676D01*
X91904524Y-77804676D02*
X91809286Y-77899914D01*
X91809286Y-77899914D02*
X91714048Y-77947533D01*
X92666429Y-77757057D02*
X92714048Y-77709438D01*
X92714048Y-77709438D02*
X92809286Y-77661819D01*
X92809286Y-77661819D02*
X93047381Y-77661819D01*
X93047381Y-77661819D02*
X93142619Y-77709438D01*
X93142619Y-77709438D02*
X93190238Y-77757057D01*
X93190238Y-77757057D02*
X93237857Y-77852295D01*
X93237857Y-77852295D02*
X93237857Y-77947533D01*
X93237857Y-77947533D02*
X93190238Y-78090390D01*
X93190238Y-78090390D02*
X92618810Y-78661819D01*
X92618810Y-78661819D02*
X93237857Y-78661819D01*
X89856905Y-74111819D02*
X90428333Y-74111819D01*
X90142619Y-75111819D02*
X90142619Y-74111819D01*
X90761667Y-75111819D02*
X90761667Y-74111819D01*
X90761667Y-74111819D02*
X91142619Y-74111819D01*
X91142619Y-74111819D02*
X91237857Y-74159438D01*
X91237857Y-74159438D02*
X91285476Y-74207057D01*
X91285476Y-74207057D02*
X91333095Y-74302295D01*
X91333095Y-74302295D02*
X91333095Y-74445152D01*
X91333095Y-74445152D02*
X91285476Y-74540390D01*
X91285476Y-74540390D02*
X91237857Y-74588009D01*
X91237857Y-74588009D02*
X91142619Y-74635628D01*
X91142619Y-74635628D02*
X90761667Y-74635628D01*
X92285476Y-75111819D02*
X91714048Y-75111819D01*
X91999762Y-75111819D02*
X91999762Y-74111819D01*
X91999762Y-74111819D02*
X91904524Y-74254676D01*
X91904524Y-74254676D02*
X91809286Y-74349914D01*
X91809286Y-74349914D02*
X91714048Y-74397533D01*
X93237857Y-75111819D02*
X92666429Y-75111819D01*
X92952143Y-75111819D02*
X92952143Y-74111819D01*
X92952143Y-74111819D02*
X92856905Y-74254676D01*
X92856905Y-74254676D02*
X92761667Y-74349914D01*
X92761667Y-74349914D02*
X92666429Y-74397533D01*
X89856905Y-70561819D02*
X90428333Y-70561819D01*
X90142619Y-71561819D02*
X90142619Y-70561819D01*
X90761667Y-71561819D02*
X90761667Y-70561819D01*
X90761667Y-70561819D02*
X91142619Y-70561819D01*
X91142619Y-70561819D02*
X91237857Y-70609438D01*
X91237857Y-70609438D02*
X91285476Y-70657057D01*
X91285476Y-70657057D02*
X91333095Y-70752295D01*
X91333095Y-70752295D02*
X91333095Y-70895152D01*
X91333095Y-70895152D02*
X91285476Y-70990390D01*
X91285476Y-70990390D02*
X91237857Y-71038009D01*
X91237857Y-71038009D02*
X91142619Y-71085628D01*
X91142619Y-71085628D02*
X90761667Y-71085628D01*
X92285476Y-71561819D02*
X91714048Y-71561819D01*
X91999762Y-71561819D02*
X91999762Y-70561819D01*
X91999762Y-70561819D02*
X91904524Y-70704676D01*
X91904524Y-70704676D02*
X91809286Y-70799914D01*
X91809286Y-70799914D02*
X91714048Y-70847533D01*
X92904524Y-70561819D02*
X92999762Y-70561819D01*
X92999762Y-70561819D02*
X93095000Y-70609438D01*
X93095000Y-70609438D02*
X93142619Y-70657057D01*
X93142619Y-70657057D02*
X93190238Y-70752295D01*
X93190238Y-70752295D02*
X93237857Y-70942771D01*
X93237857Y-70942771D02*
X93237857Y-71180866D01*
X93237857Y-71180866D02*
X93190238Y-71371342D01*
X93190238Y-71371342D02*
X93142619Y-71466580D01*
X93142619Y-71466580D02*
X93095000Y-71514200D01*
X93095000Y-71514200D02*
X92999762Y-71561819D01*
X92999762Y-71561819D02*
X92904524Y-71561819D01*
X92904524Y-71561819D02*
X92809286Y-71514200D01*
X92809286Y-71514200D02*
X92761667Y-71466580D01*
X92761667Y-71466580D02*
X92714048Y-71371342D01*
X92714048Y-71371342D02*
X92666429Y-71180866D01*
X92666429Y-71180866D02*
X92666429Y-70942771D01*
X92666429Y-70942771D02*
X92714048Y-70752295D01*
X92714048Y-70752295D02*
X92761667Y-70657057D01*
X92761667Y-70657057D02*
X92809286Y-70609438D01*
X92809286Y-70609438D02*
X92904524Y-70561819D01*
X90333095Y-67011819D02*
X90904523Y-67011819D01*
X90618809Y-68011819D02*
X90618809Y-67011819D01*
X91237857Y-68011819D02*
X91237857Y-67011819D01*
X91237857Y-67011819D02*
X91618809Y-67011819D01*
X91618809Y-67011819D02*
X91714047Y-67059438D01*
X91714047Y-67059438D02*
X91761666Y-67107057D01*
X91761666Y-67107057D02*
X91809285Y-67202295D01*
X91809285Y-67202295D02*
X91809285Y-67345152D01*
X91809285Y-67345152D02*
X91761666Y-67440390D01*
X91761666Y-67440390D02*
X91714047Y-67488009D01*
X91714047Y-67488009D02*
X91618809Y-67535628D01*
X91618809Y-67535628D02*
X91237857Y-67535628D01*
X92285476Y-68011819D02*
X92475952Y-68011819D01*
X92475952Y-68011819D02*
X92571190Y-67964200D01*
X92571190Y-67964200D02*
X92618809Y-67916580D01*
X92618809Y-67916580D02*
X92714047Y-67773723D01*
X92714047Y-67773723D02*
X92761666Y-67583247D01*
X92761666Y-67583247D02*
X92761666Y-67202295D01*
X92761666Y-67202295D02*
X92714047Y-67107057D01*
X92714047Y-67107057D02*
X92666428Y-67059438D01*
X92666428Y-67059438D02*
X92571190Y-67011819D01*
X92571190Y-67011819D02*
X92380714Y-67011819D01*
X92380714Y-67011819D02*
X92285476Y-67059438D01*
X92285476Y-67059438D02*
X92237857Y-67107057D01*
X92237857Y-67107057D02*
X92190238Y-67202295D01*
X92190238Y-67202295D02*
X92190238Y-67440390D01*
X92190238Y-67440390D02*
X92237857Y-67535628D01*
X92237857Y-67535628D02*
X92285476Y-67583247D01*
X92285476Y-67583247D02*
X92380714Y-67630866D01*
X92380714Y-67630866D02*
X92571190Y-67630866D01*
X92571190Y-67630866D02*
X92666428Y-67583247D01*
X92666428Y-67583247D02*
X92714047Y-67535628D01*
X92714047Y-67535628D02*
X92761666Y-67440390D01*
X90333095Y-63461819D02*
X90904523Y-63461819D01*
X90618809Y-64461819D02*
X90618809Y-63461819D01*
X91237857Y-64461819D02*
X91237857Y-63461819D01*
X91237857Y-63461819D02*
X91618809Y-63461819D01*
X91618809Y-63461819D02*
X91714047Y-63509438D01*
X91714047Y-63509438D02*
X91761666Y-63557057D01*
X91761666Y-63557057D02*
X91809285Y-63652295D01*
X91809285Y-63652295D02*
X91809285Y-63795152D01*
X91809285Y-63795152D02*
X91761666Y-63890390D01*
X91761666Y-63890390D02*
X91714047Y-63938009D01*
X91714047Y-63938009D02*
X91618809Y-63985628D01*
X91618809Y-63985628D02*
X91237857Y-63985628D01*
X92380714Y-63890390D02*
X92285476Y-63842771D01*
X92285476Y-63842771D02*
X92237857Y-63795152D01*
X92237857Y-63795152D02*
X92190238Y-63699914D01*
X92190238Y-63699914D02*
X92190238Y-63652295D01*
X92190238Y-63652295D02*
X92237857Y-63557057D01*
X92237857Y-63557057D02*
X92285476Y-63509438D01*
X92285476Y-63509438D02*
X92380714Y-63461819D01*
X92380714Y-63461819D02*
X92571190Y-63461819D01*
X92571190Y-63461819D02*
X92666428Y-63509438D01*
X92666428Y-63509438D02*
X92714047Y-63557057D01*
X92714047Y-63557057D02*
X92761666Y-63652295D01*
X92761666Y-63652295D02*
X92761666Y-63699914D01*
X92761666Y-63699914D02*
X92714047Y-63795152D01*
X92714047Y-63795152D02*
X92666428Y-63842771D01*
X92666428Y-63842771D02*
X92571190Y-63890390D01*
X92571190Y-63890390D02*
X92380714Y-63890390D01*
X92380714Y-63890390D02*
X92285476Y-63938009D01*
X92285476Y-63938009D02*
X92237857Y-63985628D01*
X92237857Y-63985628D02*
X92190238Y-64080866D01*
X92190238Y-64080866D02*
X92190238Y-64271342D01*
X92190238Y-64271342D02*
X92237857Y-64366580D01*
X92237857Y-64366580D02*
X92285476Y-64414200D01*
X92285476Y-64414200D02*
X92380714Y-64461819D01*
X92380714Y-64461819D02*
X92571190Y-64461819D01*
X92571190Y-64461819D02*
X92666428Y-64414200D01*
X92666428Y-64414200D02*
X92714047Y-64366580D01*
X92714047Y-64366580D02*
X92761666Y-64271342D01*
X92761666Y-64271342D02*
X92761666Y-64080866D01*
X92761666Y-64080866D02*
X92714047Y-63985628D01*
X92714047Y-63985628D02*
X92666428Y-63938009D01*
X92666428Y-63938009D02*
X92571190Y-63890390D01*
X90333095Y-59911819D02*
X90904523Y-59911819D01*
X90618809Y-60911819D02*
X90618809Y-59911819D01*
X91237857Y-60911819D02*
X91237857Y-59911819D01*
X91237857Y-59911819D02*
X91618809Y-59911819D01*
X91618809Y-59911819D02*
X91714047Y-59959438D01*
X91714047Y-59959438D02*
X91761666Y-60007057D01*
X91761666Y-60007057D02*
X91809285Y-60102295D01*
X91809285Y-60102295D02*
X91809285Y-60245152D01*
X91809285Y-60245152D02*
X91761666Y-60340390D01*
X91761666Y-60340390D02*
X91714047Y-60388009D01*
X91714047Y-60388009D02*
X91618809Y-60435628D01*
X91618809Y-60435628D02*
X91237857Y-60435628D01*
X92142619Y-59911819D02*
X92809285Y-59911819D01*
X92809285Y-59911819D02*
X92380714Y-60911819D01*
X86783095Y-77661819D02*
X87354523Y-77661819D01*
X87068809Y-78661819D02*
X87068809Y-77661819D01*
X87687857Y-78661819D02*
X87687857Y-77661819D01*
X87687857Y-77661819D02*
X88068809Y-77661819D01*
X88068809Y-77661819D02*
X88164047Y-77709438D01*
X88164047Y-77709438D02*
X88211666Y-77757057D01*
X88211666Y-77757057D02*
X88259285Y-77852295D01*
X88259285Y-77852295D02*
X88259285Y-77995152D01*
X88259285Y-77995152D02*
X88211666Y-78090390D01*
X88211666Y-78090390D02*
X88164047Y-78138009D01*
X88164047Y-78138009D02*
X88068809Y-78185628D01*
X88068809Y-78185628D02*
X87687857Y-78185628D01*
X89116428Y-77661819D02*
X88925952Y-77661819D01*
X88925952Y-77661819D02*
X88830714Y-77709438D01*
X88830714Y-77709438D02*
X88783095Y-77757057D01*
X88783095Y-77757057D02*
X88687857Y-77899914D01*
X88687857Y-77899914D02*
X88640238Y-78090390D01*
X88640238Y-78090390D02*
X88640238Y-78471342D01*
X88640238Y-78471342D02*
X88687857Y-78566580D01*
X88687857Y-78566580D02*
X88735476Y-78614200D01*
X88735476Y-78614200D02*
X88830714Y-78661819D01*
X88830714Y-78661819D02*
X89021190Y-78661819D01*
X89021190Y-78661819D02*
X89116428Y-78614200D01*
X89116428Y-78614200D02*
X89164047Y-78566580D01*
X89164047Y-78566580D02*
X89211666Y-78471342D01*
X89211666Y-78471342D02*
X89211666Y-78233247D01*
X89211666Y-78233247D02*
X89164047Y-78138009D01*
X89164047Y-78138009D02*
X89116428Y-78090390D01*
X89116428Y-78090390D02*
X89021190Y-78042771D01*
X89021190Y-78042771D02*
X88830714Y-78042771D01*
X88830714Y-78042771D02*
X88735476Y-78090390D01*
X88735476Y-78090390D02*
X88687857Y-78138009D01*
X88687857Y-78138009D02*
X88640238Y-78233247D01*
X86783095Y-74111819D02*
X87354523Y-74111819D01*
X87068809Y-75111819D02*
X87068809Y-74111819D01*
X87687857Y-75111819D02*
X87687857Y-74111819D01*
X87687857Y-74111819D02*
X88068809Y-74111819D01*
X88068809Y-74111819D02*
X88164047Y-74159438D01*
X88164047Y-74159438D02*
X88211666Y-74207057D01*
X88211666Y-74207057D02*
X88259285Y-74302295D01*
X88259285Y-74302295D02*
X88259285Y-74445152D01*
X88259285Y-74445152D02*
X88211666Y-74540390D01*
X88211666Y-74540390D02*
X88164047Y-74588009D01*
X88164047Y-74588009D02*
X88068809Y-74635628D01*
X88068809Y-74635628D02*
X87687857Y-74635628D01*
X89164047Y-74111819D02*
X88687857Y-74111819D01*
X88687857Y-74111819D02*
X88640238Y-74588009D01*
X88640238Y-74588009D02*
X88687857Y-74540390D01*
X88687857Y-74540390D02*
X88783095Y-74492771D01*
X88783095Y-74492771D02*
X89021190Y-74492771D01*
X89021190Y-74492771D02*
X89116428Y-74540390D01*
X89116428Y-74540390D02*
X89164047Y-74588009D01*
X89164047Y-74588009D02*
X89211666Y-74683247D01*
X89211666Y-74683247D02*
X89211666Y-74921342D01*
X89211666Y-74921342D02*
X89164047Y-75016580D01*
X89164047Y-75016580D02*
X89116428Y-75064200D01*
X89116428Y-75064200D02*
X89021190Y-75111819D01*
X89021190Y-75111819D02*
X88783095Y-75111819D01*
X88783095Y-75111819D02*
X88687857Y-75064200D01*
X88687857Y-75064200D02*
X88640238Y-75016580D01*
X86783095Y-70561819D02*
X87354523Y-70561819D01*
X87068809Y-71561819D02*
X87068809Y-70561819D01*
X87687857Y-71561819D02*
X87687857Y-70561819D01*
X87687857Y-70561819D02*
X88068809Y-70561819D01*
X88068809Y-70561819D02*
X88164047Y-70609438D01*
X88164047Y-70609438D02*
X88211666Y-70657057D01*
X88211666Y-70657057D02*
X88259285Y-70752295D01*
X88259285Y-70752295D02*
X88259285Y-70895152D01*
X88259285Y-70895152D02*
X88211666Y-70990390D01*
X88211666Y-70990390D02*
X88164047Y-71038009D01*
X88164047Y-71038009D02*
X88068809Y-71085628D01*
X88068809Y-71085628D02*
X87687857Y-71085628D01*
X89116428Y-70895152D02*
X89116428Y-71561819D01*
X88878333Y-70514200D02*
X88640238Y-71228485D01*
X88640238Y-71228485D02*
X89259285Y-71228485D01*
X86783095Y-67011819D02*
X87354523Y-67011819D01*
X87068809Y-68011819D02*
X87068809Y-67011819D01*
X87687857Y-68011819D02*
X87687857Y-67011819D01*
X87687857Y-67011819D02*
X88068809Y-67011819D01*
X88068809Y-67011819D02*
X88164047Y-67059438D01*
X88164047Y-67059438D02*
X88211666Y-67107057D01*
X88211666Y-67107057D02*
X88259285Y-67202295D01*
X88259285Y-67202295D02*
X88259285Y-67345152D01*
X88259285Y-67345152D02*
X88211666Y-67440390D01*
X88211666Y-67440390D02*
X88164047Y-67488009D01*
X88164047Y-67488009D02*
X88068809Y-67535628D01*
X88068809Y-67535628D02*
X87687857Y-67535628D01*
X88592619Y-67011819D02*
X89211666Y-67011819D01*
X89211666Y-67011819D02*
X88878333Y-67392771D01*
X88878333Y-67392771D02*
X89021190Y-67392771D01*
X89021190Y-67392771D02*
X89116428Y-67440390D01*
X89116428Y-67440390D02*
X89164047Y-67488009D01*
X89164047Y-67488009D02*
X89211666Y-67583247D01*
X89211666Y-67583247D02*
X89211666Y-67821342D01*
X89211666Y-67821342D02*
X89164047Y-67916580D01*
X89164047Y-67916580D02*
X89116428Y-67964200D01*
X89116428Y-67964200D02*
X89021190Y-68011819D01*
X89021190Y-68011819D02*
X88735476Y-68011819D01*
X88735476Y-68011819D02*
X88640238Y-67964200D01*
X88640238Y-67964200D02*
X88592619Y-67916580D01*
X86783095Y-63461819D02*
X87354523Y-63461819D01*
X87068809Y-64461819D02*
X87068809Y-63461819D01*
X87687857Y-64461819D02*
X87687857Y-63461819D01*
X87687857Y-63461819D02*
X88068809Y-63461819D01*
X88068809Y-63461819D02*
X88164047Y-63509438D01*
X88164047Y-63509438D02*
X88211666Y-63557057D01*
X88211666Y-63557057D02*
X88259285Y-63652295D01*
X88259285Y-63652295D02*
X88259285Y-63795152D01*
X88259285Y-63795152D02*
X88211666Y-63890390D01*
X88211666Y-63890390D02*
X88164047Y-63938009D01*
X88164047Y-63938009D02*
X88068809Y-63985628D01*
X88068809Y-63985628D02*
X87687857Y-63985628D01*
X88640238Y-63557057D02*
X88687857Y-63509438D01*
X88687857Y-63509438D02*
X88783095Y-63461819D01*
X88783095Y-63461819D02*
X89021190Y-63461819D01*
X89021190Y-63461819D02*
X89116428Y-63509438D01*
X89116428Y-63509438D02*
X89164047Y-63557057D01*
X89164047Y-63557057D02*
X89211666Y-63652295D01*
X89211666Y-63652295D02*
X89211666Y-63747533D01*
X89211666Y-63747533D02*
X89164047Y-63890390D01*
X89164047Y-63890390D02*
X88592619Y-64461819D01*
X88592619Y-64461819D02*
X89211666Y-64461819D01*
X86783095Y-59911819D02*
X87354523Y-59911819D01*
X87068809Y-60911819D02*
X87068809Y-59911819D01*
X87687857Y-60911819D02*
X87687857Y-59911819D01*
X87687857Y-59911819D02*
X88068809Y-59911819D01*
X88068809Y-59911819D02*
X88164047Y-59959438D01*
X88164047Y-59959438D02*
X88211666Y-60007057D01*
X88211666Y-60007057D02*
X88259285Y-60102295D01*
X88259285Y-60102295D02*
X88259285Y-60245152D01*
X88259285Y-60245152D02*
X88211666Y-60340390D01*
X88211666Y-60340390D02*
X88164047Y-60388009D01*
X88164047Y-60388009D02*
X88068809Y-60435628D01*
X88068809Y-60435628D02*
X87687857Y-60435628D01*
X89211666Y-60911819D02*
X88640238Y-60911819D01*
X88925952Y-60911819D02*
X88925952Y-59911819D01*
X88925952Y-59911819D02*
X88830714Y-60054676D01*
X88830714Y-60054676D02*
X88735476Y-60149914D01*
X88735476Y-60149914D02*
X88640238Y-60197533D01*
D11*
X94627380Y-90868842D02*
X94808809Y-90929318D01*
X94808809Y-90929318D02*
X95111190Y-90929318D01*
X95111190Y-90929318D02*
X95232142Y-90868842D01*
X95232142Y-90868842D02*
X95292618Y-90808365D01*
X95292618Y-90808365D02*
X95353095Y-90687413D01*
X95353095Y-90687413D02*
X95353095Y-90566461D01*
X95353095Y-90566461D02*
X95292618Y-90445508D01*
X95292618Y-90445508D02*
X95232142Y-90385032D01*
X95232142Y-90385032D02*
X95111190Y-90324556D01*
X95111190Y-90324556D02*
X94869285Y-90264080D01*
X94869285Y-90264080D02*
X94748333Y-90203603D01*
X94748333Y-90203603D02*
X94687856Y-90143127D01*
X94687856Y-90143127D02*
X94627380Y-90022175D01*
X94627380Y-90022175D02*
X94627380Y-89901222D01*
X94627380Y-89901222D02*
X94687856Y-89780270D01*
X94687856Y-89780270D02*
X94748333Y-89719794D01*
X94748333Y-89719794D02*
X94869285Y-89659318D01*
X94869285Y-89659318D02*
X95171666Y-89659318D01*
X95171666Y-89659318D02*
X95353095Y-89719794D01*
X96562619Y-90929318D02*
X95836904Y-90929318D01*
X96199761Y-90929318D02*
X96199761Y-89659318D01*
X96199761Y-89659318D02*
X96078809Y-89840746D01*
X96078809Y-89840746D02*
X95957857Y-89961699D01*
X95957857Y-89961699D02*
X95836904Y-90022175D01*
D10*
X88432142Y-112519819D02*
X88098809Y-112043628D01*
X87860714Y-112519819D02*
X87860714Y-111519819D01*
X87860714Y-111519819D02*
X88241666Y-111519819D01*
X88241666Y-111519819D02*
X88336904Y-111567438D01*
X88336904Y-111567438D02*
X88384523Y-111615057D01*
X88384523Y-111615057D02*
X88432142Y-111710295D01*
X88432142Y-111710295D02*
X88432142Y-111853152D01*
X88432142Y-111853152D02*
X88384523Y-111948390D01*
X88384523Y-111948390D02*
X88336904Y-111996009D01*
X88336904Y-111996009D02*
X88241666Y-112043628D01*
X88241666Y-112043628D02*
X87860714Y-112043628D01*
X88813095Y-111615057D02*
X88860714Y-111567438D01*
X88860714Y-111567438D02*
X88955952Y-111519819D01*
X88955952Y-111519819D02*
X89194047Y-111519819D01*
X89194047Y-111519819D02*
X89289285Y-111567438D01*
X89289285Y-111567438D02*
X89336904Y-111615057D01*
X89336904Y-111615057D02*
X89384523Y-111710295D01*
X89384523Y-111710295D02*
X89384523Y-111805533D01*
X89384523Y-111805533D02*
X89336904Y-111948390D01*
X89336904Y-111948390D02*
X88765476Y-112519819D01*
X88765476Y-112519819D02*
X89384523Y-112519819D01*
X89955952Y-111948390D02*
X89860714Y-111900771D01*
X89860714Y-111900771D02*
X89813095Y-111853152D01*
X89813095Y-111853152D02*
X89765476Y-111757914D01*
X89765476Y-111757914D02*
X89765476Y-111710295D01*
X89765476Y-111710295D02*
X89813095Y-111615057D01*
X89813095Y-111615057D02*
X89860714Y-111567438D01*
X89860714Y-111567438D02*
X89955952Y-111519819D01*
X89955952Y-111519819D02*
X90146428Y-111519819D01*
X90146428Y-111519819D02*
X90241666Y-111567438D01*
X90241666Y-111567438D02*
X90289285Y-111615057D01*
X90289285Y-111615057D02*
X90336904Y-111710295D01*
X90336904Y-111710295D02*
X90336904Y-111757914D01*
X90336904Y-111757914D02*
X90289285Y-111853152D01*
X90289285Y-111853152D02*
X90241666Y-111900771D01*
X90241666Y-111900771D02*
X90146428Y-111948390D01*
X90146428Y-111948390D02*
X89955952Y-111948390D01*
X89955952Y-111948390D02*
X89860714Y-111996009D01*
X89860714Y-111996009D02*
X89813095Y-112043628D01*
X89813095Y-112043628D02*
X89765476Y-112138866D01*
X89765476Y-112138866D02*
X89765476Y-112329342D01*
X89765476Y-112329342D02*
X89813095Y-112424580D01*
X89813095Y-112424580D02*
X89860714Y-112472200D01*
X89860714Y-112472200D02*
X89955952Y-112519819D01*
X89955952Y-112519819D02*
X90146428Y-112519819D01*
X90146428Y-112519819D02*
X90241666Y-112472200D01*
X90241666Y-112472200D02*
X90289285Y-112424580D01*
X90289285Y-112424580D02*
X90336904Y-112329342D01*
X90336904Y-112329342D02*
X90336904Y-112138866D01*
X90336904Y-112138866D02*
X90289285Y-112043628D01*
X90289285Y-112043628D02*
X90241666Y-111996009D01*
X90241666Y-111996009D02*
X90146428Y-111948390D01*
X88432142Y-109229819D02*
X88098809Y-108753628D01*
X87860714Y-109229819D02*
X87860714Y-108229819D01*
X87860714Y-108229819D02*
X88241666Y-108229819D01*
X88241666Y-108229819D02*
X88336904Y-108277438D01*
X88336904Y-108277438D02*
X88384523Y-108325057D01*
X88384523Y-108325057D02*
X88432142Y-108420295D01*
X88432142Y-108420295D02*
X88432142Y-108563152D01*
X88432142Y-108563152D02*
X88384523Y-108658390D01*
X88384523Y-108658390D02*
X88336904Y-108706009D01*
X88336904Y-108706009D02*
X88241666Y-108753628D01*
X88241666Y-108753628D02*
X87860714Y-108753628D01*
X88813095Y-108325057D02*
X88860714Y-108277438D01*
X88860714Y-108277438D02*
X88955952Y-108229819D01*
X88955952Y-108229819D02*
X89194047Y-108229819D01*
X89194047Y-108229819D02*
X89289285Y-108277438D01*
X89289285Y-108277438D02*
X89336904Y-108325057D01*
X89336904Y-108325057D02*
X89384523Y-108420295D01*
X89384523Y-108420295D02*
X89384523Y-108515533D01*
X89384523Y-108515533D02*
X89336904Y-108658390D01*
X89336904Y-108658390D02*
X88765476Y-109229819D01*
X88765476Y-109229819D02*
X89384523Y-109229819D01*
X89717857Y-108229819D02*
X90384523Y-108229819D01*
X90384523Y-108229819D02*
X89955952Y-109229819D01*
X88432142Y-105939819D02*
X88098809Y-105463628D01*
X87860714Y-105939819D02*
X87860714Y-104939819D01*
X87860714Y-104939819D02*
X88241666Y-104939819D01*
X88241666Y-104939819D02*
X88336904Y-104987438D01*
X88336904Y-104987438D02*
X88384523Y-105035057D01*
X88384523Y-105035057D02*
X88432142Y-105130295D01*
X88432142Y-105130295D02*
X88432142Y-105273152D01*
X88432142Y-105273152D02*
X88384523Y-105368390D01*
X88384523Y-105368390D02*
X88336904Y-105416009D01*
X88336904Y-105416009D02*
X88241666Y-105463628D01*
X88241666Y-105463628D02*
X87860714Y-105463628D01*
X88813095Y-105035057D02*
X88860714Y-104987438D01*
X88860714Y-104987438D02*
X88955952Y-104939819D01*
X88955952Y-104939819D02*
X89194047Y-104939819D01*
X89194047Y-104939819D02*
X89289285Y-104987438D01*
X89289285Y-104987438D02*
X89336904Y-105035057D01*
X89336904Y-105035057D02*
X89384523Y-105130295D01*
X89384523Y-105130295D02*
X89384523Y-105225533D01*
X89384523Y-105225533D02*
X89336904Y-105368390D01*
X89336904Y-105368390D02*
X88765476Y-105939819D01*
X88765476Y-105939819D02*
X89384523Y-105939819D01*
X90241666Y-104939819D02*
X90051190Y-104939819D01*
X90051190Y-104939819D02*
X89955952Y-104987438D01*
X89955952Y-104987438D02*
X89908333Y-105035057D01*
X89908333Y-105035057D02*
X89813095Y-105177914D01*
X89813095Y-105177914D02*
X89765476Y-105368390D01*
X89765476Y-105368390D02*
X89765476Y-105749342D01*
X89765476Y-105749342D02*
X89813095Y-105844580D01*
X89813095Y-105844580D02*
X89860714Y-105892200D01*
X89860714Y-105892200D02*
X89955952Y-105939819D01*
X89955952Y-105939819D02*
X90146428Y-105939819D01*
X90146428Y-105939819D02*
X90241666Y-105892200D01*
X90241666Y-105892200D02*
X90289285Y-105844580D01*
X90289285Y-105844580D02*
X90336904Y-105749342D01*
X90336904Y-105749342D02*
X90336904Y-105511247D01*
X90336904Y-105511247D02*
X90289285Y-105416009D01*
X90289285Y-105416009D02*
X90241666Y-105368390D01*
X90241666Y-105368390D02*
X90146428Y-105320771D01*
X90146428Y-105320771D02*
X89955952Y-105320771D01*
X89955952Y-105320771D02*
X89860714Y-105368390D01*
X89860714Y-105368390D02*
X89813095Y-105416009D01*
X89813095Y-105416009D02*
X89765476Y-105511247D01*
X113402142Y-70649819D02*
X113068809Y-70173628D01*
X112830714Y-70649819D02*
X112830714Y-69649819D01*
X112830714Y-69649819D02*
X113211666Y-69649819D01*
X113211666Y-69649819D02*
X113306904Y-69697438D01*
X113306904Y-69697438D02*
X113354523Y-69745057D01*
X113354523Y-69745057D02*
X113402142Y-69840295D01*
X113402142Y-69840295D02*
X113402142Y-69983152D01*
X113402142Y-69983152D02*
X113354523Y-70078390D01*
X113354523Y-70078390D02*
X113306904Y-70126009D01*
X113306904Y-70126009D02*
X113211666Y-70173628D01*
X113211666Y-70173628D02*
X112830714Y-70173628D01*
X113783095Y-69745057D02*
X113830714Y-69697438D01*
X113830714Y-69697438D02*
X113925952Y-69649819D01*
X113925952Y-69649819D02*
X114164047Y-69649819D01*
X114164047Y-69649819D02*
X114259285Y-69697438D01*
X114259285Y-69697438D02*
X114306904Y-69745057D01*
X114306904Y-69745057D02*
X114354523Y-69840295D01*
X114354523Y-69840295D02*
X114354523Y-69935533D01*
X114354523Y-69935533D02*
X114306904Y-70078390D01*
X114306904Y-70078390D02*
X113735476Y-70649819D01*
X113735476Y-70649819D02*
X114354523Y-70649819D01*
X115259285Y-69649819D02*
X114783095Y-69649819D01*
X114783095Y-69649819D02*
X114735476Y-70126009D01*
X114735476Y-70126009D02*
X114783095Y-70078390D01*
X114783095Y-70078390D02*
X114878333Y-70030771D01*
X114878333Y-70030771D02*
X115116428Y-70030771D01*
X115116428Y-70030771D02*
X115211666Y-70078390D01*
X115211666Y-70078390D02*
X115259285Y-70126009D01*
X115259285Y-70126009D02*
X115306904Y-70221247D01*
X115306904Y-70221247D02*
X115306904Y-70459342D01*
X115306904Y-70459342D02*
X115259285Y-70554580D01*
X115259285Y-70554580D02*
X115211666Y-70602200D01*
X115211666Y-70602200D02*
X115116428Y-70649819D01*
X115116428Y-70649819D02*
X114878333Y-70649819D01*
X114878333Y-70649819D02*
X114783095Y-70602200D01*
X114783095Y-70602200D02*
X114735476Y-70554580D01*
X113402142Y-68139819D02*
X113068809Y-67663628D01*
X112830714Y-68139819D02*
X112830714Y-67139819D01*
X112830714Y-67139819D02*
X113211666Y-67139819D01*
X113211666Y-67139819D02*
X113306904Y-67187438D01*
X113306904Y-67187438D02*
X113354523Y-67235057D01*
X113354523Y-67235057D02*
X113402142Y-67330295D01*
X113402142Y-67330295D02*
X113402142Y-67473152D01*
X113402142Y-67473152D02*
X113354523Y-67568390D01*
X113354523Y-67568390D02*
X113306904Y-67616009D01*
X113306904Y-67616009D02*
X113211666Y-67663628D01*
X113211666Y-67663628D02*
X112830714Y-67663628D01*
X113783095Y-67235057D02*
X113830714Y-67187438D01*
X113830714Y-67187438D02*
X113925952Y-67139819D01*
X113925952Y-67139819D02*
X114164047Y-67139819D01*
X114164047Y-67139819D02*
X114259285Y-67187438D01*
X114259285Y-67187438D02*
X114306904Y-67235057D01*
X114306904Y-67235057D02*
X114354523Y-67330295D01*
X114354523Y-67330295D02*
X114354523Y-67425533D01*
X114354523Y-67425533D02*
X114306904Y-67568390D01*
X114306904Y-67568390D02*
X113735476Y-68139819D01*
X113735476Y-68139819D02*
X114354523Y-68139819D01*
X115211666Y-67473152D02*
X115211666Y-68139819D01*
X114973571Y-67092200D02*
X114735476Y-67806485D01*
X114735476Y-67806485D02*
X115354523Y-67806485D01*
X113402142Y-65629819D02*
X113068809Y-65153628D01*
X112830714Y-65629819D02*
X112830714Y-64629819D01*
X112830714Y-64629819D02*
X113211666Y-64629819D01*
X113211666Y-64629819D02*
X113306904Y-64677438D01*
X113306904Y-64677438D02*
X113354523Y-64725057D01*
X113354523Y-64725057D02*
X113402142Y-64820295D01*
X113402142Y-64820295D02*
X113402142Y-64963152D01*
X113402142Y-64963152D02*
X113354523Y-65058390D01*
X113354523Y-65058390D02*
X113306904Y-65106009D01*
X113306904Y-65106009D02*
X113211666Y-65153628D01*
X113211666Y-65153628D02*
X112830714Y-65153628D01*
X113783095Y-64725057D02*
X113830714Y-64677438D01*
X113830714Y-64677438D02*
X113925952Y-64629819D01*
X113925952Y-64629819D02*
X114164047Y-64629819D01*
X114164047Y-64629819D02*
X114259285Y-64677438D01*
X114259285Y-64677438D02*
X114306904Y-64725057D01*
X114306904Y-64725057D02*
X114354523Y-64820295D01*
X114354523Y-64820295D02*
X114354523Y-64915533D01*
X114354523Y-64915533D02*
X114306904Y-65058390D01*
X114306904Y-65058390D02*
X113735476Y-65629819D01*
X113735476Y-65629819D02*
X114354523Y-65629819D01*
X114687857Y-64629819D02*
X115306904Y-64629819D01*
X115306904Y-64629819D02*
X114973571Y-65010771D01*
X114973571Y-65010771D02*
X115116428Y-65010771D01*
X115116428Y-65010771D02*
X115211666Y-65058390D01*
X115211666Y-65058390D02*
X115259285Y-65106009D01*
X115259285Y-65106009D02*
X115306904Y-65201247D01*
X115306904Y-65201247D02*
X115306904Y-65439342D01*
X115306904Y-65439342D02*
X115259285Y-65534580D01*
X115259285Y-65534580D02*
X115211666Y-65582200D01*
X115211666Y-65582200D02*
X115116428Y-65629819D01*
X115116428Y-65629819D02*
X114830714Y-65629819D01*
X114830714Y-65629819D02*
X114735476Y-65582200D01*
X114735476Y-65582200D02*
X114687857Y-65534580D01*
X113402142Y-63119819D02*
X113068809Y-62643628D01*
X112830714Y-63119819D02*
X112830714Y-62119819D01*
X112830714Y-62119819D02*
X113211666Y-62119819D01*
X113211666Y-62119819D02*
X113306904Y-62167438D01*
X113306904Y-62167438D02*
X113354523Y-62215057D01*
X113354523Y-62215057D02*
X113402142Y-62310295D01*
X113402142Y-62310295D02*
X113402142Y-62453152D01*
X113402142Y-62453152D02*
X113354523Y-62548390D01*
X113354523Y-62548390D02*
X113306904Y-62596009D01*
X113306904Y-62596009D02*
X113211666Y-62643628D01*
X113211666Y-62643628D02*
X112830714Y-62643628D01*
X113783095Y-62215057D02*
X113830714Y-62167438D01*
X113830714Y-62167438D02*
X113925952Y-62119819D01*
X113925952Y-62119819D02*
X114164047Y-62119819D01*
X114164047Y-62119819D02*
X114259285Y-62167438D01*
X114259285Y-62167438D02*
X114306904Y-62215057D01*
X114306904Y-62215057D02*
X114354523Y-62310295D01*
X114354523Y-62310295D02*
X114354523Y-62405533D01*
X114354523Y-62405533D02*
X114306904Y-62548390D01*
X114306904Y-62548390D02*
X113735476Y-63119819D01*
X113735476Y-63119819D02*
X114354523Y-63119819D01*
X114735476Y-62215057D02*
X114783095Y-62167438D01*
X114783095Y-62167438D02*
X114878333Y-62119819D01*
X114878333Y-62119819D02*
X115116428Y-62119819D01*
X115116428Y-62119819D02*
X115211666Y-62167438D01*
X115211666Y-62167438D02*
X115259285Y-62215057D01*
X115259285Y-62215057D02*
X115306904Y-62310295D01*
X115306904Y-62310295D02*
X115306904Y-62405533D01*
X115306904Y-62405533D02*
X115259285Y-62548390D01*
X115259285Y-62548390D02*
X114687857Y-63119819D01*
X114687857Y-63119819D02*
X115306904Y-63119819D01*
X113402142Y-60609819D02*
X113068809Y-60133628D01*
X112830714Y-60609819D02*
X112830714Y-59609819D01*
X112830714Y-59609819D02*
X113211666Y-59609819D01*
X113211666Y-59609819D02*
X113306904Y-59657438D01*
X113306904Y-59657438D02*
X113354523Y-59705057D01*
X113354523Y-59705057D02*
X113402142Y-59800295D01*
X113402142Y-59800295D02*
X113402142Y-59943152D01*
X113402142Y-59943152D02*
X113354523Y-60038390D01*
X113354523Y-60038390D02*
X113306904Y-60086009D01*
X113306904Y-60086009D02*
X113211666Y-60133628D01*
X113211666Y-60133628D02*
X112830714Y-60133628D01*
X113783095Y-59705057D02*
X113830714Y-59657438D01*
X113830714Y-59657438D02*
X113925952Y-59609819D01*
X113925952Y-59609819D02*
X114164047Y-59609819D01*
X114164047Y-59609819D02*
X114259285Y-59657438D01*
X114259285Y-59657438D02*
X114306904Y-59705057D01*
X114306904Y-59705057D02*
X114354523Y-59800295D01*
X114354523Y-59800295D02*
X114354523Y-59895533D01*
X114354523Y-59895533D02*
X114306904Y-60038390D01*
X114306904Y-60038390D02*
X113735476Y-60609819D01*
X113735476Y-60609819D02*
X114354523Y-60609819D01*
X115306904Y-60609819D02*
X114735476Y-60609819D01*
X115021190Y-60609819D02*
X115021190Y-59609819D01*
X115021190Y-59609819D02*
X114925952Y-59752676D01*
X114925952Y-59752676D02*
X114830714Y-59847914D01*
X114830714Y-59847914D02*
X114735476Y-59895533D01*
X109392142Y-75669819D02*
X109058809Y-75193628D01*
X108820714Y-75669819D02*
X108820714Y-74669819D01*
X108820714Y-74669819D02*
X109201666Y-74669819D01*
X109201666Y-74669819D02*
X109296904Y-74717438D01*
X109296904Y-74717438D02*
X109344523Y-74765057D01*
X109344523Y-74765057D02*
X109392142Y-74860295D01*
X109392142Y-74860295D02*
X109392142Y-75003152D01*
X109392142Y-75003152D02*
X109344523Y-75098390D01*
X109344523Y-75098390D02*
X109296904Y-75146009D01*
X109296904Y-75146009D02*
X109201666Y-75193628D01*
X109201666Y-75193628D02*
X108820714Y-75193628D01*
X109773095Y-74765057D02*
X109820714Y-74717438D01*
X109820714Y-74717438D02*
X109915952Y-74669819D01*
X109915952Y-74669819D02*
X110154047Y-74669819D01*
X110154047Y-74669819D02*
X110249285Y-74717438D01*
X110249285Y-74717438D02*
X110296904Y-74765057D01*
X110296904Y-74765057D02*
X110344523Y-74860295D01*
X110344523Y-74860295D02*
X110344523Y-74955533D01*
X110344523Y-74955533D02*
X110296904Y-75098390D01*
X110296904Y-75098390D02*
X109725476Y-75669819D01*
X109725476Y-75669819D02*
X110344523Y-75669819D01*
X110963571Y-74669819D02*
X111058809Y-74669819D01*
X111058809Y-74669819D02*
X111154047Y-74717438D01*
X111154047Y-74717438D02*
X111201666Y-74765057D01*
X111201666Y-74765057D02*
X111249285Y-74860295D01*
X111249285Y-74860295D02*
X111296904Y-75050771D01*
X111296904Y-75050771D02*
X111296904Y-75288866D01*
X111296904Y-75288866D02*
X111249285Y-75479342D01*
X111249285Y-75479342D02*
X111201666Y-75574580D01*
X111201666Y-75574580D02*
X111154047Y-75622200D01*
X111154047Y-75622200D02*
X111058809Y-75669819D01*
X111058809Y-75669819D02*
X110963571Y-75669819D01*
X110963571Y-75669819D02*
X110868333Y-75622200D01*
X110868333Y-75622200D02*
X110820714Y-75574580D01*
X110820714Y-75574580D02*
X110773095Y-75479342D01*
X110773095Y-75479342D02*
X110725476Y-75288866D01*
X110725476Y-75288866D02*
X110725476Y-75050771D01*
X110725476Y-75050771D02*
X110773095Y-74860295D01*
X110773095Y-74860295D02*
X110820714Y-74765057D01*
X110820714Y-74765057D02*
X110868333Y-74717438D01*
X110868333Y-74717438D02*
X110963571Y-74669819D01*
X109392142Y-73159819D02*
X109058809Y-72683628D01*
X108820714Y-73159819D02*
X108820714Y-72159819D01*
X108820714Y-72159819D02*
X109201666Y-72159819D01*
X109201666Y-72159819D02*
X109296904Y-72207438D01*
X109296904Y-72207438D02*
X109344523Y-72255057D01*
X109344523Y-72255057D02*
X109392142Y-72350295D01*
X109392142Y-72350295D02*
X109392142Y-72493152D01*
X109392142Y-72493152D02*
X109344523Y-72588390D01*
X109344523Y-72588390D02*
X109296904Y-72636009D01*
X109296904Y-72636009D02*
X109201666Y-72683628D01*
X109201666Y-72683628D02*
X108820714Y-72683628D01*
X110344523Y-73159819D02*
X109773095Y-73159819D01*
X110058809Y-73159819D02*
X110058809Y-72159819D01*
X110058809Y-72159819D02*
X109963571Y-72302676D01*
X109963571Y-72302676D02*
X109868333Y-72397914D01*
X109868333Y-72397914D02*
X109773095Y-72445533D01*
X110820714Y-73159819D02*
X111011190Y-73159819D01*
X111011190Y-73159819D02*
X111106428Y-73112200D01*
X111106428Y-73112200D02*
X111154047Y-73064580D01*
X111154047Y-73064580D02*
X111249285Y-72921723D01*
X111249285Y-72921723D02*
X111296904Y-72731247D01*
X111296904Y-72731247D02*
X111296904Y-72350295D01*
X111296904Y-72350295D02*
X111249285Y-72255057D01*
X111249285Y-72255057D02*
X111201666Y-72207438D01*
X111201666Y-72207438D02*
X111106428Y-72159819D01*
X111106428Y-72159819D02*
X110915952Y-72159819D01*
X110915952Y-72159819D02*
X110820714Y-72207438D01*
X110820714Y-72207438D02*
X110773095Y-72255057D01*
X110773095Y-72255057D02*
X110725476Y-72350295D01*
X110725476Y-72350295D02*
X110725476Y-72588390D01*
X110725476Y-72588390D02*
X110773095Y-72683628D01*
X110773095Y-72683628D02*
X110820714Y-72731247D01*
X110820714Y-72731247D02*
X110915952Y-72778866D01*
X110915952Y-72778866D02*
X111106428Y-72778866D01*
X111106428Y-72778866D02*
X111201666Y-72731247D01*
X111201666Y-72731247D02*
X111249285Y-72683628D01*
X111249285Y-72683628D02*
X111296904Y-72588390D01*
X109392142Y-70649819D02*
X109058809Y-70173628D01*
X108820714Y-70649819D02*
X108820714Y-69649819D01*
X108820714Y-69649819D02*
X109201666Y-69649819D01*
X109201666Y-69649819D02*
X109296904Y-69697438D01*
X109296904Y-69697438D02*
X109344523Y-69745057D01*
X109344523Y-69745057D02*
X109392142Y-69840295D01*
X109392142Y-69840295D02*
X109392142Y-69983152D01*
X109392142Y-69983152D02*
X109344523Y-70078390D01*
X109344523Y-70078390D02*
X109296904Y-70126009D01*
X109296904Y-70126009D02*
X109201666Y-70173628D01*
X109201666Y-70173628D02*
X108820714Y-70173628D01*
X110344523Y-70649819D02*
X109773095Y-70649819D01*
X110058809Y-70649819D02*
X110058809Y-69649819D01*
X110058809Y-69649819D02*
X109963571Y-69792676D01*
X109963571Y-69792676D02*
X109868333Y-69887914D01*
X109868333Y-69887914D02*
X109773095Y-69935533D01*
X110915952Y-70078390D02*
X110820714Y-70030771D01*
X110820714Y-70030771D02*
X110773095Y-69983152D01*
X110773095Y-69983152D02*
X110725476Y-69887914D01*
X110725476Y-69887914D02*
X110725476Y-69840295D01*
X110725476Y-69840295D02*
X110773095Y-69745057D01*
X110773095Y-69745057D02*
X110820714Y-69697438D01*
X110820714Y-69697438D02*
X110915952Y-69649819D01*
X110915952Y-69649819D02*
X111106428Y-69649819D01*
X111106428Y-69649819D02*
X111201666Y-69697438D01*
X111201666Y-69697438D02*
X111249285Y-69745057D01*
X111249285Y-69745057D02*
X111296904Y-69840295D01*
X111296904Y-69840295D02*
X111296904Y-69887914D01*
X111296904Y-69887914D02*
X111249285Y-69983152D01*
X111249285Y-69983152D02*
X111201666Y-70030771D01*
X111201666Y-70030771D02*
X111106428Y-70078390D01*
X111106428Y-70078390D02*
X110915952Y-70078390D01*
X110915952Y-70078390D02*
X110820714Y-70126009D01*
X110820714Y-70126009D02*
X110773095Y-70173628D01*
X110773095Y-70173628D02*
X110725476Y-70268866D01*
X110725476Y-70268866D02*
X110725476Y-70459342D01*
X110725476Y-70459342D02*
X110773095Y-70554580D01*
X110773095Y-70554580D02*
X110820714Y-70602200D01*
X110820714Y-70602200D02*
X110915952Y-70649819D01*
X110915952Y-70649819D02*
X111106428Y-70649819D01*
X111106428Y-70649819D02*
X111201666Y-70602200D01*
X111201666Y-70602200D02*
X111249285Y-70554580D01*
X111249285Y-70554580D02*
X111296904Y-70459342D01*
X111296904Y-70459342D02*
X111296904Y-70268866D01*
X111296904Y-70268866D02*
X111249285Y-70173628D01*
X111249285Y-70173628D02*
X111201666Y-70126009D01*
X111201666Y-70126009D02*
X111106428Y-70078390D01*
X115302142Y-87809819D02*
X114968809Y-87333628D01*
X114730714Y-87809819D02*
X114730714Y-86809819D01*
X114730714Y-86809819D02*
X115111666Y-86809819D01*
X115111666Y-86809819D02*
X115206904Y-86857438D01*
X115206904Y-86857438D02*
X115254523Y-86905057D01*
X115254523Y-86905057D02*
X115302142Y-87000295D01*
X115302142Y-87000295D02*
X115302142Y-87143152D01*
X115302142Y-87143152D02*
X115254523Y-87238390D01*
X115254523Y-87238390D02*
X115206904Y-87286009D01*
X115206904Y-87286009D02*
X115111666Y-87333628D01*
X115111666Y-87333628D02*
X114730714Y-87333628D01*
X116254523Y-87809819D02*
X115683095Y-87809819D01*
X115968809Y-87809819D02*
X115968809Y-86809819D01*
X115968809Y-86809819D02*
X115873571Y-86952676D01*
X115873571Y-86952676D02*
X115778333Y-87047914D01*
X115778333Y-87047914D02*
X115683095Y-87095533D01*
X116587857Y-86809819D02*
X117254523Y-86809819D01*
X117254523Y-86809819D02*
X116825952Y-87809819D01*
X115302142Y-84859819D02*
X114968809Y-84383628D01*
X114730714Y-84859819D02*
X114730714Y-83859819D01*
X114730714Y-83859819D02*
X115111666Y-83859819D01*
X115111666Y-83859819D02*
X115206904Y-83907438D01*
X115206904Y-83907438D02*
X115254523Y-83955057D01*
X115254523Y-83955057D02*
X115302142Y-84050295D01*
X115302142Y-84050295D02*
X115302142Y-84193152D01*
X115302142Y-84193152D02*
X115254523Y-84288390D01*
X115254523Y-84288390D02*
X115206904Y-84336009D01*
X115206904Y-84336009D02*
X115111666Y-84383628D01*
X115111666Y-84383628D02*
X114730714Y-84383628D01*
X116254523Y-84859819D02*
X115683095Y-84859819D01*
X115968809Y-84859819D02*
X115968809Y-83859819D01*
X115968809Y-83859819D02*
X115873571Y-84002676D01*
X115873571Y-84002676D02*
X115778333Y-84097914D01*
X115778333Y-84097914D02*
X115683095Y-84145533D01*
X117111666Y-83859819D02*
X116921190Y-83859819D01*
X116921190Y-83859819D02*
X116825952Y-83907438D01*
X116825952Y-83907438D02*
X116778333Y-83955057D01*
X116778333Y-83955057D02*
X116683095Y-84097914D01*
X116683095Y-84097914D02*
X116635476Y-84288390D01*
X116635476Y-84288390D02*
X116635476Y-84669342D01*
X116635476Y-84669342D02*
X116683095Y-84764580D01*
X116683095Y-84764580D02*
X116730714Y-84812200D01*
X116730714Y-84812200D02*
X116825952Y-84859819D01*
X116825952Y-84859819D02*
X117016428Y-84859819D01*
X117016428Y-84859819D02*
X117111666Y-84812200D01*
X117111666Y-84812200D02*
X117159285Y-84764580D01*
X117159285Y-84764580D02*
X117206904Y-84669342D01*
X117206904Y-84669342D02*
X117206904Y-84431247D01*
X117206904Y-84431247D02*
X117159285Y-84336009D01*
X117159285Y-84336009D02*
X117111666Y-84288390D01*
X117111666Y-84288390D02*
X117016428Y-84240771D01*
X117016428Y-84240771D02*
X116825952Y-84240771D01*
X116825952Y-84240771D02*
X116730714Y-84288390D01*
X116730714Y-84288390D02*
X116683095Y-84336009D01*
X116683095Y-84336009D02*
X116635476Y-84431247D01*
X115302142Y-81909819D02*
X114968809Y-81433628D01*
X114730714Y-81909819D02*
X114730714Y-80909819D01*
X114730714Y-80909819D02*
X115111666Y-80909819D01*
X115111666Y-80909819D02*
X115206904Y-80957438D01*
X115206904Y-80957438D02*
X115254523Y-81005057D01*
X115254523Y-81005057D02*
X115302142Y-81100295D01*
X115302142Y-81100295D02*
X115302142Y-81243152D01*
X115302142Y-81243152D02*
X115254523Y-81338390D01*
X115254523Y-81338390D02*
X115206904Y-81386009D01*
X115206904Y-81386009D02*
X115111666Y-81433628D01*
X115111666Y-81433628D02*
X114730714Y-81433628D01*
X116254523Y-81909819D02*
X115683095Y-81909819D01*
X115968809Y-81909819D02*
X115968809Y-80909819D01*
X115968809Y-80909819D02*
X115873571Y-81052676D01*
X115873571Y-81052676D02*
X115778333Y-81147914D01*
X115778333Y-81147914D02*
X115683095Y-81195533D01*
X117159285Y-80909819D02*
X116683095Y-80909819D01*
X116683095Y-80909819D02*
X116635476Y-81386009D01*
X116635476Y-81386009D02*
X116683095Y-81338390D01*
X116683095Y-81338390D02*
X116778333Y-81290771D01*
X116778333Y-81290771D02*
X117016428Y-81290771D01*
X117016428Y-81290771D02*
X117111666Y-81338390D01*
X117111666Y-81338390D02*
X117159285Y-81386009D01*
X117159285Y-81386009D02*
X117206904Y-81481247D01*
X117206904Y-81481247D02*
X117206904Y-81719342D01*
X117206904Y-81719342D02*
X117159285Y-81814580D01*
X117159285Y-81814580D02*
X117111666Y-81862200D01*
X117111666Y-81862200D02*
X117016428Y-81909819D01*
X117016428Y-81909819D02*
X116778333Y-81909819D01*
X116778333Y-81909819D02*
X116683095Y-81862200D01*
X116683095Y-81862200D02*
X116635476Y-81814580D01*
X110892142Y-93709819D02*
X110558809Y-93233628D01*
X110320714Y-93709819D02*
X110320714Y-92709819D01*
X110320714Y-92709819D02*
X110701666Y-92709819D01*
X110701666Y-92709819D02*
X110796904Y-92757438D01*
X110796904Y-92757438D02*
X110844523Y-92805057D01*
X110844523Y-92805057D02*
X110892142Y-92900295D01*
X110892142Y-92900295D02*
X110892142Y-93043152D01*
X110892142Y-93043152D02*
X110844523Y-93138390D01*
X110844523Y-93138390D02*
X110796904Y-93186009D01*
X110796904Y-93186009D02*
X110701666Y-93233628D01*
X110701666Y-93233628D02*
X110320714Y-93233628D01*
X111844523Y-93709819D02*
X111273095Y-93709819D01*
X111558809Y-93709819D02*
X111558809Y-92709819D01*
X111558809Y-92709819D02*
X111463571Y-92852676D01*
X111463571Y-92852676D02*
X111368333Y-92947914D01*
X111368333Y-92947914D02*
X111273095Y-92995533D01*
X112701666Y-93043152D02*
X112701666Y-93709819D01*
X112463571Y-92662200D02*
X112225476Y-93376485D01*
X112225476Y-93376485D02*
X112844523Y-93376485D01*
X110892142Y-90759819D02*
X110558809Y-90283628D01*
X110320714Y-90759819D02*
X110320714Y-89759819D01*
X110320714Y-89759819D02*
X110701666Y-89759819D01*
X110701666Y-89759819D02*
X110796904Y-89807438D01*
X110796904Y-89807438D02*
X110844523Y-89855057D01*
X110844523Y-89855057D02*
X110892142Y-89950295D01*
X110892142Y-89950295D02*
X110892142Y-90093152D01*
X110892142Y-90093152D02*
X110844523Y-90188390D01*
X110844523Y-90188390D02*
X110796904Y-90236009D01*
X110796904Y-90236009D02*
X110701666Y-90283628D01*
X110701666Y-90283628D02*
X110320714Y-90283628D01*
X111844523Y-90759819D02*
X111273095Y-90759819D01*
X111558809Y-90759819D02*
X111558809Y-89759819D01*
X111558809Y-89759819D02*
X111463571Y-89902676D01*
X111463571Y-89902676D02*
X111368333Y-89997914D01*
X111368333Y-89997914D02*
X111273095Y-90045533D01*
X112177857Y-89759819D02*
X112796904Y-89759819D01*
X112796904Y-89759819D02*
X112463571Y-90140771D01*
X112463571Y-90140771D02*
X112606428Y-90140771D01*
X112606428Y-90140771D02*
X112701666Y-90188390D01*
X112701666Y-90188390D02*
X112749285Y-90236009D01*
X112749285Y-90236009D02*
X112796904Y-90331247D01*
X112796904Y-90331247D02*
X112796904Y-90569342D01*
X112796904Y-90569342D02*
X112749285Y-90664580D01*
X112749285Y-90664580D02*
X112701666Y-90712200D01*
X112701666Y-90712200D02*
X112606428Y-90759819D01*
X112606428Y-90759819D02*
X112320714Y-90759819D01*
X112320714Y-90759819D02*
X112225476Y-90712200D01*
X112225476Y-90712200D02*
X112177857Y-90664580D01*
X110892142Y-87809819D02*
X110558809Y-87333628D01*
X110320714Y-87809819D02*
X110320714Y-86809819D01*
X110320714Y-86809819D02*
X110701666Y-86809819D01*
X110701666Y-86809819D02*
X110796904Y-86857438D01*
X110796904Y-86857438D02*
X110844523Y-86905057D01*
X110844523Y-86905057D02*
X110892142Y-87000295D01*
X110892142Y-87000295D02*
X110892142Y-87143152D01*
X110892142Y-87143152D02*
X110844523Y-87238390D01*
X110844523Y-87238390D02*
X110796904Y-87286009D01*
X110796904Y-87286009D02*
X110701666Y-87333628D01*
X110701666Y-87333628D02*
X110320714Y-87333628D01*
X111844523Y-87809819D02*
X111273095Y-87809819D01*
X111558809Y-87809819D02*
X111558809Y-86809819D01*
X111558809Y-86809819D02*
X111463571Y-86952676D01*
X111463571Y-86952676D02*
X111368333Y-87047914D01*
X111368333Y-87047914D02*
X111273095Y-87095533D01*
X112225476Y-86905057D02*
X112273095Y-86857438D01*
X112273095Y-86857438D02*
X112368333Y-86809819D01*
X112368333Y-86809819D02*
X112606428Y-86809819D01*
X112606428Y-86809819D02*
X112701666Y-86857438D01*
X112701666Y-86857438D02*
X112749285Y-86905057D01*
X112749285Y-86905057D02*
X112796904Y-87000295D01*
X112796904Y-87000295D02*
X112796904Y-87095533D01*
X112796904Y-87095533D02*
X112749285Y-87238390D01*
X112749285Y-87238390D02*
X112177857Y-87809819D01*
X112177857Y-87809819D02*
X112796904Y-87809819D01*
X110892142Y-84859819D02*
X110558809Y-84383628D01*
X110320714Y-84859819D02*
X110320714Y-83859819D01*
X110320714Y-83859819D02*
X110701666Y-83859819D01*
X110701666Y-83859819D02*
X110796904Y-83907438D01*
X110796904Y-83907438D02*
X110844523Y-83955057D01*
X110844523Y-83955057D02*
X110892142Y-84050295D01*
X110892142Y-84050295D02*
X110892142Y-84193152D01*
X110892142Y-84193152D02*
X110844523Y-84288390D01*
X110844523Y-84288390D02*
X110796904Y-84336009D01*
X110796904Y-84336009D02*
X110701666Y-84383628D01*
X110701666Y-84383628D02*
X110320714Y-84383628D01*
X111844523Y-84859819D02*
X111273095Y-84859819D01*
X111558809Y-84859819D02*
X111558809Y-83859819D01*
X111558809Y-83859819D02*
X111463571Y-84002676D01*
X111463571Y-84002676D02*
X111368333Y-84097914D01*
X111368333Y-84097914D02*
X111273095Y-84145533D01*
X112796904Y-84859819D02*
X112225476Y-84859819D01*
X112511190Y-84859819D02*
X112511190Y-83859819D01*
X112511190Y-83859819D02*
X112415952Y-84002676D01*
X112415952Y-84002676D02*
X112320714Y-84097914D01*
X112320714Y-84097914D02*
X112225476Y-84145533D01*
X110892142Y-81909819D02*
X110558809Y-81433628D01*
X110320714Y-81909819D02*
X110320714Y-80909819D01*
X110320714Y-80909819D02*
X110701666Y-80909819D01*
X110701666Y-80909819D02*
X110796904Y-80957438D01*
X110796904Y-80957438D02*
X110844523Y-81005057D01*
X110844523Y-81005057D02*
X110892142Y-81100295D01*
X110892142Y-81100295D02*
X110892142Y-81243152D01*
X110892142Y-81243152D02*
X110844523Y-81338390D01*
X110844523Y-81338390D02*
X110796904Y-81386009D01*
X110796904Y-81386009D02*
X110701666Y-81433628D01*
X110701666Y-81433628D02*
X110320714Y-81433628D01*
X111844523Y-81909819D02*
X111273095Y-81909819D01*
X111558809Y-81909819D02*
X111558809Y-80909819D01*
X111558809Y-80909819D02*
X111463571Y-81052676D01*
X111463571Y-81052676D02*
X111368333Y-81147914D01*
X111368333Y-81147914D02*
X111273095Y-81195533D01*
X112463571Y-80909819D02*
X112558809Y-80909819D01*
X112558809Y-80909819D02*
X112654047Y-80957438D01*
X112654047Y-80957438D02*
X112701666Y-81005057D01*
X112701666Y-81005057D02*
X112749285Y-81100295D01*
X112749285Y-81100295D02*
X112796904Y-81290771D01*
X112796904Y-81290771D02*
X112796904Y-81528866D01*
X112796904Y-81528866D02*
X112749285Y-81719342D01*
X112749285Y-81719342D02*
X112701666Y-81814580D01*
X112701666Y-81814580D02*
X112654047Y-81862200D01*
X112654047Y-81862200D02*
X112558809Y-81909819D01*
X112558809Y-81909819D02*
X112463571Y-81909819D01*
X112463571Y-81909819D02*
X112368333Y-81862200D01*
X112368333Y-81862200D02*
X112320714Y-81814580D01*
X112320714Y-81814580D02*
X112273095Y-81719342D01*
X112273095Y-81719342D02*
X112225476Y-81528866D01*
X112225476Y-81528866D02*
X112225476Y-81290771D01*
X112225476Y-81290771D02*
X112273095Y-81100295D01*
X112273095Y-81100295D02*
X112320714Y-81005057D01*
X112320714Y-81005057D02*
X112368333Y-80957438D01*
X112368333Y-80957438D02*
X112463571Y-80909819D01*
X88908333Y-102649819D02*
X88575000Y-102173628D01*
X88336905Y-102649819D02*
X88336905Y-101649819D01*
X88336905Y-101649819D02*
X88717857Y-101649819D01*
X88717857Y-101649819D02*
X88813095Y-101697438D01*
X88813095Y-101697438D02*
X88860714Y-101745057D01*
X88860714Y-101745057D02*
X88908333Y-101840295D01*
X88908333Y-101840295D02*
X88908333Y-101983152D01*
X88908333Y-101983152D02*
X88860714Y-102078390D01*
X88860714Y-102078390D02*
X88813095Y-102126009D01*
X88813095Y-102126009D02*
X88717857Y-102173628D01*
X88717857Y-102173628D02*
X88336905Y-102173628D01*
X89384524Y-102649819D02*
X89575000Y-102649819D01*
X89575000Y-102649819D02*
X89670238Y-102602200D01*
X89670238Y-102602200D02*
X89717857Y-102554580D01*
X89717857Y-102554580D02*
X89813095Y-102411723D01*
X89813095Y-102411723D02*
X89860714Y-102221247D01*
X89860714Y-102221247D02*
X89860714Y-101840295D01*
X89860714Y-101840295D02*
X89813095Y-101745057D01*
X89813095Y-101745057D02*
X89765476Y-101697438D01*
X89765476Y-101697438D02*
X89670238Y-101649819D01*
X89670238Y-101649819D02*
X89479762Y-101649819D01*
X89479762Y-101649819D02*
X89384524Y-101697438D01*
X89384524Y-101697438D02*
X89336905Y-101745057D01*
X89336905Y-101745057D02*
X89289286Y-101840295D01*
X89289286Y-101840295D02*
X89289286Y-102078390D01*
X89289286Y-102078390D02*
X89336905Y-102173628D01*
X89336905Y-102173628D02*
X89384524Y-102221247D01*
X89384524Y-102221247D02*
X89479762Y-102268866D01*
X89479762Y-102268866D02*
X89670238Y-102268866D01*
X89670238Y-102268866D02*
X89765476Y-102221247D01*
X89765476Y-102221247D02*
X89813095Y-102173628D01*
X89813095Y-102173628D02*
X89860714Y-102078390D01*
X106958333Y-93709819D02*
X106625000Y-93233628D01*
X106386905Y-93709819D02*
X106386905Y-92709819D01*
X106386905Y-92709819D02*
X106767857Y-92709819D01*
X106767857Y-92709819D02*
X106863095Y-92757438D01*
X106863095Y-92757438D02*
X106910714Y-92805057D01*
X106910714Y-92805057D02*
X106958333Y-92900295D01*
X106958333Y-92900295D02*
X106958333Y-93043152D01*
X106958333Y-93043152D02*
X106910714Y-93138390D01*
X106910714Y-93138390D02*
X106863095Y-93186009D01*
X106863095Y-93186009D02*
X106767857Y-93233628D01*
X106767857Y-93233628D02*
X106386905Y-93233628D01*
X107529762Y-93138390D02*
X107434524Y-93090771D01*
X107434524Y-93090771D02*
X107386905Y-93043152D01*
X107386905Y-93043152D02*
X107339286Y-92947914D01*
X107339286Y-92947914D02*
X107339286Y-92900295D01*
X107339286Y-92900295D02*
X107386905Y-92805057D01*
X107386905Y-92805057D02*
X107434524Y-92757438D01*
X107434524Y-92757438D02*
X107529762Y-92709819D01*
X107529762Y-92709819D02*
X107720238Y-92709819D01*
X107720238Y-92709819D02*
X107815476Y-92757438D01*
X107815476Y-92757438D02*
X107863095Y-92805057D01*
X107863095Y-92805057D02*
X107910714Y-92900295D01*
X107910714Y-92900295D02*
X107910714Y-92947914D01*
X107910714Y-92947914D02*
X107863095Y-93043152D01*
X107863095Y-93043152D02*
X107815476Y-93090771D01*
X107815476Y-93090771D02*
X107720238Y-93138390D01*
X107720238Y-93138390D02*
X107529762Y-93138390D01*
X107529762Y-93138390D02*
X107434524Y-93186009D01*
X107434524Y-93186009D02*
X107386905Y-93233628D01*
X107386905Y-93233628D02*
X107339286Y-93328866D01*
X107339286Y-93328866D02*
X107339286Y-93519342D01*
X107339286Y-93519342D02*
X107386905Y-93614580D01*
X107386905Y-93614580D02*
X107434524Y-93662200D01*
X107434524Y-93662200D02*
X107529762Y-93709819D01*
X107529762Y-93709819D02*
X107720238Y-93709819D01*
X107720238Y-93709819D02*
X107815476Y-93662200D01*
X107815476Y-93662200D02*
X107863095Y-93614580D01*
X107863095Y-93614580D02*
X107910714Y-93519342D01*
X107910714Y-93519342D02*
X107910714Y-93328866D01*
X107910714Y-93328866D02*
X107863095Y-93233628D01*
X107863095Y-93233628D02*
X107815476Y-93186009D01*
X107815476Y-93186009D02*
X107720238Y-93138390D01*
X88908333Y-99359819D02*
X88575000Y-98883628D01*
X88336905Y-99359819D02*
X88336905Y-98359819D01*
X88336905Y-98359819D02*
X88717857Y-98359819D01*
X88717857Y-98359819D02*
X88813095Y-98407438D01*
X88813095Y-98407438D02*
X88860714Y-98455057D01*
X88860714Y-98455057D02*
X88908333Y-98550295D01*
X88908333Y-98550295D02*
X88908333Y-98693152D01*
X88908333Y-98693152D02*
X88860714Y-98788390D01*
X88860714Y-98788390D02*
X88813095Y-98836009D01*
X88813095Y-98836009D02*
X88717857Y-98883628D01*
X88717857Y-98883628D02*
X88336905Y-98883628D01*
X89241667Y-98359819D02*
X89908333Y-98359819D01*
X89908333Y-98359819D02*
X89479762Y-99359819D01*
X109868333Y-68139819D02*
X109535000Y-67663628D01*
X109296905Y-68139819D02*
X109296905Y-67139819D01*
X109296905Y-67139819D02*
X109677857Y-67139819D01*
X109677857Y-67139819D02*
X109773095Y-67187438D01*
X109773095Y-67187438D02*
X109820714Y-67235057D01*
X109820714Y-67235057D02*
X109868333Y-67330295D01*
X109868333Y-67330295D02*
X109868333Y-67473152D01*
X109868333Y-67473152D02*
X109820714Y-67568390D01*
X109820714Y-67568390D02*
X109773095Y-67616009D01*
X109773095Y-67616009D02*
X109677857Y-67663628D01*
X109677857Y-67663628D02*
X109296905Y-67663628D01*
X110725476Y-67139819D02*
X110535000Y-67139819D01*
X110535000Y-67139819D02*
X110439762Y-67187438D01*
X110439762Y-67187438D02*
X110392143Y-67235057D01*
X110392143Y-67235057D02*
X110296905Y-67377914D01*
X110296905Y-67377914D02*
X110249286Y-67568390D01*
X110249286Y-67568390D02*
X110249286Y-67949342D01*
X110249286Y-67949342D02*
X110296905Y-68044580D01*
X110296905Y-68044580D02*
X110344524Y-68092200D01*
X110344524Y-68092200D02*
X110439762Y-68139819D01*
X110439762Y-68139819D02*
X110630238Y-68139819D01*
X110630238Y-68139819D02*
X110725476Y-68092200D01*
X110725476Y-68092200D02*
X110773095Y-68044580D01*
X110773095Y-68044580D02*
X110820714Y-67949342D01*
X110820714Y-67949342D02*
X110820714Y-67711247D01*
X110820714Y-67711247D02*
X110773095Y-67616009D01*
X110773095Y-67616009D02*
X110725476Y-67568390D01*
X110725476Y-67568390D02*
X110630238Y-67520771D01*
X110630238Y-67520771D02*
X110439762Y-67520771D01*
X110439762Y-67520771D02*
X110344524Y-67568390D01*
X110344524Y-67568390D02*
X110296905Y-67616009D01*
X110296905Y-67616009D02*
X110249286Y-67711247D01*
X106958333Y-90759819D02*
X106625000Y-90283628D01*
X106386905Y-90759819D02*
X106386905Y-89759819D01*
X106386905Y-89759819D02*
X106767857Y-89759819D01*
X106767857Y-89759819D02*
X106863095Y-89807438D01*
X106863095Y-89807438D02*
X106910714Y-89855057D01*
X106910714Y-89855057D02*
X106958333Y-89950295D01*
X106958333Y-89950295D02*
X106958333Y-90093152D01*
X106958333Y-90093152D02*
X106910714Y-90188390D01*
X106910714Y-90188390D02*
X106863095Y-90236009D01*
X106863095Y-90236009D02*
X106767857Y-90283628D01*
X106767857Y-90283628D02*
X106386905Y-90283628D01*
X107863095Y-89759819D02*
X107386905Y-89759819D01*
X107386905Y-89759819D02*
X107339286Y-90236009D01*
X107339286Y-90236009D02*
X107386905Y-90188390D01*
X107386905Y-90188390D02*
X107482143Y-90140771D01*
X107482143Y-90140771D02*
X107720238Y-90140771D01*
X107720238Y-90140771D02*
X107815476Y-90188390D01*
X107815476Y-90188390D02*
X107863095Y-90236009D01*
X107863095Y-90236009D02*
X107910714Y-90331247D01*
X107910714Y-90331247D02*
X107910714Y-90569342D01*
X107910714Y-90569342D02*
X107863095Y-90664580D01*
X107863095Y-90664580D02*
X107815476Y-90712200D01*
X107815476Y-90712200D02*
X107720238Y-90759819D01*
X107720238Y-90759819D02*
X107482143Y-90759819D01*
X107482143Y-90759819D02*
X107386905Y-90712200D01*
X107386905Y-90712200D02*
X107339286Y-90664580D01*
X109868333Y-65629819D02*
X109535000Y-65153628D01*
X109296905Y-65629819D02*
X109296905Y-64629819D01*
X109296905Y-64629819D02*
X109677857Y-64629819D01*
X109677857Y-64629819D02*
X109773095Y-64677438D01*
X109773095Y-64677438D02*
X109820714Y-64725057D01*
X109820714Y-64725057D02*
X109868333Y-64820295D01*
X109868333Y-64820295D02*
X109868333Y-64963152D01*
X109868333Y-64963152D02*
X109820714Y-65058390D01*
X109820714Y-65058390D02*
X109773095Y-65106009D01*
X109773095Y-65106009D02*
X109677857Y-65153628D01*
X109677857Y-65153628D02*
X109296905Y-65153628D01*
X110725476Y-64963152D02*
X110725476Y-65629819D01*
X110487381Y-64582200D02*
X110249286Y-65296485D01*
X110249286Y-65296485D02*
X110868333Y-65296485D01*
X106958333Y-87809819D02*
X106625000Y-87333628D01*
X106386905Y-87809819D02*
X106386905Y-86809819D01*
X106386905Y-86809819D02*
X106767857Y-86809819D01*
X106767857Y-86809819D02*
X106863095Y-86857438D01*
X106863095Y-86857438D02*
X106910714Y-86905057D01*
X106910714Y-86905057D02*
X106958333Y-87000295D01*
X106958333Y-87000295D02*
X106958333Y-87143152D01*
X106958333Y-87143152D02*
X106910714Y-87238390D01*
X106910714Y-87238390D02*
X106863095Y-87286009D01*
X106863095Y-87286009D02*
X106767857Y-87333628D01*
X106767857Y-87333628D02*
X106386905Y-87333628D01*
X107291667Y-86809819D02*
X107910714Y-86809819D01*
X107910714Y-86809819D02*
X107577381Y-87190771D01*
X107577381Y-87190771D02*
X107720238Y-87190771D01*
X107720238Y-87190771D02*
X107815476Y-87238390D01*
X107815476Y-87238390D02*
X107863095Y-87286009D01*
X107863095Y-87286009D02*
X107910714Y-87381247D01*
X107910714Y-87381247D02*
X107910714Y-87619342D01*
X107910714Y-87619342D02*
X107863095Y-87714580D01*
X107863095Y-87714580D02*
X107815476Y-87762200D01*
X107815476Y-87762200D02*
X107720238Y-87809819D01*
X107720238Y-87809819D02*
X107434524Y-87809819D01*
X107434524Y-87809819D02*
X107339286Y-87762200D01*
X107339286Y-87762200D02*
X107291667Y-87714580D01*
X106958333Y-84859819D02*
X106625000Y-84383628D01*
X106386905Y-84859819D02*
X106386905Y-83859819D01*
X106386905Y-83859819D02*
X106767857Y-83859819D01*
X106767857Y-83859819D02*
X106863095Y-83907438D01*
X106863095Y-83907438D02*
X106910714Y-83955057D01*
X106910714Y-83955057D02*
X106958333Y-84050295D01*
X106958333Y-84050295D02*
X106958333Y-84193152D01*
X106958333Y-84193152D02*
X106910714Y-84288390D01*
X106910714Y-84288390D02*
X106863095Y-84336009D01*
X106863095Y-84336009D02*
X106767857Y-84383628D01*
X106767857Y-84383628D02*
X106386905Y-84383628D01*
X107339286Y-83955057D02*
X107386905Y-83907438D01*
X107386905Y-83907438D02*
X107482143Y-83859819D01*
X107482143Y-83859819D02*
X107720238Y-83859819D01*
X107720238Y-83859819D02*
X107815476Y-83907438D01*
X107815476Y-83907438D02*
X107863095Y-83955057D01*
X107863095Y-83955057D02*
X107910714Y-84050295D01*
X107910714Y-84050295D02*
X107910714Y-84145533D01*
X107910714Y-84145533D02*
X107863095Y-84288390D01*
X107863095Y-84288390D02*
X107291667Y-84859819D01*
X107291667Y-84859819D02*
X107910714Y-84859819D01*
X109868333Y-63119819D02*
X109535000Y-62643628D01*
X109296905Y-63119819D02*
X109296905Y-62119819D01*
X109296905Y-62119819D02*
X109677857Y-62119819D01*
X109677857Y-62119819D02*
X109773095Y-62167438D01*
X109773095Y-62167438D02*
X109820714Y-62215057D01*
X109820714Y-62215057D02*
X109868333Y-62310295D01*
X109868333Y-62310295D02*
X109868333Y-62453152D01*
X109868333Y-62453152D02*
X109820714Y-62548390D01*
X109820714Y-62548390D02*
X109773095Y-62596009D01*
X109773095Y-62596009D02*
X109677857Y-62643628D01*
X109677857Y-62643628D02*
X109296905Y-62643628D01*
X110820714Y-63119819D02*
X110249286Y-63119819D01*
X110535000Y-63119819D02*
X110535000Y-62119819D01*
X110535000Y-62119819D02*
X110439762Y-62262676D01*
X110439762Y-62262676D02*
X110344524Y-62357914D01*
X110344524Y-62357914D02*
X110249286Y-62405533D01*
X118399761Y-75820057D02*
X118304523Y-75772438D01*
X118304523Y-75772438D02*
X118209285Y-75677200D01*
X118209285Y-75677200D02*
X118066428Y-75534342D01*
X118066428Y-75534342D02*
X117971190Y-75486723D01*
X117971190Y-75486723D02*
X117875952Y-75486723D01*
X117923571Y-75724819D02*
X117828333Y-75677200D01*
X117828333Y-75677200D02*
X117733095Y-75581961D01*
X117733095Y-75581961D02*
X117685476Y-75391485D01*
X117685476Y-75391485D02*
X117685476Y-75058152D01*
X117685476Y-75058152D02*
X117733095Y-74867676D01*
X117733095Y-74867676D02*
X117828333Y-74772438D01*
X117828333Y-74772438D02*
X117923571Y-74724819D01*
X117923571Y-74724819D02*
X118114047Y-74724819D01*
X118114047Y-74724819D02*
X118209285Y-74772438D01*
X118209285Y-74772438D02*
X118304523Y-74867676D01*
X118304523Y-74867676D02*
X118352142Y-75058152D01*
X118352142Y-75058152D02*
X118352142Y-75391485D01*
X118352142Y-75391485D02*
X118304523Y-75581961D01*
X118304523Y-75581961D02*
X118209285Y-75677200D01*
X118209285Y-75677200D02*
X118114047Y-75724819D01*
X118114047Y-75724819D02*
X117923571Y-75724819D01*
X119304523Y-75724819D02*
X118733095Y-75724819D01*
X119018809Y-75724819D02*
X119018809Y-74724819D01*
X119018809Y-74724819D02*
X118923571Y-74867676D01*
X118923571Y-74867676D02*
X118828333Y-74962914D01*
X118828333Y-74962914D02*
X118733095Y-75010533D01*
X123808333Y-68849819D02*
X123332143Y-68849819D01*
X123332143Y-68849819D02*
X123332143Y-67849819D01*
X124094048Y-67945057D02*
X124141667Y-67897438D01*
X124141667Y-67897438D02*
X124236905Y-67849819D01*
X124236905Y-67849819D02*
X124475000Y-67849819D01*
X124475000Y-67849819D02*
X124570238Y-67897438D01*
X124570238Y-67897438D02*
X124617857Y-67945057D01*
X124617857Y-67945057D02*
X124665476Y-68040295D01*
X124665476Y-68040295D02*
X124665476Y-68135533D01*
X124665476Y-68135533D02*
X124617857Y-68278390D01*
X124617857Y-68278390D02*
X124046429Y-68849819D01*
X124046429Y-68849819D02*
X124665476Y-68849819D01*
X120858333Y-60604819D02*
X120382143Y-60604819D01*
X120382143Y-60604819D02*
X120382143Y-59604819D01*
X121715476Y-60604819D02*
X121144048Y-60604819D01*
X121429762Y-60604819D02*
X121429762Y-59604819D01*
X121429762Y-59604819D02*
X121334524Y-59747676D01*
X121334524Y-59747676D02*
X121239286Y-59842914D01*
X121239286Y-59842914D02*
X121144048Y-59890533D01*
X108561666Y-105729819D02*
X108561666Y-106444104D01*
X108561666Y-106444104D02*
X108514047Y-106586961D01*
X108514047Y-106586961D02*
X108418809Y-106682200D01*
X108418809Y-106682200D02*
X108275952Y-106729819D01*
X108275952Y-106729819D02*
X108180714Y-106729819D01*
X108942619Y-105729819D02*
X109561666Y-105729819D01*
X109561666Y-105729819D02*
X109228333Y-106110771D01*
X109228333Y-106110771D02*
X109371190Y-106110771D01*
X109371190Y-106110771D02*
X109466428Y-106158390D01*
X109466428Y-106158390D02*
X109514047Y-106206009D01*
X109514047Y-106206009D02*
X109561666Y-106301247D01*
X109561666Y-106301247D02*
X109561666Y-106539342D01*
X109561666Y-106539342D02*
X109514047Y-106634580D01*
X109514047Y-106634580D02*
X109466428Y-106682200D01*
X109466428Y-106682200D02*
X109371190Y-106729819D01*
X109371190Y-106729819D02*
X109085476Y-106729819D01*
X109085476Y-106729819D02*
X108990238Y-106682200D01*
X108990238Y-106682200D02*
X108942619Y-106634580D01*
X108800166Y-95329819D02*
X108800166Y-96044104D01*
X108800166Y-96044104D02*
X108752547Y-96186961D01*
X108752547Y-96186961D02*
X108657309Y-96282200D01*
X108657309Y-96282200D02*
X108514452Y-96329819D01*
X108514452Y-96329819D02*
X108419214Y-96329819D01*
X109228738Y-95425057D02*
X109276357Y-95377438D01*
X109276357Y-95377438D02*
X109371595Y-95329819D01*
X109371595Y-95329819D02*
X109609690Y-95329819D01*
X109609690Y-95329819D02*
X109704928Y-95377438D01*
X109704928Y-95377438D02*
X109752547Y-95425057D01*
X109752547Y-95425057D02*
X109800166Y-95520295D01*
X109800166Y-95520295D02*
X109800166Y-95615533D01*
X109800166Y-95615533D02*
X109752547Y-95758390D01*
X109752547Y-95758390D02*
X109181119Y-96329819D01*
X109181119Y-96329819D02*
X109800166Y-96329819D01*
X79511666Y-59779819D02*
X79511666Y-60494104D01*
X79511666Y-60494104D02*
X79464047Y-60636961D01*
X79464047Y-60636961D02*
X79368809Y-60732200D01*
X79368809Y-60732200D02*
X79225952Y-60779819D01*
X79225952Y-60779819D02*
X79130714Y-60779819D01*
X80511666Y-60779819D02*
X79940238Y-60779819D01*
X80225952Y-60779819D02*
X80225952Y-59779819D01*
X80225952Y-59779819D02*
X80130714Y-59922676D01*
X80130714Y-59922676D02*
X80035476Y-60017914D01*
X80035476Y-60017914D02*
X79940238Y-60065533D01*
D11*
X119430237Y-113924318D02*
X119430237Y-112654318D01*
X120760714Y-113803365D02*
X120700238Y-113863842D01*
X120700238Y-113863842D02*
X120518809Y-113924318D01*
X120518809Y-113924318D02*
X120397857Y-113924318D01*
X120397857Y-113924318D02*
X120216428Y-113863842D01*
X120216428Y-113863842D02*
X120095476Y-113742889D01*
X120095476Y-113742889D02*
X120034999Y-113621937D01*
X120034999Y-113621937D02*
X119974523Y-113380032D01*
X119974523Y-113380032D02*
X119974523Y-113198603D01*
X119974523Y-113198603D02*
X120034999Y-112956699D01*
X120034999Y-112956699D02*
X120095476Y-112835746D01*
X120095476Y-112835746D02*
X120216428Y-112714794D01*
X120216428Y-112714794D02*
X120397857Y-112654318D01*
X120397857Y-112654318D02*
X120518809Y-112654318D01*
X120518809Y-112654318D02*
X120700238Y-112714794D01*
X120700238Y-112714794D02*
X120760714Y-112775270D01*
X121849285Y-112654318D02*
X121607380Y-112654318D01*
X121607380Y-112654318D02*
X121486428Y-112714794D01*
X121486428Y-112714794D02*
X121425952Y-112775270D01*
X121425952Y-112775270D02*
X121304999Y-112956699D01*
X121304999Y-112956699D02*
X121244523Y-113198603D01*
X121244523Y-113198603D02*
X121244523Y-113682413D01*
X121244523Y-113682413D02*
X121304999Y-113803365D01*
X121304999Y-113803365D02*
X121365476Y-113863842D01*
X121365476Y-113863842D02*
X121486428Y-113924318D01*
X121486428Y-113924318D02*
X121728333Y-113924318D01*
X121728333Y-113924318D02*
X121849285Y-113863842D01*
X121849285Y-113863842D02*
X121909761Y-113803365D01*
X121909761Y-113803365D02*
X121970238Y-113682413D01*
X121970238Y-113682413D02*
X121970238Y-113380032D01*
X121970238Y-113380032D02*
X121909761Y-113259080D01*
X121909761Y-113259080D02*
X121849285Y-113198603D01*
X121849285Y-113198603D02*
X121728333Y-113138127D01*
X121728333Y-113138127D02*
X121486428Y-113138127D01*
X121486428Y-113138127D02*
X121365476Y-113198603D01*
X121365476Y-113198603D02*
X121304999Y-113259080D01*
X121304999Y-113259080D02*
X121244523Y-113380032D01*
X94890237Y-112079318D02*
X94890237Y-110809318D01*
X96220714Y-111958365D02*
X96160238Y-112018842D01*
X96160238Y-112018842D02*
X95978809Y-112079318D01*
X95978809Y-112079318D02*
X95857857Y-112079318D01*
X95857857Y-112079318D02*
X95676428Y-112018842D01*
X95676428Y-112018842D02*
X95555476Y-111897889D01*
X95555476Y-111897889D02*
X95494999Y-111776937D01*
X95494999Y-111776937D02*
X95434523Y-111535032D01*
X95434523Y-111535032D02*
X95434523Y-111353603D01*
X95434523Y-111353603D02*
X95494999Y-111111699D01*
X95494999Y-111111699D02*
X95555476Y-110990746D01*
X95555476Y-110990746D02*
X95676428Y-110869794D01*
X95676428Y-110869794D02*
X95857857Y-110809318D01*
X95857857Y-110809318D02*
X95978809Y-110809318D01*
X95978809Y-110809318D02*
X96160238Y-110869794D01*
X96160238Y-110869794D02*
X96220714Y-110930270D01*
X97309285Y-111232651D02*
X97309285Y-112079318D01*
X97006904Y-110748842D02*
X96704523Y-111655984D01*
X96704523Y-111655984D02*
X97490714Y-111655984D01*
X76430237Y-113499318D02*
X76430237Y-112229318D01*
X77760714Y-113378365D02*
X77700238Y-113438842D01*
X77700238Y-113438842D02*
X77518809Y-113499318D01*
X77518809Y-113499318D02*
X77397857Y-113499318D01*
X77397857Y-113499318D02*
X77216428Y-113438842D01*
X77216428Y-113438842D02*
X77095476Y-113317889D01*
X77095476Y-113317889D02*
X77034999Y-113196937D01*
X77034999Y-113196937D02*
X76974523Y-112955032D01*
X76974523Y-112955032D02*
X76974523Y-112773603D01*
X76974523Y-112773603D02*
X77034999Y-112531699D01*
X77034999Y-112531699D02*
X77095476Y-112410746D01*
X77095476Y-112410746D02*
X77216428Y-112289794D01*
X77216428Y-112289794D02*
X77397857Y-112229318D01*
X77397857Y-112229318D02*
X77518809Y-112229318D01*
X77518809Y-112229318D02*
X77700238Y-112289794D01*
X77700238Y-112289794D02*
X77760714Y-112350270D01*
X78184047Y-112229318D02*
X78970238Y-112229318D01*
X78970238Y-112229318D02*
X78546904Y-112713127D01*
X78546904Y-112713127D02*
X78728333Y-112713127D01*
X78728333Y-112713127D02*
X78849285Y-112773603D01*
X78849285Y-112773603D02*
X78909761Y-112834080D01*
X78909761Y-112834080D02*
X78970238Y-112955032D01*
X78970238Y-112955032D02*
X78970238Y-113257413D01*
X78970238Y-113257413D02*
X78909761Y-113378365D01*
X78909761Y-113378365D02*
X78849285Y-113438842D01*
X78849285Y-113438842D02*
X78728333Y-113499318D01*
X78728333Y-113499318D02*
X78365476Y-113499318D01*
X78365476Y-113499318D02*
X78244523Y-113438842D01*
X78244523Y-113438842D02*
X78184047Y-113378365D01*
X119430237Y-109324318D02*
X119430237Y-108054318D01*
X120760714Y-109203365D02*
X120700238Y-109263842D01*
X120700238Y-109263842D02*
X120518809Y-109324318D01*
X120518809Y-109324318D02*
X120397857Y-109324318D01*
X120397857Y-109324318D02*
X120216428Y-109263842D01*
X120216428Y-109263842D02*
X120095476Y-109142889D01*
X120095476Y-109142889D02*
X120034999Y-109021937D01*
X120034999Y-109021937D02*
X119974523Y-108780032D01*
X119974523Y-108780032D02*
X119974523Y-108598603D01*
X119974523Y-108598603D02*
X120034999Y-108356699D01*
X120034999Y-108356699D02*
X120095476Y-108235746D01*
X120095476Y-108235746D02*
X120216428Y-108114794D01*
X120216428Y-108114794D02*
X120397857Y-108054318D01*
X120397857Y-108054318D02*
X120518809Y-108054318D01*
X120518809Y-108054318D02*
X120700238Y-108114794D01*
X120700238Y-108114794D02*
X120760714Y-108175270D01*
X121244523Y-108175270D02*
X121304999Y-108114794D01*
X121304999Y-108114794D02*
X121425952Y-108054318D01*
X121425952Y-108054318D02*
X121728333Y-108054318D01*
X121728333Y-108054318D02*
X121849285Y-108114794D01*
X121849285Y-108114794D02*
X121909761Y-108175270D01*
X121909761Y-108175270D02*
X121970238Y-108296222D01*
X121970238Y-108296222D02*
X121970238Y-108417175D01*
X121970238Y-108417175D02*
X121909761Y-108598603D01*
X121909761Y-108598603D02*
X121184047Y-109324318D01*
X121184047Y-109324318D02*
X121970238Y-109324318D01*
X76405237Y-106954318D02*
X76405237Y-105684318D01*
X77735714Y-106833365D02*
X77675238Y-106893842D01*
X77675238Y-106893842D02*
X77493809Y-106954318D01*
X77493809Y-106954318D02*
X77372857Y-106954318D01*
X77372857Y-106954318D02*
X77191428Y-106893842D01*
X77191428Y-106893842D02*
X77070476Y-106772889D01*
X77070476Y-106772889D02*
X77009999Y-106651937D01*
X77009999Y-106651937D02*
X76949523Y-106410032D01*
X76949523Y-106410032D02*
X76949523Y-106228603D01*
X76949523Y-106228603D02*
X77009999Y-105986699D01*
X77009999Y-105986699D02*
X77070476Y-105865746D01*
X77070476Y-105865746D02*
X77191428Y-105744794D01*
X77191428Y-105744794D02*
X77372857Y-105684318D01*
X77372857Y-105684318D02*
X77493809Y-105684318D01*
X77493809Y-105684318D02*
X77675238Y-105744794D01*
X77675238Y-105744794D02*
X77735714Y-105805270D01*
X78945238Y-106954318D02*
X78219523Y-106954318D01*
X78582380Y-106954318D02*
X78582380Y-105684318D01*
X78582380Y-105684318D02*
X78461428Y-105865746D01*
X78461428Y-105865746D02*
X78340476Y-105986699D01*
X78340476Y-105986699D02*
X78219523Y-106047175D01*
D10*
X95211905Y-103859819D02*
X95211905Y-102859819D01*
X95211905Y-102859819D02*
X95450000Y-102859819D01*
X95450000Y-102859819D02*
X95592857Y-102907438D01*
X95592857Y-102907438D02*
X95688095Y-103002676D01*
X95688095Y-103002676D02*
X95735714Y-103097914D01*
X95735714Y-103097914D02*
X95783333Y-103288390D01*
X95783333Y-103288390D02*
X95783333Y-103431247D01*
X95783333Y-103431247D02*
X95735714Y-103621723D01*
X95735714Y-103621723D02*
X95688095Y-103716961D01*
X95688095Y-103716961D02*
X95592857Y-103812200D01*
X95592857Y-103812200D02*
X95450000Y-103859819D01*
X95450000Y-103859819D02*
X95211905Y-103859819D01*
X96116667Y-102859819D02*
X96735714Y-102859819D01*
X96735714Y-102859819D02*
X96402381Y-103240771D01*
X96402381Y-103240771D02*
X96545238Y-103240771D01*
X96545238Y-103240771D02*
X96640476Y-103288390D01*
X96640476Y-103288390D02*
X96688095Y-103336009D01*
X96688095Y-103336009D02*
X96735714Y-103431247D01*
X96735714Y-103431247D02*
X96735714Y-103669342D01*
X96735714Y-103669342D02*
X96688095Y-103764580D01*
X96688095Y-103764580D02*
X96640476Y-103812200D01*
X96640476Y-103812200D02*
X96545238Y-103859819D01*
X96545238Y-103859819D02*
X96259524Y-103859819D01*
X96259524Y-103859819D02*
X96164286Y-103812200D01*
X96164286Y-103812200D02*
X96116667Y-103764580D01*
X95211905Y-99309819D02*
X95211905Y-98309819D01*
X95211905Y-98309819D02*
X95450000Y-98309819D01*
X95450000Y-98309819D02*
X95592857Y-98357438D01*
X95592857Y-98357438D02*
X95688095Y-98452676D01*
X95688095Y-98452676D02*
X95735714Y-98547914D01*
X95735714Y-98547914D02*
X95783333Y-98738390D01*
X95783333Y-98738390D02*
X95783333Y-98881247D01*
X95783333Y-98881247D02*
X95735714Y-99071723D01*
X95735714Y-99071723D02*
X95688095Y-99166961D01*
X95688095Y-99166961D02*
X95592857Y-99262200D01*
X95592857Y-99262200D02*
X95450000Y-99309819D01*
X95450000Y-99309819D02*
X95211905Y-99309819D01*
X96735714Y-99309819D02*
X96164286Y-99309819D01*
X96450000Y-99309819D02*
X96450000Y-98309819D01*
X96450000Y-98309819D02*
X96354762Y-98452676D01*
X96354762Y-98452676D02*
X96259524Y-98547914D01*
X96259524Y-98547914D02*
X96164286Y-98595533D01*
X118232142Y-72104580D02*
X118184523Y-72152200D01*
X118184523Y-72152200D02*
X118041666Y-72199819D01*
X118041666Y-72199819D02*
X117946428Y-72199819D01*
X117946428Y-72199819D02*
X117803571Y-72152200D01*
X117803571Y-72152200D02*
X117708333Y-72056961D01*
X117708333Y-72056961D02*
X117660714Y-71961723D01*
X117660714Y-71961723D02*
X117613095Y-71771247D01*
X117613095Y-71771247D02*
X117613095Y-71628390D01*
X117613095Y-71628390D02*
X117660714Y-71437914D01*
X117660714Y-71437914D02*
X117708333Y-71342676D01*
X117708333Y-71342676D02*
X117803571Y-71247438D01*
X117803571Y-71247438D02*
X117946428Y-71199819D01*
X117946428Y-71199819D02*
X118041666Y-71199819D01*
X118041666Y-71199819D02*
X118184523Y-71247438D01*
X118184523Y-71247438D02*
X118232142Y-71295057D01*
X118613095Y-71295057D02*
X118660714Y-71247438D01*
X118660714Y-71247438D02*
X118755952Y-71199819D01*
X118755952Y-71199819D02*
X118994047Y-71199819D01*
X118994047Y-71199819D02*
X119089285Y-71247438D01*
X119089285Y-71247438D02*
X119136904Y-71295057D01*
X119136904Y-71295057D02*
X119184523Y-71390295D01*
X119184523Y-71390295D02*
X119184523Y-71485533D01*
X119184523Y-71485533D02*
X119136904Y-71628390D01*
X119136904Y-71628390D02*
X118565476Y-72199819D01*
X118565476Y-72199819D02*
X119184523Y-72199819D01*
X120136904Y-72199819D02*
X119565476Y-72199819D01*
X119851190Y-72199819D02*
X119851190Y-71199819D01*
X119851190Y-71199819D02*
X119755952Y-71342676D01*
X119755952Y-71342676D02*
X119660714Y-71437914D01*
X119660714Y-71437914D02*
X119565476Y-71485533D01*
X109392142Y-60514580D02*
X109344523Y-60562200D01*
X109344523Y-60562200D02*
X109201666Y-60609819D01*
X109201666Y-60609819D02*
X109106428Y-60609819D01*
X109106428Y-60609819D02*
X108963571Y-60562200D01*
X108963571Y-60562200D02*
X108868333Y-60466961D01*
X108868333Y-60466961D02*
X108820714Y-60371723D01*
X108820714Y-60371723D02*
X108773095Y-60181247D01*
X108773095Y-60181247D02*
X108773095Y-60038390D01*
X108773095Y-60038390D02*
X108820714Y-59847914D01*
X108820714Y-59847914D02*
X108868333Y-59752676D01*
X108868333Y-59752676D02*
X108963571Y-59657438D01*
X108963571Y-59657438D02*
X109106428Y-59609819D01*
X109106428Y-59609819D02*
X109201666Y-59609819D01*
X109201666Y-59609819D02*
X109344523Y-59657438D01*
X109344523Y-59657438D02*
X109392142Y-59705057D01*
X109773095Y-59705057D02*
X109820714Y-59657438D01*
X109820714Y-59657438D02*
X109915952Y-59609819D01*
X109915952Y-59609819D02*
X110154047Y-59609819D01*
X110154047Y-59609819D02*
X110249285Y-59657438D01*
X110249285Y-59657438D02*
X110296904Y-59705057D01*
X110296904Y-59705057D02*
X110344523Y-59800295D01*
X110344523Y-59800295D02*
X110344523Y-59895533D01*
X110344523Y-59895533D02*
X110296904Y-60038390D01*
X110296904Y-60038390D02*
X109725476Y-60609819D01*
X109725476Y-60609819D02*
X110344523Y-60609819D01*
X110963571Y-59609819D02*
X111058809Y-59609819D01*
X111058809Y-59609819D02*
X111154047Y-59657438D01*
X111154047Y-59657438D02*
X111201666Y-59705057D01*
X111201666Y-59705057D02*
X111249285Y-59800295D01*
X111249285Y-59800295D02*
X111296904Y-59990771D01*
X111296904Y-59990771D02*
X111296904Y-60228866D01*
X111296904Y-60228866D02*
X111249285Y-60419342D01*
X111249285Y-60419342D02*
X111201666Y-60514580D01*
X111201666Y-60514580D02*
X111154047Y-60562200D01*
X111154047Y-60562200D02*
X111058809Y-60609819D01*
X111058809Y-60609819D02*
X110963571Y-60609819D01*
X110963571Y-60609819D02*
X110868333Y-60562200D01*
X110868333Y-60562200D02*
X110820714Y-60514580D01*
X110820714Y-60514580D02*
X110773095Y-60419342D01*
X110773095Y-60419342D02*
X110725476Y-60228866D01*
X110725476Y-60228866D02*
X110725476Y-59990771D01*
X110725476Y-59990771D02*
X110773095Y-59800295D01*
X110773095Y-59800295D02*
X110820714Y-59705057D01*
X110820714Y-59705057D02*
X110868333Y-59657438D01*
X110868333Y-59657438D02*
X110963571Y-59609819D01*
X105382142Y-75574580D02*
X105334523Y-75622200D01*
X105334523Y-75622200D02*
X105191666Y-75669819D01*
X105191666Y-75669819D02*
X105096428Y-75669819D01*
X105096428Y-75669819D02*
X104953571Y-75622200D01*
X104953571Y-75622200D02*
X104858333Y-75526961D01*
X104858333Y-75526961D02*
X104810714Y-75431723D01*
X104810714Y-75431723D02*
X104763095Y-75241247D01*
X104763095Y-75241247D02*
X104763095Y-75098390D01*
X104763095Y-75098390D02*
X104810714Y-74907914D01*
X104810714Y-74907914D02*
X104858333Y-74812676D01*
X104858333Y-74812676D02*
X104953571Y-74717438D01*
X104953571Y-74717438D02*
X105096428Y-74669819D01*
X105096428Y-74669819D02*
X105191666Y-74669819D01*
X105191666Y-74669819D02*
X105334523Y-74717438D01*
X105334523Y-74717438D02*
X105382142Y-74765057D01*
X106334523Y-75669819D02*
X105763095Y-75669819D01*
X106048809Y-75669819D02*
X106048809Y-74669819D01*
X106048809Y-74669819D02*
X105953571Y-74812676D01*
X105953571Y-74812676D02*
X105858333Y-74907914D01*
X105858333Y-74907914D02*
X105763095Y-74955533D01*
X106810714Y-75669819D02*
X107001190Y-75669819D01*
X107001190Y-75669819D02*
X107096428Y-75622200D01*
X107096428Y-75622200D02*
X107144047Y-75574580D01*
X107144047Y-75574580D02*
X107239285Y-75431723D01*
X107239285Y-75431723D02*
X107286904Y-75241247D01*
X107286904Y-75241247D02*
X107286904Y-74860295D01*
X107286904Y-74860295D02*
X107239285Y-74765057D01*
X107239285Y-74765057D02*
X107191666Y-74717438D01*
X107191666Y-74717438D02*
X107096428Y-74669819D01*
X107096428Y-74669819D02*
X106905952Y-74669819D01*
X106905952Y-74669819D02*
X106810714Y-74717438D01*
X106810714Y-74717438D02*
X106763095Y-74765057D01*
X106763095Y-74765057D02*
X106715476Y-74860295D01*
X106715476Y-74860295D02*
X106715476Y-75098390D01*
X106715476Y-75098390D02*
X106763095Y-75193628D01*
X106763095Y-75193628D02*
X106810714Y-75241247D01*
X106810714Y-75241247D02*
X106905952Y-75288866D01*
X106905952Y-75288866D02*
X107096428Y-75288866D01*
X107096428Y-75288866D02*
X107191666Y-75241247D01*
X107191666Y-75241247D02*
X107239285Y-75193628D01*
X107239285Y-75193628D02*
X107286904Y-75098390D01*
X105382142Y-73064580D02*
X105334523Y-73112200D01*
X105334523Y-73112200D02*
X105191666Y-73159819D01*
X105191666Y-73159819D02*
X105096428Y-73159819D01*
X105096428Y-73159819D02*
X104953571Y-73112200D01*
X104953571Y-73112200D02*
X104858333Y-73016961D01*
X104858333Y-73016961D02*
X104810714Y-72921723D01*
X104810714Y-72921723D02*
X104763095Y-72731247D01*
X104763095Y-72731247D02*
X104763095Y-72588390D01*
X104763095Y-72588390D02*
X104810714Y-72397914D01*
X104810714Y-72397914D02*
X104858333Y-72302676D01*
X104858333Y-72302676D02*
X104953571Y-72207438D01*
X104953571Y-72207438D02*
X105096428Y-72159819D01*
X105096428Y-72159819D02*
X105191666Y-72159819D01*
X105191666Y-72159819D02*
X105334523Y-72207438D01*
X105334523Y-72207438D02*
X105382142Y-72255057D01*
X106334523Y-73159819D02*
X105763095Y-73159819D01*
X106048809Y-73159819D02*
X106048809Y-72159819D01*
X106048809Y-72159819D02*
X105953571Y-72302676D01*
X105953571Y-72302676D02*
X105858333Y-72397914D01*
X105858333Y-72397914D02*
X105763095Y-72445533D01*
X106905952Y-72588390D02*
X106810714Y-72540771D01*
X106810714Y-72540771D02*
X106763095Y-72493152D01*
X106763095Y-72493152D02*
X106715476Y-72397914D01*
X106715476Y-72397914D02*
X106715476Y-72350295D01*
X106715476Y-72350295D02*
X106763095Y-72255057D01*
X106763095Y-72255057D02*
X106810714Y-72207438D01*
X106810714Y-72207438D02*
X106905952Y-72159819D01*
X106905952Y-72159819D02*
X107096428Y-72159819D01*
X107096428Y-72159819D02*
X107191666Y-72207438D01*
X107191666Y-72207438D02*
X107239285Y-72255057D01*
X107239285Y-72255057D02*
X107286904Y-72350295D01*
X107286904Y-72350295D02*
X107286904Y-72397914D01*
X107286904Y-72397914D02*
X107239285Y-72493152D01*
X107239285Y-72493152D02*
X107191666Y-72540771D01*
X107191666Y-72540771D02*
X107096428Y-72588390D01*
X107096428Y-72588390D02*
X106905952Y-72588390D01*
X106905952Y-72588390D02*
X106810714Y-72636009D01*
X106810714Y-72636009D02*
X106763095Y-72683628D01*
X106763095Y-72683628D02*
X106715476Y-72778866D01*
X106715476Y-72778866D02*
X106715476Y-72969342D01*
X106715476Y-72969342D02*
X106763095Y-73064580D01*
X106763095Y-73064580D02*
X106810714Y-73112200D01*
X106810714Y-73112200D02*
X106905952Y-73159819D01*
X106905952Y-73159819D02*
X107096428Y-73159819D01*
X107096428Y-73159819D02*
X107191666Y-73112200D01*
X107191666Y-73112200D02*
X107239285Y-73064580D01*
X107239285Y-73064580D02*
X107286904Y-72969342D01*
X107286904Y-72969342D02*
X107286904Y-72778866D01*
X107286904Y-72778866D02*
X107239285Y-72683628D01*
X107239285Y-72683628D02*
X107191666Y-72636009D01*
X107191666Y-72636009D02*
X107096428Y-72588390D01*
X124202142Y-104444580D02*
X124154523Y-104492200D01*
X124154523Y-104492200D02*
X124011666Y-104539819D01*
X124011666Y-104539819D02*
X123916428Y-104539819D01*
X123916428Y-104539819D02*
X123773571Y-104492200D01*
X123773571Y-104492200D02*
X123678333Y-104396961D01*
X123678333Y-104396961D02*
X123630714Y-104301723D01*
X123630714Y-104301723D02*
X123583095Y-104111247D01*
X123583095Y-104111247D02*
X123583095Y-103968390D01*
X123583095Y-103968390D02*
X123630714Y-103777914D01*
X123630714Y-103777914D02*
X123678333Y-103682676D01*
X123678333Y-103682676D02*
X123773571Y-103587438D01*
X123773571Y-103587438D02*
X123916428Y-103539819D01*
X123916428Y-103539819D02*
X124011666Y-103539819D01*
X124011666Y-103539819D02*
X124154523Y-103587438D01*
X124154523Y-103587438D02*
X124202142Y-103635057D01*
X125154523Y-104539819D02*
X124583095Y-104539819D01*
X124868809Y-104539819D02*
X124868809Y-103539819D01*
X124868809Y-103539819D02*
X124773571Y-103682676D01*
X124773571Y-103682676D02*
X124678333Y-103777914D01*
X124678333Y-103777914D02*
X124583095Y-103825533D01*
X125487857Y-103539819D02*
X126154523Y-103539819D01*
X126154523Y-103539819D02*
X125725952Y-104539819D01*
X124202142Y-102474580D02*
X124154523Y-102522200D01*
X124154523Y-102522200D02*
X124011666Y-102569819D01*
X124011666Y-102569819D02*
X123916428Y-102569819D01*
X123916428Y-102569819D02*
X123773571Y-102522200D01*
X123773571Y-102522200D02*
X123678333Y-102426961D01*
X123678333Y-102426961D02*
X123630714Y-102331723D01*
X123630714Y-102331723D02*
X123583095Y-102141247D01*
X123583095Y-102141247D02*
X123583095Y-101998390D01*
X123583095Y-101998390D02*
X123630714Y-101807914D01*
X123630714Y-101807914D02*
X123678333Y-101712676D01*
X123678333Y-101712676D02*
X123773571Y-101617438D01*
X123773571Y-101617438D02*
X123916428Y-101569819D01*
X123916428Y-101569819D02*
X124011666Y-101569819D01*
X124011666Y-101569819D02*
X124154523Y-101617438D01*
X124154523Y-101617438D02*
X124202142Y-101665057D01*
X125154523Y-102569819D02*
X124583095Y-102569819D01*
X124868809Y-102569819D02*
X124868809Y-101569819D01*
X124868809Y-101569819D02*
X124773571Y-101712676D01*
X124773571Y-101712676D02*
X124678333Y-101807914D01*
X124678333Y-101807914D02*
X124583095Y-101855533D01*
X126011666Y-101569819D02*
X125821190Y-101569819D01*
X125821190Y-101569819D02*
X125725952Y-101617438D01*
X125725952Y-101617438D02*
X125678333Y-101665057D01*
X125678333Y-101665057D02*
X125583095Y-101807914D01*
X125583095Y-101807914D02*
X125535476Y-101998390D01*
X125535476Y-101998390D02*
X125535476Y-102379342D01*
X125535476Y-102379342D02*
X125583095Y-102474580D01*
X125583095Y-102474580D02*
X125630714Y-102522200D01*
X125630714Y-102522200D02*
X125725952Y-102569819D01*
X125725952Y-102569819D02*
X125916428Y-102569819D01*
X125916428Y-102569819D02*
X126011666Y-102522200D01*
X126011666Y-102522200D02*
X126059285Y-102474580D01*
X126059285Y-102474580D02*
X126106904Y-102379342D01*
X126106904Y-102379342D02*
X126106904Y-102141247D01*
X126106904Y-102141247D02*
X126059285Y-102046009D01*
X126059285Y-102046009D02*
X126011666Y-101998390D01*
X126011666Y-101998390D02*
X125916428Y-101950771D01*
X125916428Y-101950771D02*
X125725952Y-101950771D01*
X125725952Y-101950771D02*
X125630714Y-101998390D01*
X125630714Y-101998390D02*
X125583095Y-102046009D01*
X125583095Y-102046009D02*
X125535476Y-102141247D01*
X105382142Y-70554580D02*
X105334523Y-70602200D01*
X105334523Y-70602200D02*
X105191666Y-70649819D01*
X105191666Y-70649819D02*
X105096428Y-70649819D01*
X105096428Y-70649819D02*
X104953571Y-70602200D01*
X104953571Y-70602200D02*
X104858333Y-70506961D01*
X104858333Y-70506961D02*
X104810714Y-70411723D01*
X104810714Y-70411723D02*
X104763095Y-70221247D01*
X104763095Y-70221247D02*
X104763095Y-70078390D01*
X104763095Y-70078390D02*
X104810714Y-69887914D01*
X104810714Y-69887914D02*
X104858333Y-69792676D01*
X104858333Y-69792676D02*
X104953571Y-69697438D01*
X104953571Y-69697438D02*
X105096428Y-69649819D01*
X105096428Y-69649819D02*
X105191666Y-69649819D01*
X105191666Y-69649819D02*
X105334523Y-69697438D01*
X105334523Y-69697438D02*
X105382142Y-69745057D01*
X106334523Y-70649819D02*
X105763095Y-70649819D01*
X106048809Y-70649819D02*
X106048809Y-69649819D01*
X106048809Y-69649819D02*
X105953571Y-69792676D01*
X105953571Y-69792676D02*
X105858333Y-69887914D01*
X105858333Y-69887914D02*
X105763095Y-69935533D01*
X107239285Y-69649819D02*
X106763095Y-69649819D01*
X106763095Y-69649819D02*
X106715476Y-70126009D01*
X106715476Y-70126009D02*
X106763095Y-70078390D01*
X106763095Y-70078390D02*
X106858333Y-70030771D01*
X106858333Y-70030771D02*
X107096428Y-70030771D01*
X107096428Y-70030771D02*
X107191666Y-70078390D01*
X107191666Y-70078390D02*
X107239285Y-70126009D01*
X107239285Y-70126009D02*
X107286904Y-70221247D01*
X107286904Y-70221247D02*
X107286904Y-70459342D01*
X107286904Y-70459342D02*
X107239285Y-70554580D01*
X107239285Y-70554580D02*
X107191666Y-70602200D01*
X107191666Y-70602200D02*
X107096428Y-70649819D01*
X107096428Y-70649819D02*
X106858333Y-70649819D01*
X106858333Y-70649819D02*
X106763095Y-70602200D01*
X106763095Y-70602200D02*
X106715476Y-70554580D01*
X124202142Y-100504580D02*
X124154523Y-100552200D01*
X124154523Y-100552200D02*
X124011666Y-100599819D01*
X124011666Y-100599819D02*
X123916428Y-100599819D01*
X123916428Y-100599819D02*
X123773571Y-100552200D01*
X123773571Y-100552200D02*
X123678333Y-100456961D01*
X123678333Y-100456961D02*
X123630714Y-100361723D01*
X123630714Y-100361723D02*
X123583095Y-100171247D01*
X123583095Y-100171247D02*
X123583095Y-100028390D01*
X123583095Y-100028390D02*
X123630714Y-99837914D01*
X123630714Y-99837914D02*
X123678333Y-99742676D01*
X123678333Y-99742676D02*
X123773571Y-99647438D01*
X123773571Y-99647438D02*
X123916428Y-99599819D01*
X123916428Y-99599819D02*
X124011666Y-99599819D01*
X124011666Y-99599819D02*
X124154523Y-99647438D01*
X124154523Y-99647438D02*
X124202142Y-99695057D01*
X125154523Y-100599819D02*
X124583095Y-100599819D01*
X124868809Y-100599819D02*
X124868809Y-99599819D01*
X124868809Y-99599819D02*
X124773571Y-99742676D01*
X124773571Y-99742676D02*
X124678333Y-99837914D01*
X124678333Y-99837914D02*
X124583095Y-99885533D01*
X126011666Y-99933152D02*
X126011666Y-100599819D01*
X125773571Y-99552200D02*
X125535476Y-100266485D01*
X125535476Y-100266485D02*
X126154523Y-100266485D01*
X124202142Y-98534580D02*
X124154523Y-98582200D01*
X124154523Y-98582200D02*
X124011666Y-98629819D01*
X124011666Y-98629819D02*
X123916428Y-98629819D01*
X123916428Y-98629819D02*
X123773571Y-98582200D01*
X123773571Y-98582200D02*
X123678333Y-98486961D01*
X123678333Y-98486961D02*
X123630714Y-98391723D01*
X123630714Y-98391723D02*
X123583095Y-98201247D01*
X123583095Y-98201247D02*
X123583095Y-98058390D01*
X123583095Y-98058390D02*
X123630714Y-97867914D01*
X123630714Y-97867914D02*
X123678333Y-97772676D01*
X123678333Y-97772676D02*
X123773571Y-97677438D01*
X123773571Y-97677438D02*
X123916428Y-97629819D01*
X123916428Y-97629819D02*
X124011666Y-97629819D01*
X124011666Y-97629819D02*
X124154523Y-97677438D01*
X124154523Y-97677438D02*
X124202142Y-97725057D01*
X125154523Y-98629819D02*
X124583095Y-98629819D01*
X124868809Y-98629819D02*
X124868809Y-97629819D01*
X124868809Y-97629819D02*
X124773571Y-97772676D01*
X124773571Y-97772676D02*
X124678333Y-97867914D01*
X124678333Y-97867914D02*
X124583095Y-97915533D01*
X125487857Y-97629819D02*
X126106904Y-97629819D01*
X126106904Y-97629819D02*
X125773571Y-98010771D01*
X125773571Y-98010771D02*
X125916428Y-98010771D01*
X125916428Y-98010771D02*
X126011666Y-98058390D01*
X126011666Y-98058390D02*
X126059285Y-98106009D01*
X126059285Y-98106009D02*
X126106904Y-98201247D01*
X126106904Y-98201247D02*
X126106904Y-98439342D01*
X126106904Y-98439342D02*
X126059285Y-98534580D01*
X126059285Y-98534580D02*
X126011666Y-98582200D01*
X126011666Y-98582200D02*
X125916428Y-98629819D01*
X125916428Y-98629819D02*
X125630714Y-98629819D01*
X125630714Y-98629819D02*
X125535476Y-98582200D01*
X125535476Y-98582200D02*
X125487857Y-98534580D01*
X124202142Y-96564580D02*
X124154523Y-96612200D01*
X124154523Y-96612200D02*
X124011666Y-96659819D01*
X124011666Y-96659819D02*
X123916428Y-96659819D01*
X123916428Y-96659819D02*
X123773571Y-96612200D01*
X123773571Y-96612200D02*
X123678333Y-96516961D01*
X123678333Y-96516961D02*
X123630714Y-96421723D01*
X123630714Y-96421723D02*
X123583095Y-96231247D01*
X123583095Y-96231247D02*
X123583095Y-96088390D01*
X123583095Y-96088390D02*
X123630714Y-95897914D01*
X123630714Y-95897914D02*
X123678333Y-95802676D01*
X123678333Y-95802676D02*
X123773571Y-95707438D01*
X123773571Y-95707438D02*
X123916428Y-95659819D01*
X123916428Y-95659819D02*
X124011666Y-95659819D01*
X124011666Y-95659819D02*
X124154523Y-95707438D01*
X124154523Y-95707438D02*
X124202142Y-95755057D01*
X125154523Y-96659819D02*
X124583095Y-96659819D01*
X124868809Y-96659819D02*
X124868809Y-95659819D01*
X124868809Y-95659819D02*
X124773571Y-95802676D01*
X124773571Y-95802676D02*
X124678333Y-95897914D01*
X124678333Y-95897914D02*
X124583095Y-95945533D01*
X125535476Y-95755057D02*
X125583095Y-95707438D01*
X125583095Y-95707438D02*
X125678333Y-95659819D01*
X125678333Y-95659819D02*
X125916428Y-95659819D01*
X125916428Y-95659819D02*
X126011666Y-95707438D01*
X126011666Y-95707438D02*
X126059285Y-95755057D01*
X126059285Y-95755057D02*
X126106904Y-95850295D01*
X126106904Y-95850295D02*
X126106904Y-95945533D01*
X126106904Y-95945533D02*
X126059285Y-96088390D01*
X126059285Y-96088390D02*
X125487857Y-96659819D01*
X125487857Y-96659819D02*
X126106904Y-96659819D01*
X121332142Y-104444580D02*
X121284523Y-104492200D01*
X121284523Y-104492200D02*
X121141666Y-104539819D01*
X121141666Y-104539819D02*
X121046428Y-104539819D01*
X121046428Y-104539819D02*
X120903571Y-104492200D01*
X120903571Y-104492200D02*
X120808333Y-104396961D01*
X120808333Y-104396961D02*
X120760714Y-104301723D01*
X120760714Y-104301723D02*
X120713095Y-104111247D01*
X120713095Y-104111247D02*
X120713095Y-103968390D01*
X120713095Y-103968390D02*
X120760714Y-103777914D01*
X120760714Y-103777914D02*
X120808333Y-103682676D01*
X120808333Y-103682676D02*
X120903571Y-103587438D01*
X120903571Y-103587438D02*
X121046428Y-103539819D01*
X121046428Y-103539819D02*
X121141666Y-103539819D01*
X121141666Y-103539819D02*
X121284523Y-103587438D01*
X121284523Y-103587438D02*
X121332142Y-103635057D01*
X122284523Y-104539819D02*
X121713095Y-104539819D01*
X121998809Y-104539819D02*
X121998809Y-103539819D01*
X121998809Y-103539819D02*
X121903571Y-103682676D01*
X121903571Y-103682676D02*
X121808333Y-103777914D01*
X121808333Y-103777914D02*
X121713095Y-103825533D01*
X123236904Y-104539819D02*
X122665476Y-104539819D01*
X122951190Y-104539819D02*
X122951190Y-103539819D01*
X122951190Y-103539819D02*
X122855952Y-103682676D01*
X122855952Y-103682676D02*
X122760714Y-103777914D01*
X122760714Y-103777914D02*
X122665476Y-103825533D01*
X105382142Y-68044580D02*
X105334523Y-68092200D01*
X105334523Y-68092200D02*
X105191666Y-68139819D01*
X105191666Y-68139819D02*
X105096428Y-68139819D01*
X105096428Y-68139819D02*
X104953571Y-68092200D01*
X104953571Y-68092200D02*
X104858333Y-67996961D01*
X104858333Y-67996961D02*
X104810714Y-67901723D01*
X104810714Y-67901723D02*
X104763095Y-67711247D01*
X104763095Y-67711247D02*
X104763095Y-67568390D01*
X104763095Y-67568390D02*
X104810714Y-67377914D01*
X104810714Y-67377914D02*
X104858333Y-67282676D01*
X104858333Y-67282676D02*
X104953571Y-67187438D01*
X104953571Y-67187438D02*
X105096428Y-67139819D01*
X105096428Y-67139819D02*
X105191666Y-67139819D01*
X105191666Y-67139819D02*
X105334523Y-67187438D01*
X105334523Y-67187438D02*
X105382142Y-67235057D01*
X106334523Y-68139819D02*
X105763095Y-68139819D01*
X106048809Y-68139819D02*
X106048809Y-67139819D01*
X106048809Y-67139819D02*
X105953571Y-67282676D01*
X105953571Y-67282676D02*
X105858333Y-67377914D01*
X105858333Y-67377914D02*
X105763095Y-67425533D01*
X106953571Y-67139819D02*
X107048809Y-67139819D01*
X107048809Y-67139819D02*
X107144047Y-67187438D01*
X107144047Y-67187438D02*
X107191666Y-67235057D01*
X107191666Y-67235057D02*
X107239285Y-67330295D01*
X107239285Y-67330295D02*
X107286904Y-67520771D01*
X107286904Y-67520771D02*
X107286904Y-67758866D01*
X107286904Y-67758866D02*
X107239285Y-67949342D01*
X107239285Y-67949342D02*
X107191666Y-68044580D01*
X107191666Y-68044580D02*
X107144047Y-68092200D01*
X107144047Y-68092200D02*
X107048809Y-68139819D01*
X107048809Y-68139819D02*
X106953571Y-68139819D01*
X106953571Y-68139819D02*
X106858333Y-68092200D01*
X106858333Y-68092200D02*
X106810714Y-68044580D01*
X106810714Y-68044580D02*
X106763095Y-67949342D01*
X106763095Y-67949342D02*
X106715476Y-67758866D01*
X106715476Y-67758866D02*
X106715476Y-67520771D01*
X106715476Y-67520771D02*
X106763095Y-67330295D01*
X106763095Y-67330295D02*
X106810714Y-67235057D01*
X106810714Y-67235057D02*
X106858333Y-67187438D01*
X106858333Y-67187438D02*
X106953571Y-67139819D01*
X105858333Y-65534580D02*
X105810714Y-65582200D01*
X105810714Y-65582200D02*
X105667857Y-65629819D01*
X105667857Y-65629819D02*
X105572619Y-65629819D01*
X105572619Y-65629819D02*
X105429762Y-65582200D01*
X105429762Y-65582200D02*
X105334524Y-65486961D01*
X105334524Y-65486961D02*
X105286905Y-65391723D01*
X105286905Y-65391723D02*
X105239286Y-65201247D01*
X105239286Y-65201247D02*
X105239286Y-65058390D01*
X105239286Y-65058390D02*
X105286905Y-64867914D01*
X105286905Y-64867914D02*
X105334524Y-64772676D01*
X105334524Y-64772676D02*
X105429762Y-64677438D01*
X105429762Y-64677438D02*
X105572619Y-64629819D01*
X105572619Y-64629819D02*
X105667857Y-64629819D01*
X105667857Y-64629819D02*
X105810714Y-64677438D01*
X105810714Y-64677438D02*
X105858333Y-64725057D01*
X106334524Y-65629819D02*
X106525000Y-65629819D01*
X106525000Y-65629819D02*
X106620238Y-65582200D01*
X106620238Y-65582200D02*
X106667857Y-65534580D01*
X106667857Y-65534580D02*
X106763095Y-65391723D01*
X106763095Y-65391723D02*
X106810714Y-65201247D01*
X106810714Y-65201247D02*
X106810714Y-64820295D01*
X106810714Y-64820295D02*
X106763095Y-64725057D01*
X106763095Y-64725057D02*
X106715476Y-64677438D01*
X106715476Y-64677438D02*
X106620238Y-64629819D01*
X106620238Y-64629819D02*
X106429762Y-64629819D01*
X106429762Y-64629819D02*
X106334524Y-64677438D01*
X106334524Y-64677438D02*
X106286905Y-64725057D01*
X106286905Y-64725057D02*
X106239286Y-64820295D01*
X106239286Y-64820295D02*
X106239286Y-65058390D01*
X106239286Y-65058390D02*
X106286905Y-65153628D01*
X106286905Y-65153628D02*
X106334524Y-65201247D01*
X106334524Y-65201247D02*
X106429762Y-65248866D01*
X106429762Y-65248866D02*
X106620238Y-65248866D01*
X106620238Y-65248866D02*
X106715476Y-65201247D01*
X106715476Y-65201247D02*
X106763095Y-65153628D01*
X106763095Y-65153628D02*
X106810714Y-65058390D01*
X121808333Y-102474580D02*
X121760714Y-102522200D01*
X121760714Y-102522200D02*
X121617857Y-102569819D01*
X121617857Y-102569819D02*
X121522619Y-102569819D01*
X121522619Y-102569819D02*
X121379762Y-102522200D01*
X121379762Y-102522200D02*
X121284524Y-102426961D01*
X121284524Y-102426961D02*
X121236905Y-102331723D01*
X121236905Y-102331723D02*
X121189286Y-102141247D01*
X121189286Y-102141247D02*
X121189286Y-101998390D01*
X121189286Y-101998390D02*
X121236905Y-101807914D01*
X121236905Y-101807914D02*
X121284524Y-101712676D01*
X121284524Y-101712676D02*
X121379762Y-101617438D01*
X121379762Y-101617438D02*
X121522619Y-101569819D01*
X121522619Y-101569819D02*
X121617857Y-101569819D01*
X121617857Y-101569819D02*
X121760714Y-101617438D01*
X121760714Y-101617438D02*
X121808333Y-101665057D01*
X122379762Y-101998390D02*
X122284524Y-101950771D01*
X122284524Y-101950771D02*
X122236905Y-101903152D01*
X122236905Y-101903152D02*
X122189286Y-101807914D01*
X122189286Y-101807914D02*
X122189286Y-101760295D01*
X122189286Y-101760295D02*
X122236905Y-101665057D01*
X122236905Y-101665057D02*
X122284524Y-101617438D01*
X122284524Y-101617438D02*
X122379762Y-101569819D01*
X122379762Y-101569819D02*
X122570238Y-101569819D01*
X122570238Y-101569819D02*
X122665476Y-101617438D01*
X122665476Y-101617438D02*
X122713095Y-101665057D01*
X122713095Y-101665057D02*
X122760714Y-101760295D01*
X122760714Y-101760295D02*
X122760714Y-101807914D01*
X122760714Y-101807914D02*
X122713095Y-101903152D01*
X122713095Y-101903152D02*
X122665476Y-101950771D01*
X122665476Y-101950771D02*
X122570238Y-101998390D01*
X122570238Y-101998390D02*
X122379762Y-101998390D01*
X122379762Y-101998390D02*
X122284524Y-102046009D01*
X122284524Y-102046009D02*
X122236905Y-102093628D01*
X122236905Y-102093628D02*
X122189286Y-102188866D01*
X122189286Y-102188866D02*
X122189286Y-102379342D01*
X122189286Y-102379342D02*
X122236905Y-102474580D01*
X122236905Y-102474580D02*
X122284524Y-102522200D01*
X122284524Y-102522200D02*
X122379762Y-102569819D01*
X122379762Y-102569819D02*
X122570238Y-102569819D01*
X122570238Y-102569819D02*
X122665476Y-102522200D01*
X122665476Y-102522200D02*
X122713095Y-102474580D01*
X122713095Y-102474580D02*
X122760714Y-102379342D01*
X122760714Y-102379342D02*
X122760714Y-102188866D01*
X122760714Y-102188866D02*
X122713095Y-102093628D01*
X122713095Y-102093628D02*
X122665476Y-102046009D01*
X122665476Y-102046009D02*
X122570238Y-101998390D01*
X121808333Y-100504580D02*
X121760714Y-100552200D01*
X121760714Y-100552200D02*
X121617857Y-100599819D01*
X121617857Y-100599819D02*
X121522619Y-100599819D01*
X121522619Y-100599819D02*
X121379762Y-100552200D01*
X121379762Y-100552200D02*
X121284524Y-100456961D01*
X121284524Y-100456961D02*
X121236905Y-100361723D01*
X121236905Y-100361723D02*
X121189286Y-100171247D01*
X121189286Y-100171247D02*
X121189286Y-100028390D01*
X121189286Y-100028390D02*
X121236905Y-99837914D01*
X121236905Y-99837914D02*
X121284524Y-99742676D01*
X121284524Y-99742676D02*
X121379762Y-99647438D01*
X121379762Y-99647438D02*
X121522619Y-99599819D01*
X121522619Y-99599819D02*
X121617857Y-99599819D01*
X121617857Y-99599819D02*
X121760714Y-99647438D01*
X121760714Y-99647438D02*
X121808333Y-99695057D01*
X122141667Y-99599819D02*
X122808333Y-99599819D01*
X122808333Y-99599819D02*
X122379762Y-100599819D01*
X121808333Y-98534580D02*
X121760714Y-98582200D01*
X121760714Y-98582200D02*
X121617857Y-98629819D01*
X121617857Y-98629819D02*
X121522619Y-98629819D01*
X121522619Y-98629819D02*
X121379762Y-98582200D01*
X121379762Y-98582200D02*
X121284524Y-98486961D01*
X121284524Y-98486961D02*
X121236905Y-98391723D01*
X121236905Y-98391723D02*
X121189286Y-98201247D01*
X121189286Y-98201247D02*
X121189286Y-98058390D01*
X121189286Y-98058390D02*
X121236905Y-97867914D01*
X121236905Y-97867914D02*
X121284524Y-97772676D01*
X121284524Y-97772676D02*
X121379762Y-97677438D01*
X121379762Y-97677438D02*
X121522619Y-97629819D01*
X121522619Y-97629819D02*
X121617857Y-97629819D01*
X121617857Y-97629819D02*
X121760714Y-97677438D01*
X121760714Y-97677438D02*
X121808333Y-97725057D01*
X122665476Y-97629819D02*
X122475000Y-97629819D01*
X122475000Y-97629819D02*
X122379762Y-97677438D01*
X122379762Y-97677438D02*
X122332143Y-97725057D01*
X122332143Y-97725057D02*
X122236905Y-97867914D01*
X122236905Y-97867914D02*
X122189286Y-98058390D01*
X122189286Y-98058390D02*
X122189286Y-98439342D01*
X122189286Y-98439342D02*
X122236905Y-98534580D01*
X122236905Y-98534580D02*
X122284524Y-98582200D01*
X122284524Y-98582200D02*
X122379762Y-98629819D01*
X122379762Y-98629819D02*
X122570238Y-98629819D01*
X122570238Y-98629819D02*
X122665476Y-98582200D01*
X122665476Y-98582200D02*
X122713095Y-98534580D01*
X122713095Y-98534580D02*
X122760714Y-98439342D01*
X122760714Y-98439342D02*
X122760714Y-98201247D01*
X122760714Y-98201247D02*
X122713095Y-98106009D01*
X122713095Y-98106009D02*
X122665476Y-98058390D01*
X122665476Y-98058390D02*
X122570238Y-98010771D01*
X122570238Y-98010771D02*
X122379762Y-98010771D01*
X122379762Y-98010771D02*
X122284524Y-98058390D01*
X122284524Y-98058390D02*
X122236905Y-98106009D01*
X122236905Y-98106009D02*
X122189286Y-98201247D01*
X118708333Y-68754580D02*
X118660714Y-68802200D01*
X118660714Y-68802200D02*
X118517857Y-68849819D01*
X118517857Y-68849819D02*
X118422619Y-68849819D01*
X118422619Y-68849819D02*
X118279762Y-68802200D01*
X118279762Y-68802200D02*
X118184524Y-68706961D01*
X118184524Y-68706961D02*
X118136905Y-68611723D01*
X118136905Y-68611723D02*
X118089286Y-68421247D01*
X118089286Y-68421247D02*
X118089286Y-68278390D01*
X118089286Y-68278390D02*
X118136905Y-68087914D01*
X118136905Y-68087914D02*
X118184524Y-67992676D01*
X118184524Y-67992676D02*
X118279762Y-67897438D01*
X118279762Y-67897438D02*
X118422619Y-67849819D01*
X118422619Y-67849819D02*
X118517857Y-67849819D01*
X118517857Y-67849819D02*
X118660714Y-67897438D01*
X118660714Y-67897438D02*
X118708333Y-67945057D01*
X119613095Y-67849819D02*
X119136905Y-67849819D01*
X119136905Y-67849819D02*
X119089286Y-68326009D01*
X119089286Y-68326009D02*
X119136905Y-68278390D01*
X119136905Y-68278390D02*
X119232143Y-68230771D01*
X119232143Y-68230771D02*
X119470238Y-68230771D01*
X119470238Y-68230771D02*
X119565476Y-68278390D01*
X119565476Y-68278390D02*
X119613095Y-68326009D01*
X119613095Y-68326009D02*
X119660714Y-68421247D01*
X119660714Y-68421247D02*
X119660714Y-68659342D01*
X119660714Y-68659342D02*
X119613095Y-68754580D01*
X119613095Y-68754580D02*
X119565476Y-68802200D01*
X119565476Y-68802200D02*
X119470238Y-68849819D01*
X119470238Y-68849819D02*
X119232143Y-68849819D01*
X119232143Y-68849819D02*
X119136905Y-68802200D01*
X119136905Y-68802200D02*
X119089286Y-68754580D01*
X105858333Y-63024580D02*
X105810714Y-63072200D01*
X105810714Y-63072200D02*
X105667857Y-63119819D01*
X105667857Y-63119819D02*
X105572619Y-63119819D01*
X105572619Y-63119819D02*
X105429762Y-63072200D01*
X105429762Y-63072200D02*
X105334524Y-62976961D01*
X105334524Y-62976961D02*
X105286905Y-62881723D01*
X105286905Y-62881723D02*
X105239286Y-62691247D01*
X105239286Y-62691247D02*
X105239286Y-62548390D01*
X105239286Y-62548390D02*
X105286905Y-62357914D01*
X105286905Y-62357914D02*
X105334524Y-62262676D01*
X105334524Y-62262676D02*
X105429762Y-62167438D01*
X105429762Y-62167438D02*
X105572619Y-62119819D01*
X105572619Y-62119819D02*
X105667857Y-62119819D01*
X105667857Y-62119819D02*
X105810714Y-62167438D01*
X105810714Y-62167438D02*
X105858333Y-62215057D01*
X106715476Y-62453152D02*
X106715476Y-63119819D01*
X106477381Y-62072200D02*
X106239286Y-62786485D01*
X106239286Y-62786485D02*
X106858333Y-62786485D01*
X121808333Y-96564580D02*
X121760714Y-96612200D01*
X121760714Y-96612200D02*
X121617857Y-96659819D01*
X121617857Y-96659819D02*
X121522619Y-96659819D01*
X121522619Y-96659819D02*
X121379762Y-96612200D01*
X121379762Y-96612200D02*
X121284524Y-96516961D01*
X121284524Y-96516961D02*
X121236905Y-96421723D01*
X121236905Y-96421723D02*
X121189286Y-96231247D01*
X121189286Y-96231247D02*
X121189286Y-96088390D01*
X121189286Y-96088390D02*
X121236905Y-95897914D01*
X121236905Y-95897914D02*
X121284524Y-95802676D01*
X121284524Y-95802676D02*
X121379762Y-95707438D01*
X121379762Y-95707438D02*
X121522619Y-95659819D01*
X121522619Y-95659819D02*
X121617857Y-95659819D01*
X121617857Y-95659819D02*
X121760714Y-95707438D01*
X121760714Y-95707438D02*
X121808333Y-95755057D01*
X122141667Y-95659819D02*
X122760714Y-95659819D01*
X122760714Y-95659819D02*
X122427381Y-96040771D01*
X122427381Y-96040771D02*
X122570238Y-96040771D01*
X122570238Y-96040771D02*
X122665476Y-96088390D01*
X122665476Y-96088390D02*
X122713095Y-96136009D01*
X122713095Y-96136009D02*
X122760714Y-96231247D01*
X122760714Y-96231247D02*
X122760714Y-96469342D01*
X122760714Y-96469342D02*
X122713095Y-96564580D01*
X122713095Y-96564580D02*
X122665476Y-96612200D01*
X122665476Y-96612200D02*
X122570238Y-96659819D01*
X122570238Y-96659819D02*
X122284524Y-96659819D01*
X122284524Y-96659819D02*
X122189286Y-96612200D01*
X122189286Y-96612200D02*
X122141667Y-96564580D01*
X105858333Y-60514580D02*
X105810714Y-60562200D01*
X105810714Y-60562200D02*
X105667857Y-60609819D01*
X105667857Y-60609819D02*
X105572619Y-60609819D01*
X105572619Y-60609819D02*
X105429762Y-60562200D01*
X105429762Y-60562200D02*
X105334524Y-60466961D01*
X105334524Y-60466961D02*
X105286905Y-60371723D01*
X105286905Y-60371723D02*
X105239286Y-60181247D01*
X105239286Y-60181247D02*
X105239286Y-60038390D01*
X105239286Y-60038390D02*
X105286905Y-59847914D01*
X105286905Y-59847914D02*
X105334524Y-59752676D01*
X105334524Y-59752676D02*
X105429762Y-59657438D01*
X105429762Y-59657438D02*
X105572619Y-59609819D01*
X105572619Y-59609819D02*
X105667857Y-59609819D01*
X105667857Y-59609819D02*
X105810714Y-59657438D01*
X105810714Y-59657438D02*
X105858333Y-59705057D01*
X106239286Y-59705057D02*
X106286905Y-59657438D01*
X106286905Y-59657438D02*
X106382143Y-59609819D01*
X106382143Y-59609819D02*
X106620238Y-59609819D01*
X106620238Y-59609819D02*
X106715476Y-59657438D01*
X106715476Y-59657438D02*
X106763095Y-59705057D01*
X106763095Y-59705057D02*
X106810714Y-59800295D01*
X106810714Y-59800295D02*
X106810714Y-59895533D01*
X106810714Y-59895533D02*
X106763095Y-60038390D01*
X106763095Y-60038390D02*
X106191667Y-60609819D01*
X106191667Y-60609819D02*
X106810714Y-60609819D01*
X106958333Y-81814580D02*
X106910714Y-81862200D01*
X106910714Y-81862200D02*
X106767857Y-81909819D01*
X106767857Y-81909819D02*
X106672619Y-81909819D01*
X106672619Y-81909819D02*
X106529762Y-81862200D01*
X106529762Y-81862200D02*
X106434524Y-81766961D01*
X106434524Y-81766961D02*
X106386905Y-81671723D01*
X106386905Y-81671723D02*
X106339286Y-81481247D01*
X106339286Y-81481247D02*
X106339286Y-81338390D01*
X106339286Y-81338390D02*
X106386905Y-81147914D01*
X106386905Y-81147914D02*
X106434524Y-81052676D01*
X106434524Y-81052676D02*
X106529762Y-80957438D01*
X106529762Y-80957438D02*
X106672619Y-80909819D01*
X106672619Y-80909819D02*
X106767857Y-80909819D01*
X106767857Y-80909819D02*
X106910714Y-80957438D01*
X106910714Y-80957438D02*
X106958333Y-81005057D01*
X107910714Y-81909819D02*
X107339286Y-81909819D01*
X107625000Y-81909819D02*
X107625000Y-80909819D01*
X107625000Y-80909819D02*
X107529762Y-81052676D01*
X107529762Y-81052676D02*
X107434524Y-81147914D01*
X107434524Y-81147914D02*
X107339286Y-81195533D01*
D12*
%TO.C,U5*%
X122950000Y-94350000D02*
X125150000Y-94350000D01*
X122950000Y-94350000D02*
X120750000Y-94350000D01*
X122950000Y-88830000D02*
X125150000Y-88830000D01*
X122950000Y-88830000D02*
X120750000Y-88830000D01*
X119040000Y-89315000D02*
X118710000Y-89555000D01*
X118710000Y-89075000D01*
X119040000Y-89315000D01*
G36*
X119040000Y-89315000D02*
G01*
X118710000Y-89555000D01*
X118710000Y-89075000D01*
X119040000Y-89315000D01*
G37*
%TO.C,U4*%
X122950000Y-87710000D02*
X125150000Y-87710000D01*
X122950000Y-87710000D02*
X120750000Y-87710000D01*
X122950000Y-82190000D02*
X125150000Y-82190000D01*
X122950000Y-82190000D02*
X120750000Y-82190000D01*
X119040000Y-82675000D02*
X118710000Y-82915000D01*
X118710000Y-82435000D01*
X119040000Y-82675000D01*
G36*
X119040000Y-82675000D02*
G01*
X118710000Y-82915000D01*
X118710000Y-82435000D01*
X119040000Y-82675000D01*
G37*
%TO.C,U3*%
X115445000Y-115035000D02*
X116245000Y-115035000D01*
X115445000Y-115035000D02*
X114645000Y-115035000D01*
X115445000Y-111915000D02*
X116245000Y-111915000D01*
X115445000Y-111915000D02*
X114645000Y-111915000D01*
X114145000Y-111965000D02*
X113905000Y-111635000D01*
X114385000Y-111635000D01*
X114145000Y-111965000D01*
G36*
X114145000Y-111965000D02*
G01*
X113905000Y-111635000D01*
X114385000Y-111635000D01*
X114145000Y-111965000D01*
G37*
%TO.C,U2*%
X115445000Y-110410000D02*
X116245000Y-110410000D01*
X115445000Y-110410000D02*
X114645000Y-110410000D01*
X115445000Y-107290000D02*
X116245000Y-107290000D01*
X115445000Y-107290000D02*
X114645000Y-107290000D01*
X114145000Y-107340000D02*
X113905000Y-107010000D01*
X114385000Y-107010000D01*
X114145000Y-107340000D01*
G36*
X114145000Y-107340000D02*
G01*
X113905000Y-107010000D01*
X114385000Y-107010000D01*
X114145000Y-107340000D01*
G37*
%TO.C,U1*%
X123515000Y-79205000D02*
X124315000Y-79205000D01*
X123515000Y-79205000D02*
X122715000Y-79205000D01*
X123515000Y-76085000D02*
X124315000Y-76085000D01*
X123515000Y-76085000D02*
X122715000Y-76085000D01*
X122215000Y-76160000D02*
X121975000Y-75830000D01*
X122455000Y-75830000D01*
X122215000Y-76160000D01*
G36*
X122215000Y-76160000D02*
G01*
X121975000Y-75830000D01*
X122455000Y-75830000D01*
X122215000Y-76160000D01*
G37*
%TO.C,TP29*%
X103195000Y-76305000D02*
G75*
G03*
X101295000Y-76305000I-950000J0D01*
G01*
X101295000Y-76305000D02*
G75*
G03*
X103195000Y-76305000I950000J0D01*
G01*
%TO.C,TP28*%
X103195000Y-72755000D02*
G75*
G03*
X101295000Y-72755000I-950000J0D01*
G01*
X101295000Y-72755000D02*
G75*
G03*
X103195000Y-72755000I950000J0D01*
G01*
%TO.C,TP27*%
X103195000Y-69205000D02*
G75*
G03*
X101295000Y-69205000I-950000J0D01*
G01*
X101295000Y-69205000D02*
G75*
G03*
X103195000Y-69205000I950000J0D01*
G01*
%TO.C,TP26*%
X103195000Y-65655000D02*
G75*
G03*
X101295000Y-65655000I-950000J0D01*
G01*
X101295000Y-65655000D02*
G75*
G03*
X103195000Y-65655000I950000J0D01*
G01*
%TO.C,TP25*%
X103195000Y-62105000D02*
G75*
G03*
X101295000Y-62105000I-950000J0D01*
G01*
X101295000Y-62105000D02*
G75*
G03*
X103195000Y-62105000I950000J0D01*
G01*
%TO.C,TP24*%
X99645000Y-79855000D02*
G75*
G03*
X97745000Y-79855000I-950000J0D01*
G01*
X97745000Y-79855000D02*
G75*
G03*
X99645000Y-79855000I950000J0D01*
G01*
%TO.C,TP23*%
X99645000Y-76305000D02*
G75*
G03*
X97745000Y-76305000I-950000J0D01*
G01*
X97745000Y-76305000D02*
G75*
G03*
X99645000Y-76305000I950000J0D01*
G01*
%TO.C,TP22*%
X99645000Y-72755000D02*
G75*
G03*
X97745000Y-72755000I-950000J0D01*
G01*
X97745000Y-72755000D02*
G75*
G03*
X99645000Y-72755000I950000J0D01*
G01*
%TO.C,TP21*%
X99645000Y-69205000D02*
G75*
G03*
X97745000Y-69205000I-950000J0D01*
G01*
X97745000Y-69205000D02*
G75*
G03*
X99645000Y-69205000I950000J0D01*
G01*
%TO.C,TP20*%
X99645000Y-65655000D02*
G75*
G03*
X97745000Y-65655000I-950000J0D01*
G01*
X97745000Y-65655000D02*
G75*
G03*
X99645000Y-65655000I950000J0D01*
G01*
%TO.C,TP19*%
X99645000Y-62105000D02*
G75*
G03*
X97745000Y-62105000I-950000J0D01*
G01*
X97745000Y-62105000D02*
G75*
G03*
X99645000Y-62105000I950000J0D01*
G01*
%TO.C,TP18*%
X96095000Y-79855000D02*
G75*
G03*
X94195000Y-79855000I-950000J0D01*
G01*
X94195000Y-79855000D02*
G75*
G03*
X96095000Y-79855000I950000J0D01*
G01*
%TO.C,TP17*%
X96095000Y-76305000D02*
G75*
G03*
X94195000Y-76305000I-950000J0D01*
G01*
X94195000Y-76305000D02*
G75*
G03*
X96095000Y-76305000I950000J0D01*
G01*
%TO.C,TP16*%
X96095000Y-72755000D02*
G75*
G03*
X94195000Y-72755000I-950000J0D01*
G01*
X94195000Y-72755000D02*
G75*
G03*
X96095000Y-72755000I950000J0D01*
G01*
%TO.C,TP15*%
X96095000Y-69205000D02*
G75*
G03*
X94195000Y-69205000I-950000J0D01*
G01*
X94195000Y-69205000D02*
G75*
G03*
X96095000Y-69205000I950000J0D01*
G01*
%TO.C,TP14*%
X96095000Y-65655000D02*
G75*
G03*
X94195000Y-65655000I-950000J0D01*
G01*
X94195000Y-65655000D02*
G75*
G03*
X96095000Y-65655000I950000J0D01*
G01*
%TO.C,TP13*%
X96095000Y-62105000D02*
G75*
G03*
X94195000Y-62105000I-950000J0D01*
G01*
X94195000Y-62105000D02*
G75*
G03*
X96095000Y-62105000I950000J0D01*
G01*
%TO.C,TP12*%
X92545000Y-79855000D02*
G75*
G03*
X90645000Y-79855000I-950000J0D01*
G01*
X90645000Y-79855000D02*
G75*
G03*
X92545000Y-79855000I950000J0D01*
G01*
%TO.C,TP11*%
X92545000Y-76305000D02*
G75*
G03*
X90645000Y-76305000I-950000J0D01*
G01*
X90645000Y-76305000D02*
G75*
G03*
X92545000Y-76305000I950000J0D01*
G01*
%TO.C,TP10*%
X92545000Y-72755000D02*
G75*
G03*
X90645000Y-72755000I-950000J0D01*
G01*
X90645000Y-72755000D02*
G75*
G03*
X92545000Y-72755000I950000J0D01*
G01*
%TO.C,TP9*%
X92545000Y-69205000D02*
G75*
G03*
X90645000Y-69205000I-950000J0D01*
G01*
X90645000Y-69205000D02*
G75*
G03*
X92545000Y-69205000I950000J0D01*
G01*
%TO.C,TP8*%
X92545000Y-65655000D02*
G75*
G03*
X90645000Y-65655000I-950000J0D01*
G01*
X90645000Y-65655000D02*
G75*
G03*
X92545000Y-65655000I950000J0D01*
G01*
%TO.C,TP7*%
X92545000Y-62105000D02*
G75*
G03*
X90645000Y-62105000I-950000J0D01*
G01*
X90645000Y-62105000D02*
G75*
G03*
X92545000Y-62105000I950000J0D01*
G01*
%TO.C,TP6*%
X88995000Y-79855000D02*
G75*
G03*
X87095000Y-79855000I-950000J0D01*
G01*
X87095000Y-79855000D02*
G75*
G03*
X88995000Y-79855000I950000J0D01*
G01*
%TO.C,TP5*%
X88995000Y-76305000D02*
G75*
G03*
X87095000Y-76305000I-950000J0D01*
G01*
X87095000Y-76305000D02*
G75*
G03*
X88995000Y-76305000I950000J0D01*
G01*
%TO.C,TP4*%
X88995000Y-72755000D02*
G75*
G03*
X87095000Y-72755000I-950000J0D01*
G01*
X87095000Y-72755000D02*
G75*
G03*
X88995000Y-72755000I950000J0D01*
G01*
%TO.C,TP3*%
X88995000Y-69205000D02*
G75*
G03*
X87095000Y-69205000I-950000J0D01*
G01*
X87095000Y-69205000D02*
G75*
G03*
X88995000Y-69205000I950000J0D01*
G01*
%TO.C,TP2*%
X88995000Y-65655000D02*
G75*
G03*
X87095000Y-65655000I-950000J0D01*
G01*
X87095000Y-65655000D02*
G75*
G03*
X88995000Y-65655000I950000J0D01*
G01*
%TO.C,TP1*%
X88995000Y-62105000D02*
G75*
G03*
X87095000Y-62105000I-950000J0D01*
G01*
X87095000Y-62105000D02*
G75*
G03*
X88995000Y-62105000I950000J0D01*
G01*
D13*
%TO.C,S1*%
X93595000Y-86180000D02*
X93595000Y-83180000D01*
X93595000Y-83180000D02*
X97595000Y-83180000D01*
X97595000Y-83180000D02*
X97595000Y-86180000D01*
X90195000Y-86180000D02*
X100995000Y-86180000D01*
X88845000Y-88580000D02*
X88845000Y-92480000D01*
X88845000Y-92480000D02*
X102345000Y-92480000D01*
X102345000Y-92480000D02*
X102345000Y-88580000D01*
D14*
X90795000Y-98080000D02*
X90795000Y-98080000D01*
X90795000Y-97980000D02*
X90795000Y-97980000D01*
X90795000Y-98080000D02*
G75*
G03*
X90795000Y-97980000I0J50000D01*
G01*
X90795000Y-97980000D02*
G75*
G03*
X90795000Y-98080000I0J-50000D01*
G01*
D12*
%TO.C,R28*%
X88347936Y-114795000D02*
X89802064Y-114795000D01*
X88347936Y-112975000D02*
X89802064Y-112975000D01*
%TO.C,R27*%
X88347936Y-111505000D02*
X89802064Y-111505000D01*
X88347936Y-109685000D02*
X89802064Y-109685000D01*
%TO.C,R26*%
X88347936Y-108215000D02*
X89802064Y-108215000D01*
X88347936Y-106395000D02*
X89802064Y-106395000D01*
%TO.C,R25*%
X113807742Y-72147500D02*
X114282258Y-72147500D01*
X113807742Y-71102500D02*
X114282258Y-71102500D01*
%TO.C,R24*%
X113807742Y-69637500D02*
X114282258Y-69637500D01*
X113807742Y-68592500D02*
X114282258Y-68592500D01*
%TO.C,R23*%
X113807742Y-67127500D02*
X114282258Y-67127500D01*
X113807742Y-66082500D02*
X114282258Y-66082500D01*
%TO.C,R22*%
X113807742Y-64617500D02*
X114282258Y-64617500D01*
X113807742Y-63572500D02*
X114282258Y-63572500D01*
%TO.C,R21*%
X113807742Y-62107500D02*
X114282258Y-62107500D01*
X113807742Y-61062500D02*
X114282258Y-61062500D01*
%TO.C,R20*%
X109797742Y-77167500D02*
X110272258Y-77167500D01*
X109797742Y-76122500D02*
X110272258Y-76122500D01*
%TO.C,R19*%
X109797742Y-74657500D02*
X110272258Y-74657500D01*
X109797742Y-73612500D02*
X110272258Y-73612500D01*
%TO.C,R18*%
X109797742Y-72147500D02*
X110272258Y-72147500D01*
X109797742Y-71102500D02*
X110272258Y-71102500D01*
%TO.C,R17*%
X115717936Y-88270000D02*
X116172064Y-88270000D01*
X115717936Y-89740000D02*
X116172064Y-89740000D01*
%TO.C,R16*%
X115717936Y-85320000D02*
X116172064Y-85320000D01*
X115717936Y-86790000D02*
X116172064Y-86790000D01*
%TO.C,R15*%
X115717936Y-82370000D02*
X116172064Y-82370000D01*
X115717936Y-83840000D02*
X116172064Y-83840000D01*
%TO.C,R14*%
X111307936Y-94170000D02*
X111762064Y-94170000D01*
X111307936Y-95640000D02*
X111762064Y-95640000D01*
%TO.C,R13*%
X111307936Y-91220000D02*
X111762064Y-91220000D01*
X111307936Y-92690000D02*
X111762064Y-92690000D01*
%TO.C,R12*%
X111307936Y-88270000D02*
X111762064Y-88270000D01*
X111307936Y-89740000D02*
X111762064Y-89740000D01*
%TO.C,R11*%
X111307936Y-85320000D02*
X111762064Y-85320000D01*
X111307936Y-86790000D02*
X111762064Y-86790000D01*
%TO.C,R10*%
X111307936Y-82370000D02*
X111762064Y-82370000D01*
X111307936Y-83840000D02*
X111762064Y-83840000D01*
%TO.C,R9*%
X88347936Y-104925000D02*
X89802064Y-104925000D01*
X88347936Y-103105000D02*
X89802064Y-103105000D01*
%TO.C,R8*%
X106897936Y-94170000D02*
X107352064Y-94170000D01*
X106897936Y-95640000D02*
X107352064Y-95640000D01*
%TO.C,R7*%
X88347936Y-101635000D02*
X89802064Y-101635000D01*
X88347936Y-99815000D02*
X89802064Y-99815000D01*
%TO.C,R6*%
X109797742Y-69637500D02*
X110272258Y-69637500D01*
X109797742Y-68592500D02*
X110272258Y-68592500D01*
%TO.C,R5*%
X106897936Y-91220000D02*
X107352064Y-91220000D01*
X106897936Y-92690000D02*
X107352064Y-92690000D01*
%TO.C,R4*%
X109797742Y-67127500D02*
X110272258Y-67127500D01*
X109797742Y-66082500D02*
X110272258Y-66082500D01*
%TO.C,R3*%
X106897936Y-88270000D02*
X107352064Y-88270000D01*
X106897936Y-89740000D02*
X107352064Y-89740000D01*
%TO.C,R2*%
X106897936Y-85320000D02*
X107352064Y-85320000D01*
X106897936Y-86790000D02*
X107352064Y-86790000D01*
%TO.C,R1*%
X109797742Y-64617500D02*
X110272258Y-64617500D01*
X109797742Y-63572500D02*
X110272258Y-63572500D01*
%TO.C,Q1*%
X118495000Y-79230000D02*
X119145000Y-79230000D01*
X118495000Y-79230000D02*
X117845000Y-79230000D01*
X118495000Y-76110000D02*
X119145000Y-76110000D01*
X118495000Y-76110000D02*
X117845000Y-76110000D01*
X117332500Y-76160000D02*
X117092500Y-75830000D01*
X117572500Y-75830000D01*
X117332500Y-76160000D01*
G36*
X117332500Y-76160000D02*
G01*
X117092500Y-75830000D01*
X117572500Y-75830000D01*
X117332500Y-76160000D01*
G37*
%TO.C,L2*%
X123575378Y-69385000D02*
X124374622Y-69385000D01*
X123575378Y-70505000D02*
X124374622Y-70505000D01*
%TO.C,L1*%
X117265000Y-60890000D02*
X124785000Y-60890000D01*
X117265000Y-68010000D02*
X124785000Y-68010000D01*
X117265000Y-60890000D02*
X117265000Y-62440000D01*
X124785000Y-60890000D02*
X124785000Y-62440000D01*
X117265000Y-68010000D02*
X117265000Y-66460000D01*
X124785000Y-68010000D02*
X124785000Y-66460000D01*
%TO.C,J3*%
X108395000Y-115185000D02*
X108395000Y-110825000D01*
X107595000Y-112925000D02*
X107595000Y-115185000D01*
X107595000Y-112925000D02*
X107595000Y-111325000D01*
X107035000Y-108965000D02*
X107035000Y-107750000D01*
X111955000Y-115185000D02*
X111955000Y-107365000D01*
X105835000Y-107365000D02*
X105835000Y-115185000D01*
X110195000Y-112925000D02*
X110195000Y-111325000D01*
X111955000Y-108965000D02*
X111035000Y-108965000D01*
X109395000Y-110825000D02*
X109395000Y-115185000D01*
X111035000Y-108965000D02*
X110755000Y-108965000D01*
X105835000Y-115185000D02*
X111955000Y-115185000D01*
X106595000Y-112925000D02*
X107595000Y-112925000D01*
X107095000Y-112925000D02*
X107095000Y-115185000D01*
X106755000Y-107365000D02*
X105835000Y-107365000D01*
X107595000Y-111325000D02*
X106595000Y-111325000D01*
X106755000Y-108965000D02*
X106755000Y-107365000D01*
X107035000Y-108965000D02*
X106755000Y-108965000D01*
X111195000Y-112925000D02*
X110195000Y-112925000D01*
X106595000Y-111325000D02*
X106595000Y-112925000D01*
X108395000Y-110825000D02*
X109395000Y-110825000D01*
X105835000Y-108965000D02*
X106755000Y-108965000D01*
X111195000Y-111325000D02*
X111195000Y-112925000D01*
X110195000Y-111325000D02*
X111195000Y-111325000D01*
X111955000Y-107365000D02*
X111035000Y-107365000D01*
X111035000Y-107365000D02*
X111035000Y-108965000D01*
D15*
%TO.C,J2*%
X115453500Y-100230000D02*
X115453500Y-101910000D01*
X115453500Y-105680000D02*
X115453500Y-104250000D01*
X106513500Y-100230000D02*
X106513500Y-101910000D01*
X106513500Y-105680000D02*
X106513500Y-104250000D01*
X106513500Y-105680000D02*
X115453500Y-105680000D01*
D13*
X107883500Y-97080000D02*
G75*
G03*
X107683500Y-97080000I-100000J0D01*
G01*
X107683500Y-97080000D02*
G75*
G03*
X107883500Y-97080000I100000J0D01*
G01*
D12*
%TO.C,J1*%
X77245000Y-86275000D02*
X77245000Y-87295000D01*
X82445000Y-86275000D02*
X82445000Y-87295000D01*
X82445000Y-65955000D02*
X82445000Y-66975000D01*
X82445000Y-76115000D02*
X82445000Y-77135000D01*
X82445000Y-91355000D02*
X82445000Y-92375000D01*
X77245000Y-78655000D02*
X77245000Y-79675000D01*
X75805000Y-61895000D02*
X77245000Y-61895000D01*
X82445000Y-61325000D02*
X82445000Y-61895000D01*
X77245000Y-73575000D02*
X77245000Y-74595000D01*
X82445000Y-93895000D02*
X82445000Y-94915000D01*
X82445000Y-78655000D02*
X82445000Y-79675000D01*
X77245000Y-93895000D02*
X77245000Y-94915000D01*
X77245000Y-63415000D02*
X77245000Y-64435000D01*
X77245000Y-61325000D02*
X77245000Y-61895000D01*
X77245000Y-83735000D02*
X77245000Y-84755000D01*
X82445000Y-73575000D02*
X82445000Y-74595000D01*
X77245000Y-61325000D02*
X82445000Y-61325000D01*
X82445000Y-68495000D02*
X82445000Y-69515000D01*
X77245000Y-71035000D02*
X77245000Y-72055000D01*
X77245000Y-68495000D02*
X77245000Y-69515000D01*
X77245000Y-101515000D02*
X77245000Y-102085000D01*
X82445000Y-83735000D02*
X82445000Y-84755000D01*
X77245000Y-81195000D02*
X77245000Y-82215000D01*
X77245000Y-96435000D02*
X77245000Y-97455000D01*
X77245000Y-65955000D02*
X77245000Y-66975000D01*
X77245000Y-88815000D02*
X77245000Y-89835000D01*
X82445000Y-63415000D02*
X82445000Y-64435000D01*
X82445000Y-71035000D02*
X82445000Y-72055000D01*
X82445000Y-81195000D02*
X82445000Y-82215000D01*
X82445000Y-101515000D02*
X82445000Y-102085000D01*
X77245000Y-98975000D02*
X77245000Y-99995000D01*
X77245000Y-76115000D02*
X77245000Y-77135000D01*
X82445000Y-96435000D02*
X82445000Y-97455000D01*
X77245000Y-91355000D02*
X77245000Y-92375000D01*
X82445000Y-88815000D02*
X82445000Y-89835000D01*
X77245000Y-102085000D02*
X82445000Y-102085000D01*
X82445000Y-98975000D02*
X82445000Y-99995000D01*
D13*
%TO.C,IC6*%
X120395000Y-111900000D02*
X120945000Y-111900000D01*
X120945000Y-111900000D02*
X120945000Y-114800000D01*
X120945000Y-114800000D02*
X120395000Y-114800000D01*
X120395000Y-114800000D02*
X120395000Y-111900000D01*
X118795000Y-111750000D02*
X120045000Y-111750000D01*
%TO.C,IC4*%
X92655000Y-108900000D02*
X94180000Y-108900000D01*
%TO.C,IC3*%
X74195000Y-110345000D02*
X75720000Y-110345000D01*
%TO.C,IC2*%
X120395000Y-107300000D02*
X120945000Y-107300000D01*
X120945000Y-107300000D02*
X120945000Y-110200000D01*
X120945000Y-110200000D02*
X120395000Y-110200000D01*
X120395000Y-110200000D02*
X120395000Y-107300000D01*
X118795000Y-107150000D02*
X120045000Y-107150000D01*
%TO.C,IC1*%
X74195000Y-103680000D02*
X75595000Y-103680000D01*
D12*
%TO.C,D3*%
X92440000Y-107555000D02*
X97950000Y-107555000D01*
X92440000Y-104255000D02*
X92440000Y-107555000D01*
X92440000Y-104255000D02*
X97950000Y-104255000D01*
%TO.C,D1*%
X92440000Y-103005000D02*
X97950000Y-103005000D01*
X92440000Y-99705000D02*
X92440000Y-103005000D01*
X92440000Y-99705000D02*
X97950000Y-99705000D01*
%TO.C,C21*%
X118163748Y-72685000D02*
X119586252Y-72685000D01*
X118163748Y-74505000D02*
X119586252Y-74505000D01*
%TO.C,C20*%
X109894420Y-62095000D02*
X110175580Y-62095000D01*
X109894420Y-61075000D02*
X110175580Y-61075000D01*
%TO.C,C19*%
X105884420Y-77155000D02*
X106165580Y-77155000D01*
X105884420Y-76135000D02*
X106165580Y-76135000D01*
%TO.C,C18*%
X105884420Y-74645000D02*
X106165580Y-74645000D01*
X105884420Y-73625000D02*
X106165580Y-73625000D01*
%TO.C,C17*%
X124737164Y-105605000D02*
X124952836Y-105605000D01*
X124737164Y-104885000D02*
X124952836Y-104885000D01*
%TO.C,C16*%
X124737164Y-103635000D02*
X124952836Y-103635000D01*
X124737164Y-102915000D02*
X124952836Y-102915000D01*
%TO.C,C15*%
X105884420Y-72135000D02*
X106165580Y-72135000D01*
X105884420Y-71115000D02*
X106165580Y-71115000D01*
%TO.C,C14*%
X124737164Y-101665000D02*
X124952836Y-101665000D01*
X124737164Y-100945000D02*
X124952836Y-100945000D01*
%TO.C,C13*%
X124737164Y-99695000D02*
X124952836Y-99695000D01*
X124737164Y-98975000D02*
X124952836Y-98975000D01*
%TO.C,C12*%
X124737164Y-97725000D02*
X124952836Y-97725000D01*
X124737164Y-97005000D02*
X124952836Y-97005000D01*
%TO.C,C11*%
X121867164Y-105605000D02*
X122082836Y-105605000D01*
X121867164Y-104885000D02*
X122082836Y-104885000D01*
%TO.C,C10*%
X105884420Y-69625000D02*
X106165580Y-69625000D01*
X105884420Y-68605000D02*
X106165580Y-68605000D01*
%TO.C,C9*%
X105884420Y-67115000D02*
X106165580Y-67115000D01*
X105884420Y-66095000D02*
X106165580Y-66095000D01*
%TO.C,C8*%
X121867164Y-103635000D02*
X122082836Y-103635000D01*
X121867164Y-102915000D02*
X122082836Y-102915000D01*
%TO.C,C7*%
X121867164Y-101665000D02*
X122082836Y-101665000D01*
X121867164Y-100945000D02*
X122082836Y-100945000D01*
%TO.C,C6*%
X121867164Y-99695000D02*
X122082836Y-99695000D01*
X121867164Y-98975000D02*
X122082836Y-98975000D01*
%TO.C,C5*%
X118163748Y-69335000D02*
X119586252Y-69335000D01*
X118163748Y-71155000D02*
X119586252Y-71155000D01*
%TO.C,C4*%
X105884420Y-64605000D02*
X106165580Y-64605000D01*
X105884420Y-63585000D02*
X106165580Y-63585000D01*
%TO.C,C3*%
X121867164Y-97725000D02*
X122082836Y-97725000D01*
X121867164Y-97005000D02*
X122082836Y-97005000D01*
%TO.C,C2*%
X105884420Y-62095000D02*
X106165580Y-62095000D01*
X105884420Y-61075000D02*
X106165580Y-61075000D01*
%TO.C,C1*%
X106897936Y-82370000D02*
X107352064Y-82370000D01*
X106897936Y-83840000D02*
X107352064Y-83840000D01*
%TD*%
%LPC*%
%TO.C,J2*%
D16*
X109433500Y-98950000D02*
X109033500Y-98950000D01*
X109033500Y-97710000D01*
X109433500Y-97710000D01*
X109433500Y-98950000D01*
G36*
X109433500Y-98950000D02*
G01*
X109033500Y-98950000D01*
X109033500Y-97710000D01*
X109433500Y-97710000D01*
X109433500Y-98950000D01*
G37*
X109933500Y-98950000D02*
X109533500Y-98950000D01*
X109533500Y-97710000D01*
X109933500Y-97710000D01*
X109933500Y-98950000D01*
G36*
X109933500Y-98950000D02*
G01*
X109533500Y-98950000D01*
X109533500Y-97710000D01*
X109933500Y-97710000D01*
X109933500Y-98950000D01*
G37*
X110433500Y-98950000D02*
X110033500Y-98950000D01*
X110033500Y-97710000D01*
X110433500Y-97710000D01*
X110433500Y-98950000D01*
G36*
X110433500Y-98950000D02*
G01*
X110033500Y-98950000D01*
X110033500Y-97710000D01*
X110433500Y-97710000D01*
X110433500Y-98950000D01*
G37*
X112933500Y-98950000D02*
X112533500Y-98950000D01*
X112533500Y-97710000D01*
X112933500Y-97710000D01*
X112933500Y-98950000D01*
G36*
X112933500Y-98950000D02*
G01*
X112533500Y-98950000D01*
X112533500Y-97710000D01*
X112933500Y-97710000D01*
X112933500Y-98950000D01*
G37*
X112433500Y-98950000D02*
X112033500Y-98950000D01*
X112033500Y-97710000D01*
X112433500Y-97710000D01*
X112433500Y-98950000D01*
G36*
X112433500Y-98950000D02*
G01*
X112033500Y-98950000D01*
X112033500Y-97710000D01*
X112433500Y-97710000D01*
X112433500Y-98950000D01*
G37*
X111933500Y-98950000D02*
X111533500Y-98950000D01*
X111533500Y-97710000D01*
X111933500Y-97710000D01*
X111933500Y-98950000D01*
G36*
X111933500Y-98950000D02*
G01*
X111533500Y-98950000D01*
X111533500Y-97710000D01*
X111933500Y-97710000D01*
X111933500Y-98950000D01*
G37*
X110933500Y-98950000D02*
X110533500Y-98950000D01*
X110533500Y-97710000D01*
X110933500Y-97710000D01*
X110933500Y-98950000D01*
G36*
X110933500Y-98950000D02*
G01*
X110533500Y-98950000D01*
X110533500Y-97710000D01*
X110933500Y-97710000D01*
X110933500Y-98950000D01*
G37*
X111433500Y-98950000D02*
X111033500Y-98950000D01*
X111033500Y-97710000D01*
X111433500Y-97710000D01*
X111433500Y-98950000D01*
G36*
X111433500Y-98950000D02*
G01*
X111033500Y-98950000D01*
X111033500Y-97710000D01*
X111433500Y-97710000D01*
X111433500Y-98950000D01*
G37*
X108133500Y-98950000D02*
X107433500Y-98950000D01*
X107433500Y-97710000D01*
X108133500Y-97710000D01*
X108133500Y-98950000D01*
G36*
X108133500Y-98950000D02*
G01*
X107433500Y-98950000D01*
X107433500Y-97710000D01*
X108133500Y-97710000D01*
X108133500Y-98950000D01*
G37*
X114533500Y-98950000D02*
X113833500Y-98950000D01*
X113833500Y-97710000D01*
X114533500Y-97710000D01*
X114533500Y-98950000D01*
G36*
X114533500Y-98950000D02*
G01*
X113833500Y-98950000D01*
X113833500Y-97710000D01*
X114533500Y-97710000D01*
X114533500Y-98950000D01*
G37*
X108933500Y-98950000D02*
X108233500Y-98950000D01*
X108233500Y-97710000D01*
X108933500Y-97710000D01*
X108933500Y-98950000D01*
G36*
X108933500Y-98950000D02*
G01*
X108233500Y-98950000D01*
X108233500Y-97710000D01*
X108933500Y-97710000D01*
X108933500Y-98950000D01*
G37*
X113733500Y-98950000D02*
X113033500Y-98950000D01*
X113033500Y-97710000D01*
X113733500Y-97710000D01*
X113733500Y-98950000D01*
G36*
X113733500Y-98950000D02*
G01*
X113033500Y-98950000D01*
X113033500Y-97710000D01*
X113733500Y-97710000D01*
X113733500Y-98950000D01*
G37*
%TD*%
D17*
%TO.C,U5*%
X120087500Y-89315000D03*
X120087500Y-89965000D03*
X120087500Y-90615000D03*
X120087500Y-91265000D03*
X120087500Y-91915000D03*
X120087500Y-92565000D03*
X120087500Y-93215000D03*
X120087500Y-93865000D03*
X125812500Y-93865000D03*
X125812500Y-93215000D03*
X125812500Y-92565000D03*
X125812500Y-91915000D03*
X125812500Y-91265000D03*
X125812500Y-90615000D03*
X125812500Y-89965000D03*
X125812500Y-89315000D03*
D18*
X122950000Y-91590000D03*
%TD*%
D17*
%TO.C,U4*%
X120087500Y-82675000D03*
X120087500Y-83325000D03*
X120087500Y-83975000D03*
X120087500Y-84625000D03*
X120087500Y-85275000D03*
X120087500Y-85925000D03*
X120087500Y-86575000D03*
X120087500Y-87225000D03*
X125812500Y-87225000D03*
X125812500Y-86575000D03*
X125812500Y-85925000D03*
X125812500Y-85275000D03*
X125812500Y-84625000D03*
X125812500Y-83975000D03*
X125812500Y-83325000D03*
X125812500Y-82675000D03*
D18*
X122950000Y-84950000D03*
%TD*%
D19*
%TO.C,U3*%
X114307500Y-112525000D03*
X114307500Y-113475000D03*
X114307500Y-114425000D03*
X116582500Y-114425000D03*
X116582500Y-113475000D03*
X116582500Y-112525000D03*
%TD*%
%TO.C,U2*%
X114307500Y-107900000D03*
X114307500Y-108850000D03*
X114307500Y-109800000D03*
X116582500Y-109800000D03*
X116582500Y-107900000D03*
%TD*%
D20*
%TO.C,U1*%
X122377500Y-76670000D03*
X122377500Y-77320000D03*
X122377500Y-77970000D03*
X122377500Y-78620000D03*
X124652500Y-78620000D03*
X124652500Y-77970000D03*
X124652500Y-77320000D03*
X124652500Y-76670000D03*
%TD*%
D21*
%TO.C,TP29*%
X102245000Y-76305000D03*
%TD*%
%TO.C,TP28*%
X102245000Y-72755000D03*
%TD*%
%TO.C,TP27*%
X102245000Y-69205000D03*
%TD*%
%TO.C,TP26*%
X102245000Y-65655000D03*
%TD*%
%TO.C,TP25*%
X102245000Y-62105000D03*
%TD*%
%TO.C,TP24*%
X98695000Y-79855000D03*
%TD*%
%TO.C,TP23*%
X98695000Y-76305000D03*
%TD*%
%TO.C,TP22*%
X98695000Y-72755000D03*
%TD*%
%TO.C,TP21*%
X98695000Y-69205000D03*
%TD*%
%TO.C,TP20*%
X98695000Y-65655000D03*
%TD*%
%TO.C,TP19*%
X98695000Y-62105000D03*
%TD*%
%TO.C,TP18*%
X95145000Y-79855000D03*
%TD*%
%TO.C,TP17*%
X95145000Y-76305000D03*
%TD*%
%TO.C,TP16*%
X95145000Y-72755000D03*
%TD*%
%TO.C,TP15*%
X95145000Y-69205000D03*
%TD*%
%TO.C,TP14*%
X95145000Y-65655000D03*
%TD*%
%TO.C,TP13*%
X95145000Y-62105000D03*
%TD*%
%TO.C,TP12*%
X91595000Y-79855000D03*
%TD*%
%TO.C,TP11*%
X91595000Y-76305000D03*
%TD*%
%TO.C,TP10*%
X91595000Y-72755000D03*
%TD*%
%TO.C,TP9*%
X91595000Y-69205000D03*
%TD*%
%TO.C,TP8*%
X91595000Y-65655000D03*
%TD*%
%TO.C,TP7*%
X91595000Y-62105000D03*
%TD*%
%TO.C,TP6*%
X88045000Y-79855000D03*
%TD*%
%TO.C,TP5*%
X88045000Y-76305000D03*
%TD*%
%TO.C,TP4*%
X88045000Y-72755000D03*
%TD*%
%TO.C,TP3*%
X88045000Y-69205000D03*
%TD*%
%TO.C,TP2*%
X88045000Y-65655000D03*
%TD*%
%TO.C,TP1*%
X88045000Y-62105000D03*
%TD*%
D22*
%TO.C,S1*%
X90795000Y-96330000D03*
D23*
X95595000Y-96330000D03*
X100395000Y-96330000D03*
D24*
X88945000Y-87130000D03*
X102245000Y-87130000D03*
%TD*%
D25*
%TO.C,R28*%
X87612500Y-113885000D03*
X90537500Y-113885000D03*
%TD*%
%TO.C,R27*%
X87612500Y-110595000D03*
X90537500Y-110595000D03*
%TD*%
%TO.C,R26*%
X87612500Y-107305000D03*
X90537500Y-107305000D03*
%TD*%
D26*
%TO.C,R25*%
X113220000Y-71625000D03*
X114870000Y-71625000D03*
%TD*%
%TO.C,R24*%
X113220000Y-69115000D03*
X114870000Y-69115000D03*
%TD*%
%TO.C,R23*%
X113220000Y-66605000D03*
X114870000Y-66605000D03*
%TD*%
%TO.C,R22*%
X113220000Y-64095000D03*
X114870000Y-64095000D03*
%TD*%
%TO.C,R21*%
X113220000Y-61585000D03*
X114870000Y-61585000D03*
%TD*%
%TO.C,R20*%
X109210000Y-76645000D03*
X110860000Y-76645000D03*
%TD*%
%TO.C,R19*%
X109210000Y-74135000D03*
X110860000Y-74135000D03*
%TD*%
%TO.C,R18*%
X109210000Y-71625000D03*
X110860000Y-71625000D03*
%TD*%
D27*
%TO.C,R17*%
X115032500Y-89005000D03*
X116857500Y-89005000D03*
%TD*%
%TO.C,R16*%
X115032500Y-86055000D03*
X116857500Y-86055000D03*
%TD*%
%TO.C,R15*%
X115032500Y-83105000D03*
X116857500Y-83105000D03*
%TD*%
%TO.C,R14*%
X110622500Y-94905000D03*
X112447500Y-94905000D03*
%TD*%
%TO.C,R13*%
X110622500Y-91955000D03*
X112447500Y-91955000D03*
%TD*%
%TO.C,R12*%
X110622500Y-89005000D03*
X112447500Y-89005000D03*
%TD*%
%TO.C,R11*%
X110622500Y-86055000D03*
X112447500Y-86055000D03*
%TD*%
%TO.C,R10*%
X110622500Y-83105000D03*
X112447500Y-83105000D03*
%TD*%
D25*
%TO.C,R9*%
X87612500Y-104015000D03*
X90537500Y-104015000D03*
%TD*%
D27*
%TO.C,R8*%
X106212500Y-94905000D03*
X108037500Y-94905000D03*
%TD*%
D25*
%TO.C,R7*%
X87612500Y-100725000D03*
X90537500Y-100725000D03*
%TD*%
D26*
%TO.C,R6*%
X109210000Y-69115000D03*
X110860000Y-69115000D03*
%TD*%
D27*
%TO.C,R5*%
X106212500Y-91955000D03*
X108037500Y-91955000D03*
%TD*%
D26*
%TO.C,R4*%
X109210000Y-66605000D03*
X110860000Y-66605000D03*
%TD*%
D27*
%TO.C,R3*%
X106212500Y-89005000D03*
X108037500Y-89005000D03*
%TD*%
%TO.C,R2*%
X106212500Y-86055000D03*
X108037500Y-86055000D03*
%TD*%
D26*
%TO.C,R1*%
X109210000Y-64095000D03*
X110860000Y-64095000D03*
%TD*%
D28*
%TO.C,Q1*%
X117557500Y-76720000D03*
X117557500Y-78620000D03*
X119432500Y-77670000D03*
%TD*%
D29*
%TO.C,L2*%
X122912500Y-69945000D03*
X125037500Y-69945000D03*
%TD*%
D30*
%TO.C,L1*%
X118000000Y-64450000D03*
X124050000Y-64450000D03*
%TD*%
D31*
%TO.C,J3*%
X107895000Y-108825000D03*
D32*
X109895000Y-108825000D03*
%TD*%
D33*
%TO.C,J2*%
X108093500Y-99400000D03*
X113873500Y-99400000D03*
D34*
X106658500Y-98910000D03*
X115308500Y-98910000D03*
D35*
X106658500Y-103080000D03*
X115308500Y-103080000D03*
%TD*%
D36*
%TO.C,J1*%
X77320000Y-62655000D03*
X82370000Y-62655000D03*
X77320000Y-65195000D03*
X82370000Y-65195000D03*
X77320000Y-67735000D03*
X82370000Y-67735000D03*
X77320000Y-70275000D03*
X82370000Y-70275000D03*
X77320000Y-72815000D03*
X82370000Y-72815000D03*
X77320000Y-75355000D03*
X82370000Y-75355000D03*
X77320000Y-77895000D03*
X82370000Y-77895000D03*
X77320000Y-80435000D03*
X82370000Y-80435000D03*
X77320000Y-82975000D03*
X82370000Y-82975000D03*
X77320000Y-85515000D03*
X82370000Y-85515000D03*
X77320000Y-88055000D03*
X82370000Y-88055000D03*
X77320000Y-90595000D03*
X82370000Y-90595000D03*
X77320000Y-93135000D03*
X82370000Y-93135000D03*
X77320000Y-95675000D03*
X82370000Y-95675000D03*
X77320000Y-98215000D03*
X82370000Y-98215000D03*
X77320000Y-100755000D03*
X82370000Y-100755000D03*
%TD*%
D37*
%TO.C,IC6*%
X119420000Y-112400000D03*
X119420000Y-113350000D03*
X119420000Y-114300000D03*
X121920000Y-114300000D03*
X121920000Y-113350000D03*
X121920000Y-112400000D03*
%TD*%
D38*
%TO.C,IC4*%
X93418000Y-109600000D03*
X93418000Y-110870000D03*
X93418000Y-112140000D03*
X93418000Y-113410000D03*
X98842000Y-113410000D03*
X98842000Y-112140000D03*
X98842000Y-110870000D03*
X98842000Y-109600000D03*
D39*
X96130000Y-111505000D03*
%TD*%
D40*
%TO.C,IC3*%
X74958000Y-111020000D03*
X74958000Y-112290000D03*
X74958000Y-113560000D03*
X74958000Y-114830000D03*
X80382000Y-114830000D03*
X80382000Y-113560000D03*
X80382000Y-112290000D03*
X80382000Y-111020000D03*
D41*
X77670000Y-112925000D03*
%TD*%
D37*
%TO.C,IC2*%
X119420000Y-107800000D03*
X119420000Y-108750000D03*
X119420000Y-109700000D03*
X121920000Y-109700000D03*
X121920000Y-108750000D03*
X121920000Y-107800000D03*
%TD*%
D42*
%TO.C,IC1*%
X74895000Y-104380000D03*
X74895000Y-105380000D03*
X74895000Y-106380000D03*
X74895000Y-107380000D03*
X74895000Y-108380000D03*
X80395000Y-108380000D03*
X80395000Y-107380000D03*
X80395000Y-106380000D03*
X80395000Y-105380000D03*
X80395000Y-104380000D03*
D43*
X77645000Y-106380000D03*
%TD*%
D44*
%TO.C,D3*%
X93950000Y-105905000D03*
X97950000Y-105905000D03*
%TD*%
%TO.C,D1*%
X93950000Y-101355000D03*
X97950000Y-101355000D03*
%TD*%
D45*
%TO.C,C21*%
X117400000Y-73595000D03*
X120350000Y-73595000D03*
%TD*%
D46*
%TO.C,C20*%
X109260000Y-61585000D03*
X110810000Y-61585000D03*
%TD*%
%TO.C,C19*%
X105250000Y-76645000D03*
X106800000Y-76645000D03*
%TD*%
%TO.C,C18*%
X105250000Y-74135000D03*
X106800000Y-74135000D03*
%TD*%
D47*
%TO.C,C17*%
X124365000Y-105245000D03*
X125325000Y-105245000D03*
%TD*%
%TO.C,C16*%
X124365000Y-103275000D03*
X125325000Y-103275000D03*
%TD*%
D46*
%TO.C,C15*%
X105250000Y-71625000D03*
X106800000Y-71625000D03*
%TD*%
D47*
%TO.C,C14*%
X124365000Y-101305000D03*
X125325000Y-101305000D03*
%TD*%
%TO.C,C13*%
X124365000Y-99335000D03*
X125325000Y-99335000D03*
%TD*%
%TO.C,C12*%
X124365000Y-97365000D03*
X125325000Y-97365000D03*
%TD*%
%TO.C,C11*%
X121495000Y-105245000D03*
X122455000Y-105245000D03*
%TD*%
D46*
%TO.C,C10*%
X105250000Y-69115000D03*
X106800000Y-69115000D03*
%TD*%
%TO.C,C9*%
X105250000Y-66605000D03*
X106800000Y-66605000D03*
%TD*%
D47*
%TO.C,C8*%
X121495000Y-103275000D03*
X122455000Y-103275000D03*
%TD*%
%TO.C,C7*%
X121495000Y-101305000D03*
X122455000Y-101305000D03*
%TD*%
%TO.C,C6*%
X121495000Y-99335000D03*
X122455000Y-99335000D03*
%TD*%
D45*
%TO.C,C5*%
X117400000Y-70245000D03*
X120350000Y-70245000D03*
%TD*%
D46*
%TO.C,C4*%
X105250000Y-64095000D03*
X106800000Y-64095000D03*
%TD*%
D47*
%TO.C,C3*%
X121495000Y-97365000D03*
X122455000Y-97365000D03*
%TD*%
D46*
%TO.C,C2*%
X105250000Y-61585000D03*
X106800000Y-61585000D03*
%TD*%
D27*
%TO.C,C1*%
X106212500Y-83105000D03*
X108037500Y-83105000D03*
%TD*%
%LPD*%
M02*
