M48
; DRILL file {KiCad 7.0.11} date Thu Mar 27 12:24:41 2025
; FORMAT={-:-/ absolute / inch / decimal}
; #@! TF.CreationDate,2025-03-27T12:24:41+02:00
; #@! TF.GenerationSoftware,Kicad,Pcbnew,7.0.11
; #@! TF.FileFunction,Plated,1,2,PTH
FMAT,2
INCH
; #@! TA.AperFunction,Plated,PTH,ComponentDrill
T1C0.0079
; #@! TA.AperFunction,Plated,PTH,ComponentDrill
T2C0.0236
; #@! TA.AperFunction,Plated,PTH,ComponentDrill
T3C0.0295
; #@! TA.AperFunction,Plated,PTH,ComponentDrill
T4C0.0591
; #@! TA.AperFunction,Plated,PTH,ComponentDrill
T5C0.0630
%
G90
G05
T1
X4.811Y-3.2854
X4.811Y-3.3445
X4.811Y-3.4035
X4.811Y-3.5469
X4.811Y-3.6059
X4.811Y-3.665
X4.8701Y-3.2854
X4.8701Y-3.3445
X4.8701Y-3.4035
X4.8701Y-3.5469
X4.8701Y-3.6059
X4.8701Y-3.665
T3
X4.2478Y-4.2844
X4.3266Y-4.2844
T4
X3.5018Y-3.4303
X4.0254Y-3.4303
T5
X3.5746Y-3.7925
X3.7636Y-3.7925
X3.9526Y-3.7925
T2
G00X4.1992Y-3.8724
M15
G01X4.1992Y-3.9157
M16
G05
G00X4.1992Y-4.0425
M15
G01X4.1992Y-4.074
M16
G05
G00X4.5397Y-3.8724
M15
G01X4.5397Y-3.9157
M16
G05
G00X4.5397Y-4.0425
M15
G01X4.5397Y-4.074
M16
G05
M30
