M48
; DRILL file {KiCad 7.0.11} date Fri Mar 28 01:33:45 2025
; FORMAT={-:-/ absolute / inch / decimal}
; #@! TF.CreationDate,2025-03-28T01:33:45+02:00
; #@! TF.GenerationSoftware,Kicad,Pcbnew,7.0.11
; #@! TF.FileFunction,Plated,1,2,PTH
FMAT,2
INCH
; #@! TA.AperFunction,Plated,PTH,ComponentDrill
T1C0.0079
; #@! TA.AperFunction,Plated,PTH,ViaDrill
T2C0.0118
; #@! TA.AperFunction,Plated,PTH,ComponentDrill
T3C0.0236
; #@! TA.AperFunction,Plated,PTH,ComponentDrill
T4C0.0295
; #@! TA.AperFunction,Plated,PTH,ComponentDrill
T5C0.0394
; #@! TA.AperFunction,Plated,PTH,ComponentDrill
T6C0.0591
; #@! TA.AperFunction,Plated,PTH,ComponentDrill
T7C0.0630
; #@! TA.AperFunction,Plated,PTH,ComponentDrill
T8C0.1260
%
G90
G05
T1
X3.1969Y-7.0433
X3.1969Y-7.1024
X3.2559Y-7.0433
X3.2559Y-7.1024
X3.315Y-7.0433
X3.315Y-7.1024
X4.9449Y-7.0551
X4.9449Y-7.1142
X5.0039Y-7.0551
X5.0039Y-7.1142
X5.063Y-7.0551
X5.063Y-7.1142
T2
X2.8858Y-6.3543
X2.9173Y-6.3425
X2.9291Y-6.4311
X2.9528Y-6.7126
X2.9724Y-6.063
X3.0079Y-6.3976
X3.0551Y-7.1024
X3.0748Y-6.1339
X3.0933Y-6.5303
X3.1102Y-7.4409
X3.122Y-7.315
X3.1614Y-7.3504
X3.189Y-6.1866
X3.1929Y-6.9016
X3.1929Y-7.3504
X3.2402Y-6.5669
X3.252Y-7.3543
X3.3189Y-6.9016
X3.3504Y-6.5787
X3.3543Y-6.9016
X3.3976Y-6.7165
X3.7795Y-7.0315
X3.8583Y-6.4606
X4.0748Y-6.3622
X4.0748Y-6.3976
X4.0945Y-7.6571
X4.1614Y-7.6571
X4.1732Y-6.685
X4.2165Y-6.8199
X4.2224Y-7.6571
X4.2323Y-6.6339
X4.4016Y-6.685
X4.5Y-6.1929
X4.5354Y-6.7244
X4.6457Y-6.2047
X4.6457Y-6.5039
X4.8425Y-6.311
X4.8583Y-7.3228
X4.9843Y-6.9134
X5.0315Y-7.3543
X5.0433Y-6.9055
X5.0433Y-7.311
X5.1063Y-7.374
X5.1417Y-7.0039
X5.1575Y-7.3465
X5.1614Y-5.811
X5.1693Y-7.2244
X5.1732Y-6.4882
X5.2087Y-7.1929
X5.2756Y-6.3858
X5.3858Y-6.0354
X5.3898Y-5.9488
X5.4764Y-6.252
X5.5906Y-6.1063
T4
X4.2559Y-5.6122
X4.3346Y-5.6122
T5
X3.4346Y-7.4409
X3.4346Y-7.5409
X3.5346Y-7.4409
X3.5346Y-7.5409
X3.6346Y-7.4409
X3.6346Y-7.5409
X3.7346Y-7.4409
X3.7346Y-7.5409
X3.8346Y-7.4409
X3.8346Y-7.5409
X3.9346Y-7.4409
X3.9346Y-7.5409
X4.0346Y-7.4409
X4.0346Y-7.5409
X4.1346Y-7.4409
X4.1346Y-7.5409
X4.2346Y-7.4409
X4.2346Y-7.5409
X4.3346Y-7.4409
X4.3346Y-7.5409
X4.4346Y-7.4409
X4.4346Y-7.5409
X4.5346Y-7.4409
X4.5346Y-7.5409
X4.6346Y-7.4409
X4.6346Y-7.5409
X4.7346Y-7.4409
X4.7346Y-7.5409
X4.8346Y-7.4409
X4.8346Y-7.5409
X4.9346Y-7.4409
X4.9346Y-7.5409
T6
X3.3445Y-5.7352
X3.8681Y-5.7352
T7
X3.4173Y-6.0974
X3.6063Y-6.0974
X3.7953Y-6.0974
T8
X4.1732Y-6.0669
T3
G00X5.3041Y-5.628
M15
G01X5.3041Y-5.5965
M16
G05
G00X5.3041Y-5.798
M15
G01X5.3041Y-5.7547
M16
G05
G00X5.6447Y-5.628
M15
G01X5.6447Y-5.5965
M16
G05
G00X5.6447Y-5.798
M15
G01X5.6447Y-5.7547
M16
G05
M30
