%TF.GenerationSoftware,KiCad,Pcbnew,7.0.11*%
%TF.CreationDate,2025-03-28T01:33:45+02:00*%
%TF.ProjectId,Project,50726f6a-6563-4742-9e6b-696361645f70,rev?*%
%TF.SameCoordinates,Original*%
%TF.FileFunction,Soldermask,Bot*%
%TF.FilePolarity,Negative*%
%FSLAX46Y46*%
G04 Gerber Fmt 4.6, Leading zero omitted, Abs format (unit mm)*
G04 Created by KiCad (PCBNEW 7.0.11) date 2025-03-28 01:33:45*
%MOMM*%
%LPD*%
G01*
G04 APERTURE LIST*
G04 Aperture macros list*
%AMRoundRect*
0 Rectangle with rounded corners*
0 $1 Rounding radius*
0 $2 $3 $4 $5 $6 $7 $8 $9 X,Y pos of 4 corners*
0 Add a 4 corners polygon primitive as box body*
4,1,4,$2,$3,$4,$5,$6,$7,$8,$9,$2,$3,0*
0 Add four circle primitives for the rounded corners*
1,1,$1+$1,$2,$3*
1,1,$1+$1,$4,$5*
1,1,$1+$1,$6,$7*
1,1,$1+$1,$8,$9*
0 Add four rect primitives between the rounded corners*
20,1,$1+$1,$2,$3,$4,$5,0*
20,1,$1+$1,$4,$5,$6,$7,0*
20,1,$1+$1,$6,$7,$8,$9,0*
20,1,$1+$1,$8,$9,$2,$3,0*%
G04 Aperture macros list end*
%ADD10C,5.700000*%
%ADD11O,1.700000X1.700000*%
%ADD12R,1.700000X1.700000*%
%ADD13O,1.104000X1.904000*%
%ADD14O,1.104000X2.204000*%
%ADD15C,0.600000*%
%ADD16RoundRect,0.250000X-0.350000X-0.625000X0.350000X-0.625000X0.350000X0.625000X-0.350000X0.625000X0*%
%ADD17O,1.200000X1.750000*%
%ADD18R,2.400000X2.400000*%
%ADD19C,2.400000*%
%ADD20C,2.250000*%
G04 APERTURE END LIST*
D10*
%TO.C,REF\u002A\u002A*%
X106000000Y-154100000D03*
%TD*%
D11*
%TO.C,J1*%
X87240000Y-191540000D03*
X87240000Y-189000000D03*
X89780000Y-191540000D03*
X89780000Y-189000000D03*
X92320000Y-191540000D03*
X92320000Y-189000000D03*
X94860000Y-191540000D03*
X94860000Y-189000000D03*
X97400000Y-191540000D03*
X97400000Y-189000000D03*
X99940000Y-191540000D03*
X99940000Y-189000000D03*
X102480000Y-191540000D03*
X102480000Y-189000000D03*
X105020000Y-191540000D03*
X105020000Y-189000000D03*
X107560000Y-191540000D03*
X107560000Y-189000000D03*
X110100000Y-191540000D03*
X110100000Y-189000000D03*
X112640000Y-191540000D03*
X112640000Y-189000000D03*
X115180000Y-191540000D03*
X115180000Y-189000000D03*
X117720000Y-191540000D03*
X117720000Y-189000000D03*
X120260000Y-191540000D03*
X120260000Y-189000000D03*
X122800000Y-191540000D03*
X122800000Y-189000000D03*
X125340000Y-191540000D03*
D12*
X125340000Y-189000000D03*
%TD*%
D13*
%TO.C,J2*%
X134725000Y-142550000D03*
X143375000Y-142550000D03*
D14*
X134725000Y-146720000D03*
X143375000Y-146720000D03*
D15*
X136160000Y-146230000D03*
X141940000Y-146230000D03*
%TD*%
D16*
%TO.C,J3*%
X108100000Y-142550000D03*
D17*
X110100000Y-142550000D03*
%TD*%
D18*
%TO.C,S1*%
X86800000Y-154875000D03*
D19*
X91600000Y-154875000D03*
X96400000Y-154875000D03*
D20*
X84950000Y-145675000D03*
X98250000Y-145675000D03*
%TD*%
M02*
