%TF.GenerationSoftware,KiCad,Pcbnew,7.0.11*%
%TF.CreationDate,2025-03-28T01:33:45+02:00*%
%TF.ProjectId,Project,50726f6a-6563-4742-9e6b-696361645f70,rev?*%
%TF.SameCoordinates,Original*%
%TF.FileFunction,Copper,L2,Bot*%
%TF.FilePolarity,Positive*%
%FSLAX46Y46*%
G04 Gerber Fmt 4.6, Leading zero omitted, Abs format (unit mm)*
G04 Created by KiCad (PCBNEW 7.0.11) date 2025-03-28 01:33:45*
%MOMM*%
%LPD*%
G01*
G04 APERTURE LIST*
G04 Aperture macros list*
%AMRoundRect*
0 Rectangle with rounded corners*
0 $1 Rounding radius*
0 $2 $3 $4 $5 $6 $7 $8 $9 X,Y pos of 4 corners*
0 Add a 4 corners polygon primitive as box body*
4,1,4,$2,$3,$4,$5,$6,$7,$8,$9,$2,$3,0*
0 Add four circle primitives for the rounded corners*
1,1,$1+$1,$2,$3*
1,1,$1+$1,$4,$5*
1,1,$1+$1,$6,$7*
1,1,$1+$1,$8,$9*
0 Add four rect primitives between the rounded corners*
20,1,$1+$1,$2,$3,$4,$5,0*
20,1,$1+$1,$4,$5,$6,$7,0*
20,1,$1+$1,$6,$7,$8,$9,0*
20,1,$1+$1,$8,$9,$2,$3,0*%
G04 Aperture macros list end*
%TA.AperFunction,ComponentPad*%
%ADD10C,5.700000*%
%TD*%
%TA.AperFunction,ComponentPad*%
%ADD11O,1.700000X1.700000*%
%TD*%
%TA.AperFunction,ComponentPad*%
%ADD12R,1.700000X1.700000*%
%TD*%
%TA.AperFunction,ComponentPad*%
%ADD13O,0.900000X1.700000*%
%TD*%
%TA.AperFunction,ComponentPad*%
%ADD14O,0.900000X2.000000*%
%TD*%
%TA.AperFunction,ComponentPad*%
%ADD15RoundRect,0.250000X-0.350000X-0.625000X0.350000X-0.625000X0.350000X0.625000X-0.350000X0.625000X0*%
%TD*%
%TA.AperFunction,ComponentPad*%
%ADD16O,1.200000X1.750000*%
%TD*%
%TA.AperFunction,HeatsinkPad*%
%ADD17C,0.500000*%
%TD*%
%TA.AperFunction,HeatsinkPad*%
%ADD18R,3.500000X2.000000*%
%TD*%
%TA.AperFunction,ComponentPad*%
%ADD19R,2.400000X2.400000*%
%TD*%
%TA.AperFunction,ComponentPad*%
%ADD20C,2.400000*%
%TD*%
%TA.AperFunction,ComponentPad*%
%ADD21C,2.250000*%
%TD*%
%TA.AperFunction,ViaPad*%
%ADD22C,0.600000*%
%TD*%
%TA.AperFunction,Conductor*%
%ADD23C,0.200000*%
%TD*%
%TA.AperFunction,Conductor*%
%ADD24C,0.400000*%
%TD*%
%TA.AperFunction,Conductor*%
%ADD25C,0.500000*%
%TD*%
%TA.AperFunction,Conductor*%
%ADD26C,0.300000*%
%TD*%
G04 APERTURE END LIST*
D10*
%TO.P,REF\u002A\u002A,1*%
%TO.N,N/C*%
X106000000Y-154100000D03*
%TD*%
D11*
%TO.P,J1,32,Pin_32*%
%TO.N,MOTOR1_A_OUT*%
X87240000Y-191540000D03*
%TO.P,J1,31,Pin_31*%
%TO.N,MOTOR1_B_OUT*%
X87240000Y-189000000D03*
%TO.P,J1,30,Pin_30*%
%TO.N,MOTOR1_CTRL2*%
X89780000Y-191540000D03*
%TO.P,J1,29,Pin_29*%
%TO.N,MOTOR3_B_OUT*%
X89780000Y-189000000D03*
%TO.P,J1,28,Pin_28*%
%TO.N,MOTOR1_CTRL1*%
X92320000Y-191540000D03*
%TO.P,J1,27,Pin_27*%
%TO.N,MOTOR3_A_OUT*%
X92320000Y-189000000D03*
%TO.P,J1,26,Pin_26*%
%TO.N,MOTOR3_CTRL2*%
X94860000Y-191540000D03*
%TO.P,J1,25,Pin_25*%
%TO.N,CTRL_EXT_LOAD1*%
X94860000Y-189000000D03*
%TO.P,J1,24,Pin_24*%
%TO.N,MOTOR3_CTRL1*%
X97400000Y-191540000D03*
%TO.P,J1,23,Pin_23*%
%TO.N,unconnected-(J1-Pin_23-Pad23)*%
X97400000Y-189000000D03*
%TO.P,J1,22,Pin_22*%
%TO.N,HV*%
X99940000Y-191540000D03*
%TO.P,J1,21,Pin_21*%
%TO.N,EXT_LOAD1_OUT*%
X99940000Y-189000000D03*
%TO.P,J1,20,Pin_20*%
%TO.N,5V Out*%
X102480000Y-191540000D03*
%TO.P,J1,19,Pin_19*%
%TO.N,GND*%
X102480000Y-189000000D03*
%TO.P,J1,18,Pin_18*%
%TO.N,3V3 Out*%
X105020000Y-191540000D03*
%TO.P,J1,17,Pin_17*%
%TO.N,I2C1_SDA*%
X105020000Y-189000000D03*
%TO.P,J1,16,Pin_16*%
%TO.N,I2C1_SCL*%
X107560000Y-191540000D03*
%TO.P,J1,15,Pin_15*%
%TO.N,GND*%
X107560000Y-189000000D03*
%TO.P,J1,14,Pin_14*%
%TO.N,Battery*%
X110100000Y-191540000D03*
%TO.P,J1,13,Pin_13*%
%TO.N,FAST_CHARGE_CTRL*%
X110100000Y-189000000D03*
%TO.P,J1,12,Pin_12*%
%TO.N,USART2_TX*%
X112640000Y-191540000D03*
%TO.P,J1,11,Pin_11*%
%TO.N,EXT_LOAD2_OUT*%
X112640000Y-189000000D03*
%TO.P,J1,10,Pin_10*%
%TO.N,MOTOR4_CTRL2*%
X115180000Y-191540000D03*
%TO.P,J1,9,Pin_9*%
%TO.N,USART2_RX*%
X115180000Y-189000000D03*
%TO.P,J1,8,Pin_8*%
%TO.N,MOTOR4_CTRL1*%
X117720000Y-191540000D03*
%TO.P,J1,7,Pin_7*%
%TO.N,CTRL_EXT_LOAD2*%
X117720000Y-189000000D03*
%TO.P,J1,6,Pin_6*%
%TO.N,MOTOR2_CTRL2*%
X120260000Y-191540000D03*
%TO.P,J1,5,Pin_5*%
%TO.N,Motor4_B_OUT*%
X120260000Y-189000000D03*
%TO.P,J1,4,Pin_4*%
%TO.N,MOTOR2_CTRL1*%
X122800000Y-191540000D03*
%TO.P,J1,3,Pin_3*%
%TO.N,Motor4_A_OUT*%
X122800000Y-189000000D03*
%TO.P,J1,2,Pin_2*%
%TO.N,Motor2_A_OUT*%
X125340000Y-191540000D03*
D12*
%TO.P,J1,1,Pin_1*%
%TO.N,Motor2_B_OUT*%
X125340000Y-189000000D03*
%TD*%
D13*
%TO.P,J2,S4,SHIELD*%
%TO.N,GND*%
X134725000Y-142550000D03*
%TO.P,J2,S3,SHIELD*%
X143375000Y-142550000D03*
D14*
%TO.P,J2,S2,SHIELD*%
X134725000Y-146720000D03*
%TO.P,J2,S1,SHIELD*%
X143375000Y-146720000D03*
%TD*%
D15*
%TO.P,J3,1,Pin_1*%
%TO.N,Battery*%
X108100000Y-142550000D03*
D16*
%TO.P,J3,2,Pin_2*%
%TO.N,GND*%
X110100000Y-142550000D03*
%TD*%
D17*
%TO.P,U4,17,GND(PPAD)*%
%TO.N,GND*%
X128600000Y-179200000D03*
X127100000Y-179200000D03*
X125600000Y-179200000D03*
D18*
X127100000Y-179950000D03*
D17*
X128600000Y-180700000D03*
X127100000Y-180700000D03*
X125600000Y-180700000D03*
%TD*%
D19*
%TO.P,S1,1,1*%
%TO.N,Bat_out*%
X86800000Y-154875000D03*
D20*
%TO.P,S1,2,2*%
%TO.N,Battery*%
X91600000Y-154875000D03*
%TO.P,S1,3,3*%
%TO.N,Charging*%
X96400000Y-154875000D03*
D21*
%TO.P,S1,4,MH1*%
%TO.N,GND*%
X84950000Y-145675000D03*
%TO.P,S1,5,MH2*%
X98250000Y-145675000D03*
%TD*%
D17*
%TO.P,U5,17,GND(PPAD)*%
%TO.N,GND*%
X81200000Y-180400000D03*
X82700000Y-180400000D03*
X84200000Y-180400000D03*
D18*
X82700000Y-179650000D03*
D17*
X81200000Y-178900000D03*
X82700000Y-178900000D03*
X84200000Y-178900000D03*
%TD*%
D22*
%TO.N,GND*%
X139100000Y-158800000D03*
X96000000Y-178600000D03*
X79300000Y-185800000D03*
X114300000Y-157300000D03*
X123000000Y-160300000D03*
X136800000Y-153300000D03*
X103500000Y-162500000D03*
X132300000Y-182700000D03*
X128100000Y-185700000D03*
X123400000Y-186000000D03*
X107100000Y-173225000D03*
X85100000Y-167100000D03*
X82300000Y-166800000D03*
X77600000Y-180400000D03*
X75500000Y-154000000D03*
X76400000Y-162500000D03*
X78569669Y-165869669D03*
X78100000Y-155800000D03*
X81000000Y-157140000D03*
%TO.N,3V3 Out*%
X107500000Y-168500000D03*
X111800000Y-169800000D03*
%TO.N,Net-(IC1-VDD)*%
X131100000Y-147600000D03*
%TO.N,Net-(IC3-VSENSE)*%
X131400000Y-164800000D03*
X134000000Y-162200000D03*
%TO.N,CTRL_EXT_LOAD2*%
X73300000Y-161400000D03*
%TO.N,CTRL_EXT_LOAD1*%
X74400000Y-163350000D03*
%TO.N,Net-(IC1-VDD)*%
X136900000Y-151100000D03*
X142000000Y-155100000D03*
%TO.N,EXT_LOAD1_OUT*%
X75000000Y-170500000D03*
%TO.N,EXT_LOAD2_OUT*%
X74100000Y-161100000D03*
%TO.N,3V3 Out*%
X103500000Y-161600000D03*
X98000000Y-164100000D03*
%TO.N,Monitor_out*%
X82600000Y-186800000D03*
%TO.N,Net-(IC4-CE)*%
X118000000Y-157600000D03*
X118000000Y-165200000D03*
%TO.N,Monitor_out*%
X127800000Y-186800000D03*
%TO.N,Motor2_B_OUT*%
X126600000Y-175600000D03*
%TO.N,MOTOR1_B_OUT*%
X128100000Y-175400000D03*
%TO.N,Monitor_out*%
X130600000Y-177900000D03*
X115200000Y-170800000D03*
X106000000Y-169800000D03*
X86300000Y-170600000D03*
%TO.N,Motor4_B_OUT*%
X107250000Y-194490000D03*
%TO.N,MOTOR4_CTRL1*%
X105700000Y-194490000D03*
%TO.N,MOTOR4_CTRL2*%
X104000000Y-194490000D03*
X81100000Y-186700000D03*
%TO.N,MOTOR4_CTRL1*%
X80300000Y-186700000D03*
%TO.N,Motor4_B_OUT*%
X79000000Y-189000000D03*
%TO.N,MOTOR1_A_OUT*%
X131300000Y-183500000D03*
%TO.N,MOTOR1_CTRL1*%
X131000000Y-186600000D03*
%TO.N,MOTOR1_CTRL2*%
X129700000Y-187300000D03*
%TO.N,Motor4_A_OUT*%
X81100000Y-175300000D03*
%TO.N,Monitor_out*%
X85200000Y-175300000D03*
%TO.N,MOTOR3_A_OUT*%
X84300000Y-175300000D03*
%TD*%
D23*
%TO.N,GND*%
X132300000Y-182700000D02*
X132400000Y-182700000D01*
X131251471Y-182700000D02*
X132300000Y-182700000D01*
X130700000Y-183251471D02*
X131251471Y-182700000D01*
X130700000Y-184797057D02*
X130700000Y-183251471D01*
X127551471Y-187400000D02*
X128097057Y-187400000D01*
X127200000Y-187048529D02*
X127551471Y-187400000D01*
X127200000Y-186551471D02*
X127200000Y-187048529D01*
X128051471Y-185700000D02*
X127200000Y-186551471D01*
X128097057Y-187400000D02*
X130700000Y-184797057D01*
X128100000Y-185700000D02*
X128051471Y-185700000D01*
%TO.N,MOTOR1_B_OUT*%
X86090000Y-190150000D02*
X87240000Y-189000000D01*
X86090000Y-192016346D02*
X86090000Y-190150000D01*
X126407055Y-193890000D02*
X87963654Y-193890000D01*
X132100000Y-175400000D02*
X132900000Y-176200000D01*
X87963654Y-193890000D02*
X86090000Y-192016346D01*
X128100000Y-175400000D02*
X132100000Y-175400000D01*
X132900000Y-176200000D02*
X132900000Y-187397056D01*
X132900000Y-187397056D02*
X126407055Y-193890000D01*
D24*
%TO.N,Monitor_out*%
X129610050Y-185179900D02*
X129610050Y-177900000D01*
X127989950Y-186800000D02*
X129610050Y-185179900D01*
X127800000Y-186800000D02*
X127989950Y-186800000D01*
D23*
%TO.N,Motor2_B_OUT*%
X125340000Y-188840000D02*
X125340000Y-189000000D01*
X122800000Y-186300000D02*
X125340000Y-188840000D01*
X122800000Y-179600000D02*
X122800000Y-186300000D01*
X126600000Y-175800000D02*
X122800000Y-179600000D01*
X126600000Y-175600000D02*
X126600000Y-175800000D01*
%TO.N,CTRL_EXT_LOAD1*%
X94860000Y-178311471D02*
X94860000Y-189000000D01*
X86548529Y-170000000D02*
X94860000Y-178311471D01*
X84900000Y-171100000D02*
X86000000Y-170000000D01*
X74400000Y-163350000D02*
X74100000Y-163650000D01*
X74100000Y-170448529D02*
X74751471Y-171100000D01*
X74751471Y-171100000D02*
X84900000Y-171100000D01*
X74100000Y-163650000D02*
X74100000Y-170448529D01*
X86000000Y-170000000D02*
X86548529Y-170000000D01*
%TO.N,3V3 Out*%
X110500000Y-168500000D02*
X107500000Y-168500000D01*
X111800000Y-169800000D02*
X110500000Y-168500000D01*
D24*
%TO.N,Net-(IC1-VDD)*%
X131100000Y-147800000D02*
X131100000Y-147600000D01*
X134400000Y-151100000D02*
X131100000Y-147800000D01*
X136900000Y-151100000D02*
X134400000Y-151100000D01*
D23*
%TO.N,Net-(IC3-VSENSE)*%
X131400000Y-164800000D02*
X131500000Y-164700000D01*
X134000000Y-162200000D02*
X131400000Y-164800000D01*
%TO.N,CTRL_EXT_LOAD2*%
X73951471Y-160400000D02*
X89120000Y-160400000D01*
X89120000Y-160400000D02*
X117720000Y-189000000D01*
X73300000Y-161051471D02*
X73951471Y-160400000D01*
X73300000Y-161400000D02*
X73300000Y-161051471D01*
D25*
%TO.N,EXT_LOAD1_OUT*%
X84999999Y-165700000D02*
X89100000Y-169800001D01*
X79800000Y-165700000D02*
X84999999Y-165700000D01*
X75650000Y-169850000D02*
X79800000Y-165700000D01*
D24*
%TO.N,Monitor_out*%
X110600000Y-170800000D02*
X115200000Y-170800000D01*
X106000000Y-169800000D02*
X109600000Y-169800000D01*
X109600000Y-169800000D02*
X110600000Y-170800000D01*
D23*
%TO.N,MOTOR4_CTRL1*%
X105700000Y-194490000D02*
X105100000Y-195090000D01*
X105100000Y-195090000D02*
X88032282Y-195090000D01*
X88032282Y-195090000D02*
X80300000Y-187357718D01*
X80300000Y-187357718D02*
X80300000Y-186700000D01*
%TO.N,Motor4_B_OUT*%
X85510000Y-195490000D02*
X85500000Y-195500000D01*
X107250000Y-194490000D02*
X106250000Y-195490000D01*
X85500000Y-195500000D02*
X79000000Y-189000000D01*
X106250000Y-195490000D02*
X85510000Y-195490000D01*
%TO.N,MOTOR4_CTRL2*%
X81100000Y-187592032D02*
X81100000Y-186700000D01*
X87797968Y-194290000D02*
X81100000Y-187592032D01*
X103800000Y-194290000D02*
X87797968Y-194290000D01*
X104000000Y-194490000D02*
X103800000Y-194290000D01*
D24*
%TO.N,Net-(IC1-VDD)*%
X136900000Y-151100000D02*
X136900000Y-151200000D01*
X138100000Y-151200000D02*
X136900000Y-151100000D01*
X142000000Y-155100000D02*
X138100000Y-151200000D01*
D25*
%TO.N,EXT_LOAD2_OUT*%
X103720000Y-183430051D02*
X107070051Y-183430051D01*
X81389949Y-161100000D02*
X103720000Y-183430051D01*
X74100000Y-161100000D02*
X81389949Y-161100000D01*
X107070051Y-183430051D02*
X112640000Y-189000000D01*
%TO.N,EXT_LOAD1_OUT*%
X99940000Y-180640000D02*
X99940000Y-189000000D01*
X89150000Y-169850000D02*
X99940000Y-180640000D01*
X75000000Y-170500000D02*
X75650000Y-169850000D01*
D23*
%TO.N,3V3 Out*%
X101000000Y-164100000D02*
X98000000Y-164100000D01*
X103500000Y-161600000D02*
X101000000Y-164100000D01*
D26*
%TO.N,Monitor_out*%
X84950000Y-174650000D02*
X85200000Y-174900000D01*
X80830761Y-174650000D02*
X84950000Y-174650000D01*
X80200000Y-175280761D02*
X80830761Y-174650000D01*
X80200000Y-184400000D02*
X80200000Y-175280761D01*
X82600000Y-186800000D02*
X80200000Y-184400000D01*
X85200000Y-174900000D02*
X85200000Y-175300000D01*
D23*
%TO.N,Motor4_A_OUT*%
X91170000Y-189476346D02*
X91843654Y-190150000D01*
X83596346Y-180950000D02*
X91170000Y-188523654D01*
X91170000Y-188523654D02*
X91170000Y-189476346D01*
X80650000Y-180950000D02*
X83596346Y-180950000D01*
X91843654Y-190150000D02*
X121650000Y-190150000D01*
X121650000Y-190150000D02*
X122800000Y-189000000D01*
D24*
%TO.N,Net-(IC4-CE)*%
X118000000Y-165200000D02*
X118000000Y-157600000D01*
%TO.N,Monitor_out*%
X123500000Y-170800000D02*
X115200000Y-170800000D01*
X127400000Y-174700000D02*
X123500000Y-170800000D01*
X127400000Y-175689950D02*
X127400000Y-174700000D01*
X129610050Y-177900000D02*
X127400000Y-175689950D01*
X130600000Y-177900000D02*
X129610050Y-177900000D01*
D23*
%TO.N,Motor2_B_OUT*%
X126800000Y-175600000D02*
X126600000Y-175600000D01*
%TO.N,MOTOR1_B_OUT*%
X128000000Y-175400000D02*
X128100000Y-175400000D01*
D24*
%TO.N,Monitor_out*%
X86300000Y-174200000D02*
X86300000Y-170600000D01*
X85200000Y-175300000D02*
X86300000Y-174200000D01*
D23*
%TO.N,MOTOR1_A_OUT*%
X89190000Y-193490000D02*
X87240000Y-191540000D01*
X131600000Y-188131370D02*
X126241370Y-193490000D01*
X131600000Y-183800000D02*
X131600000Y-188131370D01*
X126241370Y-193490000D02*
X89190000Y-193490000D01*
X131300000Y-183500000D02*
X131600000Y-183800000D01*
%TO.N,MOTOR1_CTRL2*%
X91330000Y-193090000D02*
X89780000Y-191540000D01*
X126075685Y-193090000D02*
X91330000Y-193090000D01*
X129700000Y-189465685D02*
X126075685Y-193090000D01*
X129700000Y-187300000D02*
X129700000Y-189465685D01*
%TO.N,MOTOR1_CTRL1*%
X125910000Y-192690000D02*
X93470000Y-192690000D01*
X126490000Y-192110000D02*
X125910000Y-192690000D01*
X126490000Y-189661471D02*
X126490000Y-192110000D01*
X129551471Y-186600000D02*
X126490000Y-189661471D01*
X93470000Y-192690000D02*
X92320000Y-191540000D01*
X131000000Y-186600000D02*
X129551471Y-186600000D01*
%TO.N,Motor2_B_OUT*%
X125050000Y-188710000D02*
X125340000Y-189000000D01*
X126800000Y-175600000D02*
X126800000Y-175600000D01*
%TO.N,Motor4_A_OUT*%
X80650000Y-175750000D02*
X80650000Y-180950000D01*
X81100000Y-175300000D02*
X80650000Y-175750000D01*
%TO.N,MOTOR3_A_OUT*%
X84900000Y-181580000D02*
X92320000Y-189000000D01*
X84900000Y-175900000D02*
X84900000Y-181580000D01*
X84300000Y-175300000D02*
X84900000Y-175900000D01*
%TD*%
%TA.AperFunction,Conductor*%
%TO.N,GND*%
G36*
X107452606Y-141020185D02*
G01*
X107498361Y-141072989D01*
X107508305Y-141142147D01*
X107479280Y-141205703D01*
X107436015Y-141234576D01*
X107437209Y-141237136D01*
X107430663Y-141240187D01*
X107281342Y-141332289D01*
X107157289Y-141456342D01*
X107065187Y-141605663D01*
X107065186Y-141605666D01*
X107010001Y-141772203D01*
X107010001Y-141772204D01*
X107010000Y-141772204D01*
X106999500Y-141874983D01*
X106999500Y-143225001D01*
X106999501Y-143225018D01*
X107010000Y-143327796D01*
X107010001Y-143327799D01*
X107065185Y-143494331D01*
X107065187Y-143494336D01*
X107082164Y-143521860D01*
X107157288Y-143643656D01*
X107281344Y-143767712D01*
X107430666Y-143859814D01*
X107597203Y-143914999D01*
X107699991Y-143925500D01*
X108500008Y-143925499D01*
X108500016Y-143925498D01*
X108500019Y-143925498D01*
X108556302Y-143919748D01*
X108602797Y-143914999D01*
X108769334Y-143859814D01*
X108918656Y-143767712D01*
X109042712Y-143643656D01*
X109082094Y-143579806D01*
X109134040Y-143533083D01*
X109203003Y-143521860D01*
X109267085Y-143549703D01*
X109285102Y-143568251D01*
X109300272Y-143587541D01*
X109459030Y-143725105D01*
X109459038Y-143725111D01*
X109599999Y-143806494D01*
X109600000Y-143806494D01*
X109600000Y-143050000D01*
X110600000Y-143050000D01*
X110600000Y-143805937D01*
X110652504Y-143781960D01*
X110823619Y-143660110D01*
X110823625Y-143660104D01*
X110968592Y-143508067D01*
X111082167Y-143331340D01*
X111160240Y-143136325D01*
X111160244Y-143136313D01*
X111176880Y-143050000D01*
X110600000Y-143050000D01*
X109600000Y-143050000D01*
X109600000Y-143000000D01*
X133775186Y-143000000D01*
X133789647Y-143142221D01*
X133847484Y-143326561D01*
X133847489Y-143326571D01*
X133941251Y-143495498D01*
X133941256Y-143495505D01*
X134067107Y-143642105D01*
X134219887Y-143760366D01*
X134274999Y-143787400D01*
X134275000Y-143787400D01*
X134275000Y-143000000D01*
X133775186Y-143000000D01*
X109600000Y-143000000D01*
X109600000Y-142581395D01*
X109721114Y-142581395D01*
X109751837Y-142702719D01*
X109820289Y-142807492D01*
X109919052Y-142884363D01*
X110037424Y-142925000D01*
X110131073Y-142925000D01*
X110223446Y-142909586D01*
X110333514Y-142850019D01*
X110418278Y-142757941D01*
X110468551Y-142643330D01*
X110478886Y-142518605D01*
X110448163Y-142397281D01*
X110379711Y-142292508D01*
X110280948Y-142215637D01*
X110162576Y-142175000D01*
X110068927Y-142175000D01*
X109976554Y-142190414D01*
X109866486Y-142249981D01*
X109781722Y-142342059D01*
X109731449Y-142456670D01*
X109721114Y-142581395D01*
X109600000Y-142581395D01*
X109600000Y-142174000D01*
X109619685Y-142106961D01*
X109672489Y-142061206D01*
X109724000Y-142050000D01*
X111180373Y-142050000D01*
X111125850Y-141864313D01*
X111029586Y-141677585D01*
X110899731Y-141512462D01*
X110899728Y-141512459D01*
X110740969Y-141374894D01*
X110740958Y-141374885D01*
X110559039Y-141269855D01*
X110559032Y-141269852D01*
X110477635Y-141241680D01*
X110420721Y-141201151D01*
X110394753Y-141136287D01*
X110407977Y-141067680D01*
X110456192Y-141017113D01*
X110518192Y-141000500D01*
X134401553Y-141000500D01*
X134468592Y-141020185D01*
X134514347Y-141072989D01*
X134524291Y-141142147D01*
X134495266Y-141205703D01*
X134444619Y-141240781D01*
X134304472Y-141292685D01*
X134304468Y-141292687D01*
X134140496Y-141394892D01*
X134000465Y-141528002D01*
X134000464Y-141528003D01*
X133890086Y-141686586D01*
X133813893Y-141864137D01*
X133775000Y-142053393D01*
X133775000Y-142100000D01*
X134425000Y-142100000D01*
X134425000Y-142977802D01*
X134440412Y-143060250D01*
X134499457Y-143155610D01*
X134588962Y-143223201D01*
X134696840Y-143253895D01*
X134808521Y-143243546D01*
X134908922Y-143193552D01*
X134984484Y-143110666D01*
X135025000Y-143006080D01*
X135025000Y-143000000D01*
X135175000Y-143000000D01*
X135175000Y-143788944D01*
X135309503Y-143705107D01*
X135449534Y-143571997D01*
X135449535Y-143571996D01*
X135559913Y-143413413D01*
X135636106Y-143235862D01*
X135675000Y-143046606D01*
X135675000Y-143000000D01*
X142425186Y-143000000D01*
X142439647Y-143142221D01*
X142497484Y-143326561D01*
X142497489Y-143326571D01*
X142591251Y-143495498D01*
X142591256Y-143495505D01*
X142717107Y-143642105D01*
X142869887Y-143760366D01*
X142924999Y-143787400D01*
X142925000Y-143787400D01*
X142925000Y-143000000D01*
X142425186Y-143000000D01*
X135675000Y-143000000D01*
X135175000Y-143000000D01*
X135025000Y-143000000D01*
X135025000Y-142122198D01*
X135020851Y-142100000D01*
X135674813Y-142100000D01*
X135674813Y-142099999D01*
X135660352Y-141957778D01*
X135602515Y-141773438D01*
X135602510Y-141773428D01*
X135508748Y-141604501D01*
X135508743Y-141604494D01*
X135382892Y-141457894D01*
X135230109Y-141339631D01*
X135230105Y-141339629D01*
X135056642Y-141254542D01*
X135056643Y-141254542D01*
X135018019Y-141244542D01*
X134958054Y-141208682D01*
X134926995Y-141146095D01*
X134934704Y-141076652D01*
X134978732Y-141022400D01*
X135045102Y-141000564D01*
X135049100Y-141000500D01*
X143051553Y-141000500D01*
X143118592Y-141020185D01*
X143164347Y-141072989D01*
X143174291Y-141142147D01*
X143145266Y-141205703D01*
X143094619Y-141240781D01*
X142954472Y-141292685D01*
X142954468Y-141292687D01*
X142790496Y-141394892D01*
X142650465Y-141528002D01*
X142650464Y-141528003D01*
X142540086Y-141686586D01*
X142463893Y-141864137D01*
X142425000Y-142053393D01*
X142425000Y-142100000D01*
X143075000Y-142100000D01*
X143075000Y-142977802D01*
X143090412Y-143060250D01*
X143149457Y-143155610D01*
X143238962Y-143223201D01*
X143346840Y-143253895D01*
X143458521Y-143243546D01*
X143558922Y-143193552D01*
X143634484Y-143110666D01*
X143675000Y-143006080D01*
X143675000Y-143000000D01*
X143825000Y-143000000D01*
X143825000Y-143788944D01*
X143959503Y-143705107D01*
X144099534Y-143571997D01*
X144099535Y-143571996D01*
X144209913Y-143413413D01*
X144286106Y-143235862D01*
X144325000Y-143046606D01*
X144325000Y-143000000D01*
X143825000Y-143000000D01*
X143675000Y-143000000D01*
X143675000Y-142122198D01*
X143670851Y-142100000D01*
X144324813Y-142100000D01*
X144324813Y-142099999D01*
X144310352Y-141957778D01*
X144252515Y-141773438D01*
X144252510Y-141773428D01*
X144158748Y-141604501D01*
X144158743Y-141604494D01*
X144032892Y-141457894D01*
X143880109Y-141339631D01*
X143880105Y-141339629D01*
X143706642Y-141254542D01*
X143706643Y-141254542D01*
X143668019Y-141244542D01*
X143608054Y-141208682D01*
X143576995Y-141146095D01*
X143584704Y-141076652D01*
X143628732Y-141022400D01*
X143695102Y-141000564D01*
X143699100Y-141000500D01*
X144975500Y-141000500D01*
X145042539Y-141020185D01*
X145088294Y-141072989D01*
X145099500Y-141124500D01*
X145099500Y-175541324D01*
X145079815Y-175608363D01*
X145063181Y-175629005D01*
X133712181Y-186980005D01*
X133650858Y-187013490D01*
X133581166Y-187008506D01*
X133525233Y-186966634D01*
X133500816Y-186901170D01*
X133500500Y-186892324D01*
X133500500Y-176247487D01*
X133501561Y-176231301D01*
X133505682Y-176199999D01*
X133505682Y-176199998D01*
X133488089Y-176066370D01*
X133485044Y-176043238D01*
X133435856Y-175924488D01*
X133424538Y-175897163D01*
X133424535Y-175897158D01*
X133394236Y-175857671D01*
X133394233Y-175857668D01*
X133377453Y-175835799D01*
X133328282Y-175771718D01*
X133318129Y-175763927D01*
X133303228Y-175752493D01*
X133291034Y-175741799D01*
X132558199Y-175008964D01*
X132547504Y-174996769D01*
X132528283Y-174971719D01*
X132496067Y-174946999D01*
X132402841Y-174875464D01*
X132399811Y-174874209D01*
X132256762Y-174814956D01*
X132256760Y-174814955D01*
X132139361Y-174799500D01*
X132100000Y-174794318D01*
X132068697Y-174798439D01*
X132052513Y-174799500D01*
X128682412Y-174799500D01*
X128615373Y-174779815D01*
X128605097Y-174772445D01*
X128602263Y-174770185D01*
X128602262Y-174770184D01*
X128545496Y-174734515D01*
X128449523Y-174674211D01*
X128279254Y-174614631D01*
X128279250Y-174614630D01*
X128184774Y-174603986D01*
X128120360Y-174576920D01*
X128082710Y-174524722D01*
X128081542Y-174521641D01*
X128075521Y-174500034D01*
X128073695Y-174490071D01*
X128073693Y-174490063D01*
X128049008Y-174435219D01*
X128046153Y-174428329D01*
X128024818Y-174372070D01*
X128019063Y-174363733D01*
X128008036Y-174344182D01*
X128003879Y-174334946D01*
X128003878Y-174334943D01*
X127980780Y-174305461D01*
X127966785Y-174287597D01*
X127962355Y-174281577D01*
X127928183Y-174232071D01*
X127883153Y-174192178D01*
X127877715Y-174187058D01*
X124012940Y-170322283D01*
X124007805Y-170316828D01*
X123967929Y-170271816D01*
X123967924Y-170271812D01*
X123918438Y-170237655D01*
X123912403Y-170233215D01*
X123865060Y-170196124D01*
X123865055Y-170196120D01*
X123855813Y-170191961D01*
X123836266Y-170180936D01*
X123827931Y-170175183D01*
X123827932Y-170175183D01*
X123827930Y-170175182D01*
X123771694Y-170153854D01*
X123764790Y-170150994D01*
X123709932Y-170126305D01*
X123709930Y-170126304D01*
X123699946Y-170124474D01*
X123678343Y-170118451D01*
X123668874Y-170114860D01*
X123668871Y-170114859D01*
X123609171Y-170107610D01*
X123601770Y-170106483D01*
X123542609Y-170095642D01*
X123542603Y-170095642D01*
X123482567Y-170099274D01*
X123475079Y-170099500D01*
X115625494Y-170099500D01*
X115559523Y-170080494D01*
X115549525Y-170074212D01*
X115379254Y-170014631D01*
X115379249Y-170014630D01*
X115200004Y-169994435D01*
X115199996Y-169994435D01*
X115020750Y-170014630D01*
X115020745Y-170014631D01*
X114850474Y-170074212D01*
X114840477Y-170080494D01*
X114774506Y-170099500D01*
X112710576Y-170099500D01*
X112643537Y-170079815D01*
X112597782Y-170027011D01*
X112587356Y-169961617D01*
X112605565Y-169800003D01*
X112605565Y-169799996D01*
X112585369Y-169620750D01*
X112585368Y-169620745D01*
X112579234Y-169603216D01*
X112525789Y-169450478D01*
X112518432Y-169438770D01*
X112462797Y-169350227D01*
X112429816Y-169297738D01*
X112302262Y-169170184D01*
X112232429Y-169126305D01*
X112149521Y-169074210D01*
X111979249Y-169014630D01*
X111892330Y-169004837D01*
X111827916Y-168977770D01*
X111818533Y-168969298D01*
X110958199Y-168108964D01*
X110947504Y-168096769D01*
X110928283Y-168071719D01*
X110831869Y-167997738D01*
X110802841Y-167975464D01*
X110656762Y-167914956D01*
X110656760Y-167914955D01*
X110539361Y-167899500D01*
X110500000Y-167894318D01*
X110468697Y-167898439D01*
X110452513Y-167899500D01*
X108082412Y-167899500D01*
X108015373Y-167879815D01*
X108005097Y-167872445D01*
X108002263Y-167870185D01*
X108002262Y-167870184D01*
X107945496Y-167834515D01*
X107849523Y-167774211D01*
X107679254Y-167714631D01*
X107679249Y-167714630D01*
X107500004Y-167694435D01*
X107499996Y-167694435D01*
X107320750Y-167714630D01*
X107320745Y-167714631D01*
X107150476Y-167774211D01*
X106997737Y-167870184D01*
X106870184Y-167997737D01*
X106774211Y-168150476D01*
X106714631Y-168320745D01*
X106714630Y-168320750D01*
X106694435Y-168499996D01*
X106694435Y-168500003D01*
X106714630Y-168679249D01*
X106714631Y-168679254D01*
X106774211Y-168849523D01*
X106811915Y-168909528D01*
X106830915Y-168976765D01*
X106810547Y-169043600D01*
X106757279Y-169088814D01*
X106706921Y-169099500D01*
X106425494Y-169099500D01*
X106359523Y-169080494D01*
X106349525Y-169074212D01*
X106179254Y-169014631D01*
X106179249Y-169014630D01*
X106000004Y-168994435D01*
X105999996Y-168994435D01*
X105820750Y-169014630D01*
X105820745Y-169014631D01*
X105650476Y-169074211D01*
X105497737Y-169170184D01*
X105370184Y-169297737D01*
X105274211Y-169450476D01*
X105214631Y-169620745D01*
X105214630Y-169620750D01*
X105194435Y-169799996D01*
X105194435Y-169800003D01*
X105214630Y-169979249D01*
X105214631Y-169979254D01*
X105274211Y-170149523D01*
X105351051Y-170271812D01*
X105370184Y-170302262D01*
X105497738Y-170429816D01*
X105527520Y-170448529D01*
X105650474Y-170525787D01*
X105650478Y-170525789D01*
X105820745Y-170585368D01*
X105820750Y-170585369D01*
X105999996Y-170605565D01*
X106000000Y-170605565D01*
X106000004Y-170605565D01*
X106179249Y-170585369D01*
X106179252Y-170585368D01*
X106179255Y-170585368D01*
X106349522Y-170525789D01*
X106350488Y-170525181D01*
X106359523Y-170519506D01*
X106425494Y-170500500D01*
X109258481Y-170500500D01*
X109325520Y-170520185D01*
X109346162Y-170536819D01*
X110087051Y-171277707D01*
X110092171Y-171283145D01*
X110108172Y-171301206D01*
X110132071Y-171328183D01*
X110181574Y-171362352D01*
X110187603Y-171366788D01*
X110234944Y-171403878D01*
X110234946Y-171403879D01*
X110234949Y-171403881D01*
X110244177Y-171408034D01*
X110263731Y-171419062D01*
X110272070Y-171424818D01*
X110328331Y-171446154D01*
X110335208Y-171449003D01*
X110356563Y-171458615D01*
X110390063Y-171473693D01*
X110390066Y-171473693D01*
X110390069Y-171473695D01*
X110400034Y-171475521D01*
X110421656Y-171481548D01*
X110424777Y-171482731D01*
X110431128Y-171485140D01*
X110488689Y-171492128D01*
X110490815Y-171492387D01*
X110498222Y-171493514D01*
X110557394Y-171504358D01*
X110617433Y-171500725D01*
X110624921Y-171500500D01*
X114774506Y-171500500D01*
X114840477Y-171519506D01*
X114850474Y-171525787D01*
X114850475Y-171525787D01*
X114850478Y-171525789D01*
X115020745Y-171585368D01*
X115020750Y-171585369D01*
X115199996Y-171605565D01*
X115200000Y-171605565D01*
X115200004Y-171605565D01*
X115379249Y-171585369D01*
X115379252Y-171585368D01*
X115379255Y-171585368D01*
X115549522Y-171525789D01*
X115550488Y-171525181D01*
X115559523Y-171519506D01*
X115625494Y-171500500D01*
X123158481Y-171500500D01*
X123225520Y-171520185D01*
X123246162Y-171536819D01*
X126357672Y-174648329D01*
X126391157Y-174709652D01*
X126386173Y-174779344D01*
X126344301Y-174835277D01*
X126310946Y-174853051D01*
X126250480Y-174874209D01*
X126097737Y-174970184D01*
X125970184Y-175097737D01*
X125874211Y-175250476D01*
X125814631Y-175420745D01*
X125814630Y-175420750D01*
X125794435Y-175599996D01*
X125794435Y-175600002D01*
X125803579Y-175681159D01*
X125791524Y-175749980D01*
X125768040Y-175782723D01*
X122408965Y-179141798D01*
X122396774Y-179152490D01*
X122371718Y-179171717D01*
X122347549Y-179203213D01*
X122347550Y-179203214D01*
X122275464Y-179297158D01*
X122275461Y-179297163D01*
X122214957Y-179443234D01*
X122214955Y-179443239D01*
X122194318Y-179599998D01*
X122194318Y-179599999D01*
X122198439Y-179631301D01*
X122199500Y-179647487D01*
X122199500Y-186252512D01*
X122198439Y-186268697D01*
X122194318Y-186299998D01*
X122194318Y-186300000D01*
X122199500Y-186339360D01*
X122199500Y-186339361D01*
X122214955Y-186456760D01*
X122214956Y-186456762D01*
X122275464Y-186602841D01*
X122350017Y-186700000D01*
X122371719Y-186728283D01*
X122396769Y-186747504D01*
X122408964Y-186758199D01*
X123101673Y-187450908D01*
X123135158Y-187512231D01*
X123130174Y-187581923D01*
X123088302Y-187637856D01*
X123022838Y-187662273D01*
X123003185Y-187662117D01*
X122800002Y-187644341D01*
X122799999Y-187644341D01*
X122564596Y-187664936D01*
X122564586Y-187664938D01*
X122336344Y-187726094D01*
X122336335Y-187726098D01*
X122122171Y-187825964D01*
X122122169Y-187825965D01*
X121928597Y-187961505D01*
X121761505Y-188128597D01*
X121631575Y-188314158D01*
X121576998Y-188357783D01*
X121507500Y-188364977D01*
X121445145Y-188333454D01*
X121428425Y-188314158D01*
X121298494Y-188128597D01*
X121131402Y-187961506D01*
X121131395Y-187961501D01*
X120937834Y-187825967D01*
X120937830Y-187825965D01*
X120903955Y-187810169D01*
X120723663Y-187726097D01*
X120723659Y-187726096D01*
X120723655Y-187726094D01*
X120495413Y-187664938D01*
X120495403Y-187664936D01*
X120260001Y-187644341D01*
X120259999Y-187644341D01*
X120024596Y-187664936D01*
X120024586Y-187664938D01*
X119796344Y-187726094D01*
X119796335Y-187726098D01*
X119582171Y-187825964D01*
X119582169Y-187825965D01*
X119388597Y-187961505D01*
X119221505Y-188128597D01*
X119091575Y-188314158D01*
X119036998Y-188357783D01*
X118967500Y-188364977D01*
X118905145Y-188333454D01*
X118888425Y-188314158D01*
X118758494Y-188128597D01*
X118591402Y-187961506D01*
X118591395Y-187961501D01*
X118397834Y-187825967D01*
X118397830Y-187825965D01*
X118363955Y-187810169D01*
X118183663Y-187726097D01*
X118183659Y-187726096D01*
X118183655Y-187726094D01*
X117955413Y-187664938D01*
X117955403Y-187664936D01*
X117720001Y-187644341D01*
X117719999Y-187644341D01*
X117484596Y-187664936D01*
X117484583Y-187664939D01*
X117356241Y-187699327D01*
X117286392Y-187697664D01*
X117236468Y-187667233D01*
X94769238Y-165200003D01*
X117194435Y-165200003D01*
X117214630Y-165379249D01*
X117214631Y-165379254D01*
X117274211Y-165549523D01*
X117296735Y-165585369D01*
X117370184Y-165702262D01*
X117497738Y-165829816D01*
X117650478Y-165925789D01*
X117820745Y-165985368D01*
X117820750Y-165985369D01*
X117999996Y-166005565D01*
X118000000Y-166005565D01*
X118000004Y-166005565D01*
X118179249Y-165985369D01*
X118179252Y-165985368D01*
X118179255Y-165985368D01*
X118349522Y-165925789D01*
X118502262Y-165829816D01*
X118629816Y-165702262D01*
X118725789Y-165549522D01*
X118785368Y-165379255D01*
X118805565Y-165200000D01*
X118803119Y-165178294D01*
X118785369Y-165020750D01*
X118785366Y-165020737D01*
X118725790Y-164850479D01*
X118719506Y-164840478D01*
X118707845Y-164800003D01*
X130594435Y-164800003D01*
X130614630Y-164979249D01*
X130614631Y-164979254D01*
X130674211Y-165149523D01*
X130705926Y-165199996D01*
X130770184Y-165302262D01*
X130897738Y-165429816D01*
X131050478Y-165525789D01*
X131118306Y-165549523D01*
X131220745Y-165585368D01*
X131220750Y-165585369D01*
X131399996Y-165605565D01*
X131400000Y-165605565D01*
X131400004Y-165605565D01*
X131579249Y-165585369D01*
X131579252Y-165585368D01*
X131579255Y-165585368D01*
X131749522Y-165525789D01*
X131902262Y-165429816D01*
X132029816Y-165302262D01*
X132125789Y-165149522D01*
X132185368Y-164979255D01*
X132195161Y-164892329D01*
X132222226Y-164827918D01*
X132230690Y-164818543D01*
X134018535Y-163030698D01*
X134079856Y-162997215D01*
X134092311Y-162995163D01*
X134179255Y-162985368D01*
X134349522Y-162925789D01*
X134502262Y-162829816D01*
X134629816Y-162702262D01*
X134725789Y-162549522D01*
X134785368Y-162379255D01*
X134805565Y-162200000D01*
X134803916Y-162185369D01*
X134785369Y-162020750D01*
X134785368Y-162020745D01*
X134760446Y-161949522D01*
X134725789Y-161850478D01*
X134629816Y-161697738D01*
X134502262Y-161570184D01*
X134471387Y-161550784D01*
X134349523Y-161474211D01*
X134179254Y-161414631D01*
X134179249Y-161414630D01*
X134000004Y-161394435D01*
X133999996Y-161394435D01*
X133820750Y-161414630D01*
X133820745Y-161414631D01*
X133650476Y-161474211D01*
X133497737Y-161570184D01*
X133370184Y-161697737D01*
X133274210Y-161850478D01*
X133214630Y-162020750D01*
X133204837Y-162107668D01*
X133177770Y-162172082D01*
X133169298Y-162181465D01*
X131381465Y-163969298D01*
X131320142Y-164002783D01*
X131307668Y-164004837D01*
X131220750Y-164014630D01*
X131050478Y-164074210D01*
X130897737Y-164170184D01*
X130770184Y-164297737D01*
X130674211Y-164450476D01*
X130614631Y-164620745D01*
X130614630Y-164620750D01*
X130594435Y-164799996D01*
X130594435Y-164800003D01*
X118707845Y-164800003D01*
X118700500Y-164774507D01*
X118700500Y-158025493D01*
X118719508Y-157959519D01*
X118725787Y-157949525D01*
X118725786Y-157949525D01*
X118725789Y-157949522D01*
X118785368Y-157779255D01*
X118805565Y-157600000D01*
X118788720Y-157450499D01*
X118785369Y-157420750D01*
X118785368Y-157420745D01*
X118725788Y-157250476D01*
X118629815Y-157097737D01*
X118502262Y-156970184D01*
X118349523Y-156874211D01*
X118179254Y-156814631D01*
X118179249Y-156814630D01*
X118000004Y-156794435D01*
X117999996Y-156794435D01*
X117820750Y-156814630D01*
X117820745Y-156814631D01*
X117650476Y-156874211D01*
X117497737Y-156970184D01*
X117370184Y-157097737D01*
X117274211Y-157250476D01*
X117214631Y-157420745D01*
X117214630Y-157420750D01*
X117194435Y-157599996D01*
X117194435Y-157600003D01*
X117214630Y-157779249D01*
X117214631Y-157779254D01*
X117274212Y-157949525D01*
X117280492Y-157959519D01*
X117299500Y-158025493D01*
X117299500Y-164774507D01*
X117280494Y-164840478D01*
X117274209Y-164850479D01*
X117214633Y-165020737D01*
X117214630Y-165020750D01*
X117194435Y-165199996D01*
X117194435Y-165200003D01*
X94769238Y-165200003D01*
X93669238Y-164100003D01*
X97194435Y-164100003D01*
X97214630Y-164279249D01*
X97214631Y-164279254D01*
X97274211Y-164449523D01*
X97323699Y-164528282D01*
X97370184Y-164602262D01*
X97497738Y-164729816D01*
X97510475Y-164737819D01*
X97608069Y-164799142D01*
X97650478Y-164825789D01*
X97721038Y-164850479D01*
X97820745Y-164885368D01*
X97820750Y-164885369D01*
X97999996Y-164905565D01*
X98000000Y-164905565D01*
X98000004Y-164905565D01*
X98179249Y-164885369D01*
X98179252Y-164885368D01*
X98179255Y-164885368D01*
X98349522Y-164825789D01*
X98502262Y-164729816D01*
X98502267Y-164729810D01*
X98505097Y-164727555D01*
X98507275Y-164726665D01*
X98508158Y-164726111D01*
X98508255Y-164726265D01*
X98569783Y-164701145D01*
X98582412Y-164700500D01*
X100952513Y-164700500D01*
X100968697Y-164701560D01*
X101000000Y-164705682D01*
X101000001Y-164705682D01*
X101052254Y-164698802D01*
X101156762Y-164685044D01*
X101302841Y-164624536D01*
X101373674Y-164570184D01*
X101428282Y-164528282D01*
X101447509Y-164503223D01*
X101458190Y-164491043D01*
X103518535Y-162430698D01*
X103579856Y-162397215D01*
X103592311Y-162395163D01*
X103679255Y-162385368D01*
X103849522Y-162325789D01*
X104002262Y-162229816D01*
X104129816Y-162102262D01*
X104225789Y-161949522D01*
X104285368Y-161779255D01*
X104305565Y-161600000D01*
X104302419Y-161572082D01*
X104285369Y-161420750D01*
X104285368Y-161420745D01*
X104225788Y-161250476D01*
X104186582Y-161188080D01*
X104129816Y-161097738D01*
X104002262Y-160970184D01*
X103849523Y-160874211D01*
X103679254Y-160814631D01*
X103679249Y-160814630D01*
X103500004Y-160794435D01*
X103499996Y-160794435D01*
X103320750Y-160814630D01*
X103320745Y-160814631D01*
X103150476Y-160874211D01*
X102997737Y-160970184D01*
X102870184Y-161097737D01*
X102774210Y-161250478D01*
X102714630Y-161420750D01*
X102704837Y-161507668D01*
X102677770Y-161572082D01*
X102669298Y-161581465D01*
X100787584Y-163463181D01*
X100726261Y-163496666D01*
X100699903Y-163499500D01*
X98582412Y-163499500D01*
X98515373Y-163479815D01*
X98505097Y-163472445D01*
X98502263Y-163470185D01*
X98502262Y-163470184D01*
X98445496Y-163434515D01*
X98349523Y-163374211D01*
X98179254Y-163314631D01*
X98179249Y-163314630D01*
X98000004Y-163294435D01*
X97999996Y-163294435D01*
X97820750Y-163314630D01*
X97820745Y-163314631D01*
X97650476Y-163374211D01*
X97497737Y-163470184D01*
X97370184Y-163597737D01*
X97274211Y-163750476D01*
X97214631Y-163920745D01*
X97214630Y-163920750D01*
X97194435Y-164099996D01*
X97194435Y-164100003D01*
X93669238Y-164100003D01*
X89578199Y-160008964D01*
X89567504Y-159996769D01*
X89548283Y-159971719D01*
X89548279Y-159971716D01*
X89422841Y-159875464D01*
X89276762Y-159814956D01*
X89276760Y-159814955D01*
X89159361Y-159799500D01*
X89120000Y-159794318D01*
X89088697Y-159798439D01*
X89072513Y-159799500D01*
X73998958Y-159799500D01*
X73982773Y-159798439D01*
X73951471Y-159794318D01*
X73912110Y-159799500D01*
X73794710Y-159814955D01*
X73794708Y-159814956D01*
X73648628Y-159875464D01*
X73523189Y-159971716D01*
X73503960Y-159996775D01*
X73493269Y-160008965D01*
X72908965Y-160593269D01*
X72896775Y-160603960D01*
X72871716Y-160623189D01*
X72781021Y-160741387D01*
X72775466Y-160748626D01*
X72753910Y-160800663D01*
X72727033Y-160840887D01*
X72670185Y-160897736D01*
X72574211Y-161050476D01*
X72514631Y-161220745D01*
X72514630Y-161220750D01*
X72494435Y-161399996D01*
X72494435Y-161400003D01*
X72514630Y-161579249D01*
X72514631Y-161579254D01*
X72574211Y-161749523D01*
X72660870Y-161887439D01*
X72670184Y-161902262D01*
X72797738Y-162029816D01*
X72797740Y-162029817D01*
X72921638Y-162107668D01*
X72950478Y-162125789D01*
X73021910Y-162150784D01*
X73120745Y-162185368D01*
X73120750Y-162185369D01*
X73299996Y-162205565D01*
X73300000Y-162205565D01*
X73300004Y-162205565D01*
X73479249Y-162185369D01*
X73479252Y-162185368D01*
X73479255Y-162185368D01*
X73649522Y-162125789D01*
X73802262Y-162029816D01*
X73901858Y-161930219D01*
X73963177Y-161896737D01*
X74003420Y-161894683D01*
X74099998Y-161905565D01*
X74100000Y-161905565D01*
X74100004Y-161905565D01*
X74279249Y-161885369D01*
X74279252Y-161885368D01*
X74279255Y-161885368D01*
X74359017Y-161857457D01*
X74399972Y-161850500D01*
X81027719Y-161850500D01*
X81094758Y-161870185D01*
X81115400Y-161886819D01*
X83966400Y-164737819D01*
X83999885Y-164799142D01*
X83994901Y-164868834D01*
X83953029Y-164924767D01*
X83887565Y-164949184D01*
X83878719Y-164949500D01*
X79863705Y-164949500D01*
X79845735Y-164948191D01*
X79821972Y-164944710D01*
X79775642Y-164948764D01*
X79772632Y-164949028D01*
X79761826Y-164949500D01*
X79756282Y-164949500D01*
X79725488Y-164953099D01*
X79721905Y-164953465D01*
X79647200Y-164960001D01*
X79640134Y-164961461D01*
X79640122Y-164961404D01*
X79632753Y-164963038D01*
X79632767Y-164963095D01*
X79625743Y-164964759D01*
X79555245Y-164990417D01*
X79551845Y-164991598D01*
X79480665Y-165015186D01*
X79480663Y-165015186D01*
X79480660Y-165015188D01*
X79474123Y-165018236D01*
X79474098Y-165018184D01*
X79467310Y-165021470D01*
X79467336Y-165021521D01*
X79460884Y-165024761D01*
X79398236Y-165065965D01*
X79395196Y-165067902D01*
X79331347Y-165107285D01*
X79325682Y-165111765D01*
X79325646Y-165111719D01*
X79319798Y-165116484D01*
X79319835Y-165116528D01*
X79314310Y-165121164D01*
X79262848Y-165175709D01*
X79260336Y-165178294D01*
X75088409Y-169350223D01*
X74912181Y-169526451D01*
X74850858Y-169559936D01*
X74781166Y-169554952D01*
X74725233Y-169513080D01*
X74700816Y-169447616D01*
X74700500Y-169438770D01*
X74700500Y-164175123D01*
X74720185Y-164108084D01*
X74758524Y-164070132D01*
X74902262Y-163979816D01*
X75029816Y-163852262D01*
X75125789Y-163699522D01*
X75185368Y-163529255D01*
X75189426Y-163493238D01*
X75205565Y-163350003D01*
X75205565Y-163349996D01*
X75185369Y-163170750D01*
X75185368Y-163170745D01*
X75125788Y-163000476D01*
X75029815Y-162847737D01*
X74902262Y-162720184D01*
X74749523Y-162624211D01*
X74579254Y-162564631D01*
X74579249Y-162564630D01*
X74400004Y-162544435D01*
X74399996Y-162544435D01*
X74220750Y-162564630D01*
X74220745Y-162564631D01*
X74050476Y-162624211D01*
X73897737Y-162720184D01*
X73770184Y-162847737D01*
X73674210Y-163000478D01*
X73614630Y-163170750D01*
X73601934Y-163283436D01*
X73579162Y-163339907D01*
X73579528Y-163340119D01*
X73578033Y-163342707D01*
X73577097Y-163345030D01*
X73575464Y-163347157D01*
X73514956Y-163493237D01*
X73514955Y-163493239D01*
X73494318Y-163649998D01*
X73494318Y-163649999D01*
X73498439Y-163681301D01*
X73499500Y-163697487D01*
X73499500Y-170401041D01*
X73498439Y-170417226D01*
X73494318Y-170448527D01*
X73494318Y-170448529D01*
X73499500Y-170487889D01*
X73499500Y-170487890D01*
X73514955Y-170605289D01*
X73514956Y-170605291D01*
X73575464Y-170751370D01*
X73671718Y-170876811D01*
X73671719Y-170876812D01*
X73696769Y-170896033D01*
X73708964Y-170906728D01*
X74293270Y-171491034D01*
X74303964Y-171503228D01*
X74323186Y-171528279D01*
X74323187Y-171528280D01*
X74323189Y-171528282D01*
X74448630Y-171624536D01*
X74594709Y-171685044D01*
X74673090Y-171695363D01*
X74751470Y-171705682D01*
X74751471Y-171705682D01*
X74782773Y-171701560D01*
X74798958Y-171700500D01*
X84852513Y-171700500D01*
X84868697Y-171701560D01*
X84900000Y-171705682D01*
X84900001Y-171705682D01*
X84952254Y-171698802D01*
X85056762Y-171685044D01*
X85202841Y-171624536D01*
X85328282Y-171528282D01*
X85347510Y-171503222D01*
X85358183Y-171491050D01*
X85387822Y-171461411D01*
X85449144Y-171427929D01*
X85518836Y-171432915D01*
X85574768Y-171474787D01*
X85599184Y-171540252D01*
X85599500Y-171549096D01*
X85599500Y-173858480D01*
X85579815Y-173925519D01*
X85563181Y-173946162D01*
X85439711Y-174069631D01*
X85378388Y-174103115D01*
X85308696Y-174098131D01*
X85288905Y-174088679D01*
X85283763Y-174085637D01*
X85267409Y-174078560D01*
X85241853Y-174067501D01*
X85231394Y-174062377D01*
X85191368Y-174040373D01*
X85191365Y-174040372D01*
X85170801Y-174035092D01*
X85152396Y-174028790D01*
X85132927Y-174020365D01*
X85132921Y-174020363D01*
X85087837Y-174013223D01*
X85076398Y-174010854D01*
X85032180Y-173999500D01*
X85032177Y-173999500D01*
X85010955Y-173999500D01*
X84991555Y-173997973D01*
X84970596Y-173994653D01*
X84970595Y-173994653D01*
X84927822Y-173998696D01*
X84925140Y-173998950D01*
X84913470Y-173999500D01*
X80916267Y-173999500D01*
X80900256Y-173997732D01*
X80900234Y-173997974D01*
X80892467Y-173997239D01*
X80822485Y-173999439D01*
X80818590Y-173999500D01*
X80789836Y-173999500D01*
X80789830Y-173999500D01*
X80789824Y-173999501D01*
X80785460Y-174000052D01*
X80773830Y-174000967D01*
X80728194Y-174002401D01*
X80713634Y-174006630D01*
X80707801Y-174008325D01*
X80688757Y-174012269D01*
X80667703Y-174014929D01*
X80667701Y-174014929D01*
X80625257Y-174031733D01*
X80614211Y-174035515D01*
X80570362Y-174048254D01*
X80552086Y-174059063D01*
X80534621Y-174067619D01*
X80514885Y-174075433D01*
X80477948Y-174102269D01*
X80468189Y-174108680D01*
X80428897Y-174131917D01*
X80413885Y-174146929D01*
X80399097Y-174159558D01*
X80381928Y-174172032D01*
X80381926Y-174172034D01*
X80352817Y-174207219D01*
X80344957Y-174215856D01*
X79800483Y-174760330D01*
X79787910Y-174770404D01*
X79788065Y-174770591D01*
X79782058Y-174775560D01*
X79734133Y-174826594D01*
X79731427Y-174829386D01*
X79711090Y-174849724D01*
X79711077Y-174849739D01*
X79708373Y-174853224D01*
X79700806Y-174862083D01*
X79669552Y-174895368D01*
X79659322Y-174913974D01*
X79648646Y-174930225D01*
X79635640Y-174946993D01*
X79635636Y-174946999D01*
X79617508Y-174988891D01*
X79612369Y-174999380D01*
X79590372Y-175039391D01*
X79590372Y-175039392D01*
X79585091Y-175059960D01*
X79578791Y-175078362D01*
X79570364Y-175097834D01*
X79563223Y-175142923D01*
X79560854Y-175154361D01*
X79549500Y-175198578D01*
X79549500Y-175219805D01*
X79547973Y-175239205D01*
X79544653Y-175260164D01*
X79548950Y-175305619D01*
X79549500Y-175317289D01*
X79549500Y-184314494D01*
X79547732Y-184330505D01*
X79547974Y-184330528D01*
X79547240Y-184338294D01*
X79549439Y-184408262D01*
X79549500Y-184412157D01*
X79549500Y-184440920D01*
X79549501Y-184440938D01*
X79550053Y-184445311D01*
X79550968Y-184456941D01*
X79552402Y-184502567D01*
X79552403Y-184502570D01*
X79558323Y-184522948D01*
X79562268Y-184541996D01*
X79564928Y-184563054D01*
X79564931Y-184563065D01*
X79581737Y-184605514D01*
X79585520Y-184616563D01*
X79598254Y-184660395D01*
X79598255Y-184660397D01*
X79609060Y-184678666D01*
X79617617Y-184696134D01*
X79623226Y-184710300D01*
X79625432Y-184715872D01*
X79652266Y-184752806D01*
X79658678Y-184762568D01*
X79681919Y-184801865D01*
X79681923Y-184801869D01*
X79696925Y-184816871D01*
X79709563Y-184831669D01*
X79722033Y-184848833D01*
X79722036Y-184848837D01*
X79757213Y-184877937D01*
X79765854Y-184885800D01*
X80584160Y-185704106D01*
X80617645Y-185765429D01*
X80612661Y-185835121D01*
X80570789Y-185891054D01*
X80505325Y-185915471D01*
X80482596Y-185915007D01*
X80300004Y-185894435D01*
X80299996Y-185894435D01*
X80120750Y-185914630D01*
X80120745Y-185914631D01*
X79950476Y-185974211D01*
X79797737Y-186070184D01*
X79670184Y-186197737D01*
X79574211Y-186350476D01*
X79514631Y-186520745D01*
X79514630Y-186520750D01*
X79494435Y-186699996D01*
X79494435Y-186700003D01*
X79514630Y-186879249D01*
X79514631Y-186879254D01*
X79574211Y-187049523D01*
X79670185Y-187202263D01*
X79672445Y-187205097D01*
X79673334Y-187207275D01*
X79673889Y-187208158D01*
X79673734Y-187208255D01*
X79698855Y-187269783D01*
X79699500Y-187282412D01*
X79699500Y-187310230D01*
X79698439Y-187326415D01*
X79694318Y-187357716D01*
X79694318Y-187357718D01*
X79699500Y-187397078D01*
X79699500Y-187397079D01*
X79714955Y-187514478D01*
X79714956Y-187514480D01*
X79770883Y-187649501D01*
X79775464Y-187660559D01*
X79864899Y-187777113D01*
X79871719Y-187786001D01*
X79896769Y-187805222D01*
X79908964Y-187815917D01*
X86770866Y-194677819D01*
X86804351Y-194739142D01*
X86799367Y-194808834D01*
X86757495Y-194864767D01*
X86692031Y-194889184D01*
X86683185Y-194889500D01*
X85790097Y-194889500D01*
X85723058Y-194869815D01*
X85702416Y-194853181D01*
X79830700Y-188981465D01*
X79797215Y-188920142D01*
X79795163Y-188907686D01*
X79785368Y-188820745D01*
X79725789Y-188650478D01*
X79629816Y-188497738D01*
X79502262Y-188370184D01*
X79478630Y-188355335D01*
X79349523Y-188274211D01*
X79179254Y-188214631D01*
X79179249Y-188214630D01*
X79000004Y-188194435D01*
X78999996Y-188194435D01*
X78820750Y-188214630D01*
X78820745Y-188214631D01*
X78650476Y-188274211D01*
X78497737Y-188370184D01*
X78370184Y-188497737D01*
X78274211Y-188650476D01*
X78214631Y-188820745D01*
X78214630Y-188820750D01*
X78194435Y-188999996D01*
X78194435Y-189000003D01*
X78214630Y-189179249D01*
X78214631Y-189179254D01*
X78274211Y-189349523D01*
X78351189Y-189472032D01*
X78370184Y-189502262D01*
X78497738Y-189629816D01*
X78650478Y-189725789D01*
X78820745Y-189785368D01*
X78907669Y-189795161D01*
X78972080Y-189822226D01*
X78981465Y-189830700D01*
X84538584Y-195387819D01*
X84572069Y-195449142D01*
X84567085Y-195518834D01*
X84525213Y-195574767D01*
X84459749Y-195599184D01*
X84450903Y-195599500D01*
X82658676Y-195599500D01*
X82591637Y-195579815D01*
X82570995Y-195563181D01*
X69436819Y-182429005D01*
X69403334Y-182367682D01*
X69400500Y-182341324D01*
X69400500Y-156122870D01*
X85099500Y-156122870D01*
X85099501Y-156122876D01*
X85105908Y-156182483D01*
X85156202Y-156317328D01*
X85156206Y-156317335D01*
X85242452Y-156432544D01*
X85242455Y-156432547D01*
X85357664Y-156518793D01*
X85357671Y-156518797D01*
X85492517Y-156569091D01*
X85492516Y-156569091D01*
X85499444Y-156569835D01*
X85552127Y-156575500D01*
X88047872Y-156575499D01*
X88107483Y-156569091D01*
X88242331Y-156518796D01*
X88357546Y-156432546D01*
X88443796Y-156317331D01*
X88494091Y-156182483D01*
X88500500Y-156122873D01*
X88500500Y-154875004D01*
X89894732Y-154875004D01*
X89913777Y-155129154D01*
X89948036Y-155279254D01*
X89970492Y-155377637D01*
X90063607Y-155614888D01*
X90191041Y-155835612D01*
X90349950Y-156034877D01*
X90536783Y-156208232D01*
X90747366Y-156351805D01*
X90747371Y-156351807D01*
X90747372Y-156351808D01*
X90747373Y-156351809D01*
X90863059Y-156407520D01*
X90976992Y-156462387D01*
X90976993Y-156462387D01*
X90976996Y-156462389D01*
X91220542Y-156537513D01*
X91472565Y-156575500D01*
X91727435Y-156575500D01*
X91979458Y-156537513D01*
X92223004Y-156462389D01*
X92452634Y-156351805D01*
X92663217Y-156208232D01*
X92850050Y-156034877D01*
X93008959Y-155835612D01*
X93136393Y-155614888D01*
X93229508Y-155377637D01*
X93286222Y-155129157D01*
X93305268Y-154875004D01*
X94694732Y-154875004D01*
X94713777Y-155129154D01*
X94748036Y-155279254D01*
X94770492Y-155377637D01*
X94863607Y-155614888D01*
X94991041Y-155835612D01*
X95149950Y-156034877D01*
X95336783Y-156208232D01*
X95547366Y-156351805D01*
X95547371Y-156351807D01*
X95547372Y-156351808D01*
X95547373Y-156351809D01*
X95663059Y-156407520D01*
X95776992Y-156462387D01*
X95776993Y-156462387D01*
X95776996Y-156462389D01*
X96020542Y-156537513D01*
X96272565Y-156575500D01*
X96527435Y-156575500D01*
X96779458Y-156537513D01*
X97023004Y-156462389D01*
X97252634Y-156351805D01*
X97463217Y-156208232D01*
X97650050Y-156034877D01*
X97808959Y-155835612D01*
X97936393Y-155614888D01*
X98029508Y-155377637D01*
X98086222Y-155129157D01*
X98105268Y-154875000D01*
X98095936Y-154750476D01*
X98086222Y-154620845D01*
X98050145Y-154462782D01*
X98029508Y-154372363D01*
X97936393Y-154135112D01*
X97916122Y-154100002D01*
X102644579Y-154100002D01*
X102664248Y-154462782D01*
X102664250Y-154462799D01*
X102723024Y-154821303D01*
X102723030Y-154821329D01*
X102820221Y-155171381D01*
X102820226Y-155171396D01*
X102954700Y-155508901D01*
X102954706Y-155508913D01*
X103124878Y-155829892D01*
X103124881Y-155829897D01*
X103124883Y-155829900D01*
X103226828Y-155980257D01*
X103328772Y-156130613D01*
X103516654Y-156351805D01*
X103563979Y-156407521D01*
X103827746Y-156657375D01*
X104116981Y-156877245D01*
X104428292Y-157064555D01*
X104428294Y-157064556D01*
X104428296Y-157064557D01*
X104428300Y-157064559D01*
X104500016Y-157097738D01*
X104758031Y-157217108D01*
X105102330Y-157333116D01*
X105457153Y-157411218D01*
X105818341Y-157450500D01*
X105818347Y-157450500D01*
X106181653Y-157450500D01*
X106181659Y-157450500D01*
X106542847Y-157411218D01*
X106897670Y-157333116D01*
X107241969Y-157217108D01*
X107571708Y-157064555D01*
X107883019Y-156877245D01*
X108172254Y-156657375D01*
X108436021Y-156407521D01*
X108671227Y-156130614D01*
X108875117Y-155829900D01*
X109045298Y-155508905D01*
X109179775Y-155171391D01*
X109276973Y-154821316D01*
X109295063Y-154710967D01*
X109335749Y-154462799D01*
X109335751Y-154462782D01*
X109340554Y-154374209D01*
X109355421Y-154100000D01*
X109335751Y-153737215D01*
X109332129Y-153715123D01*
X109276975Y-153378696D01*
X109276974Y-153378695D01*
X109276973Y-153378684D01*
X109220282Y-153174500D01*
X109179778Y-153028618D01*
X109179773Y-153028603D01*
X109045299Y-152691098D01*
X109045298Y-152691095D01*
X108875117Y-152370100D01*
X108671227Y-152069386D01*
X108436021Y-151792479D01*
X108172254Y-151542625D01*
X108172244Y-151542617D01*
X108103635Y-151490462D01*
X107883019Y-151322755D01*
X107571708Y-151135445D01*
X107571707Y-151135444D01*
X107571703Y-151135442D01*
X107571699Y-151135440D01*
X107241979Y-150982896D01*
X107241974Y-150982894D01*
X107241969Y-150982892D01*
X107074143Y-150926344D01*
X106897669Y-150866883D01*
X106542845Y-150788781D01*
X106181660Y-150749500D01*
X106181659Y-150749500D01*
X105818341Y-150749500D01*
X105818339Y-150749500D01*
X105457154Y-150788781D01*
X105102330Y-150866883D01*
X104836178Y-150956560D01*
X104758031Y-150982892D01*
X104758028Y-150982893D01*
X104758020Y-150982896D01*
X104428300Y-151135440D01*
X104428296Y-151135442D01*
X104196453Y-151274937D01*
X104116981Y-151322755D01*
X104027332Y-151390903D01*
X103827755Y-151542617D01*
X103827745Y-151542625D01*
X103563978Y-151792479D01*
X103328772Y-152069386D01*
X103124884Y-152370098D01*
X103124878Y-152370107D01*
X102954706Y-152691086D01*
X102954700Y-152691098D01*
X102820226Y-153028603D01*
X102820221Y-153028618D01*
X102723030Y-153378670D01*
X102723024Y-153378696D01*
X102664250Y-153737200D01*
X102664248Y-153737217D01*
X102644579Y-154099997D01*
X102644579Y-154100002D01*
X97916122Y-154100002D01*
X97808959Y-153914388D01*
X97650050Y-153715123D01*
X97463217Y-153541768D01*
X97252634Y-153398195D01*
X97252630Y-153398193D01*
X97252627Y-153398191D01*
X97252626Y-153398190D01*
X97023006Y-153287612D01*
X97023008Y-153287612D01*
X96779466Y-153212489D01*
X96779462Y-153212488D01*
X96779458Y-153212487D01*
X96658231Y-153194214D01*
X96527440Y-153174500D01*
X96527435Y-153174500D01*
X96272565Y-153174500D01*
X96272559Y-153174500D01*
X96115609Y-153198157D01*
X96020542Y-153212487D01*
X96020539Y-153212488D01*
X96020533Y-153212489D01*
X95776992Y-153287612D01*
X95547373Y-153398190D01*
X95547372Y-153398191D01*
X95336782Y-153541768D01*
X95149952Y-153715121D01*
X95149950Y-153715123D01*
X94991041Y-153914388D01*
X94863608Y-154135109D01*
X94770492Y-154372362D01*
X94770490Y-154372369D01*
X94713777Y-154620845D01*
X94694732Y-154874995D01*
X94694732Y-154875004D01*
X93305268Y-154875004D01*
X93305268Y-154875000D01*
X93295936Y-154750476D01*
X93286222Y-154620845D01*
X93250145Y-154462782D01*
X93229508Y-154372363D01*
X93136393Y-154135112D01*
X93008959Y-153914388D01*
X92850050Y-153715123D01*
X92663217Y-153541768D01*
X92452634Y-153398195D01*
X92452630Y-153398193D01*
X92452627Y-153398191D01*
X92452626Y-153398190D01*
X92223006Y-153287612D01*
X92223008Y-153287612D01*
X91979466Y-153212489D01*
X91979462Y-153212488D01*
X91979458Y-153212487D01*
X91858231Y-153194214D01*
X91727440Y-153174500D01*
X91727435Y-153174500D01*
X91472565Y-153174500D01*
X91472559Y-153174500D01*
X91315609Y-153198157D01*
X91220542Y-153212487D01*
X91220539Y-153212488D01*
X91220533Y-153212489D01*
X90976992Y-153287612D01*
X90747373Y-153398190D01*
X90747372Y-153398191D01*
X90536782Y-153541768D01*
X90349952Y-153715121D01*
X90349950Y-153715123D01*
X90191041Y-153914388D01*
X90063608Y-154135109D01*
X89970492Y-154372362D01*
X89970490Y-154372369D01*
X89913777Y-154620845D01*
X89894732Y-154874995D01*
X89894732Y-154875004D01*
X88500500Y-154875004D01*
X88500499Y-153627128D01*
X88494091Y-153567517D01*
X88484487Y-153541768D01*
X88443797Y-153432671D01*
X88443793Y-153432664D01*
X88357547Y-153317455D01*
X88357544Y-153317452D01*
X88242335Y-153231206D01*
X88242328Y-153231202D01*
X88107482Y-153180908D01*
X88107483Y-153180908D01*
X88047883Y-153174501D01*
X88047881Y-153174500D01*
X88047873Y-153174500D01*
X88047864Y-153174500D01*
X85552129Y-153174500D01*
X85552123Y-153174501D01*
X85492516Y-153180908D01*
X85357671Y-153231202D01*
X85357664Y-153231206D01*
X85242455Y-153317452D01*
X85242452Y-153317455D01*
X85156206Y-153432664D01*
X85156202Y-153432671D01*
X85105908Y-153567517D01*
X85099501Y-153627116D01*
X85099501Y-153627123D01*
X85099500Y-153627135D01*
X85099500Y-156122870D01*
X69400500Y-156122870D01*
X69400500Y-147600003D01*
X130294435Y-147600003D01*
X130314630Y-147779249D01*
X130314631Y-147779254D01*
X130374211Y-147949522D01*
X130451667Y-148072792D01*
X130462615Y-148094794D01*
X130475179Y-148127925D01*
X130475183Y-148127931D01*
X130480936Y-148136266D01*
X130491961Y-148155813D01*
X130496120Y-148165055D01*
X130496124Y-148165060D01*
X130533215Y-148212403D01*
X130537655Y-148218438D01*
X130571812Y-148267924D01*
X130571816Y-148267929D01*
X130616828Y-148307805D01*
X130622283Y-148312940D01*
X133887058Y-151577715D01*
X133892178Y-151583153D01*
X133932071Y-151628183D01*
X133981573Y-151662352D01*
X133987591Y-151666780D01*
X134034944Y-151703878D01*
X134034947Y-151703880D01*
X134034946Y-151703880D01*
X134044177Y-151708034D01*
X134063731Y-151719062D01*
X134072070Y-151724818D01*
X134128331Y-151746154D01*
X134135208Y-151749003D01*
X134156563Y-151758615D01*
X134190063Y-151773693D01*
X134190066Y-151773693D01*
X134190069Y-151773695D01*
X134200034Y-151775521D01*
X134221656Y-151781548D01*
X134224777Y-151782731D01*
X134231128Y-151785140D01*
X134288689Y-151792128D01*
X134290815Y-151792387D01*
X134298222Y-151793514D01*
X134357394Y-151804358D01*
X134417433Y-151800725D01*
X134424921Y-151800500D01*
X136474506Y-151800500D01*
X136540477Y-151819506D01*
X136550475Y-151825788D01*
X136550478Y-151825789D01*
X136720745Y-151885368D01*
X136773200Y-151891277D01*
X136788973Y-151894098D01*
X136803248Y-151897617D01*
X136814942Y-151900500D01*
X136814944Y-151900500D01*
X136848085Y-151900500D01*
X136861969Y-151901280D01*
X136899998Y-151905565D01*
X136900000Y-151905565D01*
X136900002Y-151905565D01*
X136938031Y-151901280D01*
X136951915Y-151900500D01*
X136985058Y-151900500D01*
X136999647Y-151896903D01*
X137011015Y-151894100D01*
X137026801Y-151891277D01*
X137079255Y-151885368D01*
X137210128Y-151839572D01*
X137261376Y-151833042D01*
X137740849Y-151872998D01*
X137806022Y-151898182D01*
X137818232Y-151908889D01*
X141208630Y-155299287D01*
X141237990Y-155346013D01*
X141274209Y-155449519D01*
X141274211Y-155449522D01*
X141370184Y-155602262D01*
X141497738Y-155729816D01*
X141650478Y-155825789D01*
X141678548Y-155835611D01*
X141820745Y-155885368D01*
X141820750Y-155885369D01*
X141999996Y-155905565D01*
X142000000Y-155905565D01*
X142000004Y-155905565D01*
X142179249Y-155885369D01*
X142179252Y-155885368D01*
X142179255Y-155885368D01*
X142349522Y-155825789D01*
X142502262Y-155729816D01*
X142629816Y-155602262D01*
X142725789Y-155449522D01*
X142785368Y-155279255D01*
X142797521Y-155171396D01*
X142805565Y-155100003D01*
X142805565Y-155099996D01*
X142785369Y-154920750D01*
X142785368Y-154920745D01*
X142725789Y-154750478D01*
X142629816Y-154597738D01*
X142502262Y-154470184D01*
X142349522Y-154374211D01*
X142349519Y-154374209D01*
X142246013Y-154337990D01*
X142199287Y-154308630D01*
X138637244Y-150746587D01*
X138625601Y-150733141D01*
X138610176Y-150712503D01*
X138610175Y-150712501D01*
X138610169Y-150712496D01*
X138575721Y-150684220D01*
X138566713Y-150676055D01*
X138565366Y-150674708D01*
X138539366Y-150654339D01*
X138537225Y-150652623D01*
X138478685Y-150604573D01*
X138478686Y-150604573D01*
X138478683Y-150604571D01*
X138472361Y-150600551D01*
X138472639Y-150600112D01*
X138471740Y-150599554D01*
X138471471Y-150600000D01*
X138465050Y-150596118D01*
X138396007Y-150565044D01*
X138393453Y-150563860D01*
X138325184Y-150531250D01*
X138318082Y-150528859D01*
X138318247Y-150528367D01*
X138317242Y-150528041D01*
X138317089Y-150528535D01*
X138309935Y-150526305D01*
X138247933Y-150514942D01*
X138235428Y-150512651D01*
X138232718Y-150512122D01*
X138208335Y-150507079D01*
X138200395Y-150505437D01*
X138198498Y-150505279D01*
X138186465Y-150503678D01*
X138142611Y-150495642D01*
X138142600Y-150495641D01*
X138116878Y-150497197D01*
X138099097Y-150496995D01*
X137375008Y-150436655D01*
X137319335Y-150418077D01*
X137249522Y-150374211D01*
X137249520Y-150374210D01*
X137249518Y-150374209D01*
X137079262Y-150314633D01*
X137079249Y-150314630D01*
X136900004Y-150294435D01*
X136899996Y-150294435D01*
X136720750Y-150314630D01*
X136720745Y-150314631D01*
X136550474Y-150374212D01*
X136540477Y-150380494D01*
X136474506Y-150399500D01*
X134741519Y-150399500D01*
X134674480Y-150379815D01*
X134653838Y-150363181D01*
X131938139Y-147647482D01*
X131904654Y-147586159D01*
X131902600Y-147573684D01*
X131885369Y-147420750D01*
X131885368Y-147420745D01*
X131852243Y-147326080D01*
X131825789Y-147250478D01*
X131775221Y-147170000D01*
X133775000Y-147170000D01*
X133775000Y-147318176D01*
X133789647Y-147462221D01*
X133847484Y-147646561D01*
X133847489Y-147646571D01*
X133941251Y-147815498D01*
X133941256Y-147815505D01*
X134067107Y-147962105D01*
X134219887Y-148080366D01*
X134274999Y-148107400D01*
X134275000Y-148107400D01*
X134275000Y-147297802D01*
X134425000Y-147297802D01*
X134440412Y-147380250D01*
X134499457Y-147475610D01*
X134588962Y-147543201D01*
X134696840Y-147573895D01*
X134808521Y-147563546D01*
X134908922Y-147513552D01*
X134984484Y-147430666D01*
X135025000Y-147326080D01*
X135025000Y-147170000D01*
X135175000Y-147170000D01*
X135175000Y-148108944D01*
X135309503Y-148025107D01*
X135449534Y-147891997D01*
X135449535Y-147891996D01*
X135559913Y-147733413D01*
X135636106Y-147555862D01*
X135675000Y-147366606D01*
X135675000Y-147170000D01*
X142425000Y-147170000D01*
X142425000Y-147318176D01*
X142439647Y-147462221D01*
X142497484Y-147646561D01*
X142497489Y-147646571D01*
X142591251Y-147815498D01*
X142591256Y-147815505D01*
X142717107Y-147962105D01*
X142869887Y-148080366D01*
X142924999Y-148107400D01*
X142925000Y-148107400D01*
X142925000Y-147297802D01*
X143075000Y-147297802D01*
X143090412Y-147380250D01*
X143149457Y-147475610D01*
X143238962Y-147543201D01*
X143346840Y-147573895D01*
X143458521Y-147563546D01*
X143558922Y-147513552D01*
X143634484Y-147430666D01*
X143675000Y-147326080D01*
X143675000Y-147170000D01*
X143825000Y-147170000D01*
X143825000Y-148108944D01*
X143959503Y-148025107D01*
X144099534Y-147891997D01*
X144099535Y-147891996D01*
X144209913Y-147733413D01*
X144286106Y-147555862D01*
X144325000Y-147366606D01*
X144325000Y-147170000D01*
X143825000Y-147170000D01*
X143675000Y-147170000D01*
X143675000Y-146142198D01*
X143659588Y-146059750D01*
X143600543Y-145964390D01*
X143511038Y-145896799D01*
X143403160Y-145866105D01*
X143291479Y-145876454D01*
X143191078Y-145926448D01*
X143115516Y-146009334D01*
X143075000Y-146113920D01*
X143075000Y-147297802D01*
X142925000Y-147297802D01*
X142925000Y-147170000D01*
X142425000Y-147170000D01*
X135675000Y-147170000D01*
X135175000Y-147170000D01*
X135025000Y-147170000D01*
X135025000Y-146142198D01*
X135009588Y-146059750D01*
X134950543Y-145964390D01*
X134861038Y-145896799D01*
X134753160Y-145866105D01*
X134641479Y-145876454D01*
X134541078Y-145926448D01*
X134465516Y-146009334D01*
X134425000Y-146113920D01*
X134425000Y-147297802D01*
X134275000Y-147297802D01*
X134275000Y-147170000D01*
X133775000Y-147170000D01*
X131775221Y-147170000D01*
X131729816Y-147097738D01*
X131602262Y-146970184D01*
X131449523Y-146874211D01*
X131279254Y-146814631D01*
X131279249Y-146814630D01*
X131100004Y-146794435D01*
X131099996Y-146794435D01*
X130920750Y-146814630D01*
X130920745Y-146814631D01*
X130750476Y-146874211D01*
X130597737Y-146970184D01*
X130470184Y-147097737D01*
X130374211Y-147250476D01*
X130314631Y-147420745D01*
X130314630Y-147420750D01*
X130294435Y-147599996D01*
X130294435Y-147600003D01*
X69400500Y-147600003D01*
X69400500Y-145675000D01*
X83319975Y-145675000D01*
X83340042Y-145929989D01*
X83399752Y-146178700D01*
X83497636Y-146415014D01*
X83497644Y-146415029D01*
X83499626Y-146418264D01*
X83499628Y-146418265D01*
X84196593Y-145721299D01*
X84226616Y-145891567D01*
X84296059Y-146052553D01*
X84400756Y-146193185D01*
X84535062Y-146305882D01*
X84691739Y-146384568D01*
X84862338Y-146425000D01*
X84907107Y-146425000D01*
X84206734Y-147125371D01*
X84206734Y-147125372D01*
X84209981Y-147127361D01*
X84209983Y-147127362D01*
X84446299Y-147225247D01*
X84695011Y-147284957D01*
X84695010Y-147284957D01*
X84950000Y-147305024D01*
X85204989Y-147284957D01*
X85453702Y-147225247D01*
X85690012Y-147127365D01*
X85690015Y-147127363D01*
X85693265Y-147125372D01*
X85693265Y-147125371D01*
X84992893Y-146425000D01*
X84993684Y-146425000D01*
X85124139Y-146409752D01*
X85288891Y-146349787D01*
X85435373Y-146253445D01*
X85555688Y-146125918D01*
X85643350Y-145974082D01*
X85693634Y-145806123D01*
X85698840Y-145716733D01*
X86400371Y-146418265D01*
X86400372Y-146418265D01*
X86402363Y-146415015D01*
X86402365Y-146415012D01*
X86500247Y-146178702D01*
X86559957Y-145929989D01*
X86580024Y-145675000D01*
X96619975Y-145675000D01*
X96640042Y-145929989D01*
X96699752Y-146178700D01*
X96797636Y-146415014D01*
X96797644Y-146415029D01*
X96799626Y-146418264D01*
X96799628Y-146418265D01*
X97496593Y-145721299D01*
X97526616Y-145891567D01*
X97596059Y-146052553D01*
X97700756Y-146193185D01*
X97835062Y-146305882D01*
X97991739Y-146384568D01*
X98162338Y-146425000D01*
X98207107Y-146425000D01*
X97506734Y-147125371D01*
X97506734Y-147125372D01*
X97509981Y-147127361D01*
X97509983Y-147127362D01*
X97746299Y-147225247D01*
X97995011Y-147284957D01*
X97995010Y-147284957D01*
X98250000Y-147305024D01*
X98504989Y-147284957D01*
X98753702Y-147225247D01*
X98990012Y-147127365D01*
X98990015Y-147127363D01*
X98993265Y-147125372D01*
X98993265Y-147125371D01*
X98292893Y-146425000D01*
X98293684Y-146425000D01*
X98424139Y-146409752D01*
X98588891Y-146349787D01*
X98735373Y-146253445D01*
X98855688Y-146125918D01*
X98943350Y-145974082D01*
X98993634Y-145806123D01*
X98998840Y-145716733D01*
X99700371Y-146418265D01*
X99700372Y-146418265D01*
X99702363Y-146415015D01*
X99702365Y-146415012D01*
X99762430Y-146270000D01*
X133775000Y-146270000D01*
X134275000Y-146270000D01*
X134275000Y-145332597D01*
X135175000Y-145332597D01*
X135175000Y-146270000D01*
X135505170Y-146270000D01*
X135572209Y-146289685D01*
X135617964Y-146342489D01*
X135626575Y-146368767D01*
X135629347Y-146382107D01*
X135636407Y-146416084D01*
X135641027Y-146425000D01*
X135706029Y-146550447D01*
X135706031Y-146550449D01*
X135706032Y-146550451D01*
X135809318Y-146661043D01*
X135809320Y-146661044D01*
X135938618Y-146739672D01*
X136084335Y-146780500D01*
X136084336Y-146780500D01*
X136197659Y-146780500D01*
X136225723Y-146776642D01*
X136309920Y-146765070D01*
X136419854Y-146717318D01*
X136448716Y-146704782D01*
X136448716Y-146704781D01*
X136448720Y-146704780D01*
X136566108Y-146609278D01*
X136653377Y-146485647D01*
X136677325Y-146418264D01*
X136704053Y-146343060D01*
X136704053Y-146343058D01*
X136704054Y-146343056D01*
X136709193Y-146267921D01*
X141385619Y-146267921D01*
X141416405Y-146416078D01*
X141416407Y-146416083D01*
X141416408Y-146416085D01*
X141486029Y-146550447D01*
X141486031Y-146550449D01*
X141486032Y-146550451D01*
X141589318Y-146661043D01*
X141589320Y-146661044D01*
X141718618Y-146739672D01*
X141864335Y-146780500D01*
X141864336Y-146780500D01*
X141977659Y-146780500D01*
X142005723Y-146776642D01*
X142089920Y-146765070D01*
X142199854Y-146717318D01*
X142228716Y-146704782D01*
X142228716Y-146704781D01*
X142228720Y-146704780D01*
X142346108Y-146609278D01*
X142433377Y-146485647D01*
X142457325Y-146418264D01*
X142480707Y-146352475D01*
X142521705Y-146295898D01*
X142586783Y-146270468D01*
X142597547Y-146270000D01*
X142925000Y-146270000D01*
X142925000Y-145332597D01*
X143825000Y-145332597D01*
X143825000Y-146270000D01*
X144325000Y-146270000D01*
X144325000Y-146121823D01*
X144310352Y-145977778D01*
X144252515Y-145793438D01*
X144252510Y-145793428D01*
X144158748Y-145624501D01*
X144158743Y-145624494D01*
X144032892Y-145477894D01*
X143880109Y-145359631D01*
X143880098Y-145359624D01*
X143825000Y-145332597D01*
X142925000Y-145332597D01*
X142925000Y-145331053D01*
X142924999Y-145331053D01*
X142790502Y-145414887D01*
X142790501Y-145414888D01*
X142650465Y-145548002D01*
X142650464Y-145548003D01*
X142540086Y-145706587D01*
X142509319Y-145778281D01*
X142464792Y-145832124D01*
X142398223Y-145853346D01*
X142330748Y-145835210D01*
X142304746Y-145814017D01*
X142297373Y-145806123D01*
X142290680Y-145798956D01*
X142290679Y-145798955D01*
X142218754Y-145755217D01*
X142161382Y-145720328D01*
X142015665Y-145679500D01*
X141902342Y-145679500D01*
X141902341Y-145679500D01*
X141790082Y-145694929D01*
X141790079Y-145694930D01*
X141651283Y-145755217D01*
X141533889Y-145850724D01*
X141446623Y-145974352D01*
X141446621Y-145974355D01*
X141395946Y-146116939D01*
X141395946Y-146116942D01*
X141385619Y-146267918D01*
X141385619Y-146267921D01*
X136709193Y-146267921D01*
X136714381Y-146192079D01*
X136698768Y-146116944D01*
X136683594Y-146043921D01*
X136683592Y-146043918D01*
X136683592Y-146043915D01*
X136613971Y-145909553D01*
X136613967Y-145909549D01*
X136613967Y-145909548D01*
X136510681Y-145798956D01*
X136432053Y-145751141D01*
X136381382Y-145720328D01*
X136235665Y-145679500D01*
X136122342Y-145679500D01*
X136122341Y-145679500D01*
X136010082Y-145694929D01*
X136010079Y-145694930D01*
X135871282Y-145755218D01*
X135871281Y-145755219D01*
X135786343Y-145824321D01*
X135721917Y-145851359D01*
X135653101Y-145839273D01*
X135601743Y-145791901D01*
X135599670Y-145788310D01*
X135508748Y-145624501D01*
X135508743Y-145624494D01*
X135382892Y-145477894D01*
X135230109Y-145359631D01*
X135230098Y-145359624D01*
X135175000Y-145332597D01*
X134275000Y-145332597D01*
X134275000Y-145331053D01*
X134274999Y-145331053D01*
X134140502Y-145414887D01*
X134140501Y-145414888D01*
X134000465Y-145548002D01*
X134000464Y-145548003D01*
X133890086Y-145706586D01*
X133813893Y-145884137D01*
X133775000Y-146073393D01*
X133775000Y-146270000D01*
X99762430Y-146270000D01*
X99800247Y-146178702D01*
X99859957Y-145929989D01*
X99880024Y-145675000D01*
X99859957Y-145420010D01*
X99800247Y-145171299D01*
X99702362Y-144934983D01*
X99702361Y-144934981D01*
X99700372Y-144931734D01*
X99700371Y-144931734D01*
X99003405Y-145628700D01*
X98973384Y-145458433D01*
X98903941Y-145297447D01*
X98799244Y-145156815D01*
X98664938Y-145044118D01*
X98508261Y-144965432D01*
X98337662Y-144925000D01*
X98292894Y-144925000D01*
X98993265Y-144224628D01*
X98993264Y-144224626D01*
X98990029Y-144222644D01*
X98990014Y-144222636D01*
X98753700Y-144124752D01*
X98504988Y-144065042D01*
X98504989Y-144065042D01*
X98250000Y-144044975D01*
X97995010Y-144065042D01*
X97746297Y-144124752D01*
X97509996Y-144222631D01*
X97509978Y-144222640D01*
X97506734Y-144224626D01*
X97506734Y-144224627D01*
X98207107Y-144925000D01*
X98206316Y-144925000D01*
X98075861Y-144940248D01*
X97911109Y-145000213D01*
X97764627Y-145096555D01*
X97644312Y-145224082D01*
X97556650Y-145375918D01*
X97506366Y-145543877D01*
X97501159Y-145633266D01*
X96799627Y-144931734D01*
X96799626Y-144931734D01*
X96797640Y-144934978D01*
X96797631Y-144934996D01*
X96699752Y-145171297D01*
X96640042Y-145420010D01*
X96619975Y-145675000D01*
X86580024Y-145675000D01*
X86559957Y-145420010D01*
X86500247Y-145171299D01*
X86402362Y-144934983D01*
X86402361Y-144934981D01*
X86400372Y-144931734D01*
X85703405Y-145628700D01*
X85673384Y-145458433D01*
X85603941Y-145297447D01*
X85499244Y-145156815D01*
X85364938Y-145044118D01*
X85208261Y-144965432D01*
X85037662Y-144925000D01*
X84992894Y-144925000D01*
X85693265Y-144224628D01*
X85693264Y-144224626D01*
X85690029Y-144222644D01*
X85690014Y-144222636D01*
X85453700Y-144124752D01*
X85204988Y-144065042D01*
X85204989Y-144065042D01*
X84950000Y-144044975D01*
X84695010Y-144065042D01*
X84446297Y-144124752D01*
X84209996Y-144222631D01*
X84209978Y-144222640D01*
X84206734Y-144224626D01*
X84206734Y-144224627D01*
X84907107Y-144925000D01*
X84906316Y-144925000D01*
X84775861Y-144940248D01*
X84611109Y-145000213D01*
X84464627Y-145096555D01*
X84344312Y-145224082D01*
X84256650Y-145375918D01*
X84206366Y-145543877D01*
X84201159Y-145633266D01*
X83499627Y-144931734D01*
X83499626Y-144931734D01*
X83497640Y-144934978D01*
X83497631Y-144934996D01*
X83399752Y-145171297D01*
X83340042Y-145420010D01*
X83319975Y-145675000D01*
X69400500Y-145675000D01*
X69400500Y-141124500D01*
X69420185Y-141057461D01*
X69472989Y-141011706D01*
X69524500Y-141000500D01*
X107385567Y-141000500D01*
X107452606Y-141020185D01*
G37*
%TD.AperFunction*%
%TA.AperFunction,Conductor*%
G36*
X102020507Y-189209844D02*
G01*
X102098239Y-189330798D01*
X102206900Y-189424952D01*
X102337685Y-189484680D01*
X102444237Y-189500000D01*
X102104000Y-189500000D01*
X102036961Y-189480315D01*
X101991206Y-189427511D01*
X101980000Y-189376000D01*
X101980000Y-189071889D01*
X102020507Y-189209844D01*
G37*
%TD.AperFunction*%
%TA.AperFunction,Conductor*%
G36*
X102980000Y-189376000D02*
G01*
X102960315Y-189443039D01*
X102907511Y-189488794D01*
X102856000Y-189500000D01*
X102515763Y-189500000D01*
X102622315Y-189484680D01*
X102753100Y-189424952D01*
X102861761Y-189330798D01*
X102939493Y-189209844D01*
X102980000Y-189071889D01*
X102980000Y-189376000D01*
G37*
%TD.AperFunction*%
%TA.AperFunction,Conductor*%
G36*
X107100507Y-189209844D02*
G01*
X107178239Y-189330798D01*
X107286900Y-189424952D01*
X107417685Y-189484680D01*
X107524237Y-189500000D01*
X107184000Y-189500000D01*
X107116961Y-189480315D01*
X107071206Y-189427511D01*
X107060000Y-189376000D01*
X107060000Y-189071889D01*
X107100507Y-189209844D01*
G37*
%TD.AperFunction*%
%TA.AperFunction,Conductor*%
G36*
X108060000Y-189376000D02*
G01*
X108040315Y-189443039D01*
X107987511Y-189488794D01*
X107936000Y-189500000D01*
X107595763Y-189500000D01*
X107702315Y-189484680D01*
X107833100Y-189424952D01*
X107941761Y-189330798D01*
X108019493Y-189209844D01*
X108060000Y-189071889D01*
X108060000Y-189376000D01*
G37*
%TD.AperFunction*%
%TA.AperFunction,Conductor*%
G36*
X100895703Y-181667568D02*
G01*
X100902181Y-181673600D01*
X103144270Y-183915689D01*
X103156051Y-183929321D01*
X103170388Y-183948579D01*
X103208337Y-183980423D01*
X103216310Y-183987730D01*
X103220217Y-183991637D01*
X103220223Y-183991642D01*
X103244537Y-184010867D01*
X103247318Y-184013131D01*
X103274956Y-184036322D01*
X103304789Y-184061356D01*
X103310818Y-184065321D01*
X103310785Y-184065370D01*
X103317147Y-184069423D01*
X103317179Y-184069372D01*
X103323319Y-184073159D01*
X103323323Y-184073162D01*
X103361977Y-184091186D01*
X103391320Y-184104870D01*
X103394566Y-184106442D01*
X103461562Y-184140089D01*
X103468357Y-184142562D01*
X103468336Y-184142618D01*
X103475457Y-184145094D01*
X103475476Y-184145037D01*
X103482319Y-184147304D01*
X103482327Y-184147308D01*
X103555895Y-184162498D01*
X103559228Y-184163237D01*
X103632279Y-184180551D01*
X103632281Y-184180551D01*
X103632285Y-184180552D01*
X103639453Y-184181390D01*
X103639446Y-184181449D01*
X103646944Y-184182215D01*
X103646950Y-184182156D01*
X103654139Y-184182785D01*
X103654143Y-184182784D01*
X103654144Y-184182785D01*
X103729130Y-184180603D01*
X103732737Y-184180551D01*
X106707821Y-184180551D01*
X106774860Y-184200236D01*
X106795502Y-184216870D01*
X108494103Y-185915471D01*
X110025048Y-187446415D01*
X110058533Y-187507738D01*
X110053549Y-187577430D01*
X110011677Y-187633363D01*
X109948175Y-187657624D01*
X109864596Y-187664936D01*
X109864586Y-187664938D01*
X109636344Y-187726094D01*
X109636335Y-187726098D01*
X109422171Y-187825964D01*
X109422169Y-187825965D01*
X109228597Y-187961505D01*
X109061508Y-188128594D01*
X108931269Y-188314595D01*
X108876692Y-188358219D01*
X108807193Y-188365412D01*
X108744839Y-188333890D01*
X108728119Y-188314594D01*
X108598113Y-188128926D01*
X108598108Y-188128920D01*
X108431082Y-187961894D01*
X108237576Y-187826398D01*
X108060000Y-187743593D01*
X108060000Y-188928111D01*
X108019493Y-188790156D01*
X107941761Y-188669202D01*
X107833100Y-188575048D01*
X107702315Y-188515320D01*
X107595763Y-188500000D01*
X107524237Y-188500000D01*
X107417685Y-188515320D01*
X107286900Y-188575048D01*
X107178239Y-188669202D01*
X107100507Y-188790156D01*
X107060000Y-188928111D01*
X107060000Y-187743593D01*
X107059999Y-187743593D01*
X106882422Y-187826399D01*
X106882420Y-187826400D01*
X106688926Y-187961886D01*
X106688920Y-187961891D01*
X106521891Y-188128920D01*
X106521890Y-188128922D01*
X106391880Y-188314595D01*
X106337303Y-188358219D01*
X106267804Y-188365412D01*
X106205450Y-188333890D01*
X106188730Y-188314594D01*
X106058494Y-188128597D01*
X105891402Y-187961506D01*
X105891395Y-187961501D01*
X105697834Y-187825967D01*
X105697830Y-187825965D01*
X105663955Y-187810169D01*
X105483663Y-187726097D01*
X105483659Y-187726096D01*
X105483655Y-187726094D01*
X105255413Y-187664938D01*
X105255403Y-187664936D01*
X105020001Y-187644341D01*
X105019999Y-187644341D01*
X104784596Y-187664936D01*
X104784586Y-187664938D01*
X104556344Y-187726094D01*
X104556335Y-187726098D01*
X104342171Y-187825964D01*
X104342169Y-187825965D01*
X104148597Y-187961505D01*
X103981508Y-188128594D01*
X103851269Y-188314595D01*
X103796692Y-188358219D01*
X103727193Y-188365412D01*
X103664839Y-188333890D01*
X103648119Y-188314594D01*
X103518113Y-188128926D01*
X103518108Y-188128920D01*
X103351082Y-187961894D01*
X103157576Y-187826398D01*
X102980000Y-187743593D01*
X102980000Y-188928111D01*
X102939493Y-188790156D01*
X102861761Y-188669202D01*
X102753100Y-188575048D01*
X102622315Y-188515320D01*
X102515763Y-188500000D01*
X102444237Y-188500000D01*
X102337685Y-188515320D01*
X102206900Y-188575048D01*
X102098239Y-188669202D01*
X102020507Y-188790156D01*
X101980000Y-188928111D01*
X101980000Y-187743593D01*
X101979999Y-187743593D01*
X101802422Y-187826399D01*
X101802420Y-187826400D01*
X101608926Y-187961886D01*
X101608920Y-187961891D01*
X101441891Y-188128920D01*
X101441890Y-188128922D01*
X101311880Y-188314595D01*
X101257303Y-188358219D01*
X101187804Y-188365412D01*
X101125450Y-188333890D01*
X101108730Y-188314594D01*
X100978494Y-188128597D01*
X100811404Y-187961507D01*
X100743375Y-187913872D01*
X100699751Y-187859294D01*
X100690500Y-187812298D01*
X100690500Y-181761281D01*
X100710185Y-181694242D01*
X100762989Y-181648487D01*
X100832147Y-181638543D01*
X100895703Y-181667568D01*
G37*
%TD.AperFunction*%
%TA.AperFunction,Conductor*%
G36*
X127075479Y-176356086D02*
G01*
X128873231Y-178153838D01*
X128906716Y-178215161D01*
X128909550Y-178241519D01*
X128909550Y-178341375D01*
X128889865Y-178408414D01*
X128837061Y-178454169D01*
X128771667Y-178464595D01*
X128600004Y-178445254D01*
X128599996Y-178445254D01*
X128432058Y-178464175D01*
X128432053Y-178464176D01*
X128273285Y-178519732D01*
X128865871Y-179112318D01*
X128899356Y-179173641D01*
X128894372Y-179243333D01*
X128865871Y-179287680D01*
X128273284Y-179880266D01*
X128282903Y-179922406D01*
X128282903Y-179977592D01*
X128273284Y-180019731D01*
X128865871Y-180612318D01*
X128899356Y-180673641D01*
X128894372Y-180743333D01*
X128865871Y-180787680D01*
X128273285Y-181380266D01*
X128432056Y-181435824D01*
X128599996Y-181454746D01*
X128600003Y-181454746D01*
X128771666Y-181435404D01*
X128840488Y-181447458D01*
X128891868Y-181494807D01*
X128909550Y-181558624D01*
X128909550Y-184838380D01*
X128889865Y-184905419D01*
X128873231Y-184926061D01*
X127836154Y-185963137D01*
X127774831Y-185996622D01*
X127762356Y-185998676D01*
X127620750Y-186014630D01*
X127620745Y-186014631D01*
X127450476Y-186074211D01*
X127297737Y-186170184D01*
X127170184Y-186297737D01*
X127074211Y-186450476D01*
X127014631Y-186620745D01*
X127014630Y-186620750D01*
X126994435Y-186799996D01*
X126994435Y-186800003D01*
X127014630Y-186979249D01*
X127014631Y-186979254D01*
X127074211Y-187149523D01*
X127149776Y-187269783D01*
X127170184Y-187302262D01*
X127297738Y-187429816D01*
X127331306Y-187450908D01*
X127435409Y-187516321D01*
X127450478Y-187525789D01*
X127505680Y-187545105D01*
X127562456Y-187585827D01*
X127588203Y-187650780D01*
X127574747Y-187719341D01*
X127552406Y-187749828D01*
X126902180Y-188400055D01*
X126840857Y-188433540D01*
X126771166Y-188428556D01*
X126715232Y-188386685D01*
X126690815Y-188321220D01*
X126690499Y-188312374D01*
X126690499Y-188102129D01*
X126690498Y-188102123D01*
X126688591Y-188084386D01*
X126684091Y-188042517D01*
X126654019Y-187961891D01*
X126633797Y-187907671D01*
X126633793Y-187907664D01*
X126547547Y-187792455D01*
X126547544Y-187792452D01*
X126432335Y-187706206D01*
X126432328Y-187706202D01*
X126297482Y-187655908D01*
X126297483Y-187655908D01*
X126237883Y-187649501D01*
X126237881Y-187649500D01*
X126237873Y-187649500D01*
X126237865Y-187649500D01*
X125050098Y-187649500D01*
X124983059Y-187629815D01*
X124962417Y-187613181D01*
X123436819Y-186087583D01*
X123403334Y-186026260D01*
X123400500Y-185999902D01*
X123400500Y-181380266D01*
X125273285Y-181380266D01*
X125432056Y-181435824D01*
X125599996Y-181454746D01*
X125600004Y-181454746D01*
X125767943Y-181435824D01*
X125926713Y-181380267D01*
X125926714Y-181380266D01*
X126773285Y-181380266D01*
X126932056Y-181435824D01*
X127099996Y-181454746D01*
X127100004Y-181454746D01*
X127267943Y-181435824D01*
X127426713Y-181380267D01*
X127426714Y-181380266D01*
X127100001Y-181053553D01*
X127100000Y-181053553D01*
X126773285Y-181380266D01*
X125926714Y-181380266D01*
X125600001Y-181053553D01*
X125600000Y-181053553D01*
X125273285Y-181380266D01*
X123400500Y-181380266D01*
X123400500Y-180700003D01*
X124845254Y-180700003D01*
X124864175Y-180867938D01*
X124864176Y-180867943D01*
X124919732Y-181026714D01*
X125213955Y-180732492D01*
X125500000Y-180732492D01*
X125538197Y-180785065D01*
X125584162Y-180800000D01*
X125615838Y-180800000D01*
X125661803Y-180785065D01*
X125700000Y-180732492D01*
X125700000Y-180700001D01*
X125953553Y-180700001D01*
X126280265Y-181026713D01*
X126322405Y-181017095D01*
X126377593Y-181017095D01*
X126419732Y-181026713D01*
X126713955Y-180732492D01*
X127000000Y-180732492D01*
X127038197Y-180785065D01*
X127084162Y-180800000D01*
X127115838Y-180800000D01*
X127161803Y-180785065D01*
X127200000Y-180732492D01*
X127200000Y-180700001D01*
X127453553Y-180700001D01*
X127780265Y-181026713D01*
X127822405Y-181017095D01*
X127877593Y-181017095D01*
X127919732Y-181026713D01*
X128213955Y-180732492D01*
X128500000Y-180732492D01*
X128538197Y-180785065D01*
X128584162Y-180800000D01*
X128615838Y-180800000D01*
X128661803Y-180785065D01*
X128700000Y-180732492D01*
X128700000Y-180667508D01*
X128661803Y-180614935D01*
X128615838Y-180600000D01*
X128584162Y-180600000D01*
X128538197Y-180614935D01*
X128500000Y-180667508D01*
X128500000Y-180732492D01*
X128213955Y-180732492D01*
X128246447Y-180700000D01*
X127919731Y-180373284D01*
X127877592Y-180382903D01*
X127822406Y-180382903D01*
X127780266Y-180373284D01*
X127453553Y-180699999D01*
X127453553Y-180700001D01*
X127200000Y-180700001D01*
X127200000Y-180667508D01*
X127161803Y-180614935D01*
X127115838Y-180600000D01*
X127084162Y-180600000D01*
X127038197Y-180614935D01*
X127000000Y-180667508D01*
X127000000Y-180732492D01*
X126713955Y-180732492D01*
X126746447Y-180700000D01*
X126419731Y-180373284D01*
X126377592Y-180382903D01*
X126322406Y-180382903D01*
X126280266Y-180373284D01*
X125953553Y-180699999D01*
X125953553Y-180700001D01*
X125700000Y-180700001D01*
X125700000Y-180667508D01*
X125661803Y-180614935D01*
X125615838Y-180600000D01*
X125584162Y-180600000D01*
X125538197Y-180614935D01*
X125500000Y-180667508D01*
X125500000Y-180732492D01*
X125213955Y-180732492D01*
X125246447Y-180700000D01*
X124919732Y-180373285D01*
X124864176Y-180532053D01*
X124864175Y-180532058D01*
X124845254Y-180699996D01*
X124845254Y-180700003D01*
X123400500Y-180700003D01*
X123400500Y-180019731D01*
X125273284Y-180019731D01*
X125600000Y-180346447D01*
X125600001Y-180346447D01*
X125926713Y-180019732D01*
X125926713Y-180019731D01*
X126773284Y-180019731D01*
X127100000Y-180346447D01*
X127100001Y-180346447D01*
X127426713Y-180019732D01*
X127417095Y-179977593D01*
X127417095Y-179922405D01*
X127426713Y-179880265D01*
X127100001Y-179553553D01*
X127100000Y-179553553D01*
X126773284Y-179880266D01*
X126782903Y-179922406D01*
X126782903Y-179977592D01*
X126773284Y-180019731D01*
X125926713Y-180019731D01*
X125917095Y-179977593D01*
X125917095Y-179922405D01*
X125926713Y-179880265D01*
X125600001Y-179553553D01*
X125600000Y-179553553D01*
X125273284Y-179880266D01*
X125282903Y-179922406D01*
X125282903Y-179977592D01*
X125273284Y-180019731D01*
X123400500Y-180019731D01*
X123400500Y-179900096D01*
X123420185Y-179833057D01*
X123436814Y-179812420D01*
X124049231Y-179200003D01*
X124845254Y-179200003D01*
X124864175Y-179367938D01*
X124864176Y-179367943D01*
X124919732Y-179526714D01*
X125213955Y-179232492D01*
X125500000Y-179232492D01*
X125538197Y-179285065D01*
X125584162Y-179300000D01*
X125615838Y-179300000D01*
X125661803Y-179285065D01*
X125700000Y-179232492D01*
X125700000Y-179200001D01*
X125953553Y-179200001D01*
X126280265Y-179526713D01*
X126322405Y-179517095D01*
X126377593Y-179517095D01*
X126419732Y-179526713D01*
X126713955Y-179232492D01*
X127000000Y-179232492D01*
X127038197Y-179285065D01*
X127084162Y-179300000D01*
X127115838Y-179300000D01*
X127161803Y-179285065D01*
X127200000Y-179232492D01*
X127200000Y-179200001D01*
X127453553Y-179200001D01*
X127780265Y-179526713D01*
X127822405Y-179517095D01*
X127877593Y-179517095D01*
X127919732Y-179526713D01*
X128213955Y-179232492D01*
X128500000Y-179232492D01*
X128538197Y-179285065D01*
X128584162Y-179300000D01*
X128615838Y-179300000D01*
X128661803Y-179285065D01*
X128700000Y-179232492D01*
X128700000Y-179167508D01*
X128661803Y-179114935D01*
X128615838Y-179100000D01*
X128584162Y-179100000D01*
X128538197Y-179114935D01*
X128500000Y-179167508D01*
X128500000Y-179232492D01*
X128213955Y-179232492D01*
X128246447Y-179200000D01*
X127919731Y-178873284D01*
X127877592Y-178882903D01*
X127822406Y-178882903D01*
X127780266Y-178873284D01*
X127453553Y-179199999D01*
X127453553Y-179200001D01*
X127200000Y-179200001D01*
X127200000Y-179167508D01*
X127161803Y-179114935D01*
X127115838Y-179100000D01*
X127084162Y-179100000D01*
X127038197Y-179114935D01*
X127000000Y-179167508D01*
X127000000Y-179232492D01*
X126713955Y-179232492D01*
X126746447Y-179200000D01*
X126419731Y-178873284D01*
X126377592Y-178882903D01*
X126322406Y-178882903D01*
X126280266Y-178873284D01*
X125953553Y-179199999D01*
X125953553Y-179200001D01*
X125700000Y-179200001D01*
X125700000Y-179167508D01*
X125661803Y-179114935D01*
X125615838Y-179100000D01*
X125584162Y-179100000D01*
X125538197Y-179114935D01*
X125500000Y-179167508D01*
X125500000Y-179232492D01*
X125213955Y-179232492D01*
X125246447Y-179200000D01*
X124919732Y-178873285D01*
X124864176Y-179032053D01*
X124864175Y-179032058D01*
X124845254Y-179199996D01*
X124845254Y-179200003D01*
X124049231Y-179200003D01*
X124729502Y-178519732D01*
X125273285Y-178519732D01*
X125600000Y-178846447D01*
X125600001Y-178846447D01*
X125926714Y-178519732D01*
X126773285Y-178519732D01*
X127100000Y-178846447D01*
X127100001Y-178846447D01*
X127426714Y-178519732D01*
X127267943Y-178464176D01*
X127267938Y-178464175D01*
X127100004Y-178445254D01*
X127099996Y-178445254D01*
X126932058Y-178464175D01*
X126932053Y-178464176D01*
X126773285Y-178519732D01*
X125926714Y-178519732D01*
X125767943Y-178464176D01*
X125767938Y-178464175D01*
X125600004Y-178445254D01*
X125599996Y-178445254D01*
X125432058Y-178464175D01*
X125432053Y-178464176D01*
X125273285Y-178519732D01*
X124729502Y-178519732D01*
X126889397Y-176359836D01*
X126936116Y-176330479D01*
X126946844Y-176326725D01*
X127016620Y-176323163D01*
X127075479Y-176356086D01*
G37*
%TD.AperFunction*%
%TA.AperFunction,Conductor*%
G36*
X84704808Y-166470185D02*
G01*
X84725450Y-166486819D01*
X88603319Y-170364689D01*
X88603349Y-170364717D01*
X93888154Y-175649522D01*
X99153181Y-180914548D01*
X99186666Y-180975871D01*
X99189500Y-181002229D01*
X99189500Y-187812298D01*
X99169815Y-187879337D01*
X99136625Y-187913872D01*
X99068595Y-187961507D01*
X98901505Y-188128597D01*
X98771575Y-188314158D01*
X98716998Y-188357783D01*
X98647500Y-188364977D01*
X98585145Y-188333454D01*
X98568425Y-188314158D01*
X98438494Y-188128597D01*
X98271402Y-187961506D01*
X98271395Y-187961501D01*
X98077834Y-187825967D01*
X98077830Y-187825965D01*
X98043955Y-187810169D01*
X97863663Y-187726097D01*
X97863659Y-187726096D01*
X97863655Y-187726094D01*
X97635413Y-187664938D01*
X97635403Y-187664936D01*
X97400001Y-187644341D01*
X97399999Y-187644341D01*
X97164596Y-187664936D01*
X97164586Y-187664938D01*
X96936344Y-187726094D01*
X96936335Y-187726098D01*
X96722171Y-187825964D01*
X96722169Y-187825965D01*
X96528597Y-187961505D01*
X96361505Y-188128597D01*
X96231575Y-188314158D01*
X96176998Y-188357783D01*
X96107500Y-188364977D01*
X96045145Y-188333454D01*
X96028425Y-188314158D01*
X95898494Y-188128597D01*
X95731402Y-187961506D01*
X95731395Y-187961501D01*
X95537831Y-187825965D01*
X95537826Y-187825962D01*
X95532091Y-187823288D01*
X95479653Y-187777113D01*
X95460500Y-187710908D01*
X95460500Y-178358958D01*
X95461561Y-178342772D01*
X95465682Y-178311470D01*
X95465682Y-178311469D01*
X95445044Y-178154710D01*
X95445042Y-178154705D01*
X95441622Y-178146449D01*
X95384536Y-178008630D01*
X95312450Y-177914686D01*
X95298761Y-177896846D01*
X95288281Y-177883187D01*
X95263229Y-177863965D01*
X95251034Y-177853270D01*
X87006728Y-169608964D01*
X86996033Y-169596769D01*
X86976812Y-169571719D01*
X86954961Y-169554952D01*
X86851370Y-169475464D01*
X86705291Y-169414956D01*
X86705289Y-169414955D01*
X86548530Y-169394318D01*
X86548529Y-169394318D01*
X86517226Y-169398439D01*
X86501042Y-169399500D01*
X86047487Y-169399500D01*
X86031302Y-169398439D01*
X86000000Y-169394318D01*
X85999999Y-169394318D01*
X85843239Y-169414955D01*
X85843237Y-169414956D01*
X85697157Y-169475464D01*
X85571718Y-169571716D01*
X85552489Y-169596775D01*
X85541798Y-169608965D01*
X84687584Y-170463181D01*
X84626261Y-170496666D01*
X84599903Y-170499500D01*
X76361229Y-170499500D01*
X76294190Y-170479815D01*
X76248435Y-170427011D01*
X76238491Y-170357853D01*
X76267516Y-170294297D01*
X76273548Y-170287819D01*
X80074548Y-166486819D01*
X80135871Y-166453334D01*
X80162229Y-166450500D01*
X84637769Y-166450500D01*
X84704808Y-166470185D01*
G37*
%TD.AperFunction*%
%TA.AperFunction,Conductor*%
G36*
X130515753Y-183732122D02*
G01*
X130551592Y-183784881D01*
X130574210Y-183849521D01*
X130619801Y-183922078D01*
X130670184Y-184002262D01*
X130797738Y-184129816D01*
X130941474Y-184220131D01*
X130987763Y-184272463D01*
X130999500Y-184325123D01*
X130999500Y-185683677D01*
X130979815Y-185750716D01*
X130927011Y-185796471D01*
X130889384Y-185806897D01*
X130820750Y-185814630D01*
X130650478Y-185874210D01*
X130497736Y-185970185D01*
X130494903Y-185972445D01*
X130492724Y-185973334D01*
X130491842Y-185973889D01*
X130491744Y-185973734D01*
X130430217Y-185998855D01*
X130417588Y-185999500D01*
X130080468Y-185999500D01*
X130013429Y-185979815D01*
X129967674Y-185927011D01*
X129957730Y-185857853D01*
X129986755Y-185794297D01*
X129992768Y-185787838D01*
X130087797Y-185692808D01*
X130093201Y-185687722D01*
X130138233Y-185647829D01*
X130172408Y-185598316D01*
X130176829Y-185592307D01*
X130213927Y-185544957D01*
X130218079Y-185535728D01*
X130229112Y-185516168D01*
X130229469Y-185515650D01*
X130234868Y-185507830D01*
X130256204Y-185451568D01*
X130259064Y-185444666D01*
X130283743Y-185389834D01*
X130283742Y-185389834D01*
X130283744Y-185389832D01*
X130285570Y-185379865D01*
X130291598Y-185358240D01*
X130295190Y-185348772D01*
X130302439Y-185289069D01*
X130303566Y-185281662D01*
X130314407Y-185222506D01*
X130310776Y-185162477D01*
X130310550Y-185154990D01*
X130310550Y-183825835D01*
X130330235Y-183758796D01*
X130383039Y-183713041D01*
X130452197Y-183703097D01*
X130515753Y-183732122D01*
G37*
%TD.AperFunction*%
%TA.AperFunction,Conductor*%
G36*
X131866942Y-176020185D02*
G01*
X131887584Y-176036819D01*
X132263181Y-176412416D01*
X132296666Y-176473739D01*
X132299500Y-176500097D01*
X132299500Y-183202885D01*
X132279815Y-183269924D01*
X132227011Y-183315679D01*
X132157853Y-183325623D01*
X132094297Y-183296598D01*
X132058459Y-183243840D01*
X132025790Y-183150480D01*
X131929815Y-182997737D01*
X131802262Y-182870184D01*
X131649523Y-182774211D01*
X131479254Y-182714631D01*
X131479249Y-182714630D01*
X131300004Y-182694435D01*
X131299996Y-182694435D01*
X131120750Y-182714630D01*
X131120745Y-182714631D01*
X130950476Y-182774211D01*
X130797737Y-182870184D01*
X130670184Y-182997737D01*
X130574209Y-183150480D01*
X130551591Y-183215119D01*
X130510870Y-183271895D01*
X130445917Y-183297642D01*
X130377355Y-183284186D01*
X130326953Y-183235798D01*
X130310550Y-183174164D01*
X130310550Y-178811708D01*
X130330235Y-178744669D01*
X130383039Y-178698914D01*
X130448434Y-178688488D01*
X130599997Y-178705565D01*
X130600000Y-178705565D01*
X130600004Y-178705565D01*
X130779249Y-178685369D01*
X130779252Y-178685368D01*
X130779255Y-178685368D01*
X130949522Y-178625789D01*
X131102262Y-178529816D01*
X131229816Y-178402262D01*
X131325789Y-178249522D01*
X131385368Y-178079255D01*
X131385432Y-178078687D01*
X131405565Y-177900003D01*
X131405565Y-177899996D01*
X131385369Y-177720750D01*
X131385368Y-177720745D01*
X131325788Y-177550476D01*
X131229815Y-177397737D01*
X131102262Y-177270184D01*
X130949523Y-177174211D01*
X130779254Y-177114631D01*
X130779249Y-177114630D01*
X130600004Y-177094435D01*
X130599996Y-177094435D01*
X130420750Y-177114630D01*
X130420745Y-177114631D01*
X130250474Y-177174212D01*
X130240477Y-177180494D01*
X130174506Y-177199500D01*
X129951569Y-177199500D01*
X129884530Y-177179815D01*
X129863888Y-177163181D01*
X128912888Y-176212181D01*
X128879403Y-176150858D01*
X128884387Y-176081166D01*
X128926259Y-176025233D01*
X128991723Y-176000816D01*
X129000569Y-176000500D01*
X131799903Y-176000500D01*
X131866942Y-176020185D01*
G37*
%TD.AperFunction*%
%TA.AperFunction,Conductor*%
G36*
X83450717Y-175320185D02*
G01*
X83496472Y-175372989D01*
X83506898Y-175410617D01*
X83514630Y-175479249D01*
X83574210Y-175649521D01*
X83634950Y-175746187D01*
X83670184Y-175802262D01*
X83797738Y-175929816D01*
X83950478Y-176025789D01*
X84120745Y-176085368D01*
X84189384Y-176093101D01*
X84253796Y-176120166D01*
X84293352Y-176177760D01*
X84299500Y-176216321D01*
X84299500Y-178023229D01*
X84279815Y-178090268D01*
X84227011Y-178136023D01*
X84189384Y-178146449D01*
X84032057Y-178164175D01*
X84032053Y-178164176D01*
X83873285Y-178219732D01*
X84263181Y-178609628D01*
X84296666Y-178670951D01*
X84299500Y-178697309D01*
X84299500Y-178866819D01*
X84261803Y-178814935D01*
X84215838Y-178800000D01*
X84184162Y-178800000D01*
X84138197Y-178814935D01*
X84100000Y-178867508D01*
X84100000Y-178932492D01*
X84138197Y-178985065D01*
X84184162Y-179000000D01*
X84215838Y-179000000D01*
X84261803Y-178985065D01*
X84299500Y-178933180D01*
X84299500Y-179102690D01*
X84279815Y-179169729D01*
X84263181Y-179190371D01*
X83873284Y-179580266D01*
X83882903Y-179622406D01*
X83882903Y-179677592D01*
X83873284Y-179719731D01*
X84263181Y-180109628D01*
X84296666Y-180170951D01*
X84299500Y-180197309D01*
X84299500Y-180366819D01*
X84261803Y-180314935D01*
X84215838Y-180300000D01*
X84184162Y-180300000D01*
X84138197Y-180314935D01*
X84100000Y-180367508D01*
X84100000Y-180432492D01*
X84138197Y-180485065D01*
X84184162Y-180500000D01*
X84215838Y-180500000D01*
X84261803Y-180485065D01*
X84299500Y-180433180D01*
X84299500Y-180504557D01*
X84279815Y-180571596D01*
X84227011Y-180617351D01*
X84157853Y-180627295D01*
X84094297Y-180598270D01*
X84087819Y-180592238D01*
X84054545Y-180558964D01*
X84043850Y-180546769D01*
X84024628Y-180521718D01*
X83899187Y-180425464D01*
X83899186Y-180425463D01*
X83875405Y-180415612D01*
X83835181Y-180388734D01*
X83519731Y-180073284D01*
X83477592Y-180082903D01*
X83422406Y-180082903D01*
X83380267Y-180073285D01*
X83140373Y-180313181D01*
X83079050Y-180346666D01*
X83052691Y-180349500D01*
X82786916Y-180349500D01*
X82761803Y-180314935D01*
X82715838Y-180300000D01*
X82684162Y-180300000D01*
X82638197Y-180314935D01*
X82613084Y-180349500D01*
X82347309Y-180349500D01*
X82280270Y-180329815D01*
X82259628Y-180313181D01*
X82019731Y-180073284D01*
X81977592Y-180082903D01*
X81922406Y-180082903D01*
X81880267Y-180073285D01*
X81640373Y-180313181D01*
X81579050Y-180346666D01*
X81552691Y-180349500D01*
X81374500Y-180349500D01*
X81307461Y-180329815D01*
X81261706Y-180277011D01*
X81250500Y-180225500D01*
X81250500Y-180047308D01*
X81270185Y-179980269D01*
X81286819Y-179959627D01*
X81526713Y-179719732D01*
X81526713Y-179719731D01*
X82373284Y-179719731D01*
X82700000Y-180046447D01*
X82700001Y-180046447D01*
X83026713Y-179719732D01*
X83017095Y-179677593D01*
X83017095Y-179622405D01*
X83026713Y-179580265D01*
X82700001Y-179253553D01*
X82700000Y-179253553D01*
X82373284Y-179580266D01*
X82382903Y-179622406D01*
X82382903Y-179677592D01*
X82373284Y-179719731D01*
X81526713Y-179719731D01*
X81517095Y-179677593D01*
X81517095Y-179622405D01*
X81526713Y-179580265D01*
X81286819Y-179340371D01*
X81253334Y-179279048D01*
X81250500Y-179252690D01*
X81250500Y-178988737D01*
X81261803Y-178985065D01*
X81300000Y-178932492D01*
X81300000Y-178900001D01*
X81553553Y-178900001D01*
X81880265Y-179226713D01*
X81922405Y-179217095D01*
X81977593Y-179217095D01*
X82019732Y-179226713D01*
X82313955Y-178932492D01*
X82600000Y-178932492D01*
X82638197Y-178985065D01*
X82684162Y-179000000D01*
X82715838Y-179000000D01*
X82761803Y-178985065D01*
X82800000Y-178932492D01*
X82800000Y-178900001D01*
X83053553Y-178900001D01*
X83380265Y-179226713D01*
X83422405Y-179217095D01*
X83477593Y-179217095D01*
X83519732Y-179226713D01*
X83846447Y-178900000D01*
X83519731Y-178573284D01*
X83477592Y-178582903D01*
X83422406Y-178582903D01*
X83380266Y-178573284D01*
X83053553Y-178899999D01*
X83053553Y-178900001D01*
X82800000Y-178900001D01*
X82800000Y-178867508D01*
X82761803Y-178814935D01*
X82715838Y-178800000D01*
X82684162Y-178800000D01*
X82638197Y-178814935D01*
X82600000Y-178867508D01*
X82600000Y-178932492D01*
X82313955Y-178932492D01*
X82346447Y-178900000D01*
X82019731Y-178573284D01*
X81977592Y-178582903D01*
X81922406Y-178582903D01*
X81880266Y-178573284D01*
X81553553Y-178899999D01*
X81553553Y-178900001D01*
X81300000Y-178900001D01*
X81300000Y-178867508D01*
X81261803Y-178814935D01*
X81250500Y-178811262D01*
X81250500Y-178547308D01*
X81270185Y-178480269D01*
X81286819Y-178459627D01*
X81526714Y-178219732D01*
X82373285Y-178219732D01*
X82700000Y-178546447D01*
X82700001Y-178546447D01*
X83026714Y-178219732D01*
X82867943Y-178164176D01*
X82867938Y-178164175D01*
X82700004Y-178145254D01*
X82699996Y-178145254D01*
X82532058Y-178164175D01*
X82532053Y-178164176D01*
X82373285Y-178219732D01*
X81526714Y-178219732D01*
X81367945Y-178164177D01*
X81360614Y-178163351D01*
X81296200Y-178136283D01*
X81256647Y-178078687D01*
X81250500Y-178040131D01*
X81250500Y-176183412D01*
X81270185Y-176116373D01*
X81322989Y-176070618D01*
X81333531Y-176066375D01*
X81449522Y-176025789D01*
X81602262Y-175929816D01*
X81729816Y-175802262D01*
X81825789Y-175649522D01*
X81885368Y-175479255D01*
X81893102Y-175410617D01*
X81920168Y-175346203D01*
X81977763Y-175306648D01*
X82016322Y-175300500D01*
X83383678Y-175300500D01*
X83450717Y-175320185D01*
G37*
%TD.AperFunction*%
%TD*%
M02*
